G04*
G04 #@! TF.GenerationSoftware,Altium Limited,Altium Designer,24.9.1 (31)*
G04*
G04 Layer_Color=128*
%FSLAX25Y25*%
%MOIN*%
G70*
G04*
G04 #@! TF.SameCoordinates,65E441D1-A48C-4218-98E1-AC23B9FD057C*
G04*
G04*
G04 #@! TF.FilePolarity,Positive*
G04*
G01*
G75*
%ADD13C,0.00500*%
D13*
X156843Y286618D02*
X157630D01*
X157236Y286224D02*
Y287012D01*
X154169Y286618D02*
X154957D01*
X154563Y286224D02*
Y287012D01*
X150035Y280398D02*
X150823D01*
X150429Y280004D02*
Y280791D01*
X150035Y284335D02*
X150823D01*
X150429Y283941D02*
Y284728D01*
X150035Y288272D02*
X150823D01*
X150429Y287878D02*
Y288665D01*
X150035Y292209D02*
X150823D01*
X150429Y291815D02*
Y292602D01*
X150035Y296146D02*
X150823D01*
X150429Y295752D02*
Y296539D01*
X156846Y291342D02*
X157634D01*
X157240Y290949D02*
Y291736D01*
X156846Y293311D02*
X157634D01*
X157240Y292917D02*
Y293705D01*
X156846Y295280D02*
X157634D01*
X157240Y294886D02*
Y295673D01*
X153106Y291500D02*
X153894D01*
X153500Y291106D02*
Y291894D01*
X153106Y294728D02*
X153894D01*
X153500Y294335D02*
Y295122D01*
X143228Y286618D02*
X144016D01*
X143622Y286224D02*
Y287012D01*
X145902Y286618D02*
X146689D01*
X146295Y286224D02*
Y287012D01*
X143224Y291342D02*
X144012D01*
X143618Y290949D02*
Y291736D01*
X143224Y293311D02*
X144012D01*
X143618Y292917D02*
Y293705D01*
X143224Y295280D02*
X144012D01*
X143618Y294886D02*
Y295673D01*
X146965Y291500D02*
X147752D01*
X147358Y291106D02*
Y291894D01*
X146965Y294728D02*
X147752D01*
X147358Y294335D02*
Y295122D01*
X121913Y287941D02*
X122701D01*
X122307Y287547D02*
Y288335D01*
X119240Y287941D02*
X120028D01*
X119634Y287547D02*
Y288335D01*
X115106Y281720D02*
X115894D01*
X115500Y281327D02*
Y282114D01*
X115106Y285658D02*
X115894D01*
X115500Y285264D02*
Y286051D01*
X115106Y289595D02*
X115894D01*
X115500Y289201D02*
Y289988D01*
X115106Y293531D02*
X115894D01*
X115500Y293138D02*
Y293925D01*
X115106Y297468D02*
X115894D01*
X115500Y297075D02*
Y297862D01*
X121917Y292665D02*
X122705D01*
X122311Y292272D02*
Y293059D01*
X121917Y294634D02*
X122705D01*
X122311Y294240D02*
Y295028D01*
X121917Y296602D02*
X122705D01*
X122311Y296209D02*
Y296996D01*
X118177Y292823D02*
X118965D01*
X118571Y292429D02*
Y293216D01*
X118177Y296051D02*
X118965D01*
X118571Y295657D02*
Y296445D01*
X108299Y287941D02*
X109087D01*
X108693Y287547D02*
Y288335D01*
X110972Y287941D02*
X111760D01*
X111366Y287547D02*
Y288335D01*
X108295Y292665D02*
X109083D01*
X108689Y292272D02*
Y293059D01*
X108295Y294634D02*
X109083D01*
X108689Y294240D02*
Y295028D01*
X108295Y296602D02*
X109083D01*
X108689Y296209D02*
Y296996D01*
X112035Y292823D02*
X112823D01*
X112429Y292429D02*
Y293216D01*
X112035Y296051D02*
X112823D01*
X112429Y295657D02*
Y296445D01*
X142508Y199094D02*
X143295D01*
X142902Y198701D02*
Y199488D01*
X136996Y199094D02*
X137784D01*
X137390Y198701D02*
Y199488D01*
X145264Y201850D02*
X146051D01*
X145657Y201457D02*
Y202244D01*
X139752Y201850D02*
X140539D01*
X140146Y201457D02*
Y202244D01*
X134240Y201850D02*
X135028D01*
X134634Y201457D02*
Y202244D01*
X142508Y204606D02*
X143295D01*
X142902Y204213D02*
Y205000D01*
X136996Y204606D02*
X137784D01*
X137390Y204213D02*
Y205000D01*
X145264Y207362D02*
X146051D01*
X145657Y206968D02*
Y207756D01*
X139752Y207362D02*
X140539D01*
X140146Y206968D02*
Y207756D01*
X134240Y207362D02*
X135028D01*
X134634Y206968D02*
Y207756D01*
X142508Y210118D02*
X143295D01*
X142902Y209724D02*
Y210512D01*
X136996Y210118D02*
X137784D01*
X137390Y209724D02*
Y210512D01*
X179992Y279000D02*
X184008D01*
X182000Y276992D02*
Y281008D01*
X179992Y289000D02*
X184008D01*
X182000Y286992D02*
Y291008D01*
X173500Y150500D02*
X174500D01*
X174000Y150000D02*
Y151000D01*
X176272Y139622D02*
X177272D01*
X176772Y139122D02*
Y140122D01*
X169500Y139622D02*
X170500D01*
X170000Y139122D02*
Y140122D01*
X169500Y147496D02*
X170500D01*
X170000Y146996D02*
Y147996D01*
X177000Y130500D02*
X178000D01*
X177500Y130000D02*
Y131000D01*
X169500Y131748D02*
X170500D01*
X170000Y131248D02*
Y132248D01*
X167740Y136000D02*
X168740D01*
X168240Y135500D02*
Y136500D01*
X189493Y123937D02*
X190493D01*
X189993Y123437D02*
Y124437D01*
X154500Y297500D02*
X155500D01*
X155000Y297000D02*
Y298000D01*
X154000Y277500D02*
X155000D01*
X154500Y277000D02*
Y278000D01*
X157000Y110750D02*
X158000D01*
X157500Y110250D02*
Y111250D01*
X157260Y117168D02*
X158260D01*
X157760Y116668D02*
Y117668D01*
X157000Y123417D02*
X158000D01*
X157500Y122917D02*
Y123917D01*
X108400Y127500D02*
X109400D01*
X108900Y127000D02*
Y128000D01*
X134500Y280000D02*
X135500D01*
X135000Y279500D02*
Y280500D01*
X107100Y280071D02*
X108100D01*
X107600Y279571D02*
Y280571D01*
X122500Y280000D02*
X123500D01*
X123000Y279500D02*
Y280500D01*
X117500Y232500D02*
X118500D01*
X118000Y232000D02*
Y233000D01*
X153691Y223500D02*
X156491D01*
X155091Y222100D02*
Y224900D01*
X186000Y200000D02*
X187000D01*
X186500Y199500D02*
Y200500D01*
X128600Y223500D02*
X131400D01*
X130000Y222100D02*
Y224900D01*
X135655Y118558D02*
X136655D01*
X136155Y118058D02*
Y119058D01*
X135982Y128453D02*
X136982D01*
X136482Y127953D02*
Y128953D01*
X119000Y185500D02*
X120000D01*
X119500Y185000D02*
Y186000D01*
X124000Y100000D02*
X125000D01*
X124500Y99500D02*
Y100500D01*
X153000Y173500D02*
X154000D01*
X153500Y173000D02*
Y174000D01*
X157000Y155500D02*
X158000D01*
X157500Y155000D02*
Y156000D01*
X157000Y136250D02*
X158000D01*
X157500Y135750D02*
Y136750D01*
X157000Y142667D02*
X158000D01*
X157500Y142167D02*
Y143167D01*
X168000Y155500D02*
X169000D01*
X168500Y155000D02*
Y156000D01*
X164500Y181000D02*
X165500D01*
X165000Y180500D02*
Y181500D01*
X135500Y132500D02*
X136500D01*
X136000Y132000D02*
Y133000D01*
X138500Y138226D02*
X139500D01*
X139000Y137726D02*
Y138726D01*
X164000Y229000D02*
X165000D01*
X164500Y228500D02*
Y229500D01*
X189493Y116000D02*
X190493D01*
X189993Y115500D02*
Y116500D01*
X157000Y129833D02*
X158000D01*
X157500Y129333D02*
Y130333D01*
X168000Y232500D02*
X169000D01*
X168500Y232000D02*
Y233000D01*
X186000Y230000D02*
X187000D01*
X186500Y229500D02*
Y230500D01*
X194000Y190194D02*
X195000D01*
X194500Y189694D02*
Y190694D01*
X186000Y195000D02*
X187000D01*
X186500Y194500D02*
Y195500D01*
X168601Y151500D02*
X169601D01*
X169101Y151000D02*
Y152000D01*
X157000Y149083D02*
X158000D01*
X157500Y148583D02*
Y149583D01*
X135500Y112500D02*
X136500D01*
X136000Y112000D02*
Y113000D01*
X135500Y122500D02*
X136500D01*
X136000Y122000D02*
Y123000D01*
X135500Y142500D02*
X136500D01*
X136000Y142000D02*
Y143000D01*
X135500Y147500D02*
X136500D01*
X136000Y147000D02*
Y148000D01*
X176750Y306500D02*
X191250D01*
X184000Y299250D02*
Y313750D01*
M02*
