G04*
G04 #@! TF.GenerationSoftware,Altium Limited,Altium Designer,24.9.1 (31)*
G04*
G04 Layer_Color=32896*
%FSLAX25Y25*%
%MOIN*%
G70*
G04*
G04 #@! TF.SameCoordinates,F3BC3392-02DA-4331-AFF2-193CA699B933*
G04*
G04*
G04 #@! TF.FilePolarity,Positive*
G04*
G01*
G75*
%ADD10C,0.00787*%
%ADD12C,0.00984*%
%ADD13C,0.00500*%
%ADD66C,0.01000*%
%ADD87C,0.01575*%
G36*
X187300Y122000D02*
X186789D01*
Y123704D01*
X186135D01*
X186074Y123698D01*
X186029D01*
X185990Y123693D01*
X185962Y123687D01*
X185940D01*
X185929Y123682D01*
X185924D01*
X185835Y123654D01*
X185796Y123637D01*
X185763Y123621D01*
X185729Y123604D01*
X185707Y123593D01*
X185696Y123587D01*
X185690Y123582D01*
X185646Y123548D01*
X185602Y123510D01*
X185519Y123426D01*
X185480Y123388D01*
X185452Y123354D01*
X185435Y123332D01*
X185430Y123326D01*
X185374Y123249D01*
X185313Y123166D01*
X185252Y123077D01*
X185191Y122994D01*
X185141Y122916D01*
X185102Y122855D01*
X185085Y122833D01*
X185074Y122816D01*
X185063Y122805D01*
Y122799D01*
X184558Y122000D01*
X183926D01*
X184586Y123043D01*
X184664Y123154D01*
X184736Y123254D01*
X184808Y123338D01*
X184869Y123415D01*
X184925Y123471D01*
X184969Y123515D01*
X184997Y123543D01*
X185008Y123554D01*
X185052Y123587D01*
X185102Y123626D01*
X185202Y123687D01*
X185247Y123709D01*
X185280Y123732D01*
X185302Y123743D01*
X185313Y123748D01*
X185213Y123765D01*
X185119Y123782D01*
X185036Y123809D01*
X184952Y123831D01*
X184880Y123859D01*
X184814Y123893D01*
X184753Y123920D01*
X184697Y123948D01*
X184653Y123981D01*
X184608Y124009D01*
X184575Y124031D01*
X184547Y124054D01*
X184525Y124070D01*
X184508Y124087D01*
X184503Y124092D01*
X184497Y124098D01*
X184453Y124153D01*
X184408Y124209D01*
X184342Y124326D01*
X184298Y124442D01*
X184264Y124553D01*
X184242Y124647D01*
X184236Y124686D01*
Y124725D01*
X184231Y124753D01*
Y124775D01*
Y124786D01*
Y124792D01*
X184236Y124908D01*
X184253Y125014D01*
X184281Y125114D01*
X184309Y125197D01*
X184342Y125269D01*
X184364Y125324D01*
X184386Y125358D01*
X184392Y125363D01*
Y125369D01*
X184458Y125458D01*
X184525Y125535D01*
X184597Y125602D01*
X184664Y125652D01*
X184725Y125691D01*
X184775Y125713D01*
X184808Y125730D01*
X184814Y125735D01*
X184819D01*
X184869Y125752D01*
X184930Y125768D01*
X185052Y125796D01*
X185185Y125813D01*
X185308Y125830D01*
X185424Y125835D01*
X185474D01*
X185519Y125841D01*
X187300D01*
Y122000D01*
D02*
G37*
G36*
X182466Y125852D02*
X182555Y125846D01*
X182710Y125813D01*
X182782Y125791D01*
X182849Y125768D01*
X182910Y125741D01*
X182966Y125713D01*
X183010Y125685D01*
X183054Y125657D01*
X183093Y125635D01*
X183121Y125613D01*
X183143Y125596D01*
X183160Y125580D01*
X183171Y125574D01*
X183176Y125569D01*
X183226Y125513D01*
X183276Y125458D01*
X183315Y125397D01*
X183348Y125336D01*
X183404Y125219D01*
X183437Y125108D01*
X183459Y125014D01*
X183465Y124969D01*
X183470Y124936D01*
X183476Y124903D01*
Y124880D01*
Y124869D01*
Y124864D01*
X183470Y124764D01*
X183454Y124670D01*
X183432Y124586D01*
X183404Y124514D01*
X183382Y124459D01*
X183360Y124414D01*
X183343Y124392D01*
X183337Y124381D01*
X183276Y124314D01*
X183210Y124253D01*
X183138Y124198D01*
X183065Y124153D01*
X182999Y124120D01*
X182949Y124098D01*
X182927Y124087D01*
X182910Y124081D01*
X182904Y124076D01*
X182899D01*
X183027Y124037D01*
X183132Y123987D01*
X183226Y123926D01*
X183304Y123870D01*
X183365Y123815D01*
X183409Y123770D01*
X183432Y123743D01*
X183443Y123737D01*
Y123732D01*
X183504Y123632D01*
X183554Y123526D01*
X183587Y123426D01*
X183609Y123326D01*
X183620Y123238D01*
X183626Y123199D01*
Y123166D01*
X183631Y123143D01*
Y123121D01*
Y123110D01*
Y123104D01*
X183626Y123016D01*
X183615Y122927D01*
X183598Y122844D01*
X183576Y122760D01*
X183520Y122622D01*
X183493Y122555D01*
X183459Y122500D01*
X183426Y122444D01*
X183398Y122400D01*
X183365Y122361D01*
X183343Y122327D01*
X183321Y122300D01*
X183304Y122283D01*
X183293Y122272D01*
X183287Y122266D01*
X183221Y122205D01*
X183149Y122155D01*
X183071Y122111D01*
X182993Y122072D01*
X182921Y122044D01*
X182843Y122017D01*
X182694Y121978D01*
X182627Y121961D01*
X182566Y121950D01*
X182510Y121944D01*
X182460Y121939D01*
X182422Y121933D01*
X182366D01*
X182261Y121939D01*
X182166Y121950D01*
X182072Y121967D01*
X181983Y121983D01*
X181905Y122011D01*
X181828Y122039D01*
X181755Y122067D01*
X181694Y122100D01*
X181639Y122133D01*
X181589Y122161D01*
X181550Y122189D01*
X181511Y122216D01*
X181484Y122233D01*
X181467Y122250D01*
X181456Y122261D01*
X181450Y122266D01*
X181389Y122333D01*
X181334Y122400D01*
X181289Y122466D01*
X181251Y122538D01*
X181212Y122605D01*
X181184Y122677D01*
X181145Y122805D01*
X181128Y122866D01*
X181117Y122921D01*
X181112Y122971D01*
X181106Y123010D01*
X181101Y123043D01*
Y123071D01*
Y123088D01*
Y123093D01*
X181106Y123221D01*
X181128Y123338D01*
X181162Y123443D01*
X181195Y123532D01*
X181228Y123604D01*
X181262Y123659D01*
X181284Y123693D01*
X181289Y123698D01*
Y123704D01*
X181367Y123793D01*
X181450Y123870D01*
X181539Y123931D01*
X181622Y123987D01*
X181700Y124026D01*
X181767Y124054D01*
X181789Y124065D01*
X181806Y124070D01*
X181817Y124076D01*
X181822D01*
X181722Y124120D01*
X181639Y124170D01*
X181567Y124220D01*
X181506Y124270D01*
X181461Y124314D01*
X181428Y124348D01*
X181406Y124370D01*
X181400Y124381D01*
X181350Y124459D01*
X181317Y124536D01*
X181289Y124614D01*
X181273Y124692D01*
X181262Y124753D01*
X181256Y124803D01*
Y124836D01*
Y124842D01*
Y124847D01*
X181262Y124925D01*
X181267Y124997D01*
X181306Y125136D01*
X181356Y125258D01*
X181411Y125363D01*
X181467Y125447D01*
X181495Y125480D01*
X181517Y125513D01*
X181539Y125535D01*
X181556Y125552D01*
X181561Y125557D01*
X181567Y125563D01*
X181628Y125613D01*
X181689Y125663D01*
X181755Y125702D01*
X181822Y125735D01*
X181955Y125785D01*
X182089Y125818D01*
X182144Y125835D01*
X182200Y125841D01*
X182249Y125846D01*
X182294Y125852D01*
X182327Y125857D01*
X182377D01*
X182466Y125852D01*
D02*
G37*
G36*
X109429Y217560D02*
X107725D01*
Y216905D01*
X107730Y216844D01*
Y216799D01*
X107736Y216761D01*
X107741Y216733D01*
Y216711D01*
X107747Y216700D01*
Y216694D01*
X107775Y216605D01*
X107791Y216566D01*
X107808Y216533D01*
X107825Y216500D01*
X107836Y216478D01*
X107841Y216466D01*
X107847Y216461D01*
X107880Y216417D01*
X107919Y216372D01*
X108002Y216289D01*
X108041Y216250D01*
X108074Y216222D01*
X108097Y216206D01*
X108102Y216200D01*
X108180Y216145D01*
X108263Y216084D01*
X108352Y216022D01*
X108435Y215961D01*
X108513Y215912D01*
X108574Y215873D01*
X108596Y215856D01*
X108613Y215845D01*
X108624Y215834D01*
X108629D01*
X109429Y215329D01*
Y214696D01*
X108385Y215356D01*
X108274Y215434D01*
X108174Y215506D01*
X108091Y215579D01*
X108013Y215639D01*
X107958Y215695D01*
X107913Y215739D01*
X107886Y215767D01*
X107875Y215778D01*
X107841Y215823D01*
X107802Y215873D01*
X107741Y215972D01*
X107719Y216017D01*
X107697Y216050D01*
X107686Y216072D01*
X107680Y216084D01*
X107664Y215984D01*
X107647Y215889D01*
X107619Y215806D01*
X107597Y215723D01*
X107569Y215651D01*
X107536Y215584D01*
X107508Y215523D01*
X107481Y215468D01*
X107447Y215423D01*
X107420Y215379D01*
X107397Y215345D01*
X107375Y215318D01*
X107359Y215295D01*
X107342Y215279D01*
X107336Y215273D01*
X107331Y215268D01*
X107275Y215223D01*
X107220Y215179D01*
X107103Y215112D01*
X106987Y215068D01*
X106876Y215035D01*
X106781Y215012D01*
X106742Y215007D01*
X106704D01*
X106676Y215001D01*
X106654D01*
X106642D01*
X106637D01*
X106520Y215007D01*
X106415Y215023D01*
X106315Y215051D01*
X106232Y215079D01*
X106160Y215112D01*
X106104Y215135D01*
X106071Y215157D01*
X106065Y215162D01*
X106060D01*
X105971Y215229D01*
X105893Y215295D01*
X105827Y215368D01*
X105777Y215434D01*
X105738Y215495D01*
X105716Y215545D01*
X105699Y215579D01*
X105693Y215584D01*
Y215590D01*
X105677Y215639D01*
X105660Y215701D01*
X105632Y215823D01*
X105616Y215956D01*
X105599Y216078D01*
X105594Y216195D01*
Y216245D01*
X105588Y216289D01*
Y218070D01*
X109429D01*
Y217560D01*
D02*
G37*
G36*
Y211915D02*
X108974D01*
Y213808D01*
X108879Y213741D01*
X108840Y213708D01*
X108801Y213680D01*
X108768Y213653D01*
X108746Y213630D01*
X108729Y213614D01*
X108724Y213608D01*
X108696Y213580D01*
X108668Y213547D01*
X108596Y213470D01*
X108513Y213381D01*
X108430Y213286D01*
X108358Y213197D01*
X108324Y213159D01*
X108291Y213125D01*
X108269Y213098D01*
X108252Y213075D01*
X108241Y213064D01*
X108235Y213059D01*
X108158Y212970D01*
X108086Y212881D01*
X108013Y212804D01*
X107952Y212731D01*
X107891Y212665D01*
X107836Y212609D01*
X107786Y212554D01*
X107741Y212509D01*
X107697Y212465D01*
X107664Y212432D01*
X107636Y212404D01*
X107608Y212376D01*
X107575Y212348D01*
X107564Y212337D01*
X107469Y212260D01*
X107386Y212193D01*
X107303Y212138D01*
X107236Y212093D01*
X107175Y212060D01*
X107131Y212038D01*
X107103Y212027D01*
X107092Y212021D01*
X107009Y211988D01*
X106926Y211965D01*
X106848Y211943D01*
X106781Y211932D01*
X106720Y211927D01*
X106676Y211921D01*
X106648D01*
X106637D01*
X106554Y211927D01*
X106476Y211938D01*
X106398Y211949D01*
X106332Y211971D01*
X106199Y212027D01*
X106093Y212082D01*
X106043Y212115D01*
X106004Y212143D01*
X105965Y212171D01*
X105938Y212198D01*
X105915Y212221D01*
X105893Y212232D01*
X105888Y212243D01*
X105882Y212248D01*
X105827Y212310D01*
X105777Y212376D01*
X105738Y212448D01*
X105705Y212520D01*
X105649Y212665D01*
X105610Y212809D01*
X105599Y212870D01*
X105588Y212931D01*
X105582Y212987D01*
X105577Y213031D01*
X105571Y213070D01*
Y213125D01*
X105577Y213225D01*
X105582Y213320D01*
X105599Y213408D01*
X105616Y213492D01*
X105638Y213569D01*
X105660Y213642D01*
X105688Y213708D01*
X105716Y213769D01*
X105743Y213825D01*
X105771Y213869D01*
X105793Y213908D01*
X105816Y213941D01*
X105832Y213969D01*
X105849Y213986D01*
X105854Y213997D01*
X105860Y214002D01*
X105915Y214058D01*
X105976Y214108D01*
X106043Y214158D01*
X106110Y214196D01*
X106243Y214263D01*
X106376Y214307D01*
X106437Y214324D01*
X106498Y214341D01*
X106548Y214352D01*
X106593Y214363D01*
X106631Y214369D01*
X106659D01*
X106676Y214374D01*
X106681D01*
X106731Y213891D01*
X106604Y213880D01*
X106493Y213858D01*
X106393Y213825D01*
X106315Y213786D01*
X106248Y213753D01*
X106204Y213719D01*
X106176Y213697D01*
X106165Y213686D01*
X106099Y213603D01*
X106049Y213514D01*
X106010Y213420D01*
X105988Y213336D01*
X105971Y213259D01*
X105965Y213192D01*
X105960Y213170D01*
Y213137D01*
X105965Y213020D01*
X105988Y212914D01*
X106021Y212826D01*
X106054Y212748D01*
X106093Y212687D01*
X106121Y212648D01*
X106143Y212620D01*
X106154Y212609D01*
X106232Y212543D01*
X106309Y212493D01*
X106387Y212454D01*
X106465Y212432D01*
X106526Y212415D01*
X106581Y212409D01*
X106615Y212404D01*
X106620D01*
X106626D01*
X106726Y212415D01*
X106831Y212437D01*
X106926Y212476D01*
X107014Y212515D01*
X107087Y212559D01*
X107148Y212598D01*
X107170Y212609D01*
X107186Y212620D01*
X107192Y212631D01*
X107197D01*
X107259Y212676D01*
X107320Y212731D01*
X107386Y212792D01*
X107453Y212859D01*
X107586Y212998D01*
X107719Y213137D01*
X107780Y213209D01*
X107836Y213270D01*
X107886Y213331D01*
X107930Y213381D01*
X107963Y213420D01*
X107991Y213453D01*
X108008Y213475D01*
X108013Y213481D01*
X108130Y213619D01*
X108241Y213747D01*
X108341Y213852D01*
X108424Y213936D01*
X108496Y214008D01*
X108546Y214058D01*
X108580Y214086D01*
X108585Y214097D01*
X108591D01*
X108685Y214174D01*
X108774Y214235D01*
X108862Y214291D01*
X108940Y214335D01*
X109007Y214369D01*
X109057Y214391D01*
X109090Y214402D01*
X109096Y214407D01*
X109101D01*
X109162Y214430D01*
X109218Y214441D01*
X109273Y214452D01*
X109323Y214457D01*
X109368Y214463D01*
X109401D01*
X109423D01*
X109429D01*
Y211915D01*
D02*
G37*
G36*
Y208930D02*
X108974D01*
Y210822D01*
X108879Y210755D01*
X108840Y210722D01*
X108801Y210695D01*
X108768Y210667D01*
X108746Y210645D01*
X108729Y210628D01*
X108724Y210622D01*
X108696Y210595D01*
X108668Y210561D01*
X108596Y210484D01*
X108513Y210395D01*
X108430Y210300D01*
X108358Y210212D01*
X108324Y210173D01*
X108291Y210139D01*
X108269Y210112D01*
X108252Y210089D01*
X108241Y210078D01*
X108235Y210073D01*
X108158Y209984D01*
X108086Y209895D01*
X108013Y209818D01*
X107952Y209745D01*
X107891Y209679D01*
X107836Y209623D01*
X107786Y209568D01*
X107741Y209523D01*
X107697Y209479D01*
X107664Y209446D01*
X107636Y209418D01*
X107608Y209390D01*
X107575Y209363D01*
X107564Y209351D01*
X107469Y209274D01*
X107386Y209207D01*
X107303Y209152D01*
X107236Y209107D01*
X107175Y209074D01*
X107131Y209052D01*
X107103Y209041D01*
X107092Y209035D01*
X107009Y209002D01*
X106926Y208980D01*
X106848Y208957D01*
X106781Y208946D01*
X106720Y208941D01*
X106676Y208935D01*
X106648D01*
X106637D01*
X106554Y208941D01*
X106476Y208952D01*
X106398Y208963D01*
X106332Y208985D01*
X106199Y209041D01*
X106093Y209096D01*
X106043Y209129D01*
X106004Y209157D01*
X105965Y209185D01*
X105938Y209213D01*
X105915Y209235D01*
X105893Y209246D01*
X105888Y209257D01*
X105882Y209263D01*
X105827Y209324D01*
X105777Y209390D01*
X105738Y209462D01*
X105705Y209535D01*
X105649Y209679D01*
X105610Y209823D01*
X105599Y209884D01*
X105588Y209945D01*
X105582Y210001D01*
X105577Y210045D01*
X105571Y210084D01*
Y210139D01*
X105577Y210239D01*
X105582Y210334D01*
X105599Y210422D01*
X105616Y210506D01*
X105638Y210583D01*
X105660Y210656D01*
X105688Y210722D01*
X105716Y210783D01*
X105743Y210839D01*
X105771Y210883D01*
X105793Y210922D01*
X105816Y210955D01*
X105832Y210983D01*
X105849Y211000D01*
X105854Y211011D01*
X105860Y211016D01*
X105915Y211072D01*
X105976Y211122D01*
X106043Y211172D01*
X106110Y211211D01*
X106243Y211277D01*
X106376Y211322D01*
X106437Y211338D01*
X106498Y211355D01*
X106548Y211366D01*
X106593Y211377D01*
X106631Y211383D01*
X106659D01*
X106676Y211388D01*
X106681D01*
X106731Y210905D01*
X106604Y210894D01*
X106493Y210872D01*
X106393Y210839D01*
X106315Y210800D01*
X106248Y210767D01*
X106204Y210733D01*
X106176Y210711D01*
X106165Y210700D01*
X106099Y210617D01*
X106049Y210528D01*
X106010Y210434D01*
X105988Y210350D01*
X105971Y210273D01*
X105965Y210206D01*
X105960Y210184D01*
Y210151D01*
X105965Y210034D01*
X105988Y209929D01*
X106021Y209840D01*
X106054Y209762D01*
X106093Y209701D01*
X106121Y209662D01*
X106143Y209634D01*
X106154Y209623D01*
X106232Y209557D01*
X106309Y209507D01*
X106387Y209468D01*
X106465Y209446D01*
X106526Y209429D01*
X106581Y209423D01*
X106615Y209418D01*
X106620D01*
X106626D01*
X106726Y209429D01*
X106831Y209451D01*
X106926Y209490D01*
X107014Y209529D01*
X107087Y209573D01*
X107148Y209612D01*
X107170Y209623D01*
X107186Y209634D01*
X107192Y209646D01*
X107197D01*
X107259Y209690D01*
X107320Y209745D01*
X107386Y209806D01*
X107453Y209873D01*
X107586Y210012D01*
X107719Y210151D01*
X107780Y210223D01*
X107836Y210284D01*
X107886Y210345D01*
X107930Y210395D01*
X107963Y210434D01*
X107991Y210467D01*
X108008Y210489D01*
X108013Y210495D01*
X108130Y210633D01*
X108241Y210761D01*
X108341Y210866D01*
X108424Y210950D01*
X108496Y211022D01*
X108546Y211072D01*
X108580Y211100D01*
X108585Y211111D01*
X108591D01*
X108685Y211188D01*
X108774Y211249D01*
X108862Y211305D01*
X108940Y211349D01*
X109007Y211383D01*
X109057Y211405D01*
X109090Y211416D01*
X109096Y211421D01*
X109101D01*
X109162Y211444D01*
X109218Y211455D01*
X109273Y211466D01*
X109323Y211472D01*
X109368Y211477D01*
X109401D01*
X109423D01*
X109429D01*
Y208930D01*
D02*
G37*
G36*
X154496Y242385D02*
X154418Y242274D01*
X154346Y242174D01*
X154274Y242091D01*
X154213Y242013D01*
X154157Y241958D01*
X154113Y241914D01*
X154085Y241886D01*
X154074Y241875D01*
X154030Y241841D01*
X153980Y241803D01*
X153880Y241741D01*
X153835Y241719D01*
X153802Y241697D01*
X153780Y241686D01*
X153769Y241680D01*
X153869Y241664D01*
X153963Y241647D01*
X154046Y241619D01*
X154130Y241597D01*
X154202Y241569D01*
X154268Y241536D01*
X154329Y241508D01*
X154385Y241481D01*
X154429Y241447D01*
X154474Y241420D01*
X154507Y241397D01*
X154535Y241375D01*
X154557Y241358D01*
X154574Y241342D01*
X154579Y241336D01*
X154585Y241331D01*
X154629Y241275D01*
X154674Y241220D01*
X154740Y241103D01*
X154785Y240987D01*
X154818Y240876D01*
X154840Y240781D01*
X154846Y240742D01*
Y240704D01*
X154851Y240676D01*
Y240654D01*
Y240642D01*
Y240637D01*
X154846Y240520D01*
X154829Y240415D01*
X154801Y240315D01*
X154773Y240232D01*
X154740Y240160D01*
X154718Y240104D01*
X154696Y240071D01*
X154690Y240065D01*
Y240060D01*
X154624Y239971D01*
X154557Y239893D01*
X154485Y239827D01*
X154418Y239777D01*
X154357Y239738D01*
X154307Y239716D01*
X154274Y239699D01*
X154268Y239693D01*
X154263D01*
X154213Y239677D01*
X154152Y239660D01*
X154030Y239632D01*
X153897Y239616D01*
X153774Y239599D01*
X153658Y239594D01*
X153608D01*
X153564Y239588D01*
X151782D01*
Y243429D01*
X152293D01*
Y241725D01*
X152947D01*
X153008Y241730D01*
X153053D01*
X153092Y241736D01*
X153120Y241741D01*
X153142D01*
X153153Y241747D01*
X153158D01*
X153247Y241775D01*
X153286Y241791D01*
X153319Y241808D01*
X153353Y241825D01*
X153375Y241836D01*
X153386Y241841D01*
X153392Y241847D01*
X153436Y241880D01*
X153480Y241919D01*
X153564Y242002D01*
X153602Y242041D01*
X153630Y242074D01*
X153647Y242097D01*
X153652Y242102D01*
X153708Y242180D01*
X153769Y242263D01*
X153830Y242352D01*
X153891Y242435D01*
X153941Y242513D01*
X153980Y242574D01*
X153997Y242596D01*
X154007Y242613D01*
X154019Y242624D01*
Y242629D01*
X154524Y243429D01*
X155156D01*
X154496Y242385D01*
D02*
G37*
G36*
X160218Y239571D02*
X159913D01*
X159857Y239666D01*
X159796Y239755D01*
X159724Y239843D01*
X159657Y239921D01*
X159591Y239988D01*
X159541Y240043D01*
X159519Y240060D01*
X159502Y240076D01*
X159496Y240082D01*
X159491Y240088D01*
X159374Y240182D01*
X159258Y240271D01*
X159147Y240348D01*
X159036Y240409D01*
X158941Y240465D01*
X158903Y240487D01*
X158869Y240504D01*
X158842Y240520D01*
X158819Y240526D01*
X158808Y240537D01*
X158803D01*
Y240992D01*
X158886Y240959D01*
X158969Y240920D01*
X159053Y240881D01*
X159130Y240842D01*
X159197Y240809D01*
X159252Y240781D01*
X159286Y240759D01*
X159291Y240754D01*
X159297D01*
X159397Y240692D01*
X159485Y240631D01*
X159563Y240576D01*
X159624Y240526D01*
X159680Y240487D01*
X159713Y240454D01*
X159741Y240432D01*
X159746Y240426D01*
Y243429D01*
X160218D01*
Y239571D01*
D02*
G37*
G36*
X157937Y242973D02*
X156044D01*
X156111Y242879D01*
X156144Y242840D01*
X156172Y242801D01*
X156200Y242768D01*
X156222Y242746D01*
X156239Y242729D01*
X156244Y242724D01*
X156272Y242696D01*
X156305Y242668D01*
X156383Y242596D01*
X156472Y242513D01*
X156566Y242430D01*
X156655Y242357D01*
X156694Y242324D01*
X156727Y242291D01*
X156755Y242269D01*
X156777Y242252D01*
X156788Y242241D01*
X156794Y242235D01*
X156882Y242158D01*
X156971Y242086D01*
X157049Y242013D01*
X157121Y241952D01*
X157188Y241891D01*
X157243Y241836D01*
X157299Y241786D01*
X157343Y241741D01*
X157387Y241697D01*
X157421Y241664D01*
X157449Y241636D01*
X157476Y241608D01*
X157504Y241575D01*
X157515Y241564D01*
X157593Y241470D01*
X157659Y241386D01*
X157715Y241303D01*
X157759Y241236D01*
X157793Y241175D01*
X157815Y241131D01*
X157826Y241103D01*
X157832Y241092D01*
X157865Y241009D01*
X157887Y240926D01*
X157909Y240848D01*
X157920Y240781D01*
X157926Y240720D01*
X157931Y240676D01*
Y240648D01*
Y240637D01*
X157926Y240554D01*
X157915Y240476D01*
X157904Y240398D01*
X157881Y240332D01*
X157826Y240198D01*
X157771Y240093D01*
X157737Y240043D01*
X157709Y240004D01*
X157682Y239965D01*
X157654Y239938D01*
X157632Y239915D01*
X157621Y239893D01*
X157609Y239888D01*
X157604Y239882D01*
X157543Y239827D01*
X157476Y239777D01*
X157404Y239738D01*
X157332Y239705D01*
X157188Y239649D01*
X157043Y239610D01*
X156982Y239599D01*
X156921Y239588D01*
X156866Y239582D01*
X156821Y239577D01*
X156782Y239571D01*
X156727D01*
X156627Y239577D01*
X156533Y239582D01*
X156444Y239599D01*
X156361Y239616D01*
X156283Y239638D01*
X156211Y239660D01*
X156144Y239688D01*
X156083Y239716D01*
X156028Y239743D01*
X155983Y239771D01*
X155945Y239793D01*
X155911Y239816D01*
X155883Y239832D01*
X155867Y239849D01*
X155856Y239854D01*
X155850Y239860D01*
X155795Y239915D01*
X155745Y239977D01*
X155695Y240043D01*
X155656Y240110D01*
X155589Y240243D01*
X155545Y240376D01*
X155528Y240437D01*
X155512Y240498D01*
X155500Y240548D01*
X155489Y240593D01*
X155484Y240631D01*
Y240659D01*
X155478Y240676D01*
Y240681D01*
X155961Y240731D01*
X155972Y240604D01*
X155994Y240493D01*
X156028Y240393D01*
X156067Y240315D01*
X156100Y240248D01*
X156133Y240204D01*
X156155Y240176D01*
X156167Y240165D01*
X156250Y240099D01*
X156339Y240049D01*
X156433Y240010D01*
X156516Y239988D01*
X156594Y239971D01*
X156660Y239965D01*
X156683Y239960D01*
X156716D01*
X156833Y239965D01*
X156938Y239988D01*
X157027Y240021D01*
X157104Y240054D01*
X157166Y240093D01*
X157204Y240121D01*
X157232Y240143D01*
X157243Y240154D01*
X157310Y240232D01*
X157360Y240310D01*
X157399Y240387D01*
X157421Y240465D01*
X157437Y240526D01*
X157443Y240581D01*
X157449Y240615D01*
Y240620D01*
Y240626D01*
X157437Y240726D01*
X157415Y240831D01*
X157376Y240926D01*
X157338Y241014D01*
X157293Y241087D01*
X157254Y241148D01*
X157243Y241170D01*
X157232Y241186D01*
X157221Y241192D01*
Y241197D01*
X157177Y241259D01*
X157121Y241320D01*
X157060Y241386D01*
X156993Y241453D01*
X156855Y241586D01*
X156716Y241719D01*
X156644Y241780D01*
X156583Y241836D01*
X156522Y241886D01*
X156472Y241930D01*
X156433Y241963D01*
X156400Y241991D01*
X156377Y242008D01*
X156372Y242013D01*
X156233Y242130D01*
X156105Y242241D01*
X156000Y242341D01*
X155917Y242424D01*
X155845Y242496D01*
X155795Y242546D01*
X155767Y242580D01*
X155756Y242585D01*
Y242591D01*
X155678Y242685D01*
X155617Y242774D01*
X155562Y242863D01*
X155517Y242940D01*
X155484Y243007D01*
X155462Y243057D01*
X155450Y243090D01*
X155445Y243096D01*
Y243101D01*
X155423Y243162D01*
X155412Y243218D01*
X155401Y243273D01*
X155395Y243323D01*
X155389Y243368D01*
Y243401D01*
Y243423D01*
Y243429D01*
X157937D01*
Y242973D01*
D02*
G37*
G36*
X104711Y157363D02*
X104772Y157274D01*
X104844Y157185D01*
X104910Y157108D01*
X104977Y157041D01*
X105027Y156985D01*
X105049Y156969D01*
X105066Y156952D01*
X105071Y156947D01*
X105077Y156941D01*
X105193Y156847D01*
X105310Y156758D01*
X105421Y156680D01*
X105532Y156619D01*
X105626Y156564D01*
X105665Y156542D01*
X105699Y156525D01*
X105726Y156508D01*
X105748Y156503D01*
X105760Y156492D01*
X105765D01*
Y156036D01*
X105682Y156070D01*
X105599Y156109D01*
X105515Y156148D01*
X105438Y156186D01*
X105371Y156220D01*
X105316Y156247D01*
X105282Y156270D01*
X105277Y156275D01*
X105271D01*
X105171Y156336D01*
X105082Y156397D01*
X105005Y156453D01*
X104944Y156503D01*
X104888Y156542D01*
X104855Y156575D01*
X104827Y156597D01*
X104822Y156603D01*
Y153600D01*
X104350D01*
Y157457D01*
X104655D01*
X104711Y157363D01*
D02*
G37*
G36*
X102030Y157452D02*
X102119Y157441D01*
X102208Y157424D01*
X102285Y157402D01*
X102435Y157341D01*
X102502Y157313D01*
X102557Y157280D01*
X102613Y157241D01*
X102657Y157213D01*
X102701Y157180D01*
X102735Y157152D01*
X102763Y157130D01*
X102779Y157113D01*
X102790Y157102D01*
X102796Y157097D01*
X102857Y157030D01*
X102907Y156952D01*
X102957Y156880D01*
X102996Y156802D01*
X103029Y156719D01*
X103057Y156641D01*
X103096Y156497D01*
X103112Y156425D01*
X103123Y156364D01*
X103129Y156303D01*
X103134Y156253D01*
X103140Y156214D01*
Y156186D01*
Y156164D01*
Y156158D01*
X103134Y156053D01*
X103123Y155959D01*
X103112Y155864D01*
X103090Y155776D01*
X103062Y155698D01*
X103034Y155620D01*
X103007Y155554D01*
X102973Y155493D01*
X102946Y155437D01*
X102918Y155387D01*
X102890Y155348D01*
X102863Y155309D01*
X102840Y155282D01*
X102829Y155265D01*
X102818Y155254D01*
X102813Y155248D01*
X102752Y155187D01*
X102685Y155137D01*
X102618Y155087D01*
X102546Y155049D01*
X102480Y155015D01*
X102413Y154988D01*
X102285Y154949D01*
X102230Y154932D01*
X102174Y154921D01*
X102130Y154915D01*
X102085Y154910D01*
X102052Y154904D01*
X102008D01*
X101902Y154910D01*
X101802Y154926D01*
X101714Y154949D01*
X101630Y154976D01*
X101569Y154999D01*
X101519Y155021D01*
X101486Y155037D01*
X101475Y155043D01*
X101386Y155098D01*
X101309Y155159D01*
X101242Y155221D01*
X101186Y155276D01*
X101148Y155332D01*
X101114Y155370D01*
X101092Y155398D01*
X101086Y155409D01*
Y155365D01*
Y155337D01*
Y155321D01*
Y155315D01*
X101092Y155204D01*
X101098Y155098D01*
X101109Y155004D01*
X101120Y154915D01*
X101137Y154843D01*
X101148Y154788D01*
X101153Y154765D01*
Y154749D01*
X101159Y154743D01*
Y154738D01*
X101186Y154638D01*
X101214Y154549D01*
X101242Y154471D01*
X101270Y154405D01*
X101292Y154355D01*
X101314Y154316D01*
X101325Y154288D01*
X101331Y154283D01*
X101375Y154222D01*
X101419Y154172D01*
X101464Y154127D01*
X101508Y154088D01*
X101542Y154055D01*
X101575Y154033D01*
X101597Y154022D01*
X101603Y154016D01*
X101664Y153983D01*
X101730Y153961D01*
X101791Y153944D01*
X101852Y153933D01*
X101902Y153927D01*
X101941Y153922D01*
X101980D01*
X102069Y153927D01*
X102152Y153944D01*
X102224Y153966D01*
X102285Y153994D01*
X102330Y154016D01*
X102369Y154038D01*
X102391Y154055D01*
X102396Y154061D01*
X102452Y154122D01*
X102496Y154194D01*
X102535Y154272D01*
X102563Y154349D01*
X102585Y154416D01*
X102602Y154477D01*
X102607Y154499D01*
Y154510D01*
X102613Y154521D01*
Y154527D01*
X103068Y154488D01*
X103034Y154327D01*
X102990Y154188D01*
X102935Y154066D01*
X102879Y153966D01*
X102824Y153889D01*
X102796Y153855D01*
X102774Y153828D01*
X102757Y153811D01*
X102740Y153794D01*
X102735Y153789D01*
X102729Y153783D01*
X102674Y153739D01*
X102613Y153700D01*
X102491Y153639D01*
X102369Y153595D01*
X102252Y153567D01*
X102147Y153544D01*
X102102Y153539D01*
X102063D01*
X102036Y153533D01*
X101991D01*
X101836Y153544D01*
X101697Y153567D01*
X101569Y153605D01*
X101464Y153650D01*
X101419Y153667D01*
X101375Y153689D01*
X101342Y153711D01*
X101309Y153728D01*
X101286Y153739D01*
X101270Y153750D01*
X101259Y153761D01*
X101253D01*
X101142Y153855D01*
X101042Y153961D01*
X100964Y154072D01*
X100898Y154177D01*
X100842Y154272D01*
X100820Y154316D01*
X100803Y154349D01*
X100792Y154383D01*
X100781Y154405D01*
X100776Y154416D01*
Y154421D01*
X100748Y154505D01*
X100720Y154599D01*
X100681Y154788D01*
X100654Y154988D01*
X100637Y155176D01*
X100626Y155259D01*
X100620Y155343D01*
Y155415D01*
X100615Y155476D01*
Y155526D01*
Y155565D01*
Y155593D01*
Y155598D01*
Y155726D01*
X100620Y155848D01*
X100631Y155959D01*
X100643Y156064D01*
X100654Y156158D01*
X100665Y156247D01*
X100681Y156331D01*
X100698Y156403D01*
X100715Y156464D01*
X100726Y156519D01*
X100742Y156569D01*
X100753Y156608D01*
X100765Y156636D01*
X100776Y156658D01*
X100781Y156669D01*
Y156675D01*
X100848Y156808D01*
X100920Y156924D01*
X101003Y157024D01*
X101075Y157108D01*
X101148Y157169D01*
X101203Y157213D01*
X101225Y157230D01*
X101242Y157241D01*
X101248Y157252D01*
X101253D01*
X101370Y157318D01*
X101486Y157369D01*
X101603Y157407D01*
X101708Y157430D01*
X101802Y157446D01*
X101841Y157452D01*
X101869D01*
X101897Y157457D01*
X101936D01*
X102030Y157452D01*
D02*
G37*
G36*
X109800Y153600D02*
X109289D01*
Y155304D01*
X108634D01*
X108573Y155298D01*
X108529D01*
X108490Y155293D01*
X108462Y155287D01*
X108440D01*
X108429Y155282D01*
X108424D01*
X108335Y155254D01*
X108296Y155237D01*
X108263Y155221D01*
X108229Y155204D01*
X108207Y155193D01*
X108196Y155187D01*
X108191Y155182D01*
X108146Y155148D01*
X108102Y155110D01*
X108019Y155026D01*
X107980Y154988D01*
X107952Y154954D01*
X107935Y154932D01*
X107930Y154926D01*
X107874Y154849D01*
X107813Y154765D01*
X107752Y154677D01*
X107691Y154594D01*
X107641Y154516D01*
X107602Y154455D01*
X107586Y154432D01*
X107574Y154416D01*
X107563Y154405D01*
Y154399D01*
X107058Y153600D01*
X106426D01*
X107086Y154643D01*
X107164Y154754D01*
X107236Y154854D01*
X107308Y154938D01*
X107369Y155015D01*
X107425Y155071D01*
X107469Y155115D01*
X107497Y155143D01*
X107508Y155154D01*
X107552Y155187D01*
X107602Y155226D01*
X107702Y155287D01*
X107747Y155309D01*
X107780Y155332D01*
X107802Y155343D01*
X107813Y155348D01*
X107713Y155365D01*
X107619Y155382D01*
X107536Y155409D01*
X107452Y155431D01*
X107380Y155459D01*
X107314Y155493D01*
X107253Y155520D01*
X107197Y155548D01*
X107153Y155581D01*
X107108Y155609D01*
X107075Y155631D01*
X107047Y155654D01*
X107025Y155670D01*
X107008Y155687D01*
X107003Y155692D01*
X106997Y155698D01*
X106953Y155753D01*
X106908Y155809D01*
X106842Y155926D01*
X106798Y156042D01*
X106764Y156153D01*
X106742Y156247D01*
X106736Y156286D01*
Y156325D01*
X106731Y156353D01*
Y156375D01*
Y156386D01*
Y156392D01*
X106736Y156508D01*
X106753Y156614D01*
X106781Y156714D01*
X106808Y156797D01*
X106842Y156869D01*
X106864Y156924D01*
X106886Y156958D01*
X106892Y156963D01*
Y156969D01*
X106958Y157058D01*
X107025Y157135D01*
X107097Y157202D01*
X107164Y157252D01*
X107225Y157291D01*
X107275Y157313D01*
X107308Y157330D01*
X107314Y157335D01*
X107319D01*
X107369Y157352D01*
X107430Y157369D01*
X107552Y157396D01*
X107685Y157413D01*
X107808Y157430D01*
X107924Y157435D01*
X107974D01*
X108019Y157441D01*
X109800D01*
Y153600D01*
D02*
G37*
G36*
X182211Y157863D02*
X182272Y157774D01*
X182344Y157685D01*
X182410Y157608D01*
X182477Y157541D01*
X182527Y157485D01*
X182549Y157469D01*
X182566Y157452D01*
X182571Y157447D01*
X182577Y157441D01*
X182694Y157347D01*
X182810Y157258D01*
X182921Y157180D01*
X183032Y157119D01*
X183126Y157064D01*
X183165Y157042D01*
X183199Y157025D01*
X183226Y157008D01*
X183248Y157003D01*
X183260Y156992D01*
X183265D01*
Y156536D01*
X183182Y156570D01*
X183099Y156609D01*
X183015Y156648D01*
X182938Y156686D01*
X182871Y156720D01*
X182816Y156747D01*
X182782Y156770D01*
X182777Y156775D01*
X182771D01*
X182671Y156836D01*
X182582Y156897D01*
X182505Y156953D01*
X182444Y157003D01*
X182388Y157042D01*
X182355Y157075D01*
X182327Y157097D01*
X182322Y157103D01*
Y154100D01*
X181850D01*
Y157957D01*
X182155D01*
X182211Y157863D01*
D02*
G37*
G36*
X187300Y154100D02*
X186789D01*
Y155804D01*
X186135D01*
X186074Y155798D01*
X186029D01*
X185990Y155793D01*
X185962Y155787D01*
X185940D01*
X185929Y155782D01*
X185924D01*
X185835Y155754D01*
X185796Y155737D01*
X185763Y155721D01*
X185729Y155704D01*
X185707Y155693D01*
X185696Y155687D01*
X185690Y155682D01*
X185646Y155649D01*
X185602Y155610D01*
X185519Y155526D01*
X185480Y155488D01*
X185452Y155454D01*
X185435Y155432D01*
X185430Y155426D01*
X185374Y155349D01*
X185313Y155265D01*
X185252Y155177D01*
X185191Y155094D01*
X185141Y155016D01*
X185102Y154955D01*
X185085Y154932D01*
X185074Y154916D01*
X185063Y154905D01*
Y154899D01*
X184558Y154100D01*
X183926D01*
X184586Y155143D01*
X184664Y155254D01*
X184736Y155354D01*
X184808Y155438D01*
X184869Y155515D01*
X184925Y155571D01*
X184969Y155615D01*
X184997Y155643D01*
X185008Y155654D01*
X185052Y155687D01*
X185102Y155726D01*
X185202Y155787D01*
X185247Y155809D01*
X185280Y155832D01*
X185302Y155843D01*
X185313Y155848D01*
X185213Y155865D01*
X185119Y155882D01*
X185036Y155909D01*
X184952Y155931D01*
X184880Y155959D01*
X184814Y155993D01*
X184753Y156020D01*
X184697Y156048D01*
X184653Y156081D01*
X184608Y156109D01*
X184575Y156131D01*
X184547Y156154D01*
X184525Y156170D01*
X184508Y156187D01*
X184503Y156192D01*
X184497Y156198D01*
X184453Y156253D01*
X184408Y156309D01*
X184342Y156425D01*
X184298Y156542D01*
X184264Y156653D01*
X184242Y156747D01*
X184236Y156786D01*
Y156825D01*
X184231Y156853D01*
Y156875D01*
Y156886D01*
Y156892D01*
X184236Y157008D01*
X184253Y157114D01*
X184281Y157214D01*
X184309Y157297D01*
X184342Y157369D01*
X184364Y157424D01*
X184386Y157458D01*
X184392Y157463D01*
Y157469D01*
X184458Y157558D01*
X184525Y157635D01*
X184597Y157702D01*
X184664Y157752D01*
X184725Y157791D01*
X184775Y157813D01*
X184808Y157830D01*
X184814Y157835D01*
X184819D01*
X184869Y157852D01*
X184930Y157869D01*
X185052Y157896D01*
X185185Y157913D01*
X185308Y157930D01*
X185424Y157935D01*
X185474D01*
X185519Y157941D01*
X187300D01*
Y154100D01*
D02*
G37*
G36*
X179480Y157952D02*
X179569Y157946D01*
X179724Y157913D01*
X179796Y157891D01*
X179863Y157869D01*
X179924Y157841D01*
X179980Y157813D01*
X180024Y157785D01*
X180068Y157757D01*
X180107Y157735D01*
X180135Y157713D01*
X180157Y157696D01*
X180174Y157680D01*
X180185Y157674D01*
X180191Y157669D01*
X180240Y157613D01*
X180290Y157558D01*
X180329Y157497D01*
X180362Y157436D01*
X180418Y157319D01*
X180451Y157208D01*
X180473Y157114D01*
X180479Y157069D01*
X180485Y157036D01*
X180490Y157003D01*
Y156980D01*
Y156969D01*
Y156964D01*
X180485Y156864D01*
X180468Y156770D01*
X180446Y156686D01*
X180418Y156614D01*
X180396Y156559D01*
X180374Y156514D01*
X180357Y156492D01*
X180351Y156481D01*
X180290Y156414D01*
X180224Y156353D01*
X180152Y156298D01*
X180079Y156253D01*
X180013Y156220D01*
X179963Y156198D01*
X179941Y156187D01*
X179924Y156181D01*
X179919Y156176D01*
X179913D01*
X180041Y156137D01*
X180146Y156087D01*
X180240Y156026D01*
X180318Y155970D01*
X180379Y155915D01*
X180424Y155870D01*
X180446Y155843D01*
X180457Y155837D01*
Y155832D01*
X180518Y155732D01*
X180568Y155626D01*
X180601Y155526D01*
X180623Y155426D01*
X180634Y155338D01*
X180640Y155299D01*
Y155265D01*
X180646Y155243D01*
Y155221D01*
Y155210D01*
Y155204D01*
X180640Y155116D01*
X180629Y155027D01*
X180612Y154944D01*
X180590Y154860D01*
X180535Y154722D01*
X180507Y154655D01*
X180473Y154599D01*
X180440Y154544D01*
X180412Y154500D01*
X180379Y154461D01*
X180357Y154427D01*
X180335Y154400D01*
X180318Y154383D01*
X180307Y154372D01*
X180301Y154366D01*
X180235Y154305D01*
X180163Y154255D01*
X180085Y154211D01*
X180007Y154172D01*
X179935Y154144D01*
X179857Y154117D01*
X179708Y154078D01*
X179641Y154061D01*
X179580Y154050D01*
X179525Y154044D01*
X179474Y154039D01*
X179436Y154033D01*
X179380D01*
X179275Y154039D01*
X179180Y154050D01*
X179086Y154067D01*
X178997Y154083D01*
X178919Y154111D01*
X178842Y154139D01*
X178770Y154167D01*
X178709Y154200D01*
X178653Y154233D01*
X178603Y154261D01*
X178564Y154289D01*
X178525Y154316D01*
X178498Y154333D01*
X178481Y154350D01*
X178470Y154361D01*
X178464Y154366D01*
X178403Y154433D01*
X178348Y154500D01*
X178303Y154566D01*
X178265Y154638D01*
X178226Y154705D01*
X178198Y154777D01*
X178159Y154905D01*
X178142Y154966D01*
X178131Y155021D01*
X178126Y155071D01*
X178120Y155110D01*
X178115Y155143D01*
Y155171D01*
Y155188D01*
Y155193D01*
X178120Y155321D01*
X178142Y155438D01*
X178176Y155543D01*
X178209Y155632D01*
X178242Y155704D01*
X178276Y155759D01*
X178298Y155793D01*
X178303Y155798D01*
Y155804D01*
X178381Y155893D01*
X178464Y155970D01*
X178553Y156031D01*
X178636Y156087D01*
X178714Y156126D01*
X178781Y156154D01*
X178803Y156165D01*
X178820Y156170D01*
X178831Y156176D01*
X178836D01*
X178736Y156220D01*
X178653Y156270D01*
X178581Y156320D01*
X178520Y156370D01*
X178475Y156414D01*
X178442Y156448D01*
X178420Y156470D01*
X178414Y156481D01*
X178365Y156559D01*
X178331Y156636D01*
X178303Y156714D01*
X178287Y156792D01*
X178276Y156853D01*
X178270Y156903D01*
Y156936D01*
Y156942D01*
Y156947D01*
X178276Y157025D01*
X178281Y157097D01*
X178320Y157236D01*
X178370Y157358D01*
X178426Y157463D01*
X178481Y157547D01*
X178509Y157580D01*
X178531Y157613D01*
X178553Y157635D01*
X178570Y157652D01*
X178575Y157658D01*
X178581Y157663D01*
X178642Y157713D01*
X178703Y157763D01*
X178770Y157802D01*
X178836Y157835D01*
X178970Y157885D01*
X179103Y157918D01*
X179158Y157935D01*
X179214Y157941D01*
X179264Y157946D01*
X179308Y157952D01*
X179341Y157957D01*
X179391D01*
X179480Y157952D01*
D02*
G37*
G36*
X104711Y150963D02*
X104772Y150874D01*
X104844Y150785D01*
X104910Y150708D01*
X104977Y150641D01*
X105027Y150585D01*
X105049Y150569D01*
X105066Y150552D01*
X105071Y150547D01*
X105077Y150541D01*
X105193Y150447D01*
X105310Y150358D01*
X105421Y150280D01*
X105532Y150219D01*
X105626Y150164D01*
X105665Y150142D01*
X105699Y150125D01*
X105726Y150108D01*
X105748Y150103D01*
X105760Y150092D01*
X105765D01*
Y149636D01*
X105682Y149670D01*
X105599Y149709D01*
X105515Y149748D01*
X105438Y149786D01*
X105371Y149820D01*
X105316Y149847D01*
X105282Y149870D01*
X105277Y149875D01*
X105271D01*
X105171Y149936D01*
X105082Y149997D01*
X105005Y150053D01*
X104944Y150103D01*
X104888Y150142D01*
X104855Y150175D01*
X104827Y150197D01*
X104822Y150203D01*
Y147200D01*
X104350D01*
Y151057D01*
X104655D01*
X104711Y150963D01*
D02*
G37*
G36*
X109800Y147200D02*
X109289D01*
Y148904D01*
X108634D01*
X108573Y148898D01*
X108529D01*
X108490Y148893D01*
X108462Y148887D01*
X108440D01*
X108429Y148882D01*
X108424D01*
X108335Y148854D01*
X108296Y148837D01*
X108263Y148821D01*
X108229Y148804D01*
X108207Y148793D01*
X108196Y148787D01*
X108191Y148782D01*
X108146Y148749D01*
X108102Y148710D01*
X108019Y148626D01*
X107980Y148588D01*
X107952Y148554D01*
X107935Y148532D01*
X107930Y148526D01*
X107874Y148449D01*
X107813Y148365D01*
X107752Y148277D01*
X107691Y148194D01*
X107641Y148116D01*
X107602Y148055D01*
X107586Y148032D01*
X107574Y148016D01*
X107563Y148005D01*
Y147999D01*
X107058Y147200D01*
X106426D01*
X107086Y148243D01*
X107164Y148354D01*
X107236Y148454D01*
X107308Y148538D01*
X107369Y148615D01*
X107425Y148671D01*
X107469Y148715D01*
X107497Y148743D01*
X107508Y148754D01*
X107552Y148787D01*
X107602Y148826D01*
X107702Y148887D01*
X107747Y148909D01*
X107780Y148932D01*
X107802Y148943D01*
X107813Y148948D01*
X107713Y148965D01*
X107619Y148981D01*
X107536Y149009D01*
X107452Y149031D01*
X107380Y149059D01*
X107314Y149093D01*
X107253Y149120D01*
X107197Y149148D01*
X107153Y149181D01*
X107108Y149209D01*
X107075Y149231D01*
X107047Y149253D01*
X107025Y149270D01*
X107008Y149287D01*
X107003Y149292D01*
X106997Y149298D01*
X106953Y149353D01*
X106908Y149409D01*
X106842Y149525D01*
X106798Y149642D01*
X106764Y149753D01*
X106742Y149847D01*
X106736Y149886D01*
Y149925D01*
X106731Y149953D01*
Y149975D01*
Y149986D01*
Y149992D01*
X106736Y150108D01*
X106753Y150214D01*
X106781Y150314D01*
X106808Y150397D01*
X106842Y150469D01*
X106864Y150524D01*
X106886Y150558D01*
X106892Y150563D01*
Y150569D01*
X106958Y150658D01*
X107025Y150735D01*
X107097Y150802D01*
X107164Y150852D01*
X107225Y150891D01*
X107275Y150913D01*
X107308Y150930D01*
X107314Y150935D01*
X107319D01*
X107369Y150952D01*
X107430Y150969D01*
X107552Y150996D01*
X107685Y151013D01*
X107808Y151030D01*
X107924Y151035D01*
X107974D01*
X108019Y151041D01*
X109800D01*
Y147200D01*
D02*
G37*
G36*
X103107Y150536D02*
X101225D01*
X101358Y150375D01*
X101486Y150203D01*
X101597Y150036D01*
X101702Y149875D01*
X101747Y149803D01*
X101786Y149736D01*
X101825Y149675D01*
X101852Y149625D01*
X101875Y149581D01*
X101891Y149553D01*
X101902Y149531D01*
X101908Y149525D01*
X102019Y149303D01*
X102119Y149081D01*
X102202Y148871D01*
X102235Y148776D01*
X102269Y148682D01*
X102302Y148599D01*
X102324Y148521D01*
X102346Y148454D01*
X102363Y148399D01*
X102380Y148349D01*
X102391Y148316D01*
X102396Y148293D01*
Y148288D01*
X102452Y148060D01*
X102474Y147949D01*
X102491Y147849D01*
X102507Y147755D01*
X102524Y147661D01*
X102535Y147583D01*
X102546Y147505D01*
X102552Y147439D01*
X102557Y147378D01*
X102563Y147322D01*
Y147278D01*
X102568Y147244D01*
Y147222D01*
Y147205D01*
Y147200D01*
X102085D01*
X102069Y147411D01*
X102041Y147605D01*
X102013Y147783D01*
X101997Y147866D01*
X101980Y147944D01*
X101969Y148010D01*
X101952Y148071D01*
X101941Y148127D01*
X101930Y148171D01*
X101919Y148205D01*
X101913Y148232D01*
X101908Y148249D01*
Y148255D01*
X101825Y148510D01*
X101736Y148749D01*
X101691Y148865D01*
X101647Y148976D01*
X101597Y149076D01*
X101553Y149176D01*
X101514Y149265D01*
X101475Y149342D01*
X101442Y149409D01*
X101414Y149470D01*
X101386Y149520D01*
X101370Y149553D01*
X101358Y149575D01*
X101353Y149581D01*
X101286Y149697D01*
X101220Y149814D01*
X101153Y149919D01*
X101086Y150019D01*
X101025Y150108D01*
X100964Y150197D01*
X100903Y150275D01*
X100853Y150341D01*
X100803Y150408D01*
X100759Y150463D01*
X100715Y150508D01*
X100681Y150547D01*
X100659Y150580D01*
X100637Y150602D01*
X100626Y150613D01*
X100620Y150619D01*
Y150991D01*
X103107D01*
Y150536D01*
D02*
G37*
G36*
X182211Y151463D02*
X182272Y151374D01*
X182344Y151285D01*
X182410Y151208D01*
X182477Y151141D01*
X182527Y151085D01*
X182549Y151069D01*
X182566Y151052D01*
X182571Y151047D01*
X182577Y151041D01*
X182694Y150947D01*
X182810Y150858D01*
X182921Y150780D01*
X183032Y150719D01*
X183126Y150664D01*
X183165Y150642D01*
X183199Y150625D01*
X183226Y150608D01*
X183248Y150603D01*
X183260Y150592D01*
X183265D01*
Y150136D01*
X183182Y150170D01*
X183099Y150209D01*
X183015Y150248D01*
X182938Y150286D01*
X182871Y150320D01*
X182816Y150347D01*
X182782Y150370D01*
X182777Y150375D01*
X182771D01*
X182671Y150436D01*
X182582Y150497D01*
X182505Y150553D01*
X182444Y150603D01*
X182388Y150642D01*
X182355Y150675D01*
X182327Y150697D01*
X182322Y150703D01*
Y147700D01*
X181850D01*
Y151557D01*
X182155D01*
X182211Y151463D01*
D02*
G37*
G36*
X179391Y151552D02*
X179497Y151541D01*
X179597Y151518D01*
X179691Y151491D01*
X179774Y151452D01*
X179857Y151418D01*
X179930Y151374D01*
X179996Y151335D01*
X180052Y151296D01*
X180107Y151252D01*
X180152Y151219D01*
X180185Y151185D01*
X180213Y151152D01*
X180235Y151130D01*
X180246Y151119D01*
X180252Y151113D01*
X180324Y151013D01*
X180385Y150897D01*
X180440Y150775D01*
X180490Y150647D01*
X180529Y150514D01*
X180562Y150381D01*
X180590Y150242D01*
X180612Y150114D01*
X180629Y149987D01*
X180640Y149870D01*
X180651Y149765D01*
X180657Y149676D01*
Y149598D01*
X180662Y149543D01*
Y149520D01*
Y149504D01*
Y149498D01*
Y149493D01*
X180657Y149315D01*
X180646Y149149D01*
X180629Y148993D01*
X180601Y148849D01*
X180573Y148721D01*
X180546Y148605D01*
X180512Y148499D01*
X180473Y148405D01*
X180440Y148327D01*
X180407Y148255D01*
X180379Y148199D01*
X180346Y148150D01*
X180324Y148111D01*
X180307Y148089D01*
X180296Y148072D01*
X180290Y148066D01*
X180218Y147989D01*
X180140Y147922D01*
X180063Y147866D01*
X179985Y147817D01*
X179902Y147772D01*
X179824Y147739D01*
X179746Y147711D01*
X179669Y147689D01*
X179602Y147672D01*
X179535Y147656D01*
X179480Y147644D01*
X179430Y147639D01*
X179386D01*
X179358Y147633D01*
X179330D01*
X179202Y147639D01*
X179086Y147661D01*
X178981Y147683D01*
X178886Y147717D01*
X178814Y147744D01*
X178759Y147772D01*
X178736Y147778D01*
X178720Y147789D01*
X178714Y147794D01*
X178709D01*
X178614Y147861D01*
X178525Y147939D01*
X178453Y148016D01*
X178392Y148094D01*
X178342Y148166D01*
X178309Y148222D01*
X178298Y148244D01*
X178287Y148260D01*
X178281Y148266D01*
Y148272D01*
X178226Y148388D01*
X178187Y148510D01*
X178159Y148621D01*
X178142Y148727D01*
X178126Y148816D01*
Y148849D01*
X178120Y148882D01*
Y148910D01*
Y148926D01*
Y148938D01*
Y148943D01*
X178126Y149043D01*
X178137Y149137D01*
X178154Y149232D01*
X178170Y149315D01*
X178198Y149393D01*
X178226Y149470D01*
X178253Y149537D01*
X178287Y149598D01*
X178320Y149654D01*
X178348Y149704D01*
X178376Y149742D01*
X178403Y149781D01*
X178420Y149809D01*
X178437Y149826D01*
X178448Y149837D01*
X178453Y149842D01*
X178514Y149903D01*
X178581Y149959D01*
X178653Y150003D01*
X178720Y150042D01*
X178786Y150081D01*
X178853Y150109D01*
X178981Y150148D01*
X179036Y150164D01*
X179092Y150175D01*
X179136Y150181D01*
X179180Y150186D01*
X179214Y150192D01*
X179258D01*
X179358Y150186D01*
X179452Y150170D01*
X179541Y150153D01*
X179619Y150131D01*
X179685Y150103D01*
X179735Y150086D01*
X179769Y150070D01*
X179774Y150064D01*
X179780D01*
X179869Y150009D01*
X179946Y149948D01*
X180018Y149887D01*
X180074Y149820D01*
X180124Y149765D01*
X180163Y149720D01*
X180185Y149687D01*
X180191Y149681D01*
Y149781D01*
X180185Y149881D01*
X180179Y149970D01*
X180168Y150059D01*
X180163Y150136D01*
X180152Y150209D01*
X180140Y150275D01*
X180124Y150336D01*
X180113Y150392D01*
X180102Y150436D01*
X180091Y150475D01*
X180085Y150508D01*
X180074Y150531D01*
X180068Y150547D01*
X180063Y150558D01*
Y150564D01*
X180007Y150675D01*
X179952Y150775D01*
X179891Y150852D01*
X179835Y150919D01*
X179785Y150975D01*
X179746Y151013D01*
X179719Y151035D01*
X179708Y151041D01*
X179641Y151085D01*
X179574Y151113D01*
X179508Y151135D01*
X179441Y151152D01*
X179391Y151163D01*
X179347Y151169D01*
X179308D01*
X179208Y151158D01*
X179114Y151135D01*
X179036Y151102D01*
X178964Y151069D01*
X178908Y151030D01*
X178870Y150997D01*
X178847Y150975D01*
X178836Y150963D01*
X178797Y150913D01*
X178759Y150852D01*
X178725Y150786D01*
X178703Y150719D01*
X178681Y150658D01*
X178664Y150608D01*
X178659Y150575D01*
X178653Y150569D01*
Y150564D01*
X178181Y150603D01*
X178215Y150758D01*
X178265Y150897D01*
X178320Y151019D01*
X178381Y151119D01*
X178442Y151197D01*
X178464Y151230D01*
X178492Y151258D01*
X178509Y151274D01*
X178525Y151291D01*
X178531Y151296D01*
X178537Y151302D01*
X178592Y151346D01*
X178653Y151385D01*
X178775Y151452D01*
X178897Y151496D01*
X179014Y151524D01*
X179119Y151546D01*
X179164Y151552D01*
X179202D01*
X179236Y151557D01*
X179280D01*
X179391Y151552D01*
D02*
G37*
G36*
X187300Y147700D02*
X186789D01*
Y149404D01*
X186135D01*
X186074Y149398D01*
X186029D01*
X185990Y149393D01*
X185962Y149387D01*
X185940D01*
X185929Y149382D01*
X185924D01*
X185835Y149354D01*
X185796Y149337D01*
X185763Y149321D01*
X185729Y149304D01*
X185707Y149293D01*
X185696Y149287D01*
X185690Y149282D01*
X185646Y149249D01*
X185602Y149210D01*
X185519Y149126D01*
X185480Y149088D01*
X185452Y149054D01*
X185435Y149032D01*
X185430Y149026D01*
X185374Y148949D01*
X185313Y148865D01*
X185252Y148777D01*
X185191Y148694D01*
X185141Y148616D01*
X185102Y148555D01*
X185085Y148532D01*
X185074Y148516D01*
X185063Y148505D01*
Y148499D01*
X184558Y147700D01*
X183926D01*
X184586Y148743D01*
X184664Y148854D01*
X184736Y148954D01*
X184808Y149038D01*
X184869Y149115D01*
X184925Y149171D01*
X184969Y149215D01*
X184997Y149243D01*
X185008Y149254D01*
X185052Y149287D01*
X185102Y149326D01*
X185202Y149387D01*
X185247Y149409D01*
X185280Y149432D01*
X185302Y149443D01*
X185313Y149448D01*
X185213Y149465D01*
X185119Y149481D01*
X185036Y149509D01*
X184952Y149531D01*
X184880Y149559D01*
X184814Y149593D01*
X184753Y149620D01*
X184697Y149648D01*
X184653Y149681D01*
X184608Y149709D01*
X184575Y149731D01*
X184547Y149753D01*
X184525Y149770D01*
X184508Y149787D01*
X184503Y149792D01*
X184497Y149798D01*
X184453Y149853D01*
X184408Y149909D01*
X184342Y150025D01*
X184298Y150142D01*
X184264Y150253D01*
X184242Y150347D01*
X184236Y150386D01*
Y150425D01*
X184231Y150453D01*
Y150475D01*
Y150486D01*
Y150492D01*
X184236Y150608D01*
X184253Y150714D01*
X184281Y150814D01*
X184309Y150897D01*
X184342Y150969D01*
X184364Y151024D01*
X184386Y151058D01*
X184392Y151063D01*
Y151069D01*
X184458Y151158D01*
X184525Y151235D01*
X184597Y151302D01*
X184664Y151352D01*
X184725Y151391D01*
X184775Y151413D01*
X184808Y151430D01*
X184814Y151435D01*
X184819D01*
X184869Y151452D01*
X184930Y151469D01*
X185052Y151496D01*
X185185Y151513D01*
X185308Y151530D01*
X185424Y151535D01*
X185474D01*
X185519Y151541D01*
X187300D01*
Y147700D01*
D02*
G37*
G36*
X104711Y144563D02*
X104772Y144474D01*
X104844Y144385D01*
X104910Y144308D01*
X104977Y144241D01*
X105027Y144185D01*
X105049Y144169D01*
X105066Y144152D01*
X105071Y144147D01*
X105077Y144141D01*
X105193Y144047D01*
X105310Y143958D01*
X105421Y143880D01*
X105532Y143819D01*
X105626Y143764D01*
X105665Y143742D01*
X105699Y143725D01*
X105726Y143708D01*
X105748Y143703D01*
X105760Y143692D01*
X105765D01*
Y143236D01*
X105682Y143270D01*
X105599Y143309D01*
X105515Y143348D01*
X105438Y143386D01*
X105371Y143420D01*
X105316Y143447D01*
X105282Y143470D01*
X105277Y143475D01*
X105271D01*
X105171Y143536D01*
X105082Y143597D01*
X105005Y143653D01*
X104944Y143703D01*
X104888Y143742D01*
X104855Y143775D01*
X104827Y143797D01*
X104822Y143802D01*
Y140800D01*
X104350D01*
Y144657D01*
X104655D01*
X104711Y144563D01*
D02*
G37*
G36*
X103057Y142615D02*
X102613Y142554D01*
X102574Y142615D01*
X102524Y142665D01*
X102480Y142715D01*
X102435Y142754D01*
X102391Y142781D01*
X102357Y142809D01*
X102335Y142820D01*
X102330Y142826D01*
X102258Y142859D01*
X102185Y142887D01*
X102119Y142903D01*
X102052Y142920D01*
X101997Y142926D01*
X101952Y142931D01*
X101847D01*
X101780Y142920D01*
X101664Y142892D01*
X101564Y142853D01*
X101475Y142815D01*
X101408Y142770D01*
X101358Y142731D01*
X101331Y142704D01*
X101320Y142698D01*
Y142693D01*
X101242Y142598D01*
X101186Y142498D01*
X101148Y142393D01*
X101120Y142287D01*
X101103Y142199D01*
X101098Y142160D01*
Y142126D01*
X101092Y142099D01*
Y142077D01*
Y142065D01*
Y142060D01*
Y141982D01*
X101103Y141910D01*
X101131Y141771D01*
X101170Y141655D01*
X101209Y141560D01*
X101253Y141483D01*
X101292Y141422D01*
X101309Y141405D01*
X101320Y141388D01*
X101325Y141383D01*
X101331Y141377D01*
X101375Y141333D01*
X101419Y141294D01*
X101519Y141227D01*
X101614Y141183D01*
X101708Y141155D01*
X101786Y141133D01*
X101852Y141127D01*
X101875Y141122D01*
X101908D01*
X102013Y141127D01*
X102108Y141150D01*
X102191Y141177D01*
X102258Y141211D01*
X102319Y141244D01*
X102363Y141272D01*
X102385Y141294D01*
X102396Y141299D01*
X102463Y141377D01*
X102518Y141460D01*
X102563Y141555D01*
X102596Y141638D01*
X102618Y141721D01*
X102635Y141782D01*
X102640Y141810D01*
X102646Y141827D01*
Y141838D01*
Y141843D01*
X103140Y141805D01*
X103129Y141716D01*
X103112Y141632D01*
X103062Y141477D01*
X103001Y141344D01*
X102968Y141283D01*
X102935Y141233D01*
X102907Y141183D01*
X102874Y141139D01*
X102846Y141105D01*
X102818Y141077D01*
X102796Y141055D01*
X102785Y141033D01*
X102774Y141027D01*
X102768Y141022D01*
X102701Y140972D01*
X102635Y140928D01*
X102563Y140889D01*
X102491Y140856D01*
X102352Y140805D01*
X102213Y140772D01*
X102152Y140756D01*
X102091Y140750D01*
X102041Y140744D01*
X101997Y140739D01*
X101958Y140733D01*
X101908D01*
X101791Y140739D01*
X101680Y140756D01*
X101575Y140778D01*
X101481Y140805D01*
X101392Y140844D01*
X101309Y140883D01*
X101231Y140922D01*
X101164Y140966D01*
X101103Y141011D01*
X101048Y141050D01*
X101003Y141094D01*
X100964Y141127D01*
X100937Y141155D01*
X100914Y141177D01*
X100903Y141194D01*
X100898Y141200D01*
X100842Y141272D01*
X100798Y141349D01*
X100753Y141422D01*
X100720Y141499D01*
X100665Y141649D01*
X100631Y141794D01*
X100620Y141855D01*
X100609Y141916D01*
X100604Y141965D01*
X100598Y142010D01*
X100593Y142049D01*
Y142077D01*
Y142093D01*
Y142099D01*
X100598Y142199D01*
X100609Y142293D01*
X100626Y142387D01*
X100648Y142471D01*
X100676Y142548D01*
X100704Y142626D01*
X100737Y142693D01*
X100765Y142754D01*
X100798Y142809D01*
X100831Y142859D01*
X100859Y142898D01*
X100887Y142937D01*
X100909Y142964D01*
X100926Y142981D01*
X100937Y142992D01*
X100942Y142998D01*
X101009Y143059D01*
X101075Y143114D01*
X101148Y143159D01*
X101220Y143198D01*
X101292Y143236D01*
X101364Y143264D01*
X101497Y143303D01*
X101558Y143320D01*
X101614Y143331D01*
X101664Y143336D01*
X101708Y143342D01*
X101741Y143348D01*
X101864D01*
X101930Y143336D01*
X102063Y143309D01*
X102185Y143270D01*
X102296Y143225D01*
X102385Y143181D01*
X102424Y143159D01*
X102457Y143142D01*
X102485Y143125D01*
X102502Y143114D01*
X102513Y143109D01*
X102518Y143103D01*
X102313Y144141D01*
X100776D01*
Y144591D01*
X102685D01*
X103057Y142615D01*
D02*
G37*
G36*
X109800Y140800D02*
X109289D01*
Y142504D01*
X108634D01*
X108573Y142498D01*
X108529D01*
X108490Y142493D01*
X108462Y142487D01*
X108440D01*
X108429Y142482D01*
X108424D01*
X108335Y142454D01*
X108296Y142437D01*
X108263Y142421D01*
X108229Y142404D01*
X108207Y142393D01*
X108196Y142387D01*
X108191Y142382D01*
X108146Y142349D01*
X108102Y142310D01*
X108019Y142226D01*
X107980Y142188D01*
X107952Y142154D01*
X107935Y142132D01*
X107930Y142126D01*
X107874Y142049D01*
X107813Y141965D01*
X107752Y141877D01*
X107691Y141794D01*
X107641Y141716D01*
X107602Y141655D01*
X107586Y141632D01*
X107574Y141616D01*
X107563Y141605D01*
Y141599D01*
X107058Y140800D01*
X106426D01*
X107086Y141843D01*
X107164Y141954D01*
X107236Y142054D01*
X107308Y142138D01*
X107369Y142215D01*
X107425Y142271D01*
X107469Y142315D01*
X107497Y142343D01*
X107508Y142354D01*
X107552Y142387D01*
X107602Y142426D01*
X107702Y142487D01*
X107747Y142509D01*
X107780Y142532D01*
X107802Y142543D01*
X107813Y142548D01*
X107713Y142565D01*
X107619Y142581D01*
X107536Y142609D01*
X107452Y142631D01*
X107380Y142659D01*
X107314Y142693D01*
X107253Y142720D01*
X107197Y142748D01*
X107153Y142781D01*
X107108Y142809D01*
X107075Y142831D01*
X107047Y142853D01*
X107025Y142870D01*
X107008Y142887D01*
X107003Y142892D01*
X106997Y142898D01*
X106953Y142953D01*
X106908Y143009D01*
X106842Y143125D01*
X106798Y143242D01*
X106764Y143353D01*
X106742Y143447D01*
X106736Y143486D01*
Y143525D01*
X106731Y143553D01*
Y143575D01*
Y143586D01*
Y143592D01*
X106736Y143708D01*
X106753Y143814D01*
X106781Y143914D01*
X106808Y143997D01*
X106842Y144069D01*
X106864Y144124D01*
X106886Y144158D01*
X106892Y144163D01*
Y144169D01*
X106958Y144258D01*
X107025Y144335D01*
X107097Y144402D01*
X107164Y144452D01*
X107225Y144491D01*
X107275Y144513D01*
X107308Y144530D01*
X107314Y144535D01*
X107319D01*
X107369Y144552D01*
X107430Y144569D01*
X107552Y144596D01*
X107685Y144613D01*
X107808Y144630D01*
X107924Y144635D01*
X107974D01*
X108019Y144641D01*
X109800D01*
Y140800D01*
D02*
G37*
G36*
X182211Y144963D02*
X182272Y144874D01*
X182344Y144785D01*
X182410Y144708D01*
X182477Y144641D01*
X182527Y144586D01*
X182549Y144569D01*
X182566Y144552D01*
X182571Y144547D01*
X182577Y144541D01*
X182694Y144447D01*
X182810Y144358D01*
X182921Y144280D01*
X183032Y144219D01*
X183126Y144164D01*
X183165Y144141D01*
X183199Y144125D01*
X183226Y144108D01*
X183248Y144103D01*
X183260Y144092D01*
X183265D01*
Y143636D01*
X183182Y143670D01*
X183099Y143709D01*
X183015Y143747D01*
X182938Y143786D01*
X182871Y143820D01*
X182816Y143847D01*
X182782Y143870D01*
X182777Y143875D01*
X182771D01*
X182671Y143936D01*
X182582Y143997D01*
X182505Y144053D01*
X182444Y144103D01*
X182388Y144141D01*
X182355Y144175D01*
X182327Y144197D01*
X182322Y144202D01*
Y141200D01*
X181850D01*
Y145057D01*
X182155D01*
X182211Y144963D01*
D02*
G37*
G36*
X187300Y141200D02*
X186789D01*
Y142904D01*
X186135D01*
X186074Y142898D01*
X186029D01*
X185990Y142893D01*
X185962Y142887D01*
X185940D01*
X185929Y142882D01*
X185924D01*
X185835Y142854D01*
X185796Y142837D01*
X185763Y142821D01*
X185729Y142804D01*
X185707Y142793D01*
X185696Y142787D01*
X185690Y142782D01*
X185646Y142748D01*
X185602Y142710D01*
X185519Y142626D01*
X185480Y142587D01*
X185452Y142554D01*
X185435Y142532D01*
X185430Y142526D01*
X185374Y142449D01*
X185313Y142366D01*
X185252Y142277D01*
X185191Y142193D01*
X185141Y142116D01*
X185102Y142055D01*
X185085Y142033D01*
X185074Y142016D01*
X185063Y142005D01*
Y141999D01*
X184558Y141200D01*
X183926D01*
X184586Y142243D01*
X184664Y142354D01*
X184736Y142454D01*
X184808Y142538D01*
X184869Y142615D01*
X184925Y142671D01*
X184969Y142715D01*
X184997Y142743D01*
X185008Y142754D01*
X185052Y142787D01*
X185102Y142826D01*
X185202Y142887D01*
X185247Y142909D01*
X185280Y142932D01*
X185302Y142943D01*
X185313Y142948D01*
X185213Y142965D01*
X185119Y142982D01*
X185036Y143009D01*
X184952Y143032D01*
X184880Y143059D01*
X184814Y143093D01*
X184753Y143120D01*
X184697Y143148D01*
X184653Y143181D01*
X184608Y143209D01*
X184575Y143231D01*
X184547Y143254D01*
X184525Y143270D01*
X184508Y143287D01*
X184503Y143292D01*
X184497Y143298D01*
X184453Y143353D01*
X184408Y143409D01*
X184342Y143526D01*
X184298Y143642D01*
X184264Y143753D01*
X184242Y143847D01*
X184236Y143886D01*
Y143925D01*
X184231Y143953D01*
Y143975D01*
Y143986D01*
Y143992D01*
X184236Y144108D01*
X184253Y144214D01*
X184281Y144314D01*
X184309Y144397D01*
X184342Y144469D01*
X184364Y144525D01*
X184386Y144558D01*
X184392Y144563D01*
Y144569D01*
X184458Y144658D01*
X184525Y144735D01*
X184597Y144802D01*
X184664Y144852D01*
X184725Y144891D01*
X184775Y144913D01*
X184808Y144930D01*
X184814Y144935D01*
X184819D01*
X184869Y144952D01*
X184930Y144968D01*
X185052Y144996D01*
X185185Y145013D01*
X185308Y145029D01*
X185424Y145035D01*
X185474D01*
X185519Y145041D01*
X187300D01*
Y141200D01*
D02*
G37*
G36*
X180801Y142554D02*
Y142121D01*
X179130D01*
Y141200D01*
X178659D01*
Y142121D01*
X178137D01*
Y142554D01*
X178659D01*
Y145041D01*
X179042D01*
X180801Y142554D01*
D02*
G37*
G36*
X102097Y138246D02*
X102246Y138218D01*
X102374Y138174D01*
X102485Y138130D01*
X102535Y138102D01*
X102574Y138080D01*
X102613Y138057D01*
X102640Y138035D01*
X102663Y138019D01*
X102679Y138007D01*
X102690Y138002D01*
X102696Y137996D01*
X102801Y137891D01*
X102885Y137774D01*
X102951Y137652D01*
X103007Y137530D01*
X103040Y137425D01*
X103057Y137380D01*
X103068Y137341D01*
X103073Y137308D01*
X103079Y137286D01*
X103085Y137269D01*
Y137264D01*
X102613Y137180D01*
X102591Y137303D01*
X102557Y137408D01*
X102518Y137497D01*
X102480Y137569D01*
X102441Y137625D01*
X102407Y137663D01*
X102385Y137691D01*
X102380Y137697D01*
X102307Y137752D01*
X102230Y137797D01*
X102158Y137824D01*
X102085Y137847D01*
X102019Y137858D01*
X101969Y137869D01*
X101925D01*
X101825Y137863D01*
X101736Y137841D01*
X101658Y137813D01*
X101592Y137785D01*
X101542Y137752D01*
X101503Y137724D01*
X101475Y137702D01*
X101469Y137697D01*
X101408Y137630D01*
X101364Y137558D01*
X101336Y137486D01*
X101314Y137419D01*
X101303Y137358D01*
X101292Y137314D01*
Y137280D01*
Y137275D01*
Y137269D01*
Y137208D01*
X101303Y137153D01*
X101331Y137058D01*
X101370Y136975D01*
X101414Y136903D01*
X101458Y136853D01*
X101497Y136814D01*
X101525Y136792D01*
X101531Y136786D01*
X101536D01*
X101630Y136737D01*
X101719Y136698D01*
X101813Y136670D01*
X101897Y136653D01*
X101969Y136642D01*
X102030Y136631D01*
X102102D01*
X102124Y136637D01*
X102152D01*
X102208Y136220D01*
X102136Y136237D01*
X102069Y136248D01*
X102013Y136259D01*
X101963Y136265D01*
X101925Y136270D01*
X101875D01*
X101758Y136259D01*
X101653Y136237D01*
X101558Y136204D01*
X101481Y136165D01*
X101419Y136126D01*
X101375Y136093D01*
X101347Y136071D01*
X101336Y136059D01*
X101264Y135976D01*
X101209Y135887D01*
X101170Y135799D01*
X101148Y135710D01*
X101131Y135638D01*
X101125Y135577D01*
X101120Y135554D01*
Y135538D01*
Y135527D01*
Y135521D01*
X101131Y135399D01*
X101159Y135288D01*
X101192Y135194D01*
X101236Y135110D01*
X101281Y135044D01*
X101314Y134994D01*
X101342Y134960D01*
X101353Y134950D01*
X101442Y134872D01*
X101536Y134816D01*
X101630Y134777D01*
X101719Y134750D01*
X101797Y134733D01*
X101858Y134727D01*
X101880Y134722D01*
X101913D01*
X102013Y134727D01*
X102108Y134750D01*
X102191Y134777D01*
X102258Y134811D01*
X102313Y134838D01*
X102357Y134866D01*
X102380Y134888D01*
X102391Y134894D01*
X102457Y134972D01*
X102513Y135060D01*
X102563Y135155D01*
X102602Y135255D01*
X102629Y135338D01*
X102640Y135377D01*
X102646Y135410D01*
X102652Y135438D01*
X102657Y135460D01*
X102663Y135471D01*
Y135477D01*
X103134Y135416D01*
X103123Y135327D01*
X103107Y135244D01*
X103057Y135088D01*
X102996Y134955D01*
X102962Y134899D01*
X102929Y134844D01*
X102896Y134794D01*
X102863Y134755D01*
X102835Y134716D01*
X102807Y134689D01*
X102790Y134666D01*
X102774Y134650D01*
X102763Y134639D01*
X102757Y134633D01*
X102690Y134583D01*
X102624Y134533D01*
X102557Y134494D01*
X102485Y134461D01*
X102346Y134406D01*
X102213Y134372D01*
X102152Y134361D01*
X102097Y134350D01*
X102047Y134344D01*
X102002Y134339D01*
X101969Y134333D01*
X101919D01*
X101813Y134339D01*
X101719Y134350D01*
X101625Y134367D01*
X101536Y134389D01*
X101453Y134417D01*
X101381Y134444D01*
X101309Y134478D01*
X101248Y134511D01*
X101186Y134539D01*
X101137Y134572D01*
X101092Y134600D01*
X101059Y134627D01*
X101031Y134650D01*
X101009Y134666D01*
X100998Y134678D01*
X100992Y134683D01*
X100926Y134750D01*
X100870Y134822D01*
X100820Y134894D01*
X100776Y134966D01*
X100742Y135033D01*
X100709Y135105D01*
X100665Y135238D01*
X100654Y135299D01*
X100643Y135355D01*
X100631Y135405D01*
X100626Y135449D01*
X100620Y135482D01*
Y135510D01*
Y135527D01*
Y135532D01*
X100626Y135665D01*
X100648Y135787D01*
X100681Y135893D01*
X100715Y135982D01*
X100748Y136054D01*
X100781Y136109D01*
X100803Y136143D01*
X100809Y136154D01*
X100887Y136237D01*
X100970Y136309D01*
X101059Y136365D01*
X101148Y136409D01*
X101225Y136442D01*
X101286Y136465D01*
X101309Y136470D01*
X101325Y136476D01*
X101336Y136481D01*
X101342D01*
X101248Y136531D01*
X101170Y136581D01*
X101103Y136637D01*
X101048Y136687D01*
X101003Y136731D01*
X100970Y136770D01*
X100953Y136792D01*
X100948Y136803D01*
X100903Y136881D01*
X100870Y136959D01*
X100842Y137036D01*
X100826Y137108D01*
X100814Y137170D01*
X100809Y137214D01*
Y137247D01*
Y137258D01*
X100814Y137353D01*
X100831Y137447D01*
X100853Y137530D01*
X100881Y137602D01*
X100909Y137663D01*
X100931Y137713D01*
X100948Y137741D01*
X100953Y137752D01*
X101009Y137835D01*
X101075Y137908D01*
X101142Y137969D01*
X101209Y138024D01*
X101264Y138063D01*
X101314Y138096D01*
X101347Y138113D01*
X101353Y138119D01*
X101358D01*
X101458Y138163D01*
X101558Y138196D01*
X101658Y138224D01*
X101747Y138241D01*
X101819Y138252D01*
X101880Y138257D01*
X102019D01*
X102097Y138246D01*
D02*
G37*
G36*
X104711Y138163D02*
X104772Y138074D01*
X104844Y137985D01*
X104910Y137908D01*
X104977Y137841D01*
X105027Y137785D01*
X105049Y137769D01*
X105066Y137752D01*
X105071Y137747D01*
X105077Y137741D01*
X105193Y137647D01*
X105310Y137558D01*
X105421Y137480D01*
X105532Y137419D01*
X105626Y137364D01*
X105665Y137341D01*
X105699Y137325D01*
X105726Y137308D01*
X105748Y137303D01*
X105760Y137292D01*
X105765D01*
Y136836D01*
X105682Y136870D01*
X105599Y136909D01*
X105515Y136948D01*
X105438Y136986D01*
X105371Y137020D01*
X105316Y137047D01*
X105282Y137070D01*
X105277Y137075D01*
X105271D01*
X105171Y137136D01*
X105082Y137197D01*
X105005Y137253D01*
X104944Y137303D01*
X104888Y137341D01*
X104855Y137375D01*
X104827Y137397D01*
X104822Y137402D01*
Y134400D01*
X104350D01*
Y138257D01*
X104655D01*
X104711Y138163D01*
D02*
G37*
G36*
X109800Y134400D02*
X109289D01*
Y136104D01*
X108634D01*
X108573Y136098D01*
X108529D01*
X108490Y136093D01*
X108462Y136087D01*
X108440D01*
X108429Y136082D01*
X108424D01*
X108335Y136054D01*
X108296Y136037D01*
X108263Y136021D01*
X108229Y136004D01*
X108207Y135993D01*
X108196Y135987D01*
X108191Y135982D01*
X108146Y135949D01*
X108102Y135910D01*
X108019Y135826D01*
X107980Y135787D01*
X107952Y135754D01*
X107935Y135732D01*
X107930Y135726D01*
X107874Y135649D01*
X107813Y135565D01*
X107752Y135477D01*
X107691Y135394D01*
X107641Y135316D01*
X107602Y135255D01*
X107586Y135232D01*
X107574Y135216D01*
X107563Y135205D01*
Y135199D01*
X107058Y134400D01*
X106426D01*
X107086Y135443D01*
X107164Y135554D01*
X107236Y135654D01*
X107308Y135738D01*
X107369Y135815D01*
X107425Y135871D01*
X107469Y135915D01*
X107497Y135943D01*
X107508Y135954D01*
X107552Y135987D01*
X107602Y136026D01*
X107702Y136087D01*
X107747Y136109D01*
X107780Y136132D01*
X107802Y136143D01*
X107813Y136148D01*
X107713Y136165D01*
X107619Y136181D01*
X107536Y136209D01*
X107452Y136232D01*
X107380Y136259D01*
X107314Y136293D01*
X107253Y136320D01*
X107197Y136348D01*
X107153Y136381D01*
X107108Y136409D01*
X107075Y136431D01*
X107047Y136453D01*
X107025Y136470D01*
X107008Y136487D01*
X107003Y136492D01*
X106997Y136498D01*
X106953Y136553D01*
X106908Y136609D01*
X106842Y136725D01*
X106798Y136842D01*
X106764Y136953D01*
X106742Y137047D01*
X106736Y137086D01*
Y137125D01*
X106731Y137153D01*
Y137175D01*
Y137186D01*
Y137192D01*
X106736Y137308D01*
X106753Y137414D01*
X106781Y137514D01*
X106808Y137597D01*
X106842Y137669D01*
X106864Y137724D01*
X106886Y137758D01*
X106892Y137763D01*
Y137769D01*
X106958Y137858D01*
X107025Y137935D01*
X107097Y138002D01*
X107164Y138052D01*
X107225Y138091D01*
X107275Y138113D01*
X107308Y138130D01*
X107314Y138135D01*
X107319D01*
X107369Y138152D01*
X107430Y138169D01*
X107552Y138196D01*
X107685Y138213D01*
X107808Y138230D01*
X107924Y138235D01*
X107974D01*
X108019Y138241D01*
X109800D01*
Y134400D01*
D02*
G37*
G36*
X179469Y138652D02*
X179563Y138646D01*
X179652Y138629D01*
X179735Y138613D01*
X179813Y138591D01*
X179885Y138568D01*
X179952Y138541D01*
X180013Y138513D01*
X180068Y138485D01*
X180113Y138457D01*
X180152Y138435D01*
X180185Y138413D01*
X180213Y138396D01*
X180229Y138380D01*
X180240Y138374D01*
X180246Y138369D01*
X180301Y138313D01*
X180351Y138252D01*
X180401Y138186D01*
X180440Y138119D01*
X180507Y137986D01*
X180551Y137853D01*
X180568Y137792D01*
X180585Y137730D01*
X180596Y137680D01*
X180607Y137636D01*
X180612Y137597D01*
Y137569D01*
X180618Y137553D01*
Y137547D01*
X180135Y137497D01*
X180124Y137625D01*
X180102Y137736D01*
X180068Y137836D01*
X180029Y137914D01*
X179996Y137980D01*
X179963Y138024D01*
X179941Y138052D01*
X179930Y138063D01*
X179846Y138130D01*
X179757Y138180D01*
X179663Y138219D01*
X179580Y138241D01*
X179502Y138258D01*
X179436Y138263D01*
X179413Y138269D01*
X179380D01*
X179264Y138263D01*
X179158Y138241D01*
X179069Y138208D01*
X178992Y138174D01*
X178931Y138136D01*
X178892Y138108D01*
X178864Y138086D01*
X178853Y138075D01*
X178786Y137997D01*
X178736Y137919D01*
X178698Y137841D01*
X178675Y137764D01*
X178659Y137703D01*
X178653Y137647D01*
X178648Y137614D01*
Y137608D01*
Y137603D01*
X178659Y137503D01*
X178681Y137397D01*
X178720Y137303D01*
X178759Y137214D01*
X178803Y137142D01*
X178842Y137081D01*
X178853Y137059D01*
X178864Y137042D01*
X178875Y137037D01*
Y137031D01*
X178919Y136970D01*
X178975Y136909D01*
X179036Y136842D01*
X179103Y136776D01*
X179241Y136643D01*
X179380Y136509D01*
X179452Y136448D01*
X179513Y136393D01*
X179574Y136343D01*
X179624Y136299D01*
X179663Y136265D01*
X179697Y136237D01*
X179719Y136221D01*
X179724Y136215D01*
X179863Y136099D01*
X179991Y135988D01*
X180096Y135888D01*
X180179Y135804D01*
X180252Y135732D01*
X180301Y135682D01*
X180329Y135649D01*
X180340Y135644D01*
Y135638D01*
X180418Y135544D01*
X180479Y135455D01*
X180535Y135366D01*
X180579Y135288D01*
X180612Y135222D01*
X180634Y135172D01*
X180646Y135139D01*
X180651Y135133D01*
Y135127D01*
X180673Y135066D01*
X180684Y135011D01*
X180695Y134955D01*
X180701Y134905D01*
X180707Y134861D01*
Y134828D01*
Y134806D01*
Y134800D01*
X178159D01*
Y135255D01*
X180052D01*
X179985Y135350D01*
X179952Y135388D01*
X179924Y135427D01*
X179896Y135460D01*
X179874Y135483D01*
X179857Y135499D01*
X179852Y135505D01*
X179824Y135533D01*
X179791Y135560D01*
X179713Y135633D01*
X179624Y135716D01*
X179530Y135799D01*
X179441Y135871D01*
X179402Y135904D01*
X179369Y135938D01*
X179341Y135960D01*
X179319Y135977D01*
X179308Y135988D01*
X179302Y135993D01*
X179214Y136071D01*
X179125Y136143D01*
X179047Y136215D01*
X178975Y136276D01*
X178908Y136337D01*
X178853Y136393D01*
X178797Y136443D01*
X178753Y136487D01*
X178709Y136532D01*
X178675Y136565D01*
X178648Y136593D01*
X178620Y136620D01*
X178592Y136654D01*
X178581Y136665D01*
X178503Y136759D01*
X178437Y136842D01*
X178381Y136926D01*
X178337Y136992D01*
X178303Y137053D01*
X178281Y137098D01*
X178270Y137126D01*
X178265Y137137D01*
X178231Y137220D01*
X178209Y137303D01*
X178187Y137381D01*
X178176Y137447D01*
X178170Y137508D01*
X178165Y137553D01*
Y137581D01*
Y137592D01*
X178170Y137675D01*
X178181Y137753D01*
X178192Y137830D01*
X178215Y137897D01*
X178270Y138030D01*
X178326Y138136D01*
X178359Y138186D01*
X178387Y138224D01*
X178414Y138263D01*
X178442Y138291D01*
X178464Y138313D01*
X178475Y138335D01*
X178487Y138341D01*
X178492Y138347D01*
X178553Y138402D01*
X178620Y138452D01*
X178692Y138491D01*
X178764Y138524D01*
X178908Y138579D01*
X179053Y138618D01*
X179114Y138629D01*
X179175Y138641D01*
X179230Y138646D01*
X179275Y138652D01*
X179314Y138657D01*
X179369D01*
X179469Y138652D01*
D02*
G37*
G36*
X182211Y138563D02*
X182272Y138474D01*
X182344Y138385D01*
X182410Y138308D01*
X182477Y138241D01*
X182527Y138186D01*
X182549Y138169D01*
X182566Y138152D01*
X182571Y138147D01*
X182577Y138141D01*
X182694Y138047D01*
X182810Y137958D01*
X182921Y137880D01*
X183032Y137819D01*
X183126Y137764D01*
X183165Y137741D01*
X183199Y137725D01*
X183226Y137708D01*
X183248Y137703D01*
X183260Y137692D01*
X183265D01*
Y137236D01*
X183182Y137270D01*
X183099Y137309D01*
X183015Y137347D01*
X182938Y137386D01*
X182871Y137420D01*
X182816Y137447D01*
X182782Y137470D01*
X182777Y137475D01*
X182771D01*
X182671Y137536D01*
X182582Y137597D01*
X182505Y137653D01*
X182444Y137703D01*
X182388Y137741D01*
X182355Y137775D01*
X182327Y137797D01*
X182322Y137803D01*
Y134800D01*
X181850D01*
Y138657D01*
X182155D01*
X182211Y138563D01*
D02*
G37*
G36*
X187300Y134800D02*
X186789D01*
Y136504D01*
X186135D01*
X186074Y136498D01*
X186029D01*
X185990Y136493D01*
X185962Y136487D01*
X185940D01*
X185929Y136482D01*
X185924D01*
X185835Y136454D01*
X185796Y136437D01*
X185763Y136421D01*
X185729Y136404D01*
X185707Y136393D01*
X185696Y136387D01*
X185690Y136382D01*
X185646Y136348D01*
X185602Y136310D01*
X185519Y136226D01*
X185480Y136188D01*
X185452Y136154D01*
X185435Y136132D01*
X185430Y136126D01*
X185374Y136049D01*
X185313Y135966D01*
X185252Y135877D01*
X185191Y135793D01*
X185141Y135716D01*
X185102Y135655D01*
X185085Y135633D01*
X185074Y135616D01*
X185063Y135605D01*
Y135599D01*
X184558Y134800D01*
X183926D01*
X184586Y135843D01*
X184664Y135954D01*
X184736Y136054D01*
X184808Y136138D01*
X184869Y136215D01*
X184925Y136271D01*
X184969Y136315D01*
X184997Y136343D01*
X185008Y136354D01*
X185052Y136387D01*
X185102Y136426D01*
X185202Y136487D01*
X185247Y136509D01*
X185280Y136532D01*
X185302Y136543D01*
X185313Y136548D01*
X185213Y136565D01*
X185119Y136582D01*
X185036Y136609D01*
X184952Y136632D01*
X184880Y136659D01*
X184814Y136693D01*
X184753Y136720D01*
X184697Y136748D01*
X184653Y136781D01*
X184608Y136809D01*
X184575Y136831D01*
X184547Y136854D01*
X184525Y136870D01*
X184508Y136887D01*
X184503Y136892D01*
X184497Y136898D01*
X184453Y136953D01*
X184408Y137009D01*
X184342Y137126D01*
X184298Y137242D01*
X184264Y137353D01*
X184242Y137447D01*
X184236Y137486D01*
Y137525D01*
X184231Y137553D01*
Y137575D01*
Y137586D01*
Y137592D01*
X184236Y137708D01*
X184253Y137814D01*
X184281Y137914D01*
X184309Y137997D01*
X184342Y138069D01*
X184364Y138125D01*
X184386Y138158D01*
X184392Y138163D01*
Y138169D01*
X184458Y138258D01*
X184525Y138335D01*
X184597Y138402D01*
X184664Y138452D01*
X184725Y138491D01*
X184775Y138513D01*
X184808Y138530D01*
X184814Y138535D01*
X184819D01*
X184869Y138552D01*
X184930Y138568D01*
X185052Y138596D01*
X185185Y138613D01*
X185308Y138629D01*
X185424Y138635D01*
X185474D01*
X185519Y138641D01*
X187300D01*
Y134800D01*
D02*
G37*
G36*
X104711Y131663D02*
X104772Y131574D01*
X104844Y131485D01*
X104910Y131408D01*
X104977Y131341D01*
X105027Y131286D01*
X105049Y131269D01*
X105066Y131252D01*
X105071Y131247D01*
X105077Y131241D01*
X105193Y131147D01*
X105310Y131058D01*
X105421Y130980D01*
X105532Y130919D01*
X105626Y130864D01*
X105665Y130842D01*
X105699Y130825D01*
X105726Y130808D01*
X105748Y130803D01*
X105760Y130792D01*
X105765D01*
Y130336D01*
X105682Y130370D01*
X105599Y130409D01*
X105515Y130447D01*
X105438Y130486D01*
X105371Y130520D01*
X105316Y130547D01*
X105282Y130570D01*
X105277Y130575D01*
X105271D01*
X105171Y130636D01*
X105082Y130697D01*
X105005Y130753D01*
X104944Y130803D01*
X104888Y130842D01*
X104855Y130875D01*
X104827Y130897D01*
X104822Y130903D01*
Y127900D01*
X104350D01*
Y131757D01*
X104655D01*
X104711Y131663D01*
D02*
G37*
G36*
X101725D02*
X101786Y131574D01*
X101858Y131485D01*
X101925Y131408D01*
X101991Y131341D01*
X102041Y131286D01*
X102063Y131269D01*
X102080Y131252D01*
X102085Y131247D01*
X102091Y131241D01*
X102208Y131147D01*
X102324Y131058D01*
X102435Y130980D01*
X102546Y130919D01*
X102640Y130864D01*
X102679Y130842D01*
X102713Y130825D01*
X102740Y130808D01*
X102763Y130803D01*
X102774Y130792D01*
X102779D01*
Y130336D01*
X102696Y130370D01*
X102613Y130409D01*
X102530Y130447D01*
X102452Y130486D01*
X102385Y130520D01*
X102330Y130547D01*
X102296Y130570D01*
X102291Y130575D01*
X102285D01*
X102185Y130636D01*
X102097Y130697D01*
X102019Y130753D01*
X101958Y130803D01*
X101902Y130842D01*
X101869Y130875D01*
X101841Y130897D01*
X101836Y130903D01*
Y127900D01*
X101364D01*
Y131757D01*
X101669D01*
X101725Y131663D01*
D02*
G37*
G36*
X109800Y127900D02*
X109289D01*
Y129604D01*
X108634D01*
X108573Y129598D01*
X108529D01*
X108490Y129593D01*
X108462Y129587D01*
X108440D01*
X108429Y129582D01*
X108424D01*
X108335Y129554D01*
X108296Y129537D01*
X108263Y129521D01*
X108229Y129504D01*
X108207Y129493D01*
X108196Y129487D01*
X108191Y129482D01*
X108146Y129448D01*
X108102Y129410D01*
X108019Y129326D01*
X107980Y129288D01*
X107952Y129254D01*
X107935Y129232D01*
X107930Y129226D01*
X107874Y129149D01*
X107813Y129066D01*
X107752Y128977D01*
X107691Y128893D01*
X107641Y128816D01*
X107602Y128755D01*
X107586Y128733D01*
X107574Y128716D01*
X107563Y128705D01*
Y128699D01*
X107058Y127900D01*
X106426D01*
X107086Y128943D01*
X107164Y129054D01*
X107236Y129154D01*
X107308Y129238D01*
X107369Y129315D01*
X107425Y129371D01*
X107469Y129415D01*
X107497Y129443D01*
X107508Y129454D01*
X107552Y129487D01*
X107602Y129526D01*
X107702Y129587D01*
X107747Y129609D01*
X107780Y129632D01*
X107802Y129643D01*
X107813Y129648D01*
X107713Y129665D01*
X107619Y129682D01*
X107536Y129709D01*
X107452Y129732D01*
X107380Y129759D01*
X107314Y129793D01*
X107253Y129820D01*
X107197Y129848D01*
X107153Y129881D01*
X107108Y129909D01*
X107075Y129931D01*
X107047Y129954D01*
X107025Y129970D01*
X107008Y129987D01*
X107003Y129992D01*
X106997Y129998D01*
X106953Y130053D01*
X106908Y130109D01*
X106842Y130226D01*
X106798Y130342D01*
X106764Y130453D01*
X106742Y130547D01*
X106736Y130586D01*
Y130625D01*
X106731Y130653D01*
Y130675D01*
Y130686D01*
Y130692D01*
X106736Y130808D01*
X106753Y130914D01*
X106781Y131014D01*
X106808Y131097D01*
X106842Y131169D01*
X106864Y131225D01*
X106886Y131258D01*
X106892Y131263D01*
Y131269D01*
X106958Y131358D01*
X107025Y131435D01*
X107097Y131502D01*
X107164Y131552D01*
X107225Y131591D01*
X107275Y131613D01*
X107308Y131630D01*
X107314Y131635D01*
X107319D01*
X107369Y131652D01*
X107430Y131668D01*
X107552Y131696D01*
X107685Y131713D01*
X107808Y131729D01*
X107924Y131735D01*
X107974D01*
X108019Y131741D01*
X109800D01*
Y127900D01*
D02*
G37*
G36*
X182211Y132163D02*
X182272Y132074D01*
X182344Y131985D01*
X182410Y131908D01*
X182477Y131841D01*
X182527Y131786D01*
X182549Y131769D01*
X182566Y131752D01*
X182571Y131747D01*
X182577Y131741D01*
X182694Y131647D01*
X182810Y131558D01*
X182921Y131480D01*
X183032Y131419D01*
X183126Y131364D01*
X183165Y131342D01*
X183199Y131325D01*
X183226Y131308D01*
X183248Y131303D01*
X183260Y131292D01*
X183265D01*
Y130836D01*
X183182Y130870D01*
X183099Y130909D01*
X183015Y130947D01*
X182938Y130986D01*
X182871Y131020D01*
X182816Y131047D01*
X182782Y131070D01*
X182777Y131075D01*
X182771D01*
X182671Y131136D01*
X182582Y131197D01*
X182505Y131253D01*
X182444Y131303D01*
X182388Y131342D01*
X182355Y131375D01*
X182327Y131397D01*
X182322Y131403D01*
Y128400D01*
X181850D01*
Y132257D01*
X182155D01*
X182211Y132163D01*
D02*
G37*
G36*
X187300Y128400D02*
X186789D01*
Y130104D01*
X186135D01*
X186074Y130098D01*
X186029D01*
X185990Y130093D01*
X185962Y130087D01*
X185940D01*
X185929Y130082D01*
X185924D01*
X185835Y130054D01*
X185796Y130037D01*
X185763Y130021D01*
X185729Y130004D01*
X185707Y129993D01*
X185696Y129987D01*
X185690Y129982D01*
X185646Y129948D01*
X185602Y129910D01*
X185519Y129826D01*
X185480Y129788D01*
X185452Y129754D01*
X185435Y129732D01*
X185430Y129726D01*
X185374Y129649D01*
X185313Y129566D01*
X185252Y129477D01*
X185191Y129393D01*
X185141Y129316D01*
X185102Y129255D01*
X185085Y129233D01*
X185074Y129216D01*
X185063Y129205D01*
Y129199D01*
X184558Y128400D01*
X183926D01*
X184586Y129443D01*
X184664Y129554D01*
X184736Y129654D01*
X184808Y129738D01*
X184869Y129815D01*
X184925Y129871D01*
X184969Y129915D01*
X184997Y129943D01*
X185008Y129954D01*
X185052Y129987D01*
X185102Y130026D01*
X185202Y130087D01*
X185247Y130109D01*
X185280Y130132D01*
X185302Y130143D01*
X185313Y130148D01*
X185213Y130165D01*
X185119Y130182D01*
X185036Y130209D01*
X184952Y130231D01*
X184880Y130259D01*
X184814Y130293D01*
X184753Y130320D01*
X184697Y130348D01*
X184653Y130381D01*
X184608Y130409D01*
X184575Y130431D01*
X184547Y130454D01*
X184525Y130470D01*
X184508Y130487D01*
X184503Y130492D01*
X184497Y130498D01*
X184453Y130553D01*
X184408Y130609D01*
X184342Y130726D01*
X184298Y130842D01*
X184264Y130953D01*
X184242Y131047D01*
X184236Y131086D01*
Y131125D01*
X184231Y131153D01*
Y131175D01*
Y131186D01*
Y131192D01*
X184236Y131308D01*
X184253Y131414D01*
X184281Y131514D01*
X184309Y131597D01*
X184342Y131669D01*
X184364Y131725D01*
X184386Y131758D01*
X184392Y131763D01*
Y131769D01*
X184458Y131858D01*
X184525Y131935D01*
X184597Y132002D01*
X184664Y132052D01*
X184725Y132091D01*
X184775Y132113D01*
X184808Y132130D01*
X184814Y132135D01*
X184819D01*
X184869Y132152D01*
X184930Y132168D01*
X185052Y132196D01*
X185185Y132213D01*
X185308Y132229D01*
X185424Y132235D01*
X185474D01*
X185519Y132241D01*
X187300D01*
Y128400D01*
D02*
G37*
G36*
X179535Y132246D02*
X179674Y132224D01*
X179791Y132185D01*
X179891Y132146D01*
X179974Y132102D01*
X180007Y132085D01*
X180035Y132063D01*
X180057Y132052D01*
X180074Y132041D01*
X180079Y132030D01*
X180085D01*
X180185Y131941D01*
X180268Y131835D01*
X180340Y131730D01*
X180396Y131630D01*
X180440Y131536D01*
X180462Y131497D01*
X180473Y131458D01*
X180485Y131430D01*
X180496Y131408D01*
X180501Y131397D01*
Y131392D01*
X180524Y131308D01*
X180546Y131225D01*
X180579Y131042D01*
X180607Y130859D01*
X180623Y130687D01*
X180629Y130603D01*
X180634Y130531D01*
Y130465D01*
X180640Y130403D01*
Y130359D01*
Y130320D01*
Y130298D01*
Y130293D01*
X180634Y130098D01*
X180623Y129915D01*
X180607Y129749D01*
X180579Y129593D01*
X180551Y129449D01*
X180518Y129321D01*
X180485Y129205D01*
X180451Y129105D01*
X180418Y129016D01*
X180379Y128938D01*
X180351Y128872D01*
X180324Y128822D01*
X180296Y128777D01*
X180279Y128750D01*
X180268Y128733D01*
X180263Y128727D01*
X180201Y128661D01*
X180135Y128600D01*
X180063Y128544D01*
X179991Y128500D01*
X179919Y128461D01*
X179846Y128428D01*
X179774Y128405D01*
X179708Y128383D01*
X179641Y128367D01*
X179580Y128356D01*
X179525Y128345D01*
X179480Y128339D01*
X179441Y128333D01*
X179386D01*
X179236Y128345D01*
X179097Y128367D01*
X178981Y128405D01*
X178881Y128444D01*
X178797Y128483D01*
X178770Y128505D01*
X178742Y128522D01*
X178720Y128533D01*
X178703Y128544D01*
X178698Y128555D01*
X178692D01*
X178592Y128650D01*
X178509Y128750D01*
X178437Y128861D01*
X178381Y128961D01*
X178337Y129055D01*
X178315Y129094D01*
X178303Y129133D01*
X178292Y129160D01*
X178281Y129183D01*
X178276Y129194D01*
Y129199D01*
X178248Y129282D01*
X178226Y129366D01*
X178192Y129543D01*
X178165Y129726D01*
X178148Y129904D01*
X178142Y129982D01*
X178137Y130054D01*
Y130121D01*
X178131Y130182D01*
Y130226D01*
Y130265D01*
Y130287D01*
Y130293D01*
Y130398D01*
X178137Y130498D01*
Y130587D01*
X178142Y130675D01*
X178154Y130753D01*
X178159Y130831D01*
X178165Y130897D01*
X178176Y130958D01*
X178181Y131014D01*
X178192Y131064D01*
X178198Y131103D01*
X178203Y131136D01*
X178209Y131164D01*
X178215Y131181D01*
X178220Y131192D01*
Y131197D01*
X178253Y131319D01*
X178292Y131430D01*
X178337Y131525D01*
X178370Y131608D01*
X178409Y131680D01*
X178431Y131730D01*
X178453Y131758D01*
X178459Y131769D01*
X178520Y131852D01*
X178581Y131924D01*
X178648Y131985D01*
X178709Y132041D01*
X178764Y132080D01*
X178808Y132107D01*
X178836Y132124D01*
X178842Y132130D01*
X178847D01*
X178936Y132174D01*
X179031Y132202D01*
X179119Y132224D01*
X179202Y132241D01*
X179275Y132252D01*
X179336Y132257D01*
X179386D01*
X179535Y132246D01*
D02*
G37*
G36*
X105016Y125352D02*
X105105Y125341D01*
X105193Y125324D01*
X105271Y125302D01*
X105421Y125241D01*
X105488Y125213D01*
X105543Y125180D01*
X105599Y125141D01*
X105643Y125113D01*
X105687Y125080D01*
X105721Y125052D01*
X105748Y125030D01*
X105765Y125013D01*
X105776Y125002D01*
X105782Y124996D01*
X105843Y124930D01*
X105893Y124852D01*
X105943Y124780D01*
X105982Y124702D01*
X106015Y124619D01*
X106043Y124541D01*
X106081Y124397D01*
X106098Y124325D01*
X106109Y124264D01*
X106115Y124203D01*
X106120Y124153D01*
X106126Y124114D01*
Y124086D01*
Y124064D01*
Y124058D01*
X106120Y123953D01*
X106109Y123859D01*
X106098Y123764D01*
X106076Y123676D01*
X106048Y123598D01*
X106020Y123520D01*
X105993Y123454D01*
X105959Y123393D01*
X105932Y123337D01*
X105904Y123287D01*
X105876Y123248D01*
X105848Y123209D01*
X105826Y123182D01*
X105815Y123165D01*
X105804Y123154D01*
X105798Y123148D01*
X105737Y123087D01*
X105671Y123037D01*
X105604Y122987D01*
X105532Y122949D01*
X105465Y122915D01*
X105399Y122888D01*
X105271Y122849D01*
X105216Y122832D01*
X105160Y122821D01*
X105116Y122815D01*
X105071Y122810D01*
X105038Y122804D01*
X104994D01*
X104888Y122810D01*
X104788Y122826D01*
X104700Y122849D01*
X104616Y122876D01*
X104555Y122899D01*
X104505Y122921D01*
X104472Y122937D01*
X104461Y122943D01*
X104372Y122998D01*
X104294Y123059D01*
X104228Y123121D01*
X104172Y123176D01*
X104133Y123232D01*
X104100Y123270D01*
X104078Y123298D01*
X104072Y123309D01*
Y123265D01*
Y123237D01*
Y123221D01*
Y123215D01*
X104078Y123104D01*
X104084Y122998D01*
X104095Y122904D01*
X104106Y122815D01*
X104122Y122743D01*
X104133Y122688D01*
X104139Y122666D01*
Y122649D01*
X104145Y122643D01*
Y122638D01*
X104172Y122538D01*
X104200Y122449D01*
X104228Y122371D01*
X104255Y122305D01*
X104278Y122255D01*
X104300Y122216D01*
X104311Y122188D01*
X104317Y122183D01*
X104361Y122122D01*
X104405Y122072D01*
X104450Y122027D01*
X104494Y121988D01*
X104527Y121955D01*
X104561Y121933D01*
X104583Y121922D01*
X104589Y121916D01*
X104650Y121883D01*
X104716Y121861D01*
X104777Y121844D01*
X104838Y121833D01*
X104888Y121827D01*
X104927Y121822D01*
X104966D01*
X105055Y121827D01*
X105138Y121844D01*
X105210Y121866D01*
X105271Y121894D01*
X105316Y121916D01*
X105354Y121938D01*
X105377Y121955D01*
X105382Y121961D01*
X105438Y122022D01*
X105482Y122094D01*
X105521Y122172D01*
X105549Y122249D01*
X105571Y122316D01*
X105588Y122377D01*
X105593Y122399D01*
Y122410D01*
X105599Y122421D01*
Y122427D01*
X106054Y122388D01*
X106020Y122227D01*
X105976Y122088D01*
X105921Y121966D01*
X105865Y121866D01*
X105809Y121789D01*
X105782Y121755D01*
X105760Y121728D01*
X105743Y121711D01*
X105726Y121694D01*
X105721Y121689D01*
X105715Y121683D01*
X105660Y121639D01*
X105599Y121600D01*
X105476Y121539D01*
X105354Y121494D01*
X105238Y121467D01*
X105132Y121444D01*
X105088Y121439D01*
X105049D01*
X105022Y121433D01*
X104977D01*
X104822Y121444D01*
X104683Y121467D01*
X104555Y121505D01*
X104450Y121550D01*
X104405Y121567D01*
X104361Y121589D01*
X104328Y121611D01*
X104294Y121628D01*
X104272Y121639D01*
X104255Y121650D01*
X104244Y121661D01*
X104239D01*
X104128Y121755D01*
X104028Y121861D01*
X103950Y121972D01*
X103884Y122077D01*
X103828Y122172D01*
X103806Y122216D01*
X103789Y122249D01*
X103778Y122283D01*
X103767Y122305D01*
X103762Y122316D01*
Y122321D01*
X103734Y122405D01*
X103706Y122499D01*
X103667Y122688D01*
X103639Y122888D01*
X103623Y123076D01*
X103612Y123159D01*
X103606Y123243D01*
Y123315D01*
X103601Y123376D01*
Y123426D01*
Y123465D01*
Y123493D01*
Y123498D01*
Y123626D01*
X103606Y123748D01*
X103617Y123859D01*
X103628Y123964D01*
X103639Y124058D01*
X103651Y124147D01*
X103667Y124231D01*
X103684Y124303D01*
X103700Y124364D01*
X103712Y124419D01*
X103728Y124469D01*
X103739Y124508D01*
X103751Y124536D01*
X103762Y124558D01*
X103767Y124569D01*
Y124575D01*
X103834Y124708D01*
X103906Y124825D01*
X103989Y124924D01*
X104061Y125008D01*
X104133Y125069D01*
X104189Y125113D01*
X104211Y125130D01*
X104228Y125141D01*
X104233Y125152D01*
X104239D01*
X104355Y125218D01*
X104472Y125268D01*
X104589Y125307D01*
X104694Y125329D01*
X104788Y125346D01*
X104827Y125352D01*
X104855D01*
X104883Y125357D01*
X104922D01*
X105016Y125352D01*
D02*
G37*
G36*
X109800Y121500D02*
X109289D01*
Y123204D01*
X108634D01*
X108573Y123198D01*
X108529D01*
X108490Y123193D01*
X108462Y123187D01*
X108440D01*
X108429Y123182D01*
X108424D01*
X108335Y123154D01*
X108296Y123137D01*
X108263Y123121D01*
X108229Y123104D01*
X108207Y123093D01*
X108196Y123087D01*
X108191Y123082D01*
X108146Y123048D01*
X108102Y123010D01*
X108019Y122926D01*
X107980Y122888D01*
X107952Y122854D01*
X107935Y122832D01*
X107930Y122826D01*
X107874Y122749D01*
X107813Y122666D01*
X107752Y122577D01*
X107691Y122494D01*
X107641Y122416D01*
X107602Y122355D01*
X107586Y122333D01*
X107574Y122316D01*
X107563Y122305D01*
Y122299D01*
X107058Y121500D01*
X106426D01*
X107086Y122543D01*
X107164Y122654D01*
X107236Y122754D01*
X107308Y122838D01*
X107369Y122915D01*
X107425Y122971D01*
X107469Y123015D01*
X107497Y123043D01*
X107508Y123054D01*
X107552Y123087D01*
X107602Y123126D01*
X107702Y123187D01*
X107747Y123209D01*
X107780Y123232D01*
X107802Y123243D01*
X107813Y123248D01*
X107713Y123265D01*
X107619Y123282D01*
X107536Y123309D01*
X107452Y123331D01*
X107380Y123359D01*
X107314Y123393D01*
X107253Y123420D01*
X107197Y123448D01*
X107153Y123481D01*
X107108Y123509D01*
X107075Y123531D01*
X107047Y123554D01*
X107025Y123570D01*
X107008Y123587D01*
X107003Y123592D01*
X106997Y123598D01*
X106953Y123653D01*
X106908Y123709D01*
X106842Y123826D01*
X106798Y123942D01*
X106764Y124053D01*
X106742Y124147D01*
X106736Y124186D01*
Y124225D01*
X106731Y124253D01*
Y124275D01*
Y124286D01*
Y124292D01*
X106736Y124408D01*
X106753Y124514D01*
X106781Y124614D01*
X106808Y124697D01*
X106842Y124769D01*
X106864Y124825D01*
X106886Y124858D01*
X106892Y124863D01*
Y124869D01*
X106958Y124958D01*
X107025Y125035D01*
X107097Y125102D01*
X107164Y125152D01*
X107225Y125191D01*
X107275Y125213D01*
X107308Y125230D01*
X107314Y125235D01*
X107319D01*
X107369Y125252D01*
X107430Y125268D01*
X107552Y125296D01*
X107685Y125313D01*
X107808Y125329D01*
X107924Y125335D01*
X107974D01*
X108019Y125341D01*
X109800D01*
Y121500D01*
D02*
G37*
G36*
Y115100D02*
X109289D01*
Y116804D01*
X108634D01*
X108573Y116798D01*
X108529D01*
X108490Y116793D01*
X108462Y116787D01*
X108440D01*
X108429Y116782D01*
X108424D01*
X108335Y116754D01*
X108296Y116737D01*
X108263Y116721D01*
X108229Y116704D01*
X108207Y116693D01*
X108196Y116687D01*
X108191Y116682D01*
X108146Y116648D01*
X108102Y116610D01*
X108019Y116526D01*
X107980Y116488D01*
X107952Y116454D01*
X107935Y116432D01*
X107930Y116426D01*
X107874Y116349D01*
X107813Y116265D01*
X107752Y116177D01*
X107691Y116094D01*
X107641Y116016D01*
X107602Y115955D01*
X107586Y115933D01*
X107574Y115916D01*
X107563Y115905D01*
Y115899D01*
X107058Y115100D01*
X106426D01*
X107086Y116143D01*
X107164Y116254D01*
X107236Y116354D01*
X107308Y116438D01*
X107369Y116515D01*
X107425Y116571D01*
X107469Y116615D01*
X107497Y116643D01*
X107508Y116654D01*
X107552Y116687D01*
X107602Y116726D01*
X107702Y116787D01*
X107747Y116809D01*
X107780Y116832D01*
X107802Y116843D01*
X107813Y116848D01*
X107713Y116865D01*
X107619Y116882D01*
X107536Y116909D01*
X107452Y116931D01*
X107380Y116959D01*
X107314Y116993D01*
X107253Y117020D01*
X107197Y117048D01*
X107153Y117081D01*
X107108Y117109D01*
X107075Y117131D01*
X107047Y117154D01*
X107025Y117170D01*
X107008Y117187D01*
X107003Y117192D01*
X106997Y117198D01*
X106953Y117253D01*
X106908Y117309D01*
X106842Y117426D01*
X106798Y117542D01*
X106764Y117653D01*
X106742Y117747D01*
X106736Y117786D01*
Y117825D01*
X106731Y117853D01*
Y117875D01*
Y117886D01*
Y117892D01*
X106736Y118008D01*
X106753Y118114D01*
X106781Y118214D01*
X106808Y118297D01*
X106842Y118369D01*
X106864Y118424D01*
X106886Y118458D01*
X106892Y118463D01*
Y118469D01*
X106958Y118558D01*
X107025Y118635D01*
X107097Y118702D01*
X107164Y118752D01*
X107225Y118791D01*
X107275Y118813D01*
X107308Y118830D01*
X107314Y118835D01*
X107319D01*
X107369Y118852D01*
X107430Y118869D01*
X107552Y118896D01*
X107685Y118913D01*
X107808Y118930D01*
X107924Y118935D01*
X107974D01*
X108019Y118941D01*
X109800D01*
Y115100D01*
D02*
G37*
G36*
X106093Y118436D02*
X104211D01*
X104344Y118275D01*
X104472Y118103D01*
X104583Y117936D01*
X104688Y117775D01*
X104733Y117703D01*
X104772Y117636D01*
X104811Y117575D01*
X104838Y117525D01*
X104860Y117481D01*
X104877Y117453D01*
X104888Y117431D01*
X104894Y117426D01*
X105005Y117203D01*
X105105Y116981D01*
X105188Y116771D01*
X105221Y116676D01*
X105254Y116582D01*
X105288Y116499D01*
X105310Y116421D01*
X105332Y116354D01*
X105349Y116299D01*
X105366Y116249D01*
X105377Y116216D01*
X105382Y116193D01*
Y116188D01*
X105438Y115960D01*
X105460Y115849D01*
X105476Y115749D01*
X105493Y115655D01*
X105510Y115561D01*
X105521Y115483D01*
X105532Y115405D01*
X105538Y115339D01*
X105543Y115278D01*
X105549Y115222D01*
Y115178D01*
X105554Y115144D01*
Y115122D01*
Y115105D01*
Y115100D01*
X105071D01*
X105055Y115311D01*
X105027Y115505D01*
X104999Y115683D01*
X104983Y115766D01*
X104966Y115844D01*
X104955Y115910D01*
X104938Y115971D01*
X104927Y116027D01*
X104916Y116071D01*
X104905Y116104D01*
X104899Y116132D01*
X104894Y116149D01*
Y116155D01*
X104811Y116410D01*
X104722Y116648D01*
X104677Y116765D01*
X104633Y116876D01*
X104583Y116976D01*
X104539Y117076D01*
X104500Y117165D01*
X104461Y117242D01*
X104428Y117309D01*
X104400Y117370D01*
X104372Y117420D01*
X104355Y117453D01*
X104344Y117475D01*
X104339Y117481D01*
X104272Y117597D01*
X104206Y117714D01*
X104139Y117819D01*
X104072Y117919D01*
X104011Y118008D01*
X103950Y118097D01*
X103889Y118175D01*
X103839Y118241D01*
X103789Y118308D01*
X103745Y118363D01*
X103700Y118408D01*
X103667Y118447D01*
X103645Y118480D01*
X103623Y118502D01*
X103612Y118513D01*
X103606Y118519D01*
Y118891D01*
X106093D01*
Y118436D01*
D02*
G37*
G36*
X182377Y119452D02*
X182483Y119441D01*
X182582Y119418D01*
X182677Y119391D01*
X182760Y119352D01*
X182843Y119318D01*
X182915Y119274D01*
X182982Y119235D01*
X183038Y119196D01*
X183093Y119152D01*
X183138Y119119D01*
X183171Y119085D01*
X183199Y119052D01*
X183221Y119030D01*
X183232Y119019D01*
X183237Y119013D01*
X183309Y118913D01*
X183371Y118797D01*
X183426Y118675D01*
X183476Y118547D01*
X183515Y118414D01*
X183548Y118281D01*
X183576Y118142D01*
X183598Y118014D01*
X183615Y117887D01*
X183626Y117770D01*
X183637Y117665D01*
X183643Y117576D01*
Y117498D01*
X183648Y117443D01*
Y117420D01*
Y117404D01*
Y117398D01*
Y117393D01*
X183643Y117215D01*
X183631Y117049D01*
X183615Y116893D01*
X183587Y116749D01*
X183559Y116621D01*
X183531Y116505D01*
X183498Y116399D01*
X183459Y116305D01*
X183426Y116227D01*
X183393Y116155D01*
X183365Y116100D01*
X183332Y116050D01*
X183309Y116011D01*
X183293Y115989D01*
X183282Y115972D01*
X183276Y115966D01*
X183204Y115889D01*
X183126Y115822D01*
X183049Y115767D01*
X182971Y115717D01*
X182888Y115672D01*
X182810Y115639D01*
X182732Y115611D01*
X182655Y115589D01*
X182588Y115572D01*
X182521Y115556D01*
X182466Y115544D01*
X182416Y115539D01*
X182372D01*
X182344Y115533D01*
X182316D01*
X182188Y115539D01*
X182072Y115561D01*
X181966Y115583D01*
X181872Y115617D01*
X181800Y115644D01*
X181745Y115672D01*
X181722Y115678D01*
X181706Y115689D01*
X181700Y115694D01*
X181694D01*
X181600Y115761D01*
X181511Y115839D01*
X181439Y115916D01*
X181378Y115994D01*
X181328Y116066D01*
X181295Y116122D01*
X181284Y116144D01*
X181273Y116161D01*
X181267Y116166D01*
Y116172D01*
X181212Y116288D01*
X181173Y116410D01*
X181145Y116521D01*
X181128Y116627D01*
X181112Y116716D01*
Y116749D01*
X181106Y116782D01*
Y116810D01*
Y116826D01*
Y116838D01*
Y116843D01*
X181112Y116943D01*
X181123Y117037D01*
X181140Y117132D01*
X181156Y117215D01*
X181184Y117293D01*
X181212Y117370D01*
X181239Y117437D01*
X181273Y117498D01*
X181306Y117554D01*
X181334Y117604D01*
X181361Y117642D01*
X181389Y117681D01*
X181406Y117709D01*
X181423Y117726D01*
X181434Y117737D01*
X181439Y117742D01*
X181500Y117803D01*
X181567Y117859D01*
X181639Y117903D01*
X181706Y117942D01*
X181772Y117981D01*
X181839Y118009D01*
X181966Y118048D01*
X182022Y118064D01*
X182077Y118075D01*
X182122Y118081D01*
X182166Y118086D01*
X182200Y118092D01*
X182244D01*
X182344Y118086D01*
X182438Y118070D01*
X182527Y118053D01*
X182605Y118031D01*
X182671Y118003D01*
X182721Y117987D01*
X182755Y117970D01*
X182760Y117964D01*
X182766D01*
X182854Y117909D01*
X182932Y117848D01*
X183004Y117787D01*
X183060Y117720D01*
X183110Y117665D01*
X183149Y117620D01*
X183171Y117587D01*
X183176Y117581D01*
Y117681D01*
X183171Y117781D01*
X183165Y117870D01*
X183154Y117959D01*
X183149Y118036D01*
X183138Y118109D01*
X183126Y118175D01*
X183110Y118236D01*
X183099Y118292D01*
X183088Y118336D01*
X183076Y118375D01*
X183071Y118408D01*
X183060Y118430D01*
X183054Y118447D01*
X183049Y118458D01*
Y118464D01*
X182993Y118575D01*
X182938Y118675D01*
X182877Y118752D01*
X182821Y118819D01*
X182771Y118875D01*
X182732Y118913D01*
X182705Y118936D01*
X182694Y118941D01*
X182627Y118985D01*
X182560Y119013D01*
X182494Y119035D01*
X182427Y119052D01*
X182377Y119063D01*
X182333Y119069D01*
X182294D01*
X182194Y119058D01*
X182100Y119035D01*
X182022Y119002D01*
X181950Y118969D01*
X181894Y118930D01*
X181855Y118897D01*
X181833Y118875D01*
X181822Y118863D01*
X181783Y118813D01*
X181745Y118752D01*
X181711Y118686D01*
X181689Y118619D01*
X181667Y118558D01*
X181650Y118508D01*
X181645Y118475D01*
X181639Y118469D01*
Y118464D01*
X181167Y118503D01*
X181201Y118658D01*
X181251Y118797D01*
X181306Y118919D01*
X181367Y119019D01*
X181428Y119097D01*
X181450Y119130D01*
X181478Y119158D01*
X181495Y119174D01*
X181511Y119191D01*
X181517Y119196D01*
X181523Y119202D01*
X181578Y119246D01*
X181639Y119285D01*
X181761Y119352D01*
X181883Y119396D01*
X182000Y119424D01*
X182105Y119446D01*
X182150Y119452D01*
X182188D01*
X182222Y119457D01*
X182266D01*
X182377Y119452D01*
D02*
G37*
G36*
X187300Y115600D02*
X186789D01*
Y117304D01*
X186135D01*
X186074Y117298D01*
X186029D01*
X185990Y117293D01*
X185962Y117287D01*
X185940D01*
X185929Y117282D01*
X185924D01*
X185835Y117254D01*
X185796Y117237D01*
X185763Y117221D01*
X185729Y117204D01*
X185707Y117193D01*
X185696Y117187D01*
X185690Y117182D01*
X185646Y117148D01*
X185602Y117110D01*
X185519Y117026D01*
X185480Y116988D01*
X185452Y116954D01*
X185435Y116932D01*
X185430Y116926D01*
X185374Y116849D01*
X185313Y116765D01*
X185252Y116677D01*
X185191Y116594D01*
X185141Y116516D01*
X185102Y116455D01*
X185085Y116432D01*
X185074Y116416D01*
X185063Y116405D01*
Y116399D01*
X184558Y115600D01*
X183926D01*
X184586Y116643D01*
X184664Y116754D01*
X184736Y116854D01*
X184808Y116938D01*
X184869Y117015D01*
X184925Y117071D01*
X184969Y117115D01*
X184997Y117143D01*
X185008Y117154D01*
X185052Y117187D01*
X185102Y117226D01*
X185202Y117287D01*
X185247Y117309D01*
X185280Y117332D01*
X185302Y117343D01*
X185313Y117348D01*
X185213Y117365D01*
X185119Y117382D01*
X185036Y117409D01*
X184952Y117431D01*
X184880Y117459D01*
X184814Y117493D01*
X184753Y117520D01*
X184697Y117548D01*
X184653Y117581D01*
X184608Y117609D01*
X184575Y117631D01*
X184547Y117654D01*
X184525Y117670D01*
X184508Y117687D01*
X184503Y117692D01*
X184497Y117698D01*
X184453Y117753D01*
X184408Y117809D01*
X184342Y117926D01*
X184298Y118042D01*
X184264Y118153D01*
X184242Y118247D01*
X184236Y118286D01*
Y118325D01*
X184231Y118353D01*
Y118375D01*
Y118386D01*
Y118392D01*
X184236Y118508D01*
X184253Y118614D01*
X184281Y118714D01*
X184309Y118797D01*
X184342Y118869D01*
X184364Y118924D01*
X184386Y118958D01*
X184392Y118963D01*
Y118969D01*
X184458Y119058D01*
X184525Y119135D01*
X184597Y119202D01*
X184664Y119252D01*
X184725Y119291D01*
X184775Y119313D01*
X184808Y119330D01*
X184814Y119335D01*
X184819D01*
X184869Y119352D01*
X184930Y119369D01*
X185052Y119396D01*
X185185Y119413D01*
X185308Y119430D01*
X185424Y119435D01*
X185474D01*
X185519Y119441D01*
X187300D01*
Y115600D01*
D02*
G37*
G36*
X106043Y110415D02*
X105599Y110354D01*
X105560Y110415D01*
X105510Y110465D01*
X105465Y110515D01*
X105421Y110554D01*
X105377Y110581D01*
X105343Y110609D01*
X105321Y110620D01*
X105316Y110626D01*
X105244Y110659D01*
X105171Y110687D01*
X105105Y110703D01*
X105038Y110720D01*
X104983Y110726D01*
X104938Y110731D01*
X104833D01*
X104766Y110720D01*
X104650Y110692D01*
X104550Y110653D01*
X104461Y110615D01*
X104394Y110570D01*
X104344Y110531D01*
X104317Y110504D01*
X104306Y110498D01*
Y110493D01*
X104228Y110398D01*
X104172Y110298D01*
X104133Y110193D01*
X104106Y110087D01*
X104089Y109999D01*
X104084Y109960D01*
Y109926D01*
X104078Y109899D01*
Y109877D01*
Y109865D01*
Y109860D01*
Y109782D01*
X104089Y109710D01*
X104117Y109571D01*
X104156Y109455D01*
X104194Y109360D01*
X104239Y109283D01*
X104278Y109222D01*
X104294Y109205D01*
X104306Y109188D01*
X104311Y109183D01*
X104317Y109177D01*
X104361Y109133D01*
X104405Y109094D01*
X104505Y109027D01*
X104600Y108983D01*
X104694Y108955D01*
X104772Y108933D01*
X104838Y108927D01*
X104860Y108922D01*
X104894D01*
X104999Y108927D01*
X105094Y108950D01*
X105177Y108977D01*
X105244Y109011D01*
X105305Y109044D01*
X105349Y109072D01*
X105371Y109094D01*
X105382Y109099D01*
X105449Y109177D01*
X105504Y109260D01*
X105549Y109355D01*
X105582Y109438D01*
X105604Y109521D01*
X105621Y109582D01*
X105626Y109610D01*
X105632Y109627D01*
Y109638D01*
Y109643D01*
X106126Y109605D01*
X106115Y109516D01*
X106098Y109432D01*
X106048Y109277D01*
X105987Y109144D01*
X105954Y109083D01*
X105921Y109033D01*
X105893Y108983D01*
X105859Y108939D01*
X105832Y108905D01*
X105804Y108878D01*
X105782Y108855D01*
X105771Y108833D01*
X105760Y108827D01*
X105754Y108822D01*
X105687Y108772D01*
X105621Y108728D01*
X105549Y108689D01*
X105476Y108656D01*
X105338Y108606D01*
X105199Y108572D01*
X105138Y108556D01*
X105077Y108550D01*
X105027Y108545D01*
X104983Y108539D01*
X104944Y108533D01*
X104894D01*
X104777Y108539D01*
X104666Y108556D01*
X104561Y108578D01*
X104466Y108606D01*
X104378Y108644D01*
X104294Y108683D01*
X104217Y108722D01*
X104150Y108766D01*
X104089Y108811D01*
X104034Y108850D01*
X103989Y108894D01*
X103950Y108927D01*
X103923Y108955D01*
X103900Y108977D01*
X103889Y108994D01*
X103884Y109000D01*
X103828Y109072D01*
X103784Y109150D01*
X103739Y109222D01*
X103706Y109299D01*
X103651Y109449D01*
X103617Y109593D01*
X103606Y109654D01*
X103595Y109716D01*
X103590Y109766D01*
X103584Y109810D01*
X103578Y109849D01*
Y109877D01*
Y109893D01*
Y109899D01*
X103584Y109999D01*
X103595Y110093D01*
X103612Y110187D01*
X103634Y110271D01*
X103662Y110348D01*
X103690Y110426D01*
X103723Y110493D01*
X103751Y110554D01*
X103784Y110609D01*
X103817Y110659D01*
X103845Y110698D01*
X103873Y110737D01*
X103895Y110765D01*
X103911Y110781D01*
X103923Y110792D01*
X103928Y110798D01*
X103995Y110859D01*
X104061Y110914D01*
X104133Y110959D01*
X104206Y110998D01*
X104278Y111036D01*
X104350Y111064D01*
X104483Y111103D01*
X104544Y111120D01*
X104600Y111131D01*
X104650Y111136D01*
X104694Y111142D01*
X104727Y111147D01*
X104849D01*
X104916Y111136D01*
X105049Y111109D01*
X105171Y111070D01*
X105282Y111025D01*
X105371Y110981D01*
X105410Y110959D01*
X105443Y110942D01*
X105471Y110925D01*
X105488Y110914D01*
X105499Y110909D01*
X105504Y110903D01*
X105299Y111941D01*
X103762D01*
Y112391D01*
X105671D01*
X106043Y110415D01*
D02*
G37*
G36*
X109800Y108600D02*
X109289D01*
Y110304D01*
X108634D01*
X108573Y110298D01*
X108529D01*
X108490Y110293D01*
X108462Y110287D01*
X108440D01*
X108429Y110282D01*
X108424D01*
X108335Y110254D01*
X108296Y110237D01*
X108263Y110221D01*
X108229Y110204D01*
X108207Y110193D01*
X108196Y110187D01*
X108191Y110182D01*
X108146Y110149D01*
X108102Y110110D01*
X108019Y110026D01*
X107980Y109987D01*
X107952Y109954D01*
X107935Y109932D01*
X107930Y109926D01*
X107874Y109849D01*
X107813Y109766D01*
X107752Y109677D01*
X107691Y109593D01*
X107641Y109516D01*
X107602Y109455D01*
X107586Y109432D01*
X107574Y109416D01*
X107563Y109405D01*
Y109399D01*
X107058Y108600D01*
X106426D01*
X107086Y109643D01*
X107164Y109754D01*
X107236Y109854D01*
X107308Y109938D01*
X107369Y110015D01*
X107425Y110071D01*
X107469Y110115D01*
X107497Y110143D01*
X107508Y110154D01*
X107552Y110187D01*
X107602Y110226D01*
X107702Y110287D01*
X107747Y110309D01*
X107780Y110332D01*
X107802Y110343D01*
X107813Y110348D01*
X107713Y110365D01*
X107619Y110381D01*
X107536Y110409D01*
X107452Y110432D01*
X107380Y110459D01*
X107314Y110493D01*
X107253Y110520D01*
X107197Y110548D01*
X107153Y110581D01*
X107108Y110609D01*
X107075Y110631D01*
X107047Y110653D01*
X107025Y110670D01*
X107008Y110687D01*
X107003Y110692D01*
X106997Y110698D01*
X106953Y110753D01*
X106908Y110809D01*
X106842Y110925D01*
X106798Y111042D01*
X106764Y111153D01*
X106742Y111247D01*
X106736Y111286D01*
Y111325D01*
X106731Y111353D01*
Y111375D01*
Y111386D01*
Y111392D01*
X106736Y111508D01*
X106753Y111614D01*
X106781Y111714D01*
X106808Y111797D01*
X106842Y111869D01*
X106864Y111925D01*
X106886Y111958D01*
X106892Y111963D01*
Y111969D01*
X106958Y112058D01*
X107025Y112135D01*
X107097Y112202D01*
X107164Y112252D01*
X107225Y112291D01*
X107275Y112313D01*
X107308Y112330D01*
X107314Y112335D01*
X107319D01*
X107369Y112352D01*
X107430Y112369D01*
X107552Y112396D01*
X107685Y112413D01*
X107808Y112429D01*
X107924Y112435D01*
X107974D01*
X108019Y112441D01*
X109800D01*
Y108600D01*
D02*
G37*
G36*
X187300Y109100D02*
X186789D01*
Y110804D01*
X186135D01*
X186074Y110798D01*
X186029D01*
X185990Y110793D01*
X185962Y110787D01*
X185940D01*
X185929Y110782D01*
X185924D01*
X185835Y110754D01*
X185796Y110737D01*
X185763Y110721D01*
X185729Y110704D01*
X185707Y110693D01*
X185696Y110687D01*
X185690Y110682D01*
X185646Y110649D01*
X185602Y110610D01*
X185519Y110526D01*
X185480Y110487D01*
X185452Y110454D01*
X185435Y110432D01*
X185430Y110426D01*
X185374Y110349D01*
X185313Y110266D01*
X185252Y110177D01*
X185191Y110093D01*
X185141Y110016D01*
X185102Y109955D01*
X185085Y109932D01*
X185074Y109916D01*
X185063Y109905D01*
Y109899D01*
X184558Y109100D01*
X183926D01*
X184586Y110143D01*
X184664Y110254D01*
X184736Y110354D01*
X184808Y110438D01*
X184869Y110515D01*
X184925Y110571D01*
X184969Y110615D01*
X184997Y110643D01*
X185008Y110654D01*
X185052Y110687D01*
X185102Y110726D01*
X185202Y110787D01*
X185247Y110809D01*
X185280Y110832D01*
X185302Y110843D01*
X185313Y110848D01*
X185213Y110865D01*
X185119Y110881D01*
X185036Y110909D01*
X184952Y110932D01*
X184880Y110959D01*
X184814Y110993D01*
X184753Y111020D01*
X184697Y111048D01*
X184653Y111081D01*
X184608Y111109D01*
X184575Y111131D01*
X184547Y111153D01*
X184525Y111170D01*
X184508Y111187D01*
X184503Y111192D01*
X184497Y111198D01*
X184453Y111253D01*
X184408Y111309D01*
X184342Y111425D01*
X184298Y111542D01*
X184264Y111653D01*
X184242Y111747D01*
X184236Y111786D01*
Y111825D01*
X184231Y111853D01*
Y111875D01*
Y111886D01*
Y111892D01*
X184236Y112008D01*
X184253Y112114D01*
X184281Y112214D01*
X184309Y112297D01*
X184342Y112369D01*
X184364Y112425D01*
X184386Y112458D01*
X184392Y112463D01*
Y112469D01*
X184458Y112558D01*
X184525Y112635D01*
X184597Y112702D01*
X184664Y112752D01*
X184725Y112791D01*
X184775Y112813D01*
X184808Y112830D01*
X184814Y112835D01*
X184819D01*
X184869Y112852D01*
X184930Y112868D01*
X185052Y112896D01*
X185185Y112913D01*
X185308Y112929D01*
X185424Y112935D01*
X185474D01*
X185519Y112941D01*
X187300D01*
Y109100D01*
D02*
G37*
G36*
X183787Y110454D02*
Y110021D01*
X182116D01*
Y109100D01*
X181645D01*
Y110021D01*
X181123D01*
Y110454D01*
X181645D01*
Y112941D01*
X182027D01*
X183787Y110454D01*
D02*
G37*
G36*
X131879Y244287D02*
X132029Y244259D01*
X132157Y244215D01*
X132268Y244170D01*
X132318Y244142D01*
X132357Y244120D01*
X132396Y244098D01*
X132423Y244076D01*
X132446Y244059D01*
X132462Y244048D01*
X132473Y244042D01*
X132479Y244037D01*
X132584Y243931D01*
X132668Y243815D01*
X132734Y243693D01*
X132790Y243571D01*
X132823Y243465D01*
X132840Y243421D01*
X132851Y243382D01*
X132856Y243349D01*
X132862Y243326D01*
X132867Y243310D01*
Y243304D01*
X132396Y243221D01*
X132373Y243343D01*
X132340Y243449D01*
X132301Y243537D01*
X132262Y243609D01*
X132223Y243665D01*
X132190Y243704D01*
X132168Y243732D01*
X132162Y243737D01*
X132090Y243793D01*
X132013Y243837D01*
X131940Y243865D01*
X131868Y243887D01*
X131802Y243898D01*
X131752Y243909D01*
X131707D01*
X131607Y243904D01*
X131519Y243882D01*
X131441Y243854D01*
X131374Y243826D01*
X131324Y243793D01*
X131286Y243765D01*
X131258Y243743D01*
X131252Y243737D01*
X131191Y243671D01*
X131147Y243598D01*
X131119Y243526D01*
X131097Y243460D01*
X131086Y243399D01*
X131075Y243354D01*
Y243321D01*
Y243315D01*
Y243310D01*
Y243249D01*
X131086Y243193D01*
X131114Y243099D01*
X131152Y243016D01*
X131197Y242944D01*
X131241Y242894D01*
X131280Y242855D01*
X131308Y242832D01*
X131313Y242827D01*
X131319D01*
X131413Y242777D01*
X131502Y242738D01*
X131596Y242710D01*
X131680Y242694D01*
X131752Y242683D01*
X131813Y242672D01*
X131885D01*
X131907Y242677D01*
X131935D01*
X131990Y242261D01*
X131918Y242278D01*
X131852Y242289D01*
X131796Y242300D01*
X131746Y242305D01*
X131707Y242311D01*
X131657D01*
X131541Y242300D01*
X131435Y242278D01*
X131341Y242244D01*
X131263Y242205D01*
X131202Y242166D01*
X131158Y242133D01*
X131130Y242111D01*
X131119Y242100D01*
X131047Y242017D01*
X130991Y241928D01*
X130953Y241839D01*
X130930Y241750D01*
X130914Y241678D01*
X130908Y241617D01*
X130903Y241595D01*
Y241578D01*
Y241567D01*
Y241562D01*
X130914Y241440D01*
X130941Y241329D01*
X130975Y241234D01*
X131019Y241151D01*
X131064Y241084D01*
X131097Y241034D01*
X131125Y241001D01*
X131136Y240990D01*
X131225Y240912D01*
X131319Y240857D01*
X131413Y240818D01*
X131502Y240790D01*
X131580Y240774D01*
X131641Y240768D01*
X131663Y240762D01*
X131696D01*
X131796Y240768D01*
X131890Y240790D01*
X131974Y240818D01*
X132040Y240851D01*
X132096Y240879D01*
X132140Y240907D01*
X132162Y240929D01*
X132174Y240934D01*
X132240Y241012D01*
X132296Y241101D01*
X132346Y241195D01*
X132384Y241295D01*
X132412Y241378D01*
X132423Y241417D01*
X132429Y241451D01*
X132434Y241478D01*
X132440Y241500D01*
X132446Y241512D01*
Y241517D01*
X132917Y241456D01*
X132906Y241367D01*
X132889Y241284D01*
X132840Y241129D01*
X132779Y240996D01*
X132745Y240940D01*
X132712Y240884D01*
X132679Y240834D01*
X132645Y240796D01*
X132618Y240757D01*
X132590Y240729D01*
X132573Y240707D01*
X132556Y240690D01*
X132545Y240679D01*
X132540Y240674D01*
X132473Y240624D01*
X132407Y240574D01*
X132340Y240535D01*
X132268Y240501D01*
X132129Y240446D01*
X131996Y240413D01*
X131935Y240402D01*
X131879Y240390D01*
X131829Y240385D01*
X131785Y240379D01*
X131752Y240374D01*
X131702D01*
X131596Y240379D01*
X131502Y240390D01*
X131408Y240407D01*
X131319Y240429D01*
X131236Y240457D01*
X131163Y240485D01*
X131091Y240518D01*
X131030Y240551D01*
X130969Y240579D01*
X130919Y240613D01*
X130875Y240640D01*
X130842Y240668D01*
X130814Y240690D01*
X130792Y240707D01*
X130780Y240718D01*
X130775Y240723D01*
X130708Y240790D01*
X130653Y240862D01*
X130603Y240934D01*
X130559Y241007D01*
X130525Y241073D01*
X130492Y241145D01*
X130447Y241279D01*
X130436Y241340D01*
X130425Y241395D01*
X130414Y241445D01*
X130409Y241489D01*
X130403Y241523D01*
Y241550D01*
Y241567D01*
Y241573D01*
X130409Y241706D01*
X130431Y241828D01*
X130464Y241933D01*
X130498Y242022D01*
X130531Y242094D01*
X130564Y242150D01*
X130586Y242183D01*
X130592Y242194D01*
X130669Y242278D01*
X130753Y242350D01*
X130842Y242405D01*
X130930Y242450D01*
X131008Y242483D01*
X131069Y242505D01*
X131091Y242511D01*
X131108Y242516D01*
X131119Y242522D01*
X131125D01*
X131030Y242572D01*
X130953Y242622D01*
X130886Y242677D01*
X130830Y242727D01*
X130786Y242772D01*
X130753Y242810D01*
X130736Y242832D01*
X130730Y242844D01*
X130686Y242921D01*
X130653Y242999D01*
X130625Y243077D01*
X130608Y243149D01*
X130597Y243210D01*
X130592Y243254D01*
Y243288D01*
Y243299D01*
X130597Y243393D01*
X130614Y243487D01*
X130636Y243571D01*
X130664Y243643D01*
X130692Y243704D01*
X130714Y243754D01*
X130730Y243782D01*
X130736Y243793D01*
X130792Y243876D01*
X130858Y243948D01*
X130925Y244009D01*
X130991Y244065D01*
X131047Y244104D01*
X131097Y244137D01*
X131130Y244153D01*
X131136Y244159D01*
X131141D01*
X131241Y244203D01*
X131341Y244237D01*
X131441Y244264D01*
X131530Y244281D01*
X131602Y244292D01*
X131663Y244298D01*
X131802D01*
X131879Y244287D01*
D02*
G37*
G36*
X136597Y240441D02*
X136086D01*
Y242144D01*
X135431D01*
X135370Y242139D01*
X135326D01*
X135287Y242133D01*
X135259Y242128D01*
X135237D01*
X135226Y242122D01*
X135221D01*
X135132Y242094D01*
X135093Y242078D01*
X135059Y242061D01*
X135026Y242044D01*
X135004Y242033D01*
X134993Y242028D01*
X134987Y242022D01*
X134943Y241989D01*
X134899Y241950D01*
X134815Y241867D01*
X134776Y241828D01*
X134749Y241795D01*
X134732Y241773D01*
X134727Y241767D01*
X134671Y241689D01*
X134610Y241606D01*
X134549Y241517D01*
X134488Y241434D01*
X134438Y241356D01*
X134399Y241295D01*
X134382Y241273D01*
X134371Y241256D01*
X134360Y241245D01*
Y241240D01*
X133855Y240441D01*
X133222D01*
X133883Y241484D01*
X133961Y241595D01*
X134033Y241695D01*
X134105Y241778D01*
X134166Y241856D01*
X134221Y241911D01*
X134266Y241956D01*
X134294Y241983D01*
X134305Y241995D01*
X134349Y242028D01*
X134399Y242067D01*
X134499Y242128D01*
X134543Y242150D01*
X134577Y242172D01*
X134599Y242183D01*
X134610Y242189D01*
X134510Y242205D01*
X134416Y242222D01*
X134333Y242250D01*
X134249Y242272D01*
X134177Y242300D01*
X134110Y242333D01*
X134049Y242361D01*
X133994Y242389D01*
X133949Y242422D01*
X133905Y242450D01*
X133872Y242472D01*
X133844Y242494D01*
X133822Y242511D01*
X133805Y242527D01*
X133800Y242533D01*
X133794Y242538D01*
X133750Y242594D01*
X133705Y242649D01*
X133639Y242766D01*
X133594Y242882D01*
X133561Y242993D01*
X133539Y243088D01*
X133533Y243127D01*
Y243165D01*
X133528Y243193D01*
Y243215D01*
Y243227D01*
Y243232D01*
X133533Y243349D01*
X133550Y243454D01*
X133578Y243554D01*
X133605Y243637D01*
X133639Y243709D01*
X133661Y243765D01*
X133683Y243798D01*
X133689Y243804D01*
Y243809D01*
X133755Y243898D01*
X133822Y243976D01*
X133894Y244042D01*
X133961Y244092D01*
X134022Y244131D01*
X134072Y244153D01*
X134105Y244170D01*
X134110Y244176D01*
X134116D01*
X134166Y244192D01*
X134227Y244209D01*
X134349Y244237D01*
X134482Y244253D01*
X134604Y244270D01*
X134721Y244275D01*
X134771D01*
X134815Y244281D01*
X136597D01*
Y240441D01*
D02*
G37*
G36*
X143732Y244423D02*
X143827Y244418D01*
X143915Y244401D01*
X143999Y244384D01*
X144076Y244362D01*
X144149Y244340D01*
X144215Y244312D01*
X144276Y244284D01*
X144332Y244257D01*
X144376Y244229D01*
X144415Y244207D01*
X144448Y244184D01*
X144476Y244168D01*
X144493Y244151D01*
X144504Y244146D01*
X144509Y244140D01*
X144565Y244085D01*
X144615Y244023D01*
X144665Y243957D01*
X144704Y243890D01*
X144770Y243757D01*
X144815Y243624D01*
X144831Y243563D01*
X144848Y243502D01*
X144859Y243452D01*
X144870Y243407D01*
X144876Y243369D01*
Y243341D01*
X144881Y243324D01*
Y243319D01*
X144398Y243269D01*
X144387Y243396D01*
X144365Y243507D01*
X144332Y243607D01*
X144293Y243685D01*
X144260Y243752D01*
X144226Y243796D01*
X144204Y243824D01*
X144193Y243835D01*
X144110Y243901D01*
X144021Y243951D01*
X143927Y243990D01*
X143843Y244012D01*
X143766Y244029D01*
X143699Y244035D01*
X143677Y244040D01*
X143643D01*
X143527Y244035D01*
X143421Y244012D01*
X143333Y243979D01*
X143255Y243946D01*
X143194Y243907D01*
X143155Y243879D01*
X143127Y243857D01*
X143116Y243846D01*
X143050Y243768D01*
X143000Y243690D01*
X142961Y243613D01*
X142939Y243535D01*
X142922Y243474D01*
X142917Y243419D01*
X142911Y243385D01*
Y243380D01*
Y243374D01*
X142922Y243274D01*
X142944Y243169D01*
X142983Y243074D01*
X143022Y242986D01*
X143066Y242914D01*
X143105Y242852D01*
X143116Y242830D01*
X143127Y242814D01*
X143139Y242808D01*
Y242803D01*
X143183Y242741D01*
X143238Y242680D01*
X143299Y242614D01*
X143366Y242547D01*
X143505Y242414D01*
X143643Y242281D01*
X143716Y242220D01*
X143777Y242164D01*
X143838Y242114D01*
X143888Y242070D01*
X143927Y242037D01*
X143960Y242009D01*
X143982Y241992D01*
X143988Y241987D01*
X144126Y241870D01*
X144254Y241759D01*
X144360Y241659D01*
X144443Y241576D01*
X144515Y241504D01*
X144565Y241454D01*
X144593Y241421D01*
X144604Y241415D01*
Y241409D01*
X144681Y241315D01*
X144742Y241226D01*
X144798Y241138D01*
X144842Y241060D01*
X144876Y240993D01*
X144898Y240943D01*
X144909Y240910D01*
X144914Y240904D01*
Y240899D01*
X144937Y240838D01*
X144948Y240782D01*
X144959Y240727D01*
X144964Y240677D01*
X144970Y240632D01*
Y240599D01*
Y240577D01*
Y240571D01*
X142422D01*
Y241026D01*
X144315D01*
X144248Y241121D01*
X144215Y241160D01*
X144187Y241198D01*
X144160Y241232D01*
X144138Y241254D01*
X144121Y241271D01*
X144115Y241276D01*
X144088Y241304D01*
X144054Y241332D01*
X143976Y241404D01*
X143888Y241487D01*
X143793Y241570D01*
X143705Y241642D01*
X143666Y241676D01*
X143632Y241709D01*
X143605Y241731D01*
X143582Y241748D01*
X143571Y241759D01*
X143566Y241765D01*
X143477Y241842D01*
X143388Y241915D01*
X143310Y241987D01*
X143238Y242048D01*
X143172Y242109D01*
X143116Y242164D01*
X143061Y242214D01*
X143016Y242259D01*
X142972Y242303D01*
X142939Y242336D01*
X142911Y242364D01*
X142883Y242392D01*
X142855Y242425D01*
X142844Y242436D01*
X142767Y242530D01*
X142700Y242614D01*
X142645Y242697D01*
X142600Y242764D01*
X142567Y242825D01*
X142545Y242869D01*
X142534Y242897D01*
X142528Y242908D01*
X142495Y242991D01*
X142473Y243074D01*
X142450Y243152D01*
X142439Y243219D01*
X142434Y243280D01*
X142428Y243324D01*
Y243352D01*
Y243363D01*
X142434Y243446D01*
X142445Y243524D01*
X142456Y243602D01*
X142478Y243668D01*
X142534Y243801D01*
X142589Y243907D01*
X142622Y243957D01*
X142650Y243996D01*
X142678Y244035D01*
X142706Y244062D01*
X142728Y244085D01*
X142739Y244107D01*
X142750Y244112D01*
X142755Y244118D01*
X142817Y244173D01*
X142883Y244223D01*
X142955Y244262D01*
X143027Y244295D01*
X143172Y244351D01*
X143316Y244390D01*
X143377Y244401D01*
X143438Y244412D01*
X143494Y244418D01*
X143538Y244423D01*
X143577Y244429D01*
X143632D01*
X143732Y244423D01*
D02*
G37*
G36*
X148577Y240571D02*
X148067D01*
Y242275D01*
X147412D01*
X147351Y242270D01*
X147307D01*
X147268Y242264D01*
X147240Y242259D01*
X147218D01*
X147207Y242253D01*
X147201D01*
X147112Y242225D01*
X147073Y242209D01*
X147040Y242192D01*
X147007Y242175D01*
X146985Y242164D01*
X146974Y242159D01*
X146968Y242153D01*
X146924Y242120D01*
X146879Y242081D01*
X146796Y241998D01*
X146757Y241959D01*
X146729Y241926D01*
X146713Y241903D01*
X146707Y241898D01*
X146652Y241820D01*
X146591Y241737D01*
X146529Y241648D01*
X146468Y241565D01*
X146418Y241487D01*
X146380Y241426D01*
X146363Y241404D01*
X146352Y241387D01*
X146341Y241376D01*
Y241371D01*
X145836Y240571D01*
X145203D01*
X145863Y241615D01*
X145941Y241726D01*
X146013Y241826D01*
X146086Y241909D01*
X146147Y241987D01*
X146202Y242042D01*
X146247Y242087D01*
X146274Y242114D01*
X146285Y242125D01*
X146330Y242159D01*
X146380Y242197D01*
X146480Y242259D01*
X146524Y242281D01*
X146557Y242303D01*
X146580Y242314D01*
X146591Y242320D01*
X146491Y242336D01*
X146396Y242353D01*
X146313Y242381D01*
X146230Y242403D01*
X146158Y242431D01*
X146091Y242464D01*
X146030Y242492D01*
X145975Y242519D01*
X145930Y242553D01*
X145886Y242581D01*
X145852Y242603D01*
X145825Y242625D01*
X145802Y242641D01*
X145786Y242658D01*
X145780Y242664D01*
X145775Y242669D01*
X145730Y242725D01*
X145686Y242780D01*
X145619Y242897D01*
X145575Y243013D01*
X145542Y243124D01*
X145519Y243219D01*
X145514Y243258D01*
Y243296D01*
X145508Y243324D01*
Y243346D01*
Y243357D01*
Y243363D01*
X145514Y243480D01*
X145530Y243585D01*
X145558Y243685D01*
X145586Y243768D01*
X145619Y243840D01*
X145642Y243896D01*
X145664Y243929D01*
X145669Y243935D01*
Y243940D01*
X145736Y244029D01*
X145802Y244107D01*
X145875Y244173D01*
X145941Y244223D01*
X146002Y244262D01*
X146052Y244284D01*
X146086Y244301D01*
X146091Y244306D01*
X146097D01*
X146147Y244323D01*
X146208Y244340D01*
X146330Y244368D01*
X146463Y244384D01*
X146585Y244401D01*
X146702Y244406D01*
X146751D01*
X146796Y244412D01*
X148577D01*
Y240571D01*
D02*
G37*
G36*
X120136Y244334D02*
X120197Y244246D01*
X120269Y244157D01*
X120335Y244079D01*
X120402Y244012D01*
X120452Y243957D01*
X120474Y243940D01*
X120491Y243924D01*
X120496Y243918D01*
X120502Y243913D01*
X120619Y243818D01*
X120735Y243729D01*
X120846Y243652D01*
X120957Y243591D01*
X121051Y243535D01*
X121090Y243513D01*
X121124Y243496D01*
X121151Y243480D01*
X121174Y243474D01*
X121185Y243463D01*
X121190D01*
Y243008D01*
X121107Y243041D01*
X121024Y243080D01*
X120940Y243119D01*
X120863Y243158D01*
X120796Y243191D01*
X120741Y243219D01*
X120707Y243241D01*
X120702Y243247D01*
X120696D01*
X120596Y243307D01*
X120508Y243369D01*
X120430Y243424D01*
X120369Y243474D01*
X120313Y243513D01*
X120280Y243546D01*
X120252Y243568D01*
X120247Y243574D01*
Y240571D01*
X119775D01*
Y244429D01*
X120080D01*
X120136Y244334D01*
D02*
G37*
G36*
X125225Y240571D02*
X124715D01*
Y242275D01*
X124059D01*
X123998Y242270D01*
X123954D01*
X123915Y242264D01*
X123888Y242259D01*
X123865D01*
X123854Y242253D01*
X123849D01*
X123760Y242225D01*
X123721Y242209D01*
X123688Y242192D01*
X123654Y242175D01*
X123632Y242164D01*
X123621Y242159D01*
X123616Y242153D01*
X123571Y242120D01*
X123527Y242081D01*
X123443Y241998D01*
X123405Y241959D01*
X123377Y241926D01*
X123360Y241903D01*
X123355Y241898D01*
X123299Y241820D01*
X123238Y241737D01*
X123177Y241648D01*
X123116Y241565D01*
X123066Y241487D01*
X123027Y241426D01*
X123011Y241404D01*
X123000Y241387D01*
X122988Y241376D01*
Y241371D01*
X122483Y240571D01*
X121851D01*
X122511Y241615D01*
X122589Y241726D01*
X122661Y241826D01*
X122733Y241909D01*
X122794Y241987D01*
X122850Y242042D01*
X122894Y242087D01*
X122922Y242114D01*
X122933Y242125D01*
X122977Y242159D01*
X123027Y242197D01*
X123127Y242259D01*
X123172Y242281D01*
X123205Y242303D01*
X123227Y242314D01*
X123238Y242320D01*
X123138Y242336D01*
X123044Y242353D01*
X122961Y242381D01*
X122877Y242403D01*
X122805Y242431D01*
X122739Y242464D01*
X122678Y242492D01*
X122622Y242519D01*
X122578Y242553D01*
X122533Y242581D01*
X122500Y242603D01*
X122472Y242625D01*
X122450Y242641D01*
X122433Y242658D01*
X122428Y242664D01*
X122422Y242669D01*
X122378Y242725D01*
X122334Y242780D01*
X122267Y242897D01*
X122222Y243013D01*
X122189Y243124D01*
X122167Y243219D01*
X122161Y243258D01*
Y243296D01*
X122156Y243324D01*
Y243346D01*
Y243357D01*
Y243363D01*
X122161Y243480D01*
X122178Y243585D01*
X122206Y243685D01*
X122234Y243768D01*
X122267Y243840D01*
X122289Y243896D01*
X122311Y243929D01*
X122317Y243935D01*
Y243940D01*
X122383Y244029D01*
X122450Y244107D01*
X122522Y244173D01*
X122589Y244223D01*
X122650Y244262D01*
X122700Y244284D01*
X122733Y244301D01*
X122739Y244306D01*
X122744D01*
X122794Y244323D01*
X122855Y244340D01*
X122977Y244368D01*
X123110Y244384D01*
X123233Y244401D01*
X123349Y244406D01*
X123399D01*
X123443Y244412D01*
X125225D01*
Y240571D01*
D02*
G37*
G36*
X154256Y233368D02*
X154317Y233279D01*
X154389Y233190D01*
X154456Y233112D01*
X154522Y233046D01*
X154572Y232990D01*
X154594Y232974D01*
X154611Y232957D01*
X154617Y232951D01*
X154622Y232946D01*
X154739Y232851D01*
X154855Y232763D01*
X154966Y232685D01*
X155077Y232624D01*
X155172Y232568D01*
X155210Y232546D01*
X155244Y232529D01*
X155271Y232513D01*
X155294Y232507D01*
X155305Y232496D01*
X155310D01*
Y232041D01*
X155227Y232074D01*
X155144Y232113D01*
X155061Y232152D01*
X154983Y232191D01*
X154916Y232224D01*
X154861Y232252D01*
X154827Y232274D01*
X154822Y232280D01*
X154816D01*
X154717Y232341D01*
X154628Y232402D01*
X154550Y232457D01*
X154489Y232507D01*
X154433Y232546D01*
X154400Y232579D01*
X154372Y232602D01*
X154367Y232607D01*
Y229605D01*
X153895D01*
Y233462D01*
X154200D01*
X154256Y233368D01*
D02*
G37*
G36*
X156820Y230798D02*
Y230681D01*
X156831Y230581D01*
X156837Y230498D01*
X156848Y230432D01*
X156859Y230382D01*
X156864Y230343D01*
X156875Y230321D01*
Y230315D01*
X156898Y230260D01*
X156925Y230215D01*
X156959Y230176D01*
X156986Y230137D01*
X157020Y230115D01*
X157042Y230093D01*
X157059Y230082D01*
X157064Y230076D01*
X157120Y230049D01*
X157175Y230027D01*
X157231Y230015D01*
X157281Y230004D01*
X157331Y229999D01*
X157364Y229993D01*
X157397D01*
X157486Y229999D01*
X157569Y230021D01*
X157636Y230043D01*
X157697Y230076D01*
X157741Y230104D01*
X157774Y230132D01*
X157797Y230149D01*
X157802Y230154D01*
X157830Y230187D01*
X157852Y230226D01*
X157886Y230315D01*
X157919Y230415D01*
X157935Y230515D01*
X157952Y230609D01*
Y230648D01*
X157958Y230681D01*
X157963Y230715D01*
Y230737D01*
Y230748D01*
Y230753D01*
X158424Y230687D01*
Y230581D01*
X158418Y230487D01*
X158402Y230393D01*
X158391Y230310D01*
X158368Y230232D01*
X158346Y230165D01*
X158324Y230099D01*
X158302Y230043D01*
X158274Y229993D01*
X158252Y229949D01*
X158230Y229910D01*
X158207Y229882D01*
X158191Y229860D01*
X158180Y229838D01*
X158174Y229832D01*
X158169Y229827D01*
X158113Y229777D01*
X158057Y229732D01*
X157996Y229694D01*
X157930Y229660D01*
X157802Y229610D01*
X157680Y229577D01*
X157564Y229555D01*
X157519Y229549D01*
X157475Y229544D01*
X157441Y229538D01*
X157392D01*
X157270Y229544D01*
X157158Y229560D01*
X157059Y229583D01*
X156970Y229610D01*
X156898Y229632D01*
X156848Y229655D01*
X156814Y229671D01*
X156803Y229677D01*
X156714Y229732D01*
X156637Y229799D01*
X156576Y229866D01*
X156520Y229927D01*
X156481Y229988D01*
X156454Y230032D01*
X156437Y230065D01*
X156431Y230071D01*
Y230076D01*
X156393Y230187D01*
X156359Y230304D01*
X156337Y230432D01*
X156326Y230554D01*
X156315Y230659D01*
Y230704D01*
X156309Y230748D01*
Y230781D01*
Y230803D01*
Y230820D01*
Y230826D01*
Y233445D01*
X156820D01*
Y230798D01*
D02*
G37*
G36*
X142655Y104931D02*
X142749Y104926D01*
X142838Y104909D01*
X142921Y104893D01*
X142999Y104870D01*
X143071Y104848D01*
X143138Y104820D01*
X143199Y104793D01*
X143254Y104765D01*
X143298Y104737D01*
X143337Y104715D01*
X143371Y104693D01*
X143398Y104676D01*
X143415Y104659D01*
X143426Y104654D01*
X143432Y104648D01*
X143487Y104593D01*
X143537Y104532D01*
X143587Y104465D01*
X143626Y104399D01*
X143693Y104265D01*
X143737Y104132D01*
X143754Y104071D01*
X143770Y104010D01*
X143781Y103960D01*
X143792Y103916D01*
X143798Y103877D01*
Y103849D01*
X143804Y103832D01*
Y103827D01*
X143321Y103777D01*
X143309Y103905D01*
X143287Y104016D01*
X143254Y104116D01*
X143215Y104193D01*
X143182Y104260D01*
X143149Y104304D01*
X143126Y104332D01*
X143115Y104343D01*
X143032Y104410D01*
X142943Y104460D01*
X142849Y104499D01*
X142766Y104521D01*
X142688Y104537D01*
X142621Y104543D01*
X142599Y104549D01*
X142566D01*
X142449Y104543D01*
X142344Y104521D01*
X142255Y104487D01*
X142177Y104454D01*
X142116Y104415D01*
X142077Y104387D01*
X142050Y104365D01*
X142039Y104354D01*
X141972Y104277D01*
X141922Y104199D01*
X141883Y104121D01*
X141861Y104043D01*
X141844Y103982D01*
X141839Y103927D01*
X141833Y103894D01*
Y103888D01*
Y103882D01*
X141844Y103782D01*
X141867Y103677D01*
X141905Y103583D01*
X141944Y103494D01*
X141989Y103422D01*
X142027Y103361D01*
X142039Y103339D01*
X142050Y103322D01*
X142061Y103316D01*
Y103311D01*
X142105Y103250D01*
X142161Y103189D01*
X142222Y103122D01*
X142288Y103056D01*
X142427Y102922D01*
X142566Y102789D01*
X142638Y102728D01*
X142699Y102673D01*
X142760Y102623D01*
X142810Y102578D01*
X142849Y102545D01*
X142882Y102517D01*
X142904Y102500D01*
X142910Y102495D01*
X143049Y102378D01*
X143176Y102267D01*
X143282Y102167D01*
X143365Y102084D01*
X143437Y102012D01*
X143487Y101962D01*
X143515Y101929D01*
X143526Y101923D01*
Y101918D01*
X143604Y101823D01*
X143665Y101735D01*
X143720Y101646D01*
X143765Y101568D01*
X143798Y101502D01*
X143820Y101452D01*
X143831Y101418D01*
X143837Y101413D01*
Y101407D01*
X143859Y101346D01*
X143870Y101291D01*
X143881Y101235D01*
X143887Y101185D01*
X143892Y101141D01*
Y101107D01*
Y101085D01*
Y101080D01*
X141345D01*
Y101535D01*
X143237D01*
X143171Y101629D01*
X143138Y101668D01*
X143110Y101707D01*
X143082Y101740D01*
X143060Y101762D01*
X143043Y101779D01*
X143038Y101785D01*
X143010Y101812D01*
X142976Y101840D01*
X142899Y101912D01*
X142810Y101996D01*
X142716Y102079D01*
X142627Y102151D01*
X142588Y102184D01*
X142555Y102217D01*
X142527Y102240D01*
X142505Y102256D01*
X142494Y102267D01*
X142488Y102273D01*
X142399Y102351D01*
X142311Y102423D01*
X142233Y102495D01*
X142161Y102556D01*
X142094Y102617D01*
X142039Y102673D01*
X141983Y102723D01*
X141939Y102767D01*
X141894Y102811D01*
X141861Y102845D01*
X141833Y102872D01*
X141806Y102900D01*
X141778Y102933D01*
X141767Y102945D01*
X141689Y103039D01*
X141622Y103122D01*
X141567Y103205D01*
X141522Y103272D01*
X141489Y103333D01*
X141467Y103377D01*
X141456Y103405D01*
X141450Y103416D01*
X141417Y103499D01*
X141395Y103583D01*
X141373Y103660D01*
X141361Y103727D01*
X141356Y103788D01*
X141350Y103832D01*
Y103860D01*
Y103871D01*
X141356Y103955D01*
X141367Y104032D01*
X141378Y104110D01*
X141400Y104177D01*
X141456Y104310D01*
X141511Y104415D01*
X141545Y104465D01*
X141572Y104504D01*
X141600Y104543D01*
X141628Y104571D01*
X141650Y104593D01*
X141661Y104615D01*
X141672Y104621D01*
X141678Y104626D01*
X141739Y104682D01*
X141806Y104732D01*
X141878Y104771D01*
X141950Y104804D01*
X142094Y104859D01*
X142238Y104898D01*
X142299Y104909D01*
X142360Y104920D01*
X142416Y104926D01*
X142460Y104931D01*
X142499Y104937D01*
X142555D01*
X142655Y104931D01*
D02*
G37*
G36*
X146029Y104976D02*
X146207Y104948D01*
X146362Y104915D01*
X146434Y104893D01*
X146501Y104870D01*
X146562Y104848D01*
X146617Y104826D01*
X146662Y104809D01*
X146706Y104793D01*
X146734Y104776D01*
X146756Y104765D01*
X146773Y104759D01*
X146778Y104754D01*
X146928Y104659D01*
X147056Y104549D01*
X147167Y104437D01*
X147261Y104326D01*
X147333Y104227D01*
X147361Y104182D01*
X147383Y104143D01*
X147405Y104116D01*
X147416Y104093D01*
X147422Y104077D01*
X147428Y104071D01*
X147505Y103899D01*
X147561Y103721D01*
X147600Y103544D01*
X147627Y103383D01*
X147638Y103311D01*
X147644Y103239D01*
X147650Y103183D01*
Y103128D01*
X147655Y103089D01*
Y103056D01*
Y103033D01*
Y103028D01*
X147644Y102828D01*
X147622Y102634D01*
X147594Y102462D01*
X147572Y102378D01*
X147555Y102306D01*
X147539Y102240D01*
X147516Y102179D01*
X147500Y102123D01*
X147489Y102079D01*
X147472Y102045D01*
X147467Y102018D01*
X147455Y102001D01*
Y101996D01*
X147372Y101829D01*
X147278Y101679D01*
X147178Y101551D01*
X147128Y101502D01*
X147083Y101452D01*
X147039Y101407D01*
X146995Y101368D01*
X146956Y101335D01*
X146923Y101313D01*
X146900Y101291D01*
X146878Y101274D01*
X146867Y101268D01*
X146862Y101263D01*
X146784Y101218D01*
X146706Y101180D01*
X146540Y101119D01*
X146373Y101074D01*
X146212Y101046D01*
X146134Y101035D01*
X146068Y101024D01*
X146007Y101019D01*
X145957D01*
X145913Y101013D01*
X145851D01*
X145740Y101019D01*
X145635Y101030D01*
X145535Y101041D01*
X145441Y101063D01*
X145352Y101091D01*
X145269Y101119D01*
X145191Y101146D01*
X145119Y101180D01*
X145058Y101207D01*
X144997Y101235D01*
X144952Y101263D01*
X144908Y101291D01*
X144880Y101313D01*
X144852Y101324D01*
X144841Y101335D01*
X144836Y101340D01*
X144758Y101407D01*
X144692Y101474D01*
X144630Y101551D01*
X144569Y101629D01*
X144469Y101785D01*
X144392Y101940D01*
X144359Y102012D01*
X144331Y102079D01*
X144308Y102140D01*
X144292Y102190D01*
X144275Y102234D01*
X144264Y102267D01*
X144259Y102290D01*
Y102295D01*
X144769Y102423D01*
X144791Y102334D01*
X144819Y102251D01*
X144847Y102173D01*
X144875Y102101D01*
X144908Y102034D01*
X144941Y101979D01*
X144980Y101923D01*
X145013Y101873D01*
X145041Y101829D01*
X145074Y101796D01*
X145102Y101762D01*
X145124Y101735D01*
X145147Y101718D01*
X145163Y101701D01*
X145169Y101696D01*
X145174Y101690D01*
X145230Y101646D01*
X145291Y101612D01*
X145413Y101551D01*
X145529Y101507D01*
X145646Y101479D01*
X145746Y101457D01*
X145785Y101452D01*
X145824D01*
X145857Y101446D01*
X145896D01*
X146023Y101452D01*
X146146Y101474D01*
X146257Y101502D01*
X146356Y101535D01*
X146434Y101568D01*
X146467Y101585D01*
X146495Y101596D01*
X146517Y101607D01*
X146534Y101618D01*
X146545Y101624D01*
X146551D01*
X146656Y101701D01*
X146745Y101785D01*
X146823Y101879D01*
X146884Y101968D01*
X146934Y102045D01*
X146967Y102112D01*
X146978Y102140D01*
X146989Y102156D01*
X146995Y102167D01*
Y102173D01*
X147039Y102317D01*
X147072Y102462D01*
X147100Y102606D01*
X147117Y102739D01*
X147122Y102800D01*
X147128Y102856D01*
Y102906D01*
X147134Y102945D01*
Y102978D01*
Y103006D01*
Y103022D01*
Y103028D01*
X147128Y103172D01*
X147117Y103305D01*
X147095Y103427D01*
X147072Y103538D01*
X147056Y103633D01*
X147045Y103672D01*
X147034Y103705D01*
X147028Y103733D01*
X147022Y103749D01*
X147017Y103760D01*
Y103766D01*
X146961Y103894D01*
X146900Y104010D01*
X146834Y104104D01*
X146762Y104188D01*
X146701Y104254D01*
X146651Y104299D01*
X146612Y104326D01*
X146606Y104338D01*
X146601D01*
X146484Y104410D01*
X146356Y104465D01*
X146234Y104504D01*
X146118Y104526D01*
X146012Y104543D01*
X145968Y104549D01*
X145929D01*
X145901Y104554D01*
X145857D01*
X145718Y104549D01*
X145591Y104526D01*
X145485Y104493D01*
X145391Y104460D01*
X145319Y104421D01*
X145263Y104393D01*
X145230Y104371D01*
X145219Y104360D01*
X145130Y104277D01*
X145047Y104182D01*
X144980Y104082D01*
X144925Y103982D01*
X144880Y103894D01*
X144863Y103849D01*
X144852Y103816D01*
X144841Y103788D01*
X144830Y103766D01*
X144825Y103755D01*
Y103749D01*
X144325Y103866D01*
X144359Y103966D01*
X144392Y104054D01*
X144436Y104138D01*
X144475Y104221D01*
X144519Y104293D01*
X144569Y104360D01*
X144614Y104426D01*
X144658Y104482D01*
X144703Y104526D01*
X144741Y104571D01*
X144780Y104610D01*
X144808Y104637D01*
X144836Y104665D01*
X144858Y104682D01*
X144869Y104687D01*
X144875Y104693D01*
X144952Y104743D01*
X145030Y104793D01*
X145108Y104832D01*
X145191Y104865D01*
X145358Y104915D01*
X145507Y104948D01*
X145580Y104965D01*
X145641Y104970D01*
X145702Y104976D01*
X145752Y104981D01*
X145790Y104987D01*
X145846D01*
X146029Y104976D01*
D02*
G37*
G36*
X160558Y104843D02*
X160619Y104754D01*
X160691Y104665D01*
X160758Y104587D01*
X160824Y104521D01*
X160874Y104465D01*
X160897Y104449D01*
X160913Y104432D01*
X160919Y104426D01*
X160924Y104421D01*
X161041Y104326D01*
X161157Y104238D01*
X161268Y104160D01*
X161379Y104099D01*
X161474Y104043D01*
X161513Y104021D01*
X161546Y104005D01*
X161574Y103988D01*
X161596Y103982D01*
X161607Y103971D01*
X161612D01*
Y103516D01*
X161529Y103550D01*
X161446Y103588D01*
X161363Y103627D01*
X161285Y103666D01*
X161219Y103699D01*
X161163Y103727D01*
X161130Y103749D01*
X161124Y103755D01*
X161119D01*
X161019Y103816D01*
X160930Y103877D01*
X160852Y103932D01*
X160791Y103982D01*
X160736Y104021D01*
X160702Y104054D01*
X160675Y104077D01*
X160669Y104082D01*
Y101080D01*
X160197D01*
Y104937D01*
X160503D01*
X160558Y104843D01*
D02*
G37*
G36*
X164177Y104976D02*
X164354Y104948D01*
X164510Y104915D01*
X164582Y104893D01*
X164648Y104870D01*
X164709Y104848D01*
X164765Y104826D01*
X164809Y104809D01*
X164854Y104793D01*
X164881Y104776D01*
X164904Y104765D01*
X164920Y104759D01*
X164926Y104754D01*
X165076Y104659D01*
X165203Y104549D01*
X165314Y104437D01*
X165409Y104326D01*
X165481Y104227D01*
X165509Y104182D01*
X165531Y104143D01*
X165553Y104116D01*
X165564Y104093D01*
X165570Y104077D01*
X165575Y104071D01*
X165653Y103899D01*
X165708Y103721D01*
X165747Y103544D01*
X165775Y103383D01*
X165786Y103311D01*
X165792Y103239D01*
X165797Y103183D01*
Y103128D01*
X165803Y103089D01*
Y103056D01*
Y103033D01*
Y103028D01*
X165792Y102828D01*
X165770Y102634D01*
X165742Y102462D01*
X165719Y102378D01*
X165703Y102306D01*
X165686Y102240D01*
X165664Y102179D01*
X165647Y102123D01*
X165636Y102079D01*
X165620Y102045D01*
X165614Y102018D01*
X165603Y102001D01*
Y101996D01*
X165520Y101829D01*
X165425Y101679D01*
X165325Y101551D01*
X165276Y101502D01*
X165231Y101452D01*
X165187Y101407D01*
X165142Y101368D01*
X165103Y101335D01*
X165070Y101313D01*
X165048Y101291D01*
X165026Y101274D01*
X165015Y101268D01*
X165009Y101263D01*
X164931Y101218D01*
X164854Y101180D01*
X164687Y101119D01*
X164521Y101074D01*
X164360Y101046D01*
X164282Y101035D01*
X164216Y101024D01*
X164154Y101019D01*
X164104D01*
X164060Y101013D01*
X163999D01*
X163888Y101019D01*
X163783Y101030D01*
X163683Y101041D01*
X163588Y101063D01*
X163499Y101091D01*
X163416Y101119D01*
X163339Y101146D01*
X163266Y101180D01*
X163205Y101207D01*
X163144Y101235D01*
X163100Y101263D01*
X163056Y101291D01*
X163028Y101313D01*
X163000Y101324D01*
X162989Y101335D01*
X162983Y101340D01*
X162906Y101407D01*
X162839Y101474D01*
X162778Y101551D01*
X162717Y101629D01*
X162617Y101785D01*
X162539Y101940D01*
X162506Y102012D01*
X162478Y102079D01*
X162456Y102140D01*
X162440Y102190D01*
X162423Y102234D01*
X162412Y102267D01*
X162406Y102290D01*
Y102295D01*
X162917Y102423D01*
X162939Y102334D01*
X162967Y102251D01*
X162995Y102173D01*
X163022Y102101D01*
X163056Y102034D01*
X163089Y101979D01*
X163128Y101923D01*
X163161Y101873D01*
X163189Y101829D01*
X163222Y101796D01*
X163250Y101762D01*
X163272Y101735D01*
X163294Y101718D01*
X163311Y101701D01*
X163316Y101696D01*
X163322Y101690D01*
X163377Y101646D01*
X163438Y101612D01*
X163560Y101551D01*
X163677Y101507D01*
X163794Y101479D01*
X163894Y101457D01*
X163932Y101452D01*
X163971D01*
X164005Y101446D01*
X164043D01*
X164171Y101452D01*
X164293Y101474D01*
X164404Y101502D01*
X164504Y101535D01*
X164582Y101568D01*
X164615Y101585D01*
X164643Y101596D01*
X164665Y101607D01*
X164682Y101618D01*
X164693Y101624D01*
X164698D01*
X164804Y101701D01*
X164893Y101785D01*
X164970Y101879D01*
X165031Y101968D01*
X165081Y102045D01*
X165115Y102112D01*
X165126Y102140D01*
X165137Y102156D01*
X165142Y102167D01*
Y102173D01*
X165187Y102317D01*
X165220Y102462D01*
X165248Y102606D01*
X165264Y102739D01*
X165270Y102800D01*
X165276Y102856D01*
Y102906D01*
X165281Y102945D01*
Y102978D01*
Y103006D01*
Y103022D01*
Y103028D01*
X165276Y103172D01*
X165264Y103305D01*
X165242Y103427D01*
X165220Y103538D01*
X165203Y103633D01*
X165192Y103672D01*
X165181Y103705D01*
X165176Y103733D01*
X165170Y103749D01*
X165164Y103760D01*
Y103766D01*
X165109Y103894D01*
X165048Y104010D01*
X164981Y104104D01*
X164909Y104188D01*
X164848Y104254D01*
X164798Y104299D01*
X164759Y104326D01*
X164754Y104338D01*
X164748D01*
X164632Y104410D01*
X164504Y104465D01*
X164382Y104504D01*
X164265Y104526D01*
X164160Y104543D01*
X164116Y104549D01*
X164077D01*
X164049Y104554D01*
X164005D01*
X163866Y104549D01*
X163738Y104526D01*
X163633Y104493D01*
X163538Y104460D01*
X163466Y104421D01*
X163411Y104393D01*
X163377Y104371D01*
X163366Y104360D01*
X163277Y104277D01*
X163194Y104182D01*
X163128Y104082D01*
X163072Y103982D01*
X163028Y103894D01*
X163011Y103849D01*
X163000Y103816D01*
X162989Y103788D01*
X162978Y103766D01*
X162972Y103755D01*
Y103749D01*
X162473Y103866D01*
X162506Y103966D01*
X162539Y104054D01*
X162584Y104138D01*
X162623Y104221D01*
X162667Y104293D01*
X162717Y104360D01*
X162761Y104426D01*
X162806Y104482D01*
X162850Y104526D01*
X162889Y104571D01*
X162928Y104610D01*
X162956Y104637D01*
X162983Y104665D01*
X163005Y104682D01*
X163017Y104687D01*
X163022Y104693D01*
X163100Y104743D01*
X163178Y104793D01*
X163255Y104832D01*
X163339Y104865D01*
X163505Y104915D01*
X163655Y104948D01*
X163727Y104965D01*
X163788Y104970D01*
X163849Y104976D01*
X163899Y104981D01*
X163938Y104987D01*
X163994D01*
X164177Y104976D01*
D02*
G37*
%LPC*%
G36*
X186789Y125413D02*
X185580D01*
X185430Y125408D01*
X185302Y125385D01*
X185191Y125358D01*
X185108Y125324D01*
X185036Y125291D01*
X184991Y125263D01*
X184963Y125241D01*
X184952Y125236D01*
X184886Y125163D01*
X184836Y125091D01*
X184802Y125014D01*
X184775Y124947D01*
X184764Y124880D01*
X184758Y124830D01*
X184753Y124797D01*
Y124792D01*
Y124786D01*
X184758Y124720D01*
X184769Y124653D01*
X184786Y124597D01*
X184802Y124548D01*
X184825Y124503D01*
X184841Y124470D01*
X184852Y124448D01*
X184858Y124442D01*
X184897Y124387D01*
X184947Y124337D01*
X184997Y124298D01*
X185047Y124264D01*
X185091Y124242D01*
X185124Y124225D01*
X185147Y124214D01*
X185158Y124209D01*
X185235Y124187D01*
X185324Y124170D01*
X185413Y124159D01*
X185502Y124153D01*
X185580Y124148D01*
X185646Y124142D01*
X186789D01*
Y125413D01*
D02*
G37*
G36*
X182410Y125469D02*
X182366D01*
X182272Y125463D01*
X182183Y125441D01*
X182111Y125413D01*
X182044Y125380D01*
X181994Y125347D01*
X181955Y125319D01*
X181928Y125297D01*
X181922Y125291D01*
X181861Y125219D01*
X181817Y125147D01*
X181783Y125075D01*
X181761Y125008D01*
X181750Y124947D01*
X181739Y124897D01*
Y124864D01*
Y124858D01*
Y124853D01*
X181745Y124764D01*
X181767Y124681D01*
X181794Y124609D01*
X181828Y124548D01*
X181861Y124497D01*
X181889Y124464D01*
X181911Y124436D01*
X181916Y124431D01*
X181983Y124375D01*
X182061Y124331D01*
X182133Y124303D01*
X182205Y124281D01*
X182272Y124270D01*
X182322Y124264D01*
X182355Y124259D01*
X182366D01*
X182466Y124264D01*
X182555Y124287D01*
X182632Y124314D01*
X182699Y124348D01*
X182749Y124375D01*
X182788Y124403D01*
X182816Y124425D01*
X182821Y124431D01*
X182877Y124497D01*
X182921Y124575D01*
X182949Y124647D01*
X182971Y124720D01*
X182982Y124780D01*
X182988Y124830D01*
X182993Y124864D01*
Y124869D01*
Y124875D01*
X182988Y124964D01*
X182966Y125041D01*
X182938Y125114D01*
X182904Y125175D01*
X182877Y125224D01*
X182849Y125263D01*
X182827Y125286D01*
X182821Y125291D01*
X182749Y125352D01*
X182677Y125397D01*
X182599Y125424D01*
X182527Y125447D01*
X182460Y125458D01*
X182410Y125469D01*
D02*
G37*
G36*
X182416Y123876D02*
X182383D01*
X182261Y123865D01*
X182150Y123843D01*
X182050Y123804D01*
X181966Y123765D01*
X181900Y123721D01*
X181850Y123682D01*
X181822Y123659D01*
X181811Y123648D01*
X181733Y123559D01*
X181678Y123465D01*
X181639Y123371D01*
X181611Y123288D01*
X181595Y123204D01*
X181589Y123143D01*
X181583Y123121D01*
Y123104D01*
Y123093D01*
Y123088D01*
X181595Y122971D01*
X181617Y122860D01*
X181656Y122766D01*
X181694Y122688D01*
X181733Y122627D01*
X181772Y122577D01*
X181794Y122549D01*
X181806Y122538D01*
X181894Y122466D01*
X181983Y122411D01*
X182077Y122377D01*
X182166Y122350D01*
X182244Y122333D01*
X182310Y122327D01*
X182333Y122322D01*
X182366D01*
X182444Y122327D01*
X182521Y122339D01*
X182594Y122355D01*
X182655Y122372D01*
X182705Y122389D01*
X182744Y122405D01*
X182766Y122416D01*
X182777Y122422D01*
X182843Y122466D01*
X182899Y122511D01*
X182949Y122561D01*
X182988Y122610D01*
X183021Y122649D01*
X183043Y122683D01*
X183054Y122710D01*
X183060Y122716D01*
X183088Y122788D01*
X183110Y122855D01*
X183126Y122921D01*
X183138Y122982D01*
X183143Y123032D01*
X183149Y123071D01*
Y123093D01*
Y123104D01*
X183138Y123221D01*
X183115Y123326D01*
X183082Y123421D01*
X183038Y123504D01*
X182999Y123565D01*
X182966Y123615D01*
X182943Y123643D01*
X182932Y123654D01*
X182849Y123726D01*
X182755Y123782D01*
X182666Y123820D01*
X182577Y123848D01*
X182499Y123865D01*
X182438Y123870D01*
X182416Y123876D01*
D02*
G37*
G36*
X107286Y217560D02*
X106015D01*
Y216350D01*
X106021Y216200D01*
X106043Y216072D01*
X106071Y215961D01*
X106104Y215878D01*
X106138Y215806D01*
X106165Y215762D01*
X106187Y215734D01*
X106193Y215723D01*
X106265Y215656D01*
X106337Y215606D01*
X106415Y215573D01*
X106482Y215545D01*
X106548Y215534D01*
X106598Y215528D01*
X106631Y215523D01*
X106637D01*
X106642D01*
X106709Y215528D01*
X106776Y215540D01*
X106831Y215556D01*
X106881Y215573D01*
X106926Y215595D01*
X106959Y215612D01*
X106981Y215623D01*
X106987Y215628D01*
X107042Y215667D01*
X107092Y215717D01*
X107131Y215767D01*
X107164Y215817D01*
X107186Y215862D01*
X107203Y215895D01*
X107214Y215917D01*
X107220Y215928D01*
X107242Y216006D01*
X107259Y216095D01*
X107270Y216183D01*
X107275Y216272D01*
X107281Y216350D01*
X107286Y216417D01*
Y217560D01*
D02*
G37*
G36*
X153436Y241286D02*
X152293D01*
Y240015D01*
X153503D01*
X153652Y240021D01*
X153780Y240043D01*
X153891Y240071D01*
X153974Y240104D01*
X154046Y240138D01*
X154091Y240165D01*
X154119Y240187D01*
X154130Y240193D01*
X154196Y240265D01*
X154246Y240337D01*
X154279Y240415D01*
X154307Y240482D01*
X154318Y240548D01*
X154324Y240598D01*
X154329Y240631D01*
Y240637D01*
Y240642D01*
X154324Y240709D01*
X154313Y240776D01*
X154296Y240831D01*
X154279Y240881D01*
X154257Y240926D01*
X154241Y240959D01*
X154229Y240981D01*
X154224Y240987D01*
X154185Y241042D01*
X154135Y241092D01*
X154085Y241131D01*
X154035Y241164D01*
X153991Y241186D01*
X153958Y241203D01*
X153935Y241214D01*
X153924Y241220D01*
X153847Y241242D01*
X153758Y241259D01*
X153669Y241270D01*
X153580Y241275D01*
X153503Y241281D01*
X153436Y241286D01*
D02*
G37*
G36*
X101908Y157069D02*
X101819D01*
X101764Y157058D01*
X101664Y157030D01*
X101575Y156991D01*
X101497Y156952D01*
X101436Y156908D01*
X101392Y156869D01*
X101364Y156841D01*
X101353Y156836D01*
Y156830D01*
X101281Y156736D01*
X101225Y156630D01*
X101186Y156519D01*
X101164Y156414D01*
X101148Y156325D01*
X101142Y156286D01*
Y156247D01*
X101137Y156220D01*
Y156197D01*
Y156186D01*
Y156181D01*
X101148Y156036D01*
X101170Y155909D01*
X101203Y155803D01*
X101242Y155715D01*
X101286Y155642D01*
X101320Y155593D01*
X101342Y155559D01*
X101353Y155548D01*
X101436Y155470D01*
X101525Y155415D01*
X101614Y155376D01*
X101702Y155348D01*
X101775Y155332D01*
X101836Y155326D01*
X101858Y155321D01*
X101891D01*
X102008Y155332D01*
X102113Y155354D01*
X102208Y155393D01*
X102291Y155437D01*
X102352Y155476D01*
X102402Y155515D01*
X102430Y155537D01*
X102441Y155548D01*
X102513Y155637D01*
X102568Y155737D01*
X102602Y155837D01*
X102629Y155931D01*
X102646Y156014D01*
X102652Y156048D01*
Y156081D01*
X102657Y156109D01*
Y156125D01*
Y156136D01*
Y156142D01*
X102646Y156286D01*
X102624Y156419D01*
X102585Y156536D01*
X102541Y156630D01*
X102502Y156708D01*
X102463Y156764D01*
X102452Y156780D01*
X102441Y156797D01*
X102430Y156802D01*
Y156808D01*
X102385Y156852D01*
X102341Y156897D01*
X102246Y156958D01*
X102152Y157008D01*
X102063Y157035D01*
X101991Y157058D01*
X101930Y157063D01*
X101908Y157069D01*
D02*
G37*
G36*
X109289Y157013D02*
X108080D01*
X107930Y157008D01*
X107802Y156985D01*
X107691Y156958D01*
X107608Y156924D01*
X107536Y156891D01*
X107491Y156863D01*
X107463Y156841D01*
X107452Y156836D01*
X107386Y156764D01*
X107336Y156691D01*
X107302Y156614D01*
X107275Y156547D01*
X107264Y156480D01*
X107258Y156430D01*
X107253Y156397D01*
Y156392D01*
Y156386D01*
X107258Y156319D01*
X107269Y156253D01*
X107286Y156197D01*
X107302Y156148D01*
X107325Y156103D01*
X107341Y156070D01*
X107352Y156048D01*
X107358Y156042D01*
X107397Y155986D01*
X107447Y155937D01*
X107497Y155898D01*
X107547Y155864D01*
X107591Y155842D01*
X107624Y155825D01*
X107647Y155815D01*
X107658Y155809D01*
X107735Y155787D01*
X107824Y155770D01*
X107913Y155759D01*
X108002Y155753D01*
X108080Y155748D01*
X108146Y155742D01*
X109289D01*
Y157013D01*
D02*
G37*
G36*
X186789Y157513D02*
X185580D01*
X185430Y157508D01*
X185302Y157485D01*
X185191Y157458D01*
X185108Y157424D01*
X185036Y157391D01*
X184991Y157363D01*
X184963Y157341D01*
X184952Y157336D01*
X184886Y157264D01*
X184836Y157191D01*
X184802Y157114D01*
X184775Y157047D01*
X184764Y156980D01*
X184758Y156930D01*
X184753Y156897D01*
Y156892D01*
Y156886D01*
X184758Y156819D01*
X184769Y156753D01*
X184786Y156697D01*
X184802Y156648D01*
X184825Y156603D01*
X184841Y156570D01*
X184852Y156548D01*
X184858Y156542D01*
X184897Y156486D01*
X184947Y156437D01*
X184997Y156398D01*
X185047Y156364D01*
X185091Y156342D01*
X185124Y156325D01*
X185147Y156315D01*
X185158Y156309D01*
X185235Y156287D01*
X185324Y156270D01*
X185413Y156259D01*
X185502Y156253D01*
X185580Y156248D01*
X185646Y156242D01*
X186789D01*
Y157513D01*
D02*
G37*
G36*
X179425Y157569D02*
X179380D01*
X179286Y157563D01*
X179197Y157541D01*
X179125Y157513D01*
X179058Y157480D01*
X179008Y157447D01*
X178970Y157419D01*
X178942Y157397D01*
X178936Y157391D01*
X178875Y157319D01*
X178831Y157247D01*
X178797Y157175D01*
X178775Y157108D01*
X178764Y157047D01*
X178753Y156997D01*
Y156964D01*
Y156958D01*
Y156953D01*
X178759Y156864D01*
X178781Y156781D01*
X178808Y156709D01*
X178842Y156648D01*
X178875Y156597D01*
X178903Y156564D01*
X178925Y156536D01*
X178931Y156531D01*
X178997Y156475D01*
X179075Y156431D01*
X179147Y156403D01*
X179219Y156381D01*
X179286Y156370D01*
X179336Y156364D01*
X179369Y156359D01*
X179380D01*
X179480Y156364D01*
X179569Y156387D01*
X179647Y156414D01*
X179713Y156448D01*
X179763Y156475D01*
X179802Y156503D01*
X179830Y156525D01*
X179835Y156531D01*
X179891Y156597D01*
X179935Y156675D01*
X179963Y156747D01*
X179985Y156819D01*
X179996Y156880D01*
X180002Y156930D01*
X180007Y156964D01*
Y156969D01*
Y156975D01*
X180002Y157064D01*
X179980Y157141D01*
X179952Y157214D01*
X179919Y157275D01*
X179891Y157325D01*
X179863Y157363D01*
X179841Y157386D01*
X179835Y157391D01*
X179763Y157452D01*
X179691Y157497D01*
X179613Y157524D01*
X179541Y157547D01*
X179474Y157558D01*
X179425Y157569D01*
D02*
G37*
G36*
X179430Y155976D02*
X179397D01*
X179275Y155965D01*
X179164Y155943D01*
X179064Y155904D01*
X178981Y155865D01*
X178914Y155821D01*
X178864Y155782D01*
X178836Y155759D01*
X178825Y155748D01*
X178747Y155659D01*
X178692Y155565D01*
X178653Y155471D01*
X178625Y155388D01*
X178609Y155304D01*
X178603Y155243D01*
X178598Y155221D01*
Y155204D01*
Y155193D01*
Y155188D01*
X178609Y155071D01*
X178631Y154960D01*
X178670Y154866D01*
X178709Y154788D01*
X178747Y154727D01*
X178786Y154677D01*
X178808Y154649D01*
X178820Y154638D01*
X178908Y154566D01*
X178997Y154511D01*
X179092Y154477D01*
X179180Y154450D01*
X179258Y154433D01*
X179325Y154427D01*
X179347Y154422D01*
X179380D01*
X179458Y154427D01*
X179535Y154439D01*
X179608Y154455D01*
X179669Y154472D01*
X179719Y154489D01*
X179757Y154505D01*
X179780Y154516D01*
X179791Y154522D01*
X179857Y154566D01*
X179913Y154611D01*
X179963Y154660D01*
X180002Y154710D01*
X180035Y154749D01*
X180057Y154783D01*
X180068Y154810D01*
X180074Y154816D01*
X180102Y154888D01*
X180124Y154955D01*
X180140Y155021D01*
X180152Y155082D01*
X180157Y155132D01*
X180163Y155171D01*
Y155193D01*
Y155204D01*
X180152Y155321D01*
X180129Y155426D01*
X180096Y155521D01*
X180052Y155604D01*
X180013Y155665D01*
X179980Y155715D01*
X179957Y155743D01*
X179946Y155754D01*
X179863Y155826D01*
X179769Y155882D01*
X179680Y155920D01*
X179591Y155948D01*
X179513Y155965D01*
X179452Y155970D01*
X179430Y155976D01*
D02*
G37*
G36*
X109289Y150613D02*
X108080D01*
X107930Y150608D01*
X107802Y150585D01*
X107691Y150558D01*
X107608Y150524D01*
X107536Y150491D01*
X107491Y150463D01*
X107463Y150441D01*
X107452Y150436D01*
X107386Y150364D01*
X107336Y150291D01*
X107302Y150214D01*
X107275Y150147D01*
X107264Y150080D01*
X107258Y150031D01*
X107253Y149997D01*
Y149992D01*
Y149986D01*
X107258Y149919D01*
X107269Y149853D01*
X107286Y149797D01*
X107302Y149748D01*
X107325Y149703D01*
X107341Y149670D01*
X107352Y149648D01*
X107358Y149642D01*
X107397Y149586D01*
X107447Y149537D01*
X107497Y149498D01*
X107547Y149464D01*
X107591Y149442D01*
X107624Y149425D01*
X107647Y149415D01*
X107658Y149409D01*
X107735Y149387D01*
X107824Y149370D01*
X107913Y149359D01*
X108002Y149353D01*
X108080Y149348D01*
X108146Y149342D01*
X109289D01*
Y150613D01*
D02*
G37*
G36*
X179386Y149776D02*
X179352D01*
X179236Y149765D01*
X179130Y149737D01*
X179042Y149704D01*
X178964Y149659D01*
X178903Y149615D01*
X178858Y149581D01*
X178831Y149554D01*
X178820Y149543D01*
X178747Y149448D01*
X178692Y149348D01*
X178653Y149243D01*
X178631Y149143D01*
X178614Y149054D01*
X178609Y149015D01*
Y148982D01*
X178603Y148954D01*
Y148932D01*
Y148921D01*
Y148916D01*
X178614Y148766D01*
X178636Y148638D01*
X178670Y148527D01*
X178709Y148433D01*
X178753Y148360D01*
X178786Y148305D01*
X178808Y148272D01*
X178820Y148266D01*
Y148260D01*
X178858Y148216D01*
X178903Y148183D01*
X178992Y148122D01*
X179080Y148083D01*
X179158Y148050D01*
X179230Y148033D01*
X179286Y148027D01*
X179308Y148022D01*
X179336D01*
X179413Y148027D01*
X179486Y148039D01*
X179552Y148061D01*
X179608Y148083D01*
X179658Y148100D01*
X179697Y148122D01*
X179719Y148133D01*
X179730Y148138D01*
X179796Y148188D01*
X179852Y148238D01*
X179902Y148299D01*
X179941Y148349D01*
X179974Y148399D01*
X179996Y148438D01*
X180013Y148466D01*
X180018Y148477D01*
X180052Y148560D01*
X180074Y148644D01*
X180096Y148721D01*
X180107Y148793D01*
X180113Y148854D01*
X180118Y148904D01*
Y148932D01*
Y148943D01*
X180107Y149076D01*
X180085Y149193D01*
X180046Y149298D01*
X180007Y149382D01*
X179969Y149454D01*
X179930Y149504D01*
X179907Y149531D01*
X179896Y149543D01*
X179807Y149620D01*
X179719Y149676D01*
X179624Y149720D01*
X179541Y149748D01*
X179463Y149765D01*
X179408Y149770D01*
X179386Y149776D01*
D02*
G37*
G36*
X186789Y151113D02*
X185580D01*
X185430Y151108D01*
X185302Y151085D01*
X185191Y151058D01*
X185108Y151024D01*
X185036Y150991D01*
X184991Y150963D01*
X184963Y150941D01*
X184952Y150936D01*
X184886Y150864D01*
X184836Y150791D01*
X184802Y150714D01*
X184775Y150647D01*
X184764Y150580D01*
X184758Y150531D01*
X184753Y150497D01*
Y150492D01*
Y150486D01*
X184758Y150419D01*
X184769Y150353D01*
X184786Y150297D01*
X184802Y150248D01*
X184825Y150203D01*
X184841Y150170D01*
X184852Y150148D01*
X184858Y150142D01*
X184897Y150086D01*
X184947Y150037D01*
X184997Y149998D01*
X185047Y149964D01*
X185091Y149942D01*
X185124Y149925D01*
X185147Y149915D01*
X185158Y149909D01*
X185235Y149887D01*
X185324Y149870D01*
X185413Y149859D01*
X185502Y149853D01*
X185580Y149848D01*
X185646Y149842D01*
X186789D01*
Y151113D01*
D02*
G37*
G36*
X109289Y144213D02*
X108080D01*
X107930Y144208D01*
X107802Y144185D01*
X107691Y144158D01*
X107608Y144124D01*
X107536Y144091D01*
X107491Y144063D01*
X107463Y144041D01*
X107452Y144036D01*
X107386Y143964D01*
X107336Y143891D01*
X107302Y143814D01*
X107275Y143747D01*
X107264Y143680D01*
X107258Y143631D01*
X107253Y143597D01*
Y143592D01*
Y143586D01*
X107258Y143519D01*
X107269Y143453D01*
X107286Y143397D01*
X107302Y143348D01*
X107325Y143303D01*
X107341Y143270D01*
X107352Y143248D01*
X107358Y143242D01*
X107397Y143186D01*
X107447Y143137D01*
X107497Y143098D01*
X107547Y143064D01*
X107591Y143042D01*
X107624Y143026D01*
X107647Y143015D01*
X107658Y143009D01*
X107735Y142987D01*
X107824Y142970D01*
X107913Y142959D01*
X108002Y142953D01*
X108080Y142948D01*
X108146Y142942D01*
X109289D01*
Y144213D01*
D02*
G37*
G36*
X186789Y144613D02*
X185580D01*
X185430Y144608D01*
X185302Y144586D01*
X185191Y144558D01*
X185108Y144525D01*
X185036Y144491D01*
X184991Y144463D01*
X184963Y144441D01*
X184952Y144436D01*
X184886Y144363D01*
X184836Y144291D01*
X184802Y144214D01*
X184775Y144147D01*
X184764Y144080D01*
X184758Y144030D01*
X184753Y143997D01*
Y143992D01*
Y143986D01*
X184758Y143920D01*
X184769Y143853D01*
X184786Y143797D01*
X184802Y143747D01*
X184825Y143703D01*
X184841Y143670D01*
X184852Y143648D01*
X184858Y143642D01*
X184897Y143587D01*
X184947Y143537D01*
X184997Y143498D01*
X185047Y143464D01*
X185091Y143442D01*
X185124Y143426D01*
X185147Y143414D01*
X185158Y143409D01*
X185235Y143387D01*
X185324Y143370D01*
X185413Y143359D01*
X185502Y143353D01*
X185580Y143348D01*
X185646Y143342D01*
X186789D01*
Y144613D01*
D02*
G37*
G36*
X179130Y144275D02*
Y142554D01*
X180340D01*
X179130Y144275D01*
D02*
G37*
G36*
X109289Y137813D02*
X108080D01*
X107930Y137808D01*
X107802Y137785D01*
X107691Y137758D01*
X107608Y137724D01*
X107536Y137691D01*
X107491Y137663D01*
X107463Y137641D01*
X107452Y137636D01*
X107386Y137564D01*
X107336Y137491D01*
X107302Y137414D01*
X107275Y137347D01*
X107264Y137280D01*
X107258Y137231D01*
X107253Y137197D01*
Y137192D01*
Y137186D01*
X107258Y137119D01*
X107269Y137053D01*
X107286Y136997D01*
X107302Y136948D01*
X107325Y136903D01*
X107341Y136870D01*
X107352Y136848D01*
X107358Y136842D01*
X107397Y136786D01*
X107447Y136737D01*
X107497Y136698D01*
X107547Y136664D01*
X107591Y136642D01*
X107624Y136626D01*
X107647Y136615D01*
X107658Y136609D01*
X107735Y136587D01*
X107824Y136570D01*
X107913Y136559D01*
X108002Y136553D01*
X108080Y136548D01*
X108146Y136542D01*
X109289D01*
Y137813D01*
D02*
G37*
G36*
X186789Y138213D02*
X185580D01*
X185430Y138208D01*
X185302Y138186D01*
X185191Y138158D01*
X185108Y138125D01*
X185036Y138091D01*
X184991Y138063D01*
X184963Y138041D01*
X184952Y138036D01*
X184886Y137963D01*
X184836Y137891D01*
X184802Y137814D01*
X184775Y137747D01*
X184764Y137680D01*
X184758Y137630D01*
X184753Y137597D01*
Y137592D01*
Y137586D01*
X184758Y137520D01*
X184769Y137453D01*
X184786Y137397D01*
X184802Y137347D01*
X184825Y137303D01*
X184841Y137270D01*
X184852Y137248D01*
X184858Y137242D01*
X184897Y137187D01*
X184947Y137137D01*
X184997Y137098D01*
X185047Y137064D01*
X185091Y137042D01*
X185124Y137025D01*
X185147Y137014D01*
X185158Y137009D01*
X185235Y136987D01*
X185324Y136970D01*
X185413Y136959D01*
X185502Y136953D01*
X185580Y136948D01*
X185646Y136942D01*
X186789D01*
Y138213D01*
D02*
G37*
G36*
X109289Y131313D02*
X108080D01*
X107930Y131308D01*
X107802Y131286D01*
X107691Y131258D01*
X107608Y131225D01*
X107536Y131191D01*
X107491Y131163D01*
X107463Y131141D01*
X107452Y131136D01*
X107386Y131063D01*
X107336Y130991D01*
X107302Y130914D01*
X107275Y130847D01*
X107264Y130780D01*
X107258Y130730D01*
X107253Y130697D01*
Y130692D01*
Y130686D01*
X107258Y130620D01*
X107269Y130553D01*
X107286Y130497D01*
X107302Y130447D01*
X107325Y130403D01*
X107341Y130370D01*
X107352Y130348D01*
X107358Y130342D01*
X107397Y130287D01*
X107447Y130237D01*
X107497Y130198D01*
X107547Y130164D01*
X107591Y130142D01*
X107624Y130125D01*
X107647Y130114D01*
X107658Y130109D01*
X107735Y130087D01*
X107824Y130070D01*
X107913Y130059D01*
X108002Y130053D01*
X108080Y130048D01*
X108146Y130042D01*
X109289D01*
Y131313D01*
D02*
G37*
G36*
X186789Y131813D02*
X185580D01*
X185430Y131808D01*
X185302Y131786D01*
X185191Y131758D01*
X185108Y131725D01*
X185036Y131691D01*
X184991Y131663D01*
X184963Y131641D01*
X184952Y131636D01*
X184886Y131563D01*
X184836Y131491D01*
X184802Y131414D01*
X184775Y131347D01*
X184764Y131280D01*
X184758Y131230D01*
X184753Y131197D01*
Y131192D01*
Y131186D01*
X184758Y131120D01*
X184769Y131053D01*
X184786Y130997D01*
X184802Y130947D01*
X184825Y130903D01*
X184841Y130870D01*
X184852Y130848D01*
X184858Y130842D01*
X184897Y130787D01*
X184947Y130737D01*
X184997Y130698D01*
X185047Y130664D01*
X185091Y130642D01*
X185124Y130625D01*
X185147Y130614D01*
X185158Y130609D01*
X185235Y130587D01*
X185324Y130570D01*
X185413Y130559D01*
X185502Y130553D01*
X185580Y130548D01*
X185646Y130542D01*
X186789D01*
Y131813D01*
D02*
G37*
G36*
X179425Y131869D02*
X179391D01*
X179330Y131863D01*
X179269Y131858D01*
X179214Y131841D01*
X179164Y131819D01*
X179069Y131769D01*
X178986Y131713D01*
X178925Y131652D01*
X178875Y131602D01*
X178858Y131580D01*
X178847Y131563D01*
X178836Y131558D01*
Y131552D01*
X178797Y131486D01*
X178764Y131408D01*
X178731Y131319D01*
X178709Y131225D01*
X178686Y131125D01*
X178670Y131020D01*
X178642Y130809D01*
X178631Y130703D01*
X178625Y130609D01*
X178620Y130520D01*
Y130448D01*
X178614Y130381D01*
Y130331D01*
Y130304D01*
Y130298D01*
Y130293D01*
Y130121D01*
X178625Y129965D01*
X178636Y129826D01*
X178648Y129693D01*
X178664Y129582D01*
X178686Y129477D01*
X178709Y129388D01*
X178725Y129305D01*
X178747Y129238D01*
X178770Y129183D01*
X178786Y129133D01*
X178808Y129094D01*
X178820Y129066D01*
X178831Y129049D01*
X178842Y129038D01*
Y129033D01*
X178886Y128977D01*
X178931Y128933D01*
X178975Y128888D01*
X179019Y128855D01*
X179114Y128800D01*
X179197Y128761D01*
X179275Y128739D01*
X179330Y128727D01*
X179352Y128722D01*
X179386D01*
X179447Y128727D01*
X179502Y128733D01*
X179608Y128772D01*
X179702Y128822D01*
X179785Y128877D01*
X179846Y128933D01*
X179896Y128983D01*
X179924Y129022D01*
X179935Y129027D01*
Y129033D01*
X179974Y129099D01*
X180007Y129177D01*
X180041Y129266D01*
X180063Y129360D01*
X180085Y129460D01*
X180102Y129566D01*
X180129Y129782D01*
X180140Y129882D01*
X180146Y129976D01*
X180152Y130065D01*
Y130137D01*
X180157Y130204D01*
Y130254D01*
Y130281D01*
Y130293D01*
X180152Y130465D01*
X180146Y130620D01*
X180135Y130764D01*
X180118Y130897D01*
X180102Y131014D01*
X180079Y131120D01*
X180057Y131214D01*
X180035Y131297D01*
X180013Y131369D01*
X179996Y131430D01*
X179974Y131480D01*
X179957Y131525D01*
X179941Y131552D01*
X179930Y131575D01*
X179919Y131586D01*
Y131591D01*
X179880Y131641D01*
X179841Y131686D01*
X179796Y131719D01*
X179752Y131752D01*
X179663Y131802D01*
X179580Y131835D01*
X179508Y131852D01*
X179447Y131863D01*
X179425Y131869D01*
D02*
G37*
G36*
X104894Y124969D02*
X104805D01*
X104750Y124958D01*
X104650Y124930D01*
X104561Y124891D01*
X104483Y124852D01*
X104422Y124808D01*
X104378Y124769D01*
X104350Y124741D01*
X104339Y124736D01*
Y124730D01*
X104267Y124636D01*
X104211Y124530D01*
X104172Y124419D01*
X104150Y124314D01*
X104133Y124225D01*
X104128Y124186D01*
Y124147D01*
X104122Y124120D01*
Y124097D01*
Y124086D01*
Y124081D01*
X104133Y123936D01*
X104156Y123809D01*
X104189Y123703D01*
X104228Y123615D01*
X104272Y123542D01*
X104306Y123493D01*
X104328Y123459D01*
X104339Y123448D01*
X104422Y123370D01*
X104511Y123315D01*
X104600Y123276D01*
X104688Y123248D01*
X104761Y123232D01*
X104822Y123226D01*
X104844Y123221D01*
X104877D01*
X104994Y123232D01*
X105099Y123254D01*
X105193Y123293D01*
X105277Y123337D01*
X105338Y123376D01*
X105388Y123415D01*
X105415Y123437D01*
X105427Y123448D01*
X105499Y123537D01*
X105554Y123637D01*
X105588Y123737D01*
X105615Y123831D01*
X105632Y123914D01*
X105638Y123948D01*
Y123981D01*
X105643Y124009D01*
Y124025D01*
Y124036D01*
Y124042D01*
X105632Y124186D01*
X105610Y124319D01*
X105571Y124436D01*
X105526Y124530D01*
X105488Y124608D01*
X105449Y124663D01*
X105438Y124680D01*
X105427Y124697D01*
X105415Y124702D01*
Y124708D01*
X105371Y124752D01*
X105327Y124797D01*
X105232Y124858D01*
X105138Y124908D01*
X105049Y124935D01*
X104977Y124958D01*
X104916Y124963D01*
X104894Y124969D01*
D02*
G37*
G36*
X109289Y124913D02*
X108080D01*
X107930Y124908D01*
X107802Y124885D01*
X107691Y124858D01*
X107608Y124825D01*
X107536Y124791D01*
X107491Y124763D01*
X107463Y124741D01*
X107452Y124736D01*
X107386Y124663D01*
X107336Y124591D01*
X107302Y124514D01*
X107275Y124447D01*
X107264Y124380D01*
X107258Y124330D01*
X107253Y124297D01*
Y124292D01*
Y124286D01*
X107258Y124220D01*
X107269Y124153D01*
X107286Y124097D01*
X107302Y124048D01*
X107325Y124003D01*
X107341Y123970D01*
X107352Y123948D01*
X107358Y123942D01*
X107397Y123887D01*
X107447Y123837D01*
X107497Y123798D01*
X107547Y123764D01*
X107591Y123742D01*
X107624Y123725D01*
X107647Y123714D01*
X107658Y123709D01*
X107735Y123687D01*
X107824Y123670D01*
X107913Y123659D01*
X108002Y123653D01*
X108080Y123648D01*
X108146Y123642D01*
X109289D01*
Y124913D01*
D02*
G37*
G36*
Y118513D02*
X108080D01*
X107930Y118508D01*
X107802Y118485D01*
X107691Y118458D01*
X107608Y118424D01*
X107536Y118391D01*
X107491Y118363D01*
X107463Y118341D01*
X107452Y118336D01*
X107386Y118263D01*
X107336Y118191D01*
X107302Y118114D01*
X107275Y118047D01*
X107264Y117980D01*
X107258Y117930D01*
X107253Y117897D01*
Y117892D01*
Y117886D01*
X107258Y117819D01*
X107269Y117753D01*
X107286Y117697D01*
X107302Y117648D01*
X107325Y117603D01*
X107341Y117570D01*
X107352Y117548D01*
X107358Y117542D01*
X107397Y117487D01*
X107447Y117437D01*
X107497Y117398D01*
X107547Y117364D01*
X107591Y117342D01*
X107624Y117325D01*
X107647Y117315D01*
X107658Y117309D01*
X107735Y117287D01*
X107824Y117270D01*
X107913Y117259D01*
X108002Y117253D01*
X108080Y117248D01*
X108146Y117242D01*
X109289D01*
Y118513D01*
D02*
G37*
G36*
X182372Y117676D02*
X182338D01*
X182222Y117665D01*
X182116Y117637D01*
X182027Y117604D01*
X181950Y117559D01*
X181889Y117515D01*
X181844Y117481D01*
X181817Y117454D01*
X181806Y117443D01*
X181733Y117348D01*
X181678Y117248D01*
X181639Y117143D01*
X181617Y117043D01*
X181600Y116954D01*
X181595Y116915D01*
Y116882D01*
X181589Y116854D01*
Y116832D01*
Y116821D01*
Y116815D01*
X181600Y116666D01*
X181622Y116538D01*
X181656Y116427D01*
X181694Y116333D01*
X181739Y116260D01*
X181772Y116205D01*
X181794Y116172D01*
X181806Y116166D01*
Y116161D01*
X181844Y116116D01*
X181889Y116083D01*
X181977Y116022D01*
X182066Y115983D01*
X182144Y115950D01*
X182216Y115933D01*
X182272Y115927D01*
X182294Y115922D01*
X182322D01*
X182399Y115927D01*
X182472Y115939D01*
X182538Y115961D01*
X182594Y115983D01*
X182644Y116000D01*
X182682Y116022D01*
X182705Y116033D01*
X182716Y116038D01*
X182782Y116088D01*
X182838Y116138D01*
X182888Y116199D01*
X182927Y116249D01*
X182960Y116299D01*
X182982Y116338D01*
X182999Y116366D01*
X183004Y116377D01*
X183038Y116460D01*
X183060Y116543D01*
X183082Y116621D01*
X183093Y116693D01*
X183099Y116754D01*
X183104Y116804D01*
Y116832D01*
Y116843D01*
X183093Y116976D01*
X183071Y117093D01*
X183032Y117198D01*
X182993Y117282D01*
X182954Y117354D01*
X182915Y117404D01*
X182893Y117431D01*
X182882Y117443D01*
X182793Y117520D01*
X182705Y117576D01*
X182610Y117620D01*
X182527Y117648D01*
X182449Y117665D01*
X182394Y117670D01*
X182372Y117676D01*
D02*
G37*
G36*
X186789Y119013D02*
X185580D01*
X185430Y119008D01*
X185302Y118985D01*
X185191Y118958D01*
X185108Y118924D01*
X185036Y118891D01*
X184991Y118863D01*
X184963Y118841D01*
X184952Y118836D01*
X184886Y118763D01*
X184836Y118691D01*
X184802Y118614D01*
X184775Y118547D01*
X184764Y118480D01*
X184758Y118430D01*
X184753Y118397D01*
Y118392D01*
Y118386D01*
X184758Y118319D01*
X184769Y118253D01*
X184786Y118197D01*
X184802Y118148D01*
X184825Y118103D01*
X184841Y118070D01*
X184852Y118048D01*
X184858Y118042D01*
X184897Y117987D01*
X184947Y117937D01*
X184997Y117898D01*
X185047Y117864D01*
X185091Y117842D01*
X185124Y117825D01*
X185147Y117815D01*
X185158Y117809D01*
X185235Y117787D01*
X185324Y117770D01*
X185413Y117759D01*
X185502Y117753D01*
X185580Y117748D01*
X185646Y117742D01*
X186789D01*
Y119013D01*
D02*
G37*
G36*
X109289Y112013D02*
X108080D01*
X107930Y112008D01*
X107802Y111986D01*
X107691Y111958D01*
X107608Y111925D01*
X107536Y111891D01*
X107491Y111863D01*
X107463Y111841D01*
X107452Y111836D01*
X107386Y111764D01*
X107336Y111691D01*
X107302Y111614D01*
X107275Y111547D01*
X107264Y111480D01*
X107258Y111431D01*
X107253Y111397D01*
Y111392D01*
Y111386D01*
X107258Y111319D01*
X107269Y111253D01*
X107286Y111197D01*
X107302Y111147D01*
X107325Y111103D01*
X107341Y111070D01*
X107352Y111048D01*
X107358Y111042D01*
X107397Y110986D01*
X107447Y110937D01*
X107497Y110898D01*
X107547Y110864D01*
X107591Y110842D01*
X107624Y110826D01*
X107647Y110814D01*
X107658Y110809D01*
X107735Y110787D01*
X107824Y110770D01*
X107913Y110759D01*
X108002Y110753D01*
X108080Y110748D01*
X108146Y110742D01*
X109289D01*
Y112013D01*
D02*
G37*
G36*
X186789Y112513D02*
X185580D01*
X185430Y112508D01*
X185302Y112486D01*
X185191Y112458D01*
X185108Y112425D01*
X185036Y112391D01*
X184991Y112363D01*
X184963Y112341D01*
X184952Y112336D01*
X184886Y112264D01*
X184836Y112191D01*
X184802Y112114D01*
X184775Y112047D01*
X184764Y111980D01*
X184758Y111931D01*
X184753Y111897D01*
Y111892D01*
Y111886D01*
X184758Y111820D01*
X184769Y111753D01*
X184786Y111697D01*
X184802Y111647D01*
X184825Y111603D01*
X184841Y111570D01*
X184852Y111548D01*
X184858Y111542D01*
X184897Y111486D01*
X184947Y111437D01*
X184997Y111398D01*
X185047Y111364D01*
X185091Y111342D01*
X185124Y111326D01*
X185147Y111314D01*
X185158Y111309D01*
X185235Y111287D01*
X185324Y111270D01*
X185413Y111259D01*
X185502Y111253D01*
X185580Y111248D01*
X185646Y111242D01*
X186789D01*
Y112513D01*
D02*
G37*
G36*
X182116Y112175D02*
Y110454D01*
X183326D01*
X182116Y112175D01*
D02*
G37*
G36*
X136086Y243854D02*
X134876D01*
X134727Y243848D01*
X134599Y243826D01*
X134488Y243798D01*
X134405Y243765D01*
X134333Y243732D01*
X134288Y243704D01*
X134260Y243682D01*
X134249Y243676D01*
X134183Y243604D01*
X134133Y243532D01*
X134099Y243454D01*
X134072Y243388D01*
X134061Y243321D01*
X134055Y243271D01*
X134049Y243238D01*
Y243232D01*
Y243227D01*
X134055Y243160D01*
X134066Y243093D01*
X134083Y243038D01*
X134099Y242988D01*
X134122Y242944D01*
X134138Y242910D01*
X134149Y242888D01*
X134155Y242882D01*
X134194Y242827D01*
X134244Y242777D01*
X134294Y242738D01*
X134344Y242705D01*
X134388Y242683D01*
X134421Y242666D01*
X134443Y242655D01*
X134455Y242649D01*
X134532Y242627D01*
X134621Y242611D01*
X134710Y242599D01*
X134799Y242594D01*
X134876Y242588D01*
X134943Y242583D01*
X136086D01*
Y243854D01*
D02*
G37*
G36*
X148067Y243985D02*
X146857D01*
X146707Y243979D01*
X146580Y243957D01*
X146468Y243929D01*
X146385Y243896D01*
X146313Y243863D01*
X146269Y243835D01*
X146241Y243813D01*
X146230Y243807D01*
X146163Y243735D01*
X146113Y243663D01*
X146080Y243585D01*
X146052Y243518D01*
X146041Y243452D01*
X146036Y243402D01*
X146030Y243369D01*
Y243363D01*
Y243357D01*
X146036Y243291D01*
X146047Y243224D01*
X146063Y243169D01*
X146080Y243119D01*
X146102Y243074D01*
X146119Y243041D01*
X146130Y243019D01*
X146135Y243013D01*
X146174Y242958D01*
X146224Y242908D01*
X146274Y242869D01*
X146324Y242836D01*
X146369Y242814D01*
X146402Y242797D01*
X146424Y242786D01*
X146435Y242780D01*
X146513Y242758D01*
X146602Y242741D01*
X146690Y242730D01*
X146779Y242725D01*
X146857Y242719D01*
X146924Y242714D01*
X148067D01*
Y243985D01*
D02*
G37*
G36*
X124715D02*
X123504D01*
X123355Y243979D01*
X123227Y243957D01*
X123116Y243929D01*
X123033Y243896D01*
X122961Y243863D01*
X122916Y243835D01*
X122889Y243813D01*
X122877Y243807D01*
X122811Y243735D01*
X122761Y243663D01*
X122728Y243585D01*
X122700Y243518D01*
X122689Y243452D01*
X122683Y243402D01*
X122678Y243369D01*
Y243363D01*
Y243357D01*
X122683Y243291D01*
X122694Y243224D01*
X122711Y243169D01*
X122728Y243119D01*
X122750Y243074D01*
X122766Y243041D01*
X122777Y243019D01*
X122783Y243013D01*
X122822Y242958D01*
X122872Y242908D01*
X122922Y242869D01*
X122972Y242836D01*
X123016Y242814D01*
X123049Y242797D01*
X123072Y242786D01*
X123083Y242780D01*
X123160Y242758D01*
X123249Y242741D01*
X123338Y242730D01*
X123427Y242725D01*
X123504Y242719D01*
X123571Y242714D01*
X124715D01*
Y243985D01*
D02*
G37*
%LPD*%
D10*
X116811Y173500D02*
G03*
X116811Y173500I-394J0D01*
G01*
X138315Y149685D02*
X146189D01*
X138315Y110315D02*
X146189D01*
Y149685D01*
X138315Y110315D02*
Y149685D01*
X126496Y168500D02*
X158504D01*
X126496Y228500D02*
X158504D01*
X150654Y109346D02*
X157346D01*
X150654Y102654D02*
X157346D01*
X132154Y109346D02*
X138846D01*
X132154Y102654D02*
X138846D01*
X125346Y231039D02*
Y238961D01*
X118654Y231039D02*
Y238961D01*
X148346Y231039D02*
Y238961D01*
X141654Y231039D02*
Y238961D01*
X136846Y231039D02*
Y238961D01*
X130154Y231039D02*
Y238961D01*
D12*
X133492Y109153D02*
G03*
X133492Y109153I-492J0D01*
G01*
D13*
X100728Y213067D02*
Y213933D01*
X104272Y213067D02*
Y213933D01*
X155567Y234728D02*
X156433D01*
X155567Y238272D02*
X156433D01*
D66*
X148666Y159499D02*
Y156167D01*
X147999Y155501D01*
X146667D01*
X146000Y156167D01*
Y159499D01*
X144667Y155501D02*
X143334D01*
X144001D01*
Y159499D01*
X144667Y158833D01*
D87*
X142252Y113465D02*
G03*
X142252Y113465I-787J0D01*
G01*
M02*
