G04*
G04 #@! TF.GenerationSoftware,Altium Limited,Altium Designer,24.9.1 (31)*
G04*
G04 Layer_Color=16711935*
%FSLAX25Y25*%
%MOIN*%
G70*
G04*
G04 #@! TF.SameCoordinates,F3BC3392-02DA-4331-AFF2-193CA699B933*
G04*
G04*
G04 #@! TF.FilePolarity,Positive*
G04*
G01*
G75*
%ADD10C,0.00787*%
%ADD11C,0.00394*%
%ADD90C,0.00197*%
%ADD92C,0.00100*%
D10*
X148685Y108953D02*
X159315D01*
X148685Y103047D02*
Y108953D01*
Y103047D02*
X159315D01*
Y108953D01*
X130185D02*
X140815D01*
X130185Y103047D02*
Y108953D01*
Y103047D02*
X140815D01*
Y108953D01*
X119835Y230645D02*
X124165D01*
X119835D02*
Y239355D01*
X124165D01*
Y230645D02*
Y239355D01*
X142835Y230645D02*
X147165D01*
X142835D02*
Y239355D01*
X147165D01*
Y230645D02*
Y239355D01*
X131335Y230645D02*
X135665D01*
X131335D02*
Y239355D01*
X135665D01*
Y230645D02*
Y239355D01*
D11*
X161228Y123417D02*
X164772D01*
X163000Y121645D02*
Y125188D01*
Y108728D02*
Y112272D01*
X161228Y110500D02*
X164772D01*
X163000Y115228D02*
Y118772D01*
X161228Y117000D02*
X164772D01*
X163000Y128062D02*
Y131605D01*
X161228Y129833D02*
X164772D01*
X163000Y134478D02*
Y138022D01*
X161228Y136250D02*
X164772D01*
X163000Y140895D02*
Y144438D01*
X161228Y142667D02*
X164772D01*
X163000Y147312D02*
Y150855D01*
X161228Y149083D02*
X164772D01*
X163000Y153728D02*
Y157272D01*
X161228Y155500D02*
X164772D01*
X142252Y128032D02*
Y131969D01*
X140283Y130000D02*
X144220D01*
X115228Y155500D02*
X118772D01*
X117000Y153728D02*
Y157272D01*
X115228Y149083D02*
X118772D01*
X117000Y147312D02*
Y150855D01*
X115228Y142667D02*
X118772D01*
X117000Y140895D02*
Y144438D01*
X115228Y136250D02*
X118772D01*
X117000Y134478D02*
Y138022D01*
X115228Y129833D02*
X118772D01*
X117000Y128062D02*
Y131605D01*
X115228Y117000D02*
X118772D01*
X117000Y115228D02*
Y118772D01*
X115228Y110500D02*
X118772D01*
X117000Y108728D02*
Y112272D01*
X115228Y123417D02*
X118772D01*
X117000Y121645D02*
Y125188D01*
D90*
X167134Y121251D02*
Y125582D01*
X158866D02*
X167134D01*
X158866Y121251D02*
X167134D01*
X158866Y108335D02*
X167134D01*
X158866Y112665D02*
X167134D01*
X158866Y108335D02*
Y112665D01*
X167134Y108335D02*
Y112665D01*
X158866Y114835D02*
X167134D01*
X158866Y119165D02*
X167134D01*
X158866Y114835D02*
Y119165D01*
X167134Y114835D02*
Y119165D01*
X158866Y127668D02*
X167134D01*
X158866Y131999D02*
X167134D01*
X158866Y127668D02*
Y131999D01*
X167134Y127668D02*
Y131999D01*
X158866Y134085D02*
X167134D01*
X158866Y138415D02*
X167134D01*
X158866Y134085D02*
Y138415D01*
X167134Y134085D02*
Y138415D01*
X158866Y140501D02*
X167134D01*
X158866Y144832D02*
X167134D01*
X158866Y140501D02*
Y144832D01*
X167134Y140501D02*
Y144832D01*
X158866Y146918D02*
X167134D01*
X158866Y151249D02*
X167134D01*
X158866Y146918D02*
Y151249D01*
X167134Y146918D02*
Y151249D01*
X158866Y153335D02*
X167134D01*
X158866Y157665D02*
X167134D01*
X158866Y153335D02*
Y157665D01*
X167134Y153335D02*
Y157665D01*
X128866Y150079D02*
X155638D01*
X128866Y109921D02*
X155638D01*
Y150079D01*
X128866Y109921D02*
Y150079D01*
X118425Y167516D02*
Y229484D01*
X166575D01*
Y167516D02*
Y229484D01*
X118425Y167516D02*
X166575D01*
X99685Y219268D02*
X105315D01*
X99685Y207732D02*
X105315D01*
Y219268D01*
X99685Y207732D02*
Y219268D01*
X150232Y233685D02*
Y239315D01*
X161768Y233685D02*
Y239315D01*
X150232D02*
X161768D01*
X150232Y233685D02*
X161768D01*
X111882Y152744D02*
Y158256D01*
X122118Y152744D02*
Y158256D01*
X111882Y152744D02*
X122118D01*
X111882Y158256D02*
X122118D01*
X111882Y146327D02*
Y151839D01*
X122118Y146327D02*
Y151839D01*
X111882Y146327D02*
X122118D01*
X111882Y151839D02*
X122118D01*
X111882Y139911D02*
Y145423D01*
X122118Y139911D02*
Y145423D01*
X111882Y139911D02*
X122118D01*
X111882Y145423D02*
X122118D01*
X111882Y133494D02*
Y139006D01*
X122118Y133494D02*
Y139006D01*
X111882Y133494D02*
X122118D01*
X111882Y139006D02*
X122118D01*
X111882Y127077D02*
Y132589D01*
X122118Y127077D02*
Y132589D01*
X111882Y127077D02*
X122118D01*
X111882Y132589D02*
X122118D01*
X111882Y114244D02*
Y119756D01*
X122118Y114244D02*
Y119756D01*
X111882Y114244D02*
X122118D01*
X111882Y119756D02*
X122118D01*
X111882Y107744D02*
Y113256D01*
X122118Y107744D02*
Y113256D01*
X111882Y107744D02*
X122118D01*
X111882Y113256D02*
X122118D01*
X111882Y120661D02*
Y126173D01*
X122118Y120661D02*
Y126173D01*
X111882Y120661D02*
X122118D01*
X111882Y126173D02*
X122118D01*
D92*
X158866Y121251D02*
Y125582D01*
M02*
