G04*
G04 #@! TF.GenerationSoftware,Altium Limited,Altium Designer,24.9.1 (31)*
G04*
G04 Layer_Color=255*
%FSLAX25Y25*%
%MOIN*%
G70*
G04*
G04 #@! TF.SameCoordinates,F3BC3392-02DA-4331-AFF2-193CA699B933*
G04*
G04*
G04 #@! TF.FilePolarity,Positive*
G04*
G01*
G75*
%ADD14R,0.10827X0.03937*%
%ADD15O,0.10827X0.03937*%
%ADD16R,0.03110X0.03661*%
%ADD17R,0.00787X0.00787*%
%ADD18R,0.02756X0.02756*%
%ADD19R,0.03543X0.03543*%
%ADD20R,0.05906X0.03543*%
%ADD21R,0.03543X0.05906*%
%ADD22R,0.03150X0.03543*%
%ADD23R,0.03543X0.03150*%
%ADD24R,0.04331X0.03937*%
%ADD25R,0.03347X0.03347*%
%ADD26R,0.02593X0.03197*%
%ADD27R,0.03197X0.02593*%
%ADD28R,0.02756X0.03543*%
%ADD29R,0.03543X0.02756*%
%ADD30R,0.03937X0.05906*%
%ADD31R,0.02756X0.02756*%
%ADD32R,0.00787X0.00787*%
%ADD33R,0.03937X0.03937*%
G04:AMPARAMS|DCode=34|XSize=47.24mil|YSize=13.78mil|CornerRadius=4.13mil|HoleSize=0mil|Usage=FLASHONLY|Rotation=180.000|XOffset=0mil|YOffset=0mil|HoleType=Round|Shape=RoundedRectangle|*
%AMROUNDEDRECTD34*
21,1,0.04724,0.00551,0,0,180.0*
21,1,0.03898,0.01378,0,0,180.0*
1,1,0.00827,-0.01949,0.00276*
1,1,0.00827,0.01949,0.00276*
1,1,0.00827,0.01949,-0.00276*
1,1,0.00827,-0.01949,-0.00276*
%
%ADD34ROUNDEDRECTD34*%
G04:AMPARAMS|DCode=35|XSize=48.23mil|YSize=18.5mil|CornerRadius=4.16mil|HoleSize=0mil|Usage=FLASHONLY|Rotation=180.000|XOffset=0mil|YOffset=0mil|HoleType=Round|Shape=RoundedRectangle|*
%AMROUNDEDRECTD35*
21,1,0.04823,0.01018,0,0,180.0*
21,1,0.03990,0.01850,0,0,180.0*
1,1,0.00833,-0.01995,0.00509*
1,1,0.00833,0.01995,0.00509*
1,1,0.00833,0.01995,-0.00509*
1,1,0.00833,-0.01995,-0.00509*
%
%ADD35ROUNDEDRECTD35*%
%ADD36R,0.01181X0.07874*%
G04:AMPARAMS|DCode=37|XSize=13.78mil|YSize=35.43mil|CornerRadius=4.13mil|HoleSize=0mil|Usage=FLASHONLY|Rotation=180.000|XOffset=0mil|YOffset=0mil|HoleType=Round|Shape=RoundedRectangle|*
%AMROUNDEDRECTD37*
21,1,0.01378,0.02717,0,0,180.0*
21,1,0.00551,0.03543,0,0,180.0*
1,1,0.00827,-0.00276,0.01358*
1,1,0.00827,0.00276,0.01358*
1,1,0.00827,0.00276,-0.01358*
1,1,0.00827,-0.00276,-0.01358*
%
%ADD37ROUNDEDRECTD37*%
%ADD55R,0.06181X0.06181*%
%ADD56C,0.06181*%
D14*
X181772Y116000D02*
D03*
D15*
Y123874D02*
D03*
Y131748D02*
D03*
Y139622D02*
D03*
Y147496D02*
D03*
X165000Y116000D02*
D03*
Y123874D02*
D03*
Y131748D02*
D03*
Y139622D02*
D03*
Y147496D02*
D03*
D16*
X154228Y130500D02*
D03*
X147772D02*
D03*
D17*
X149161Y155744D02*
D03*
X145618D02*
D03*
X149161Y136256D02*
D03*
X145618D02*
D03*
X135382Y155744D02*
D03*
X131839D02*
D03*
X135382Y136256D02*
D03*
X131839D02*
D03*
D18*
X147390Y154760D02*
D03*
Y137240D02*
D03*
X133610Y154760D02*
D03*
Y137240D02*
D03*
D19*
X145657Y199094D02*
D03*
X140146D02*
D03*
X134634D02*
D03*
X145657Y204606D02*
D03*
X140146D02*
D03*
X134634D02*
D03*
X145657Y210118D02*
D03*
X140146D02*
D03*
X134634D02*
D03*
D20*
X180500Y235000D02*
D03*
Y230000D02*
D03*
Y225000D02*
D03*
Y220000D02*
D03*
Y215000D02*
D03*
Y210000D02*
D03*
Y205000D02*
D03*
Y200000D02*
D03*
Y195000D02*
D03*
Y190000D02*
D03*
Y185000D02*
D03*
Y180000D02*
D03*
Y175000D02*
D03*
Y170000D02*
D03*
X111602D02*
D03*
Y175000D02*
D03*
Y180000D02*
D03*
Y185000D02*
D03*
Y190000D02*
D03*
Y195000D02*
D03*
Y200000D02*
D03*
Y205000D02*
D03*
Y210000D02*
D03*
Y215000D02*
D03*
Y220000D02*
D03*
Y225000D02*
D03*
Y230000D02*
D03*
Y235000D02*
D03*
D21*
X168551Y165079D02*
D03*
X163551D02*
D03*
X158551D02*
D03*
X153551D02*
D03*
X148551D02*
D03*
X143551D02*
D03*
X138551D02*
D03*
X133551D02*
D03*
X128551D02*
D03*
X123551D02*
D03*
D22*
X113047Y305000D02*
D03*
X118953D02*
D03*
D23*
X134500Y288047D02*
D03*
Y293953D02*
D03*
X170929Y284319D02*
D03*
Y290224D02*
D03*
X140929Y269819D02*
D03*
Y275724D02*
D03*
D24*
X134846Y300500D02*
D03*
X128154D02*
D03*
X149153Y306500D02*
D03*
X155847D02*
D03*
D25*
X127500Y293264D02*
D03*
Y288736D02*
D03*
X163429Y289535D02*
D03*
Y285008D02*
D03*
X141000Y116236D02*
D03*
Y120764D02*
D03*
D26*
X121500Y275500D02*
D03*
X116172D02*
D03*
X152593Y273772D02*
D03*
X147265D02*
D03*
D27*
X128500Y274336D02*
D03*
Y279664D02*
D03*
D28*
X164173Y277272D02*
D03*
X169685D02*
D03*
D29*
X158429Y275528D02*
D03*
Y270016D02*
D03*
D30*
X122799Y153146D02*
D03*
X110201D02*
D03*
Y133854D02*
D03*
X122799D02*
D03*
D31*
X107496Y122051D02*
D03*
X125016D02*
D03*
X107496Y108272D02*
D03*
X125016D02*
D03*
D32*
X106512Y123823D02*
D03*
Y120280D02*
D03*
X126000Y123823D02*
D03*
Y120280D02*
D03*
X106512Y110043D02*
D03*
Y106500D02*
D03*
X126000Y110043D02*
D03*
Y106500D02*
D03*
D33*
X110776Y294417D02*
D03*
X120224D02*
D03*
X155154Y293094D02*
D03*
X145705D02*
D03*
D34*
X109988Y287941D02*
D03*
Y285972D02*
D03*
X121012Y287941D02*
D03*
Y285972D02*
D03*
X155941Y284650D02*
D03*
Y286618D02*
D03*
X144917Y284650D02*
D03*
Y286618D02*
D03*
D35*
X110037Y282784D02*
D03*
X120963D02*
D03*
X155892Y281461D02*
D03*
X144966D02*
D03*
D36*
X115500Y290500D02*
D03*
X150429Y289177D02*
D03*
D37*
X113531Y282390D02*
D03*
X117469D02*
D03*
X152398Y281067D02*
D03*
X148461D02*
D03*
D55*
X182000Y279000D02*
D03*
D56*
Y289000D02*
D03*
M02*
