G04*
G04 #@! TF.GenerationSoftware,Altium Limited,Altium Designer,24.9.1 (31)*
G04*
G04 Layer_Physical_Order=1*
G04 Layer_Color=255*
%FSLAX25Y25*%
%MOIN*%
G70*
G04*
G04 #@! TF.SameCoordinates,65E441D1-A48C-4218-98E1-AC23B9FD057C*
G04*
G04*
G04 #@! TF.FilePolarity,Positive*
G04*
G01*
G75*
%ADD14R,0.10827X0.03937*%
%ADD15O,0.10827X0.03937*%
%ADD16R,0.03110X0.03661*%
%ADD17R,0.00787X0.00787*%
%ADD18R,0.02756X0.02756*%
%ADD19R,0.03543X0.03543*%
%ADD20R,0.05906X0.03543*%
%ADD21R,0.03543X0.05906*%
%ADD22R,0.03150X0.03543*%
%ADD23R,0.03543X0.03150*%
%ADD24R,0.04331X0.03937*%
%ADD25R,0.03347X0.03347*%
%ADD26R,0.02593X0.03197*%
%ADD27R,0.03197X0.02593*%
%ADD28R,0.02756X0.03543*%
%ADD29R,0.03543X0.02756*%
%ADD30R,0.03937X0.05906*%
%ADD31R,0.02756X0.02756*%
%ADD32R,0.00787X0.00787*%
G04:AMPARAMS|DCode=35|XSize=48.23mil|YSize=18.5mil|CornerRadius=4.16mil|HoleSize=0mil|Usage=FLASHONLY|Rotation=180.000|XOffset=0mil|YOffset=0mil|HoleType=Round|Shape=RoundedRectangle|*
%AMROUNDEDRECTD35*
21,1,0.04823,0.01018,0,0,180.0*
21,1,0.03990,0.01850,0,0,180.0*
1,1,0.00833,-0.01995,0.00509*
1,1,0.00833,0.01995,0.00509*
1,1,0.00833,0.01995,-0.00509*
1,1,0.00833,-0.01995,-0.00509*
%
%ADD35ROUNDEDRECTD35*%
G04:AMPARAMS|DCode=36|XSize=47.24mil|YSize=13.78mil|CornerRadius=4.13mil|HoleSize=0mil|Usage=FLASHONLY|Rotation=180.000|XOffset=0mil|YOffset=0mil|HoleType=Round|Shape=RoundedRectangle|*
%AMROUNDEDRECTD36*
21,1,0.04724,0.00551,0,0,180.0*
21,1,0.03898,0.01378,0,0,180.0*
1,1,0.00827,-0.01949,0.00276*
1,1,0.00827,0.01949,0.00276*
1,1,0.00827,0.01949,-0.00276*
1,1,0.00827,-0.01949,-0.00276*
%
%ADD36ROUNDEDRECTD36*%
%ADD37R,0.03937X0.03937*%
G04:AMPARAMS|DCode=38|XSize=13.78mil|YSize=35.43mil|CornerRadius=4.13mil|HoleSize=0mil|Usage=FLASHONLY|Rotation=180.000|XOffset=0mil|YOffset=0mil|HoleType=Round|Shape=RoundedRectangle|*
%AMROUNDEDRECTD38*
21,1,0.01378,0.02717,0,0,180.0*
21,1,0.00551,0.03543,0,0,180.0*
1,1,0.00827,-0.00276,0.01358*
1,1,0.00827,0.00276,0.01358*
1,1,0.00827,0.00276,-0.01358*
1,1,0.00827,-0.00276,-0.01358*
%
%ADD38ROUNDEDRECTD38*%
%ADD39R,0.01181X0.07874*%
%ADD53C,0.01181*%
%ADD54R,0.06181X0.06181*%
%ADD55C,0.06181*%
%ADD60C,0.01500*%
%ADD61C,0.01000*%
%ADD62C,0.00700*%
%ADD63C,0.01200*%
%ADD64C,0.02953*%
%ADD65C,0.02000*%
%ADD66C,0.05000*%
%ADD67C,0.15748*%
G36*
X195796Y191884D02*
X195446Y191737D01*
X194855Y191982D01*
X194144D01*
X193488Y191710D01*
X193090Y191313D01*
X184240D01*
Y193687D01*
X185285D01*
X185487Y193485D01*
X186144Y193213D01*
X186855D01*
X187513Y193485D01*
X188015Y193988D01*
X188287Y194644D01*
Y195355D01*
X188015Y196012D01*
X187513Y196515D01*
X186855Y196787D01*
X186144D01*
X185487Y196515D01*
X185285Y196313D01*
X184240D01*
Y198687D01*
X185285D01*
X185487Y198485D01*
X186144Y198213D01*
X186855D01*
X187513Y198485D01*
X188015Y198987D01*
X188287Y199644D01*
Y200356D01*
X188015Y201012D01*
X187513Y201515D01*
X186855Y201787D01*
X186144D01*
X185487Y201515D01*
X185285Y201313D01*
X184240D01*
Y207441D01*
Y212441D01*
Y214187D01*
X185285D01*
X185487Y213985D01*
X186144Y213713D01*
X186855D01*
X187513Y213985D01*
X188015Y214488D01*
X188287Y215144D01*
Y215856D01*
X188015Y216512D01*
X187513Y217015D01*
X186855Y217287D01*
X186144D01*
X185487Y217015D01*
X185285Y216813D01*
X184240D01*
Y218687D01*
X185285D01*
X185487Y218485D01*
X186144Y218213D01*
X186855D01*
X187513Y218485D01*
X188015Y218987D01*
X188287Y219644D01*
Y220356D01*
X188015Y221012D01*
X187513Y221515D01*
X186855Y221787D01*
X186144D01*
X185487Y221515D01*
X185285Y221313D01*
X184240D01*
Y222441D01*
Y228687D01*
X185285D01*
X185487Y228485D01*
X186144Y228213D01*
X186855D01*
X187513Y228485D01*
X188015Y228988D01*
X188287Y229644D01*
Y230356D01*
X188015Y231013D01*
X187513Y231515D01*
X186855Y231787D01*
X186144D01*
X185487Y231515D01*
X185285Y231313D01*
X184240D01*
Y232228D01*
X184453D01*
Y234000D01*
X176547D01*
Y232228D01*
X176760D01*
Y227441D01*
Y222441D01*
Y217441D01*
Y212441D01*
Y207441D01*
Y202441D01*
Y197441D01*
Y192441D01*
Y187441D01*
Y182441D01*
Y177441D01*
Y172452D01*
X176688Y172385D01*
X176436Y172280D01*
X170068Y178649D01*
Y231614D01*
X170287Y232144D01*
Y232856D01*
X170015Y233512D01*
X169512Y234015D01*
X168856Y234287D01*
X168145D01*
X167488Y234015D01*
X166985Y233512D01*
X166713Y232856D01*
Y232144D01*
X166932Y231614D01*
Y182764D01*
X166583Y182619D01*
X166282Y182919D01*
X165450Y183264D01*
X164550D01*
X163718Y182919D01*
X163417Y182619D01*
X163067Y182764D01*
Y225351D01*
X164982Y227265D01*
X165513Y227485D01*
X166015Y227988D01*
X166287Y228644D01*
Y229356D01*
X166015Y230012D01*
X165513Y230515D01*
X164856Y230787D01*
X164145D01*
X163488Y230515D01*
X162985Y230012D01*
X162765Y229482D01*
X160392Y227108D01*
X160052Y226600D01*
X159932Y226000D01*
Y177000D01*
X160052Y176400D01*
X160392Y175892D01*
X166984Y169299D01*
Y168819D01*
X126323D01*
Y169032D01*
X124551D01*
Y165079D01*
Y161126D01*
X126323D01*
Y161339D01*
X169525D01*
X169659Y161015D01*
X168850Y160207D01*
X157005D01*
X156502Y160107D01*
X156502Y160107D01*
X156077Y159822D01*
X153300Y157045D01*
X153130Y156791D01*
X153016Y156620D01*
X153016Y156620D01*
X153016Y156620D01*
X152916Y156117D01*
Y133118D01*
X151886D01*
Y127882D01*
X156571D01*
Y127969D01*
X156862Y128163D01*
X157144Y128046D01*
X157855D01*
X158512Y128318D01*
X159015Y128821D01*
X159287Y129478D01*
Y129659D01*
X159637Y129746D01*
X160165Y129341D01*
X160836Y129063D01*
X161555Y128968D01*
X168445D01*
X169164Y129063D01*
X169835Y129341D01*
X170022Y129484D01*
X170450D01*
X171282Y129829D01*
X171919Y130466D01*
X172264Y131298D01*
Y132198D01*
X171919Y133030D01*
X171282Y133667D01*
X170450Y134012D01*
X170022D01*
X169835Y134155D01*
X169540Y134277D01*
X169458Y134690D01*
X169755Y134987D01*
X170028Y135644D01*
Y136355D01*
X169755Y137013D01*
X169956Y137307D01*
X170022Y137358D01*
X170450D01*
X171282Y137703D01*
X171919Y138340D01*
X172264Y139172D01*
Y140073D01*
X171919Y140904D01*
X171282Y141541D01*
X170450Y141886D01*
X170021D01*
X169835Y142029D01*
X169164Y142307D01*
X168445Y142402D01*
X161555D01*
X160836Y142307D01*
X160165Y142029D01*
X159590Y141587D01*
X159148Y141012D01*
X158870Y140341D01*
X158775Y139622D01*
X158870Y138903D01*
X159148Y138232D01*
X159590Y137656D01*
X160165Y137215D01*
X160836Y136937D01*
X161555Y136842D01*
X166339D01*
X166534Y136551D01*
X166453Y136355D01*
Y135644D01*
X166725Y134987D01*
X166861Y134851D01*
X166727Y134528D01*
X161555D01*
X160836Y134433D01*
X160165Y134155D01*
X159590Y133713D01*
X159148Y133138D01*
X158870Y132467D01*
X158775Y131748D01*
X158801Y131555D01*
X158635Y131436D01*
X158473Y131365D01*
X157855Y131621D01*
X157144D01*
X156862Y131504D01*
X156571Y131698D01*
Y133118D01*
X155541D01*
Y135394D01*
X155891Y135464D01*
X155985Y135238D01*
X156488Y134735D01*
X157144Y134463D01*
X157855D01*
X158512Y134735D01*
X159015Y135238D01*
X159287Y135895D01*
Y136606D01*
X159015Y137262D01*
X158512Y137765D01*
X157855Y138037D01*
X157144D01*
X156488Y137765D01*
X155985Y137262D01*
X155891Y137036D01*
X155541Y137106D01*
Y141811D01*
X155891Y141880D01*
X155985Y141654D01*
X156488Y141151D01*
X157144Y140879D01*
X157855D01*
X158512Y141151D01*
X159015Y141654D01*
X159287Y142311D01*
Y143022D01*
X159015Y143679D01*
X158512Y144182D01*
X157855Y144454D01*
X157144D01*
X156488Y144182D01*
X155985Y143679D01*
X155891Y143453D01*
X155541Y143523D01*
Y148228D01*
X155891Y148297D01*
X155985Y148071D01*
X156488Y147568D01*
X157144Y147296D01*
X157855D01*
X158430Y147534D01*
X158488Y147528D01*
X158688Y147435D01*
X158794Y147355D01*
X158870Y146777D01*
X159148Y146106D01*
X159590Y145530D01*
X160165Y145089D01*
X160836Y144811D01*
X161555Y144716D01*
X168445D01*
X169164Y144811D01*
X169835Y145089D01*
X170022Y145232D01*
X170450D01*
X171282Y145577D01*
X171919Y146214D01*
X172264Y147046D01*
Y147947D01*
X171919Y148778D01*
X171282Y149415D01*
X170450Y149760D01*
X170384D01*
X170239Y150110D01*
X170616Y150487D01*
X170888Y151145D01*
Y151856D01*
X170616Y152513D01*
X170114Y153015D01*
X169457Y153287D01*
X168746D01*
X168088Y153015D01*
X167586Y152513D01*
X167314Y151856D01*
Y151145D01*
X167528Y150626D01*
X167340Y150276D01*
X161555D01*
X160836Y150181D01*
X160165Y149903D01*
X159619Y149484D01*
X159592Y149480D01*
X159483Y149494D01*
X159233Y149571D01*
X159015Y150096D01*
X158512Y150599D01*
X157855Y150871D01*
X157144D01*
X156488Y150599D01*
X155985Y150096D01*
X155891Y149870D01*
X155541Y149939D01*
Y154644D01*
X155891Y154714D01*
X155985Y154488D01*
X156488Y153985D01*
X157144Y153713D01*
X157855D01*
X158512Y153985D01*
X159015Y154488D01*
X159287Y155145D01*
Y155856D01*
X159015Y156512D01*
X158512Y157015D01*
X157991Y157231D01*
X158060Y157581D01*
X167940D01*
X168009Y157231D01*
X167488Y157015D01*
X166985Y156512D01*
X166713Y155856D01*
Y155145D01*
X166985Y154488D01*
X167488Y153985D01*
X168145Y153713D01*
X168856D01*
X169512Y153985D01*
X170015Y154488D01*
X170287Y155145D01*
Y155856D01*
X170015Y156512D01*
X169512Y157015D01*
X168991Y157231D01*
X169060Y157581D01*
X169394D01*
X169896Y157681D01*
X170322Y157966D01*
X173428Y161072D01*
X173713Y161498D01*
X173813Y162000D01*
Y169976D01*
X173868Y170024D01*
X174141Y170142D01*
X175392Y168892D01*
X175900Y168552D01*
X176500Y168432D01*
X176760D01*
Y167441D01*
X184240D01*
Y172441D01*
Y177441D01*
Y182441D01*
Y188687D01*
X193149D01*
X193352Y188552D01*
X193952Y188433D01*
X194041Y188450D01*
X194144Y188407D01*
X194855D01*
X195446Y188652D01*
X195796Y188505D01*
Y98204D01*
X125689D01*
X125673Y98230D01*
X125582Y98554D01*
X126015Y98988D01*
X126287Y99645D01*
Y100356D01*
X126067Y100887D01*
X126069Y100895D01*
Y105319D01*
X127181D01*
Y106106D01*
X127181D01*
Y110437D01*
X127181D01*
Y111107D01*
X127512Y111272D01*
X133392Y105392D01*
X133900Y105052D01*
X134500Y104932D01*
X160500D01*
X161100Y105052D01*
X161608Y105392D01*
X166108Y109892D01*
X166448Y110400D01*
X166568Y111000D01*
Y113220D01*
X168445D01*
X169164Y113315D01*
X169835Y113593D01*
X170410Y114034D01*
X170852Y114610D01*
X171130Y115281D01*
X171225Y116000D01*
X171130Y116719D01*
X170852Y117390D01*
X170410Y117965D01*
X169835Y118407D01*
X169164Y118685D01*
X168445Y118780D01*
X161555D01*
X160836Y118685D01*
X160165Y118407D01*
X159706Y118055D01*
X159302Y118115D01*
X159275Y118181D01*
X158772Y118683D01*
X158115Y118955D01*
X157404D01*
X156747Y118683D01*
X156245Y118181D01*
X155972Y117524D01*
Y116813D01*
X156245Y116156D01*
X156747Y115653D01*
X157404Y115381D01*
X158115D01*
X158484Y115533D01*
X158866Y115313D01*
X158870Y115281D01*
X159148Y114610D01*
X159590Y114034D01*
X160165Y113593D01*
X160836Y113315D01*
X161555Y113220D01*
X163433D01*
Y111649D01*
X159851Y108068D01*
X135149D01*
X124454Y118763D01*
X123945Y119103D01*
X123346Y119222D01*
X119395D01*
X111117Y127500D01*
X111309Y127692D01*
X111649Y128201D01*
X111768Y128801D01*
Y128989D01*
X112092Y129123D01*
X116666Y124548D01*
X117092Y124264D01*
X117594Y124164D01*
X122638D01*
Y123051D01*
X124819D01*
Y122642D01*
X125016D01*
Y121461D01*
X124819D01*
Y121051D01*
X122638D01*
Y119673D01*
X124819D01*
Y119098D01*
X127181D01*
Y119673D01*
X127394D01*
Y120739D01*
X127909D01*
X133994Y114654D01*
X134272Y114468D01*
X134352Y114053D01*
X134081Y113782D01*
X133736Y112950D01*
Y112050D01*
X134081Y111218D01*
X134718Y110581D01*
X135550Y110236D01*
X136450D01*
X137282Y110581D01*
X137919Y111218D01*
X138264Y112050D01*
Y112950D01*
X138119Y113299D01*
X138389Y113563D01*
X140000D01*
Y116236D01*
X141000D01*
Y117236D01*
X143673D01*
Y118909D01*
X143461D01*
Y123224D01*
X142313D01*
Y123287D01*
X142213Y123789D01*
X141928Y124215D01*
X139739Y126405D01*
X139313Y126689D01*
X138811Y126789D01*
X138477D01*
X138343Y127112D01*
X138401Y127171D01*
X138746Y128003D01*
Y128903D01*
X138401Y129735D01*
X137764Y130372D01*
X137626Y130429D01*
X137544Y130842D01*
X137919Y131218D01*
X138264Y132050D01*
Y132950D01*
X137919Y133782D01*
X137282Y134419D01*
X136544Y134725D01*
X136563Y135075D01*
X136563Y135075D01*
X136563Y135075D01*
Y137114D01*
X136563Y137115D01*
X136563Y137115D01*
X136563Y137280D01*
X136906Y137348D01*
X136906D01*
X136906D01*
X137043Y137036D01*
X137081Y136944D01*
X137718Y136307D01*
X138550Y135963D01*
X139450D01*
X140282Y136307D01*
X140919Y136944D01*
X141264Y137776D01*
Y138677D01*
X140919Y139509D01*
X140282Y140146D01*
X139450Y140490D01*
X138550D01*
X137718Y140146D01*
X137081Y139509D01*
X136736Y138677D01*
Y137996D01*
X136734Y137671D01*
X136498Y137437D01*
X136338Y137437D01*
X135988Y137615D01*
Y139618D01*
X134610D01*
Y137437D01*
X134201D01*
Y137240D01*
Y135075D01*
X134610D01*
Y134862D01*
X134873D01*
X134942Y134512D01*
X134718Y134419D01*
X134081Y133782D01*
X133736Y132950D01*
Y132050D01*
X134081Y131218D01*
X134718Y130581D01*
X134856Y130524D01*
X134938Y130111D01*
X134563Y129735D01*
X134218Y128903D01*
Y128003D01*
X134563Y127171D01*
X134621Y127112D01*
X134487Y126789D01*
X118138D01*
X112957Y131970D01*
Y137595D01*
X107445D01*
Y130114D01*
X108633D01*
Y129450D01*
X108418Y129235D01*
X107887Y129015D01*
X107385Y128513D01*
X107113Y127856D01*
Y127145D01*
X107385Y126488D01*
X107887Y125985D01*
X108418Y125765D01*
X109431Y124752D01*
X109297Y124429D01*
X107693D01*
Y125004D01*
X105331D01*
X105313Y125346D01*
Y138187D01*
X116605D01*
X117107Y138287D01*
X117533Y138572D01*
X117928Y138967D01*
X118213Y139393D01*
X118313Y139895D01*
Y165956D01*
X120456Y168100D01*
X120780Y167966D01*
Y166079D01*
X122551D01*
Y169032D01*
X121845D01*
X121711Y169355D01*
X124544Y172187D01*
X151611D01*
X152218Y171581D01*
X153050Y171236D01*
X153950D01*
X154782Y171581D01*
X155419Y172218D01*
X155764Y173050D01*
Y173950D01*
X155419Y174782D01*
X154782Y175419D01*
X153950Y175764D01*
X153050D01*
X152218Y175419D01*
X151611Y174813D01*
X124000D01*
X123498Y174713D01*
X123072Y174428D01*
X116072Y167428D01*
X115787Y167002D01*
X115687Y166500D01*
Y140813D01*
X104395D01*
X103893Y140713D01*
X103467Y140428D01*
X103072Y140033D01*
X102787Y139607D01*
X102687Y139105D01*
Y110566D01*
X102787Y110063D01*
X103072Y109637D01*
X104838Y107871D01*
X105264Y107587D01*
X105331Y107574D01*
Y106106D01*
X105331D01*
Y105319D01*
X107693D01*
Y106106D01*
X109661D01*
Y110437D01*
X107693D01*
Y111224D01*
X105331D01*
X105313Y111567D01*
Y118756D01*
X105331Y119098D01*
X107693D01*
Y119673D01*
X109874D01*
Y121051D01*
X107693D01*
Y121461D01*
X107496D01*
Y122642D01*
X107693D01*
Y123051D01*
X109874D01*
Y123852D01*
X110197Y123986D01*
X117637Y116546D01*
X118146Y116206D01*
X118746Y116087D01*
X122696D01*
X127228Y111555D01*
X127064Y111224D01*
X124819D01*
Y110437D01*
X122851D01*
Y106106D01*
X123444D01*
Y101472D01*
X122985Y101013D01*
X122713Y100356D01*
Y99645D01*
X122985Y98988D01*
X123418Y98554D01*
X123327Y98230D01*
X123311Y98204D01*
X98204D01*
Y316296D01*
X195796D01*
Y191884D01*
D02*
G37*
%LPC*%
G36*
X115622Y307772D02*
X114047D01*
Y306000D01*
X115622D01*
Y307772D01*
D02*
G37*
G36*
X112047D02*
X110472D01*
Y306000D01*
X112047D01*
Y307772D01*
D02*
G37*
G36*
X164433Y307787D02*
X163567D01*
X162731Y307563D01*
X161981Y307131D01*
X161369Y306519D01*
X160962Y305813D01*
X158728D01*
Y306028D01*
X152823D01*
Y301415D01*
X152248D01*
Y302272D01*
X149083D01*
Y303272D01*
D01*
Y302272D01*
X145917D01*
Y301415D01*
X144000D01*
X143459Y301307D01*
X143000Y301000D01*
X138845Y296845D01*
X138538Y296386D01*
X138431Y295845D01*
Y293781D01*
X137595Y292946D01*
X137578Y292953D01*
X134500D01*
Y293953D01*
X133500D01*
Y296528D01*
X132042D01*
X131869Y296528D01*
X131720Y296874D01*
X132097Y297251D01*
X132284Y297532D01*
X133846D01*
Y300500D01*
Y303468D01*
X132284D01*
X132097Y303749D01*
X129918Y305928D01*
X129492Y306213D01*
X128990Y306313D01*
X121315D01*
Y307559D01*
X116591D01*
Y302441D01*
X121315D01*
Y303687D01*
X128220D01*
X128275Y303606D01*
X128090Y303256D01*
X125201D01*
Y302067D01*
X115905D01*
X115622Y302228D01*
X115622Y302417D01*
Y304000D01*
X110472D01*
Y302417D01*
X110472Y302228D01*
X110189Y302067D01*
X104454D01*
X103854Y301948D01*
X103346Y301608D01*
X102892Y301154D01*
X102552Y300646D01*
X102433Y300046D01*
Y277000D01*
X102552Y276400D01*
X102892Y275892D01*
X109892Y268892D01*
X110400Y268552D01*
X111000Y268432D01*
X131500D01*
X132100Y268552D01*
X132608Y268892D01*
X136108Y272392D01*
X136448Y272900D01*
X136567Y273500D01*
Y279114D01*
X136787Y279644D01*
Y280356D01*
X136515Y281013D01*
X136012Y281515D01*
X135355Y281787D01*
X134644D01*
X134114Y281568D01*
X130886D01*
Y281748D01*
X126114D01*
Y277580D01*
X130886D01*
Y278432D01*
X133432D01*
Y274149D01*
X130851Y271568D01*
X111649D01*
X105568Y277649D01*
Y279392D01*
X105918Y279462D01*
X106085Y279058D01*
X106588Y278555D01*
X107245Y278283D01*
X107956D01*
X108613Y278555D01*
X109115Y279058D01*
X109387Y279715D01*
Y280056D01*
X109412Y280080D01*
X109696Y280506D01*
X109796Y281008D01*
Y281047D01*
X112032D01*
Y281031D01*
X112125Y280563D01*
X112219Y280422D01*
Y279968D01*
X112319Y279466D01*
X112603Y279040D01*
X113725Y277919D01*
X113875Y277819D01*
Y276500D01*
X116172D01*
X118468D01*
Y277534D01*
X119416D01*
Y276861D01*
X119394Y276749D01*
X119416Y276637D01*
Y273114D01*
X121906D01*
X122362Y273023D01*
X126114D01*
Y272252D01*
X130886D01*
Y276420D01*
X126114D01*
Y275648D01*
X123584D01*
Y277886D01*
X123412D01*
X123355Y278213D01*
X124012Y278485D01*
X124515Y278988D01*
X124787Y279644D01*
Y280356D01*
X124515Y281013D01*
X124012Y281515D01*
X123977Y281633D01*
X124092Y281805D01*
X124185Y282275D01*
Y283292D01*
X124092Y283762D01*
X123826Y284160D01*
X123639Y284285D01*
Y284706D01*
X123826Y284831D01*
X124092Y285228D01*
X124185Y285697D01*
Y286248D01*
X124163Y286358D01*
X124385Y286628D01*
X125039D01*
Y286276D01*
X129961D01*
Y286633D01*
X131941D01*
Y285685D01*
X137059D01*
Y288409D01*
X140845Y292195D01*
X141152Y292654D01*
X141260Y293195D01*
Y295259D01*
X142078Y296078D01*
X142375Y295880D01*
X142240Y295554D01*
Y295005D01*
X142450Y294499D01*
X142654Y294295D01*
X142450Y294092D01*
X142240Y293585D01*
Y293037D01*
X142450Y292530D01*
X142654Y292327D01*
X142450Y292123D01*
X142240Y291617D01*
Y291068D01*
X142450Y290562D01*
X142838Y290174D01*
X143344Y289965D01*
X143892D01*
X144049Y290030D01*
X144340Y289835D01*
Y288118D01*
X142968D01*
X142500Y288025D01*
X142103Y287759D01*
X141837Y287362D01*
X141744Y286894D01*
Y286343D01*
X141837Y285874D01*
X141998Y285634D01*
X141837Y285394D01*
X141744Y284925D01*
Y284374D01*
X141837Y283906D01*
X142103Y283508D01*
X142290Y283383D01*
Y282962D01*
X142104Y282837D01*
X141838Y282439D01*
X141744Y281969D01*
Y281329D01*
X141531Y281115D01*
X141279Y280739D01*
X141191Y280295D01*
Y278087D01*
X138370D01*
Y273362D01*
X143488D01*
Y276837D01*
X143510Y276949D01*
Y279725D01*
X146961D01*
Y279709D01*
X147054Y279240D01*
X147301Y278871D01*
Y278206D01*
X147389Y277763D01*
X147641Y277386D01*
X148333Y276694D01*
X148265Y276529D01*
Y274772D01*
X149562D01*
Y275008D01*
X149885Y275142D01*
X150509Y274518D01*
Y271386D01*
X154677D01*
X154677Y271386D01*
X155027Y271384D01*
X155870Y270541D01*
Y267850D01*
X160988D01*
Y272181D01*
X157510D01*
X156679Y273012D01*
X156736Y273247D01*
X156814Y273362D01*
X160988D01*
Y276112D01*
X162008D01*
Y274713D01*
X166339D01*
Y279831D01*
X162008D01*
Y278431D01*
X161305D01*
X159081Y280655D01*
X159058Y280671D01*
X159114Y280952D01*
Y281969D01*
X159021Y282439D01*
X158755Y282837D01*
X158622Y282926D01*
X158696Y283297D01*
X158876Y283333D01*
X159335Y283640D01*
X159783Y284088D01*
X160052Y284034D01*
X160969D01*
Y282547D01*
X165890D01*
Y282904D01*
X168370D01*
Y281957D01*
X173488D01*
Y282904D01*
X177319D01*
X177559Y282952D01*
X177909Y282665D01*
Y280000D01*
X181000D01*
Y283090D01*
X178586D01*
X178441Y283440D01*
X180429Y285429D01*
X180503Y285386D01*
X181490Y285122D01*
X182510D01*
X183497Y285386D01*
X184381Y285897D01*
X185103Y286619D01*
X185614Y287503D01*
X185878Y288490D01*
Y289510D01*
X185614Y290497D01*
X185103Y291381D01*
X184381Y292103D01*
X183497Y292614D01*
X182510Y292878D01*
X181490D01*
X180503Y292614D01*
X179619Y292103D01*
X178897Y291381D01*
X178386Y290497D01*
X178122Y289510D01*
Y288490D01*
X178386Y287503D01*
X178429Y287429D01*
X176733Y285734D01*
X173488D01*
Y286681D01*
X168370D01*
Y285734D01*
X165890D01*
Y286862D01*
X166102D01*
Y288535D01*
X163429D01*
Y289535D01*
X162429D01*
Y292209D01*
X161012D01*
Y299546D01*
X160905Y300087D01*
X160598Y300546D01*
X160144Y301000D01*
X159685Y301307D01*
X159144Y301415D01*
X158728D01*
Y303187D01*
X160962D01*
X161369Y302482D01*
X161981Y301869D01*
X162731Y301437D01*
X163567Y301213D01*
X164433D01*
X165269Y301437D01*
X166018Y301869D01*
X166631Y302482D01*
X167063Y303231D01*
X167287Y304067D01*
Y304933D01*
X167063Y305769D01*
X166631Y306519D01*
X166018Y307131D01*
X165269Y307563D01*
X164433Y307787D01*
D02*
G37*
G36*
X152248Y306240D02*
X150083D01*
Y304272D01*
X152248D01*
Y306240D01*
D02*
G37*
G36*
X148083D02*
X145917D01*
Y304272D01*
X148083D01*
Y306240D01*
D02*
G37*
G36*
X138012Y303468D02*
X135846D01*
Y301500D01*
X138012D01*
Y303468D01*
D02*
G37*
G36*
Y299500D02*
X135846D01*
Y297532D01*
X138012D01*
Y299500D01*
D02*
G37*
G36*
X135500Y296528D02*
Y294953D01*
X137272D01*
Y296528D01*
X135500D01*
D02*
G37*
G36*
X173701Y292799D02*
X171929D01*
Y291224D01*
X173701D01*
Y292799D01*
D02*
G37*
G36*
X169929D02*
X168157D01*
Y291224D01*
X169929D01*
Y292799D01*
D02*
G37*
G36*
X166102Y292209D02*
X164429D01*
Y290535D01*
X166102D01*
Y292209D01*
D02*
G37*
G36*
X173701Y289224D02*
X171929D01*
Y287650D01*
X173701D01*
Y289224D01*
D02*
G37*
G36*
X169929D02*
X168157D01*
Y287650D01*
X169929D01*
Y289224D01*
D02*
G37*
G36*
X186091Y283090D02*
X183000D01*
Y280000D01*
X186091D01*
Y283090D01*
D02*
G37*
G36*
X172063Y280043D02*
X170685D01*
Y278272D01*
X172063D01*
Y280043D01*
D02*
G37*
G36*
X168685D02*
X167307D01*
Y278272D01*
X168685D01*
Y280043D01*
D02*
G37*
G36*
X186091Y278000D02*
X183000D01*
Y274909D01*
X186091D01*
Y278000D01*
D02*
G37*
G36*
X181000D02*
X177909D01*
Y274909D01*
X181000D01*
Y278000D01*
D02*
G37*
G36*
X146265Y276370D02*
X144968D01*
Y274772D01*
X146265D01*
Y276370D01*
D02*
G37*
G36*
X172063Y276272D02*
X170685D01*
Y274500D01*
X172063D01*
Y276272D01*
D02*
G37*
G36*
X168685D02*
X167307D01*
Y274500D01*
X168685D01*
Y276272D01*
D02*
G37*
G36*
X147265Y273772D02*
D01*
D01*
D01*
D02*
G37*
G36*
X118468Y274500D02*
X117172D01*
Y272901D01*
X118468D01*
Y274500D01*
D02*
G37*
G36*
X115172D02*
X113875D01*
Y272901D01*
X115172D01*
Y274500D01*
D02*
G37*
G36*
X149562Y272772D02*
X148265D01*
Y271173D01*
X149562D01*
Y272772D01*
D02*
G37*
G36*
X146265D02*
X144968D01*
Y271173D01*
X146265D01*
Y272772D01*
D02*
G37*
G36*
X143701Y272394D02*
X141929D01*
Y270819D01*
X143701D01*
Y272394D01*
D02*
G37*
G36*
X139929D02*
X138157D01*
Y270819D01*
X139929D01*
Y272394D01*
D02*
G37*
G36*
X143701Y268819D02*
X141929D01*
Y267244D01*
X143701D01*
Y268819D01*
D02*
G37*
G36*
X139929D02*
X138157D01*
Y267244D01*
X139929D01*
Y268819D01*
D02*
G37*
G36*
X184453Y237772D02*
X181500D01*
Y236000D01*
X184453D01*
Y237772D01*
D02*
G37*
G36*
X179500D02*
X176547D01*
Y236000D01*
X179500D01*
Y237772D01*
D02*
G37*
G36*
X115555D02*
X112602D01*
Y236000D01*
X115555D01*
Y237772D01*
D02*
G37*
G36*
X110602D02*
X107650D01*
Y236000D01*
X110602D01*
Y237772D01*
D02*
G37*
G36*
X155523Y226787D02*
X154658D01*
X153822Y226563D01*
X153072Y226131D01*
X152460Y225518D01*
X152027Y224769D01*
X151803Y223933D01*
Y223067D01*
X152027Y222231D01*
X152460Y221481D01*
X153072Y220869D01*
X153822Y220437D01*
X154658Y220213D01*
X155523D01*
X156360Y220437D01*
X157109Y220869D01*
X157721Y221481D01*
X158154Y222231D01*
X158378Y223067D01*
Y223933D01*
X158154Y224769D01*
X157721Y225518D01*
X157109Y226131D01*
X156360Y226563D01*
X155523Y226787D01*
D02*
G37*
G36*
X123000Y244415D02*
X109465D01*
X108923Y244307D01*
X108464Y244000D01*
X104464Y240000D01*
X104158Y239541D01*
X104050Y239000D01*
Y230454D01*
X104158Y229913D01*
X104464Y229454D01*
X104918Y229000D01*
X105377Y228693D01*
X105919Y228585D01*
X107862D01*
Y222441D01*
Y217441D01*
Y212441D01*
Y207441D01*
Y202441D01*
Y197441D01*
Y192441D01*
Y186313D01*
X106584D01*
X106300Y186256D01*
X106082Y186213D01*
X106082Y186213D01*
X106081Y186213D01*
X105856Y186062D01*
X105656Y185928D01*
X105114Y185387D01*
X105114Y185386D01*
X105114Y185386D01*
X104972Y185175D01*
X104829Y184961D01*
X104829Y184961D01*
X104829Y184960D01*
X104780Y184714D01*
X104729Y184458D01*
X104729Y184458D01*
X104729Y184458D01*
Y154958D01*
X104829Y154456D01*
X105114Y154030D01*
X106746Y152398D01*
X107172Y152113D01*
X107445Y152059D01*
Y149405D01*
X112957D01*
Y156886D01*
X107445D01*
X107354Y157198D01*
Y183687D01*
X107862D01*
Y177441D01*
Y172441D01*
Y167441D01*
X115343D01*
Y172441D01*
Y177441D01*
Y182441D01*
Y187441D01*
Y192441D01*
Y197441D01*
Y202441D01*
Y207441D01*
Y212441D01*
Y217441D01*
Y222948D01*
X115666Y223082D01*
X116187Y222561D01*
Y187500D01*
X116287Y186998D01*
X116572Y186572D01*
X117713Y185431D01*
Y185144D01*
X117985Y184487D01*
X118488Y183985D01*
X119144Y183713D01*
X119855D01*
X120512Y183985D01*
X121015Y184487D01*
X121287Y185144D01*
Y185855D01*
X121015Y186512D01*
X120512Y187015D01*
X119855Y187287D01*
X119569D01*
X118813Y188044D01*
Y223105D01*
X118713Y223607D01*
X118428Y224033D01*
X117272Y225189D01*
X117313Y225395D01*
Y229956D01*
X118069Y230713D01*
X118356D01*
X119012Y230985D01*
X119515Y231487D01*
X119787Y232144D01*
Y232856D01*
X119515Y233512D01*
X119012Y234015D01*
X118356Y234287D01*
X117645D01*
X116988Y234015D01*
X116485Y233512D01*
X116213Y232856D01*
Y232569D01*
X115905Y232261D01*
X115555Y232406D01*
Y234000D01*
X107650D01*
Y232228D01*
X107862D01*
Y231415D01*
X106879D01*
Y238414D01*
X110050Y241585D01*
X122414D01*
X127921Y236079D01*
Y226070D01*
X127369Y225518D01*
X126937Y224769D01*
X126713Y223933D01*
Y223067D01*
X126937Y222231D01*
X127369Y221481D01*
X127981Y220869D01*
X128731Y220437D01*
X129567Y220213D01*
X130433D01*
X131269Y220437D01*
X132018Y220869D01*
X132631Y221481D01*
X133063Y222231D01*
X133287Y223067D01*
Y223933D01*
X133063Y224769D01*
X132631Y225518D01*
X132018Y226131D01*
X131269Y226563D01*
X130750Y226702D01*
Y236665D01*
X130642Y237206D01*
X130336Y237665D01*
X124000Y244000D01*
X123541Y244307D01*
X123000Y244415D01*
D02*
G37*
G36*
X148429Y212890D02*
X146657D01*
Y211118D01*
X148429D01*
Y212890D01*
D02*
G37*
G36*
X133634D02*
X131862D01*
Y211118D01*
X133634D01*
Y212890D01*
D02*
G37*
G36*
X144657D02*
X141146D01*
Y210118D01*
X139146D01*
Y212890D01*
X135634D01*
Y210118D01*
X134634D01*
Y209118D01*
X131862D01*
Y207347D01*
Y205606D01*
X134634D01*
Y203606D01*
X131862D01*
Y201835D01*
Y200094D01*
X134634D01*
Y199094D01*
X135634D01*
Y196323D01*
X139146D01*
Y199094D01*
X141146D01*
Y196323D01*
X144657D01*
Y199094D01*
X145657D01*
Y200094D01*
X148429D01*
Y201835D01*
Y203606D01*
X145657D01*
Y205606D01*
X148429D01*
Y207347D01*
Y209118D01*
X145657D01*
Y210118D01*
X144657D01*
Y212890D01*
D02*
G37*
G36*
X148429Y198094D02*
X146657D01*
Y196323D01*
X148429D01*
Y198094D01*
D02*
G37*
G36*
X133634D02*
X131862D01*
Y196323D01*
X133634D01*
Y198094D01*
D02*
G37*
G36*
X122551Y164079D02*
X120780D01*
Y161126D01*
X122551D01*
Y164079D01*
D02*
G37*
G36*
X125768Y157098D02*
X123799D01*
Y154146D01*
X125768D01*
Y157098D01*
D02*
G37*
G36*
X121799D02*
X119831D01*
Y154146D01*
X121799D01*
Y157098D01*
D02*
G37*
G36*
X135988Y157138D02*
X134610D01*
Y156925D01*
X134201D01*
Y154760D01*
Y154563D01*
X134610D01*
Y152382D01*
X135988D01*
Y154563D01*
X136563D01*
Y156925D01*
X135988D01*
Y157138D01*
D02*
G37*
G36*
X132610D02*
X131232D01*
Y156925D01*
X130657D01*
Y154563D01*
X131232D01*
Y152382D01*
X132610D01*
Y154563D01*
X133020D01*
Y154760D01*
Y156925D01*
X132610D01*
Y157138D01*
D02*
G37*
G36*
X125768Y152146D02*
X123799D01*
Y149193D01*
X125768D01*
Y152146D01*
D02*
G37*
G36*
X121799D02*
X119831D01*
Y149193D01*
X121799D01*
Y152146D01*
D02*
G37*
G36*
X136450Y149764D02*
X135550D01*
X134718Y149419D01*
X134081Y148782D01*
X133736Y147950D01*
Y147050D01*
X134081Y146218D01*
X134718Y145581D01*
X135550Y145236D01*
X136450D01*
X137282Y145581D01*
X137919Y146218D01*
X138264Y147050D01*
Y147950D01*
X137919Y148782D01*
X137282Y149419D01*
X136450Y149764D01*
D02*
G37*
G36*
X174450Y152764D02*
X173550D01*
X172718Y152419D01*
X172081Y151782D01*
X171736Y150950D01*
Y150050D01*
X172081Y149218D01*
X172718Y148581D01*
X173550Y148236D01*
X174450D01*
X175100Y148505D01*
X175612Y147993D01*
X175547Y147496D01*
X175642Y146777D01*
X175919Y146106D01*
X176361Y145530D01*
X176937Y145089D01*
X177607Y144811D01*
X178327Y144716D01*
X185216D01*
X185936Y144811D01*
X186606Y145089D01*
X187182Y145530D01*
X187624Y146106D01*
X187901Y146777D01*
X187996Y147496D01*
X187901Y148215D01*
X187624Y148886D01*
X187182Y149461D01*
X186606Y149903D01*
X185936Y150181D01*
X185216Y150276D01*
X178327D01*
X177829Y150210D01*
X176709Y151330D01*
X176201Y151670D01*
X175944Y151721D01*
X175919Y151782D01*
X175282Y152419D01*
X174450Y152764D01*
D02*
G37*
G36*
X136450Y144764D02*
X135550D01*
X134718Y144419D01*
X134081Y143782D01*
X133736Y142950D01*
Y142050D01*
X134081Y141218D01*
X134718Y140581D01*
X135550Y140236D01*
X136450D01*
X137282Y140581D01*
X137919Y141218D01*
X138264Y142050D01*
Y142950D01*
X137919Y143782D01*
X137282Y144419D01*
X136450Y144764D01*
D02*
G37*
G36*
X185216Y142402D02*
X178327D01*
X177607Y142307D01*
X176937Y142029D01*
X176750Y141886D01*
X176321D01*
X175489Y141541D01*
X174853Y140904D01*
X174508Y140073D01*
Y139172D01*
X174853Y138340D01*
X175489Y137703D01*
X176321Y137358D01*
X176750D01*
X176937Y137215D01*
X177607Y136937D01*
X178327Y136842D01*
X185216D01*
X185936Y136937D01*
X186606Y137215D01*
X187182Y137656D01*
X187624Y138232D01*
X187901Y138903D01*
X187996Y139622D01*
X187901Y140341D01*
X187624Y141012D01*
X187182Y141587D01*
X186606Y142029D01*
X185936Y142307D01*
X185216Y142402D01*
D02*
G37*
G36*
X132610Y139618D02*
X131232D01*
Y137437D01*
X130657D01*
Y135075D01*
X131232D01*
Y134862D01*
X132610D01*
Y135075D01*
X133020D01*
Y137240D01*
Y137437D01*
X132610D01*
Y139618D01*
D02*
G37*
G36*
X125555Y137595D02*
X120043D01*
Y130114D01*
X125555D01*
Y137595D01*
D02*
G37*
G36*
X185216Y134528D02*
X178327D01*
X177607Y134433D01*
X176937Y134155D01*
X176361Y133713D01*
X175919Y133138D01*
X175642Y132467D01*
X175547Y131748D01*
X175552Y131712D01*
X175236Y130950D01*
Y130050D01*
X175581Y129218D01*
X176218Y128581D01*
X177050Y128236D01*
X177950D01*
X178782Y128581D01*
X179170Y128968D01*
X185216D01*
X185936Y129063D01*
X186606Y129341D01*
X187182Y129782D01*
X187624Y130358D01*
X187901Y131029D01*
X187996Y131748D01*
X187901Y132467D01*
X187624Y133138D01*
X187182Y133713D01*
X186606Y134155D01*
X185936Y134433D01*
X185216Y134528D01*
D02*
G37*
G36*
X149555Y156925D02*
X145224D01*
Y156925D01*
X144437D01*
Y154563D01*
X145224D01*
Y152594D01*
X145822D01*
Y139406D01*
X145224D01*
Y137437D01*
X144437D01*
Y135075D01*
X145224D01*
Y135075D01*
X145822D01*
Y134287D01*
X145942Y133687D01*
X146088Y133468D01*
X145901Y133118D01*
X145429D01*
Y127882D01*
X150114D01*
Y133118D01*
X149339D01*
Y133906D01*
X149220Y134505D01*
X149073Y134725D01*
X149260Y135075D01*
X149555D01*
Y135075D01*
X150343D01*
Y137437D01*
X149555D01*
Y139406D01*
X148957D01*
Y152594D01*
X149555D01*
Y154563D01*
X150343D01*
Y156925D01*
X149555D01*
Y156925D01*
D02*
G37*
G36*
X164000Y126868D02*
X161555D01*
X160780Y126766D01*
X160058Y126467D01*
X159438Y125991D01*
X158962Y125371D01*
X158804Y124990D01*
X158512Y124932D01*
X157855Y125204D01*
X157144D01*
X156488Y124932D01*
X155985Y124429D01*
X155713Y123772D01*
Y123061D01*
X155985Y122404D01*
X156488Y121902D01*
X157144Y121629D01*
X157855D01*
X158512Y121902D01*
X158786Y122175D01*
X159135Y122152D01*
X159438Y121757D01*
X160058Y121281D01*
X160780Y120982D01*
X161555Y120880D01*
X164000D01*
Y123874D01*
Y126868D01*
D02*
G37*
G36*
X168445D02*
X166000D01*
Y124874D01*
X171244D01*
X171038Y125371D01*
X170562Y125991D01*
X169942Y126467D01*
X169220Y126766D01*
X168445Y126868D01*
D02*
G37*
G36*
X185216Y126654D02*
X178327D01*
X177607Y126559D01*
X176937Y126281D01*
X176361Y125839D01*
X175919Y125264D01*
X175642Y124593D01*
X175547Y123874D01*
X175642Y123155D01*
X175919Y122484D01*
X176361Y121908D01*
X176937Y121467D01*
X177607Y121189D01*
X178327Y121094D01*
X185216D01*
X185936Y121189D01*
X186606Y121467D01*
X187182Y121908D01*
X187536Y122370D01*
X188359D01*
X188710Y122018D01*
X189542Y121673D01*
X190443D01*
X191275Y122018D01*
X191912Y122655D01*
X192256Y123487D01*
Y124387D01*
X191912Y125219D01*
X191275Y125856D01*
X190443Y126201D01*
X189542D01*
X188710Y125856D01*
X188359Y125505D01*
X187439D01*
X187182Y125839D01*
X186606Y126281D01*
X185936Y126559D01*
X185216Y126654D01*
D02*
G37*
G36*
X171244Y122874D02*
X166000D01*
Y120880D01*
X168445D01*
X169220Y120982D01*
X169942Y121281D01*
X170562Y121757D01*
X171038Y122377D01*
X171244Y122874D01*
D02*
G37*
G36*
X187972Y118756D02*
X175571D01*
Y113244D01*
X187972D01*
Y114433D01*
X188359D01*
X188710Y114081D01*
X189542Y113736D01*
X190443D01*
X191275Y114081D01*
X191912Y114718D01*
X192256Y115550D01*
Y116450D01*
X191912Y117282D01*
X191275Y117919D01*
X190443Y118264D01*
X189542D01*
X188710Y117919D01*
X188359Y117568D01*
X187972D01*
Y118756D01*
D02*
G37*
G36*
X143673Y115236D02*
X142000D01*
Y113563D01*
X143673D01*
Y115236D01*
D02*
G37*
G36*
X157855Y112537D02*
X157144D01*
X156488Y112265D01*
X155985Y111762D01*
X155713Y111106D01*
Y110395D01*
X155985Y109738D01*
X156488Y109235D01*
X157144Y108963D01*
X157855D01*
X158512Y109235D01*
X159015Y109738D01*
X159287Y110395D01*
Y111106D01*
X159015Y111762D01*
X158512Y112265D01*
X157855Y112537D01*
D02*
G37*
%LPD*%
G36*
X119657Y298609D02*
X119475Y298427D01*
X119135Y297918D01*
X119061Y297544D01*
X118845Y297429D01*
X118297D01*
X117790Y297219D01*
X117744Y297173D01*
X117469D01*
Y296898D01*
X117403Y296832D01*
X117193Y296325D01*
Y295777D01*
X117209Y295738D01*
X116955Y295437D01*
X116500D01*
Y290500D01*
X114500D01*
Y295437D01*
X114045D01*
X113791Y295738D01*
X113807Y295777D01*
Y296325D01*
X113597Y296832D01*
X113531Y296898D01*
Y297173D01*
X113256D01*
X113210Y297219D01*
X112703Y297429D01*
X112155D01*
X111649Y297219D01*
X111602Y297173D01*
X109944D01*
X109857Y297383D01*
X109469Y297771D01*
X108963Y297980D01*
X108415D01*
X107908Y297771D01*
X107521Y297383D01*
X107311Y296877D01*
Y296328D01*
X107521Y295822D01*
X107724Y295618D01*
X107521Y295414D01*
X107311Y294908D01*
Y294360D01*
X107521Y293853D01*
X107724Y293650D01*
X107521Y293446D01*
X107311Y292939D01*
Y292391D01*
X107521Y291885D01*
X107908Y291497D01*
X108415Y291287D01*
X108571D01*
X108758Y290937D01*
X108681Y290823D01*
X108574Y290281D01*
Y289441D01*
X108039D01*
X107571Y289348D01*
X107174Y289082D01*
X106908Y288685D01*
X106815Y288216D01*
Y287665D01*
X106908Y287197D01*
X107069Y286957D01*
X106908Y286717D01*
X106815Y286248D01*
Y285697D01*
X106908Y285228D01*
X107174Y284831D01*
X107361Y284706D01*
Y284285D01*
X107175Y284160D01*
X106908Y283762D01*
X106815Y283292D01*
Y282275D01*
X106908Y281805D01*
X106879Y281707D01*
X106588Y281586D01*
X106085Y281083D01*
X105918Y280680D01*
X105568Y280749D01*
Y298933D01*
X114558D01*
X114609Y298839D01*
X114665Y298583D01*
X114332Y298249D01*
X114122Y297743D01*
Y297194D01*
X114332Y296688D01*
X114719Y296300D01*
X115226Y296091D01*
X115774D01*
X116280Y296300D01*
X116668Y296688D01*
X116878Y297194D01*
Y297743D01*
X116668Y298249D01*
X116335Y298583D01*
X116391Y298839D01*
X116442Y298933D01*
X119523D01*
X119657Y298609D01*
D02*
G37*
G36*
X153370Y298235D02*
X153213Y297855D01*
Y297145D01*
X153485Y296487D01*
X153516Y296456D01*
X153417Y296106D01*
X153226D01*
X152719Y295897D01*
X152673Y295850D01*
X152398D01*
Y295575D01*
X152332Y295509D01*
X152122Y295002D01*
Y294454D01*
X152138Y294415D01*
X151884Y294114D01*
X151429D01*
Y289177D01*
X149429D01*
Y294114D01*
X148974D01*
X148720Y294415D01*
X148736Y294454D01*
Y295002D01*
X148526Y295509D01*
X148461Y295575D01*
Y295850D01*
X148185D01*
X148139Y295897D01*
X147632Y296106D01*
X147084D01*
X146578Y295897D01*
X146532Y295850D01*
X144873D01*
X144786Y296060D01*
X144399Y296448D01*
X143892Y296657D01*
X143344D01*
X143018Y296522D01*
X142820Y296819D01*
X144586Y298585D01*
X153136D01*
X153370Y298235D01*
D02*
G37*
%LPC*%
G36*
X150703Y297524D02*
X150155D01*
X149649Y297314D01*
X149261Y296926D01*
X149051Y296420D01*
Y295872D01*
X149261Y295365D01*
X149649Y294977D01*
X150155Y294768D01*
X150703D01*
X151210Y294977D01*
X151597Y295365D01*
X151807Y295872D01*
Y296420D01*
X151597Y296926D01*
X151210Y297314D01*
X150703Y297524D01*
D02*
G37*
%LPD*%
D14*
X181772Y116000D02*
D03*
D15*
Y123874D02*
D03*
Y131748D02*
D03*
Y139622D02*
D03*
Y147496D02*
D03*
X165000Y116000D02*
D03*
Y123874D02*
D03*
Y131748D02*
D03*
Y139622D02*
D03*
Y147496D02*
D03*
D16*
X154228Y130500D02*
D03*
X147772D02*
D03*
D17*
X149161Y155744D02*
D03*
X145618D02*
D03*
X149161Y136256D02*
D03*
X145618D02*
D03*
X135382Y155744D02*
D03*
X131839D02*
D03*
X135382Y136256D02*
D03*
X131839D02*
D03*
D18*
X147390Y154760D02*
D03*
Y137240D02*
D03*
X133610Y154760D02*
D03*
Y137240D02*
D03*
D19*
X145657Y199094D02*
D03*
X140146D02*
D03*
X134634D02*
D03*
X145657Y204606D02*
D03*
X140146D02*
D03*
X134634D02*
D03*
X145657Y210118D02*
D03*
X140146D02*
D03*
X134634D02*
D03*
D20*
X180500Y235000D02*
D03*
Y230000D02*
D03*
Y225000D02*
D03*
Y220000D02*
D03*
Y215000D02*
D03*
Y210000D02*
D03*
Y205000D02*
D03*
Y200000D02*
D03*
Y195000D02*
D03*
Y190000D02*
D03*
Y185000D02*
D03*
Y180000D02*
D03*
Y175000D02*
D03*
Y170000D02*
D03*
X111602D02*
D03*
Y175000D02*
D03*
Y180000D02*
D03*
Y185000D02*
D03*
Y190000D02*
D03*
Y195000D02*
D03*
Y200000D02*
D03*
Y205000D02*
D03*
Y210000D02*
D03*
Y215000D02*
D03*
Y220000D02*
D03*
Y225000D02*
D03*
Y230000D02*
D03*
Y235000D02*
D03*
D21*
X168551Y165079D02*
D03*
X163551D02*
D03*
X158551D02*
D03*
X153551D02*
D03*
X148551D02*
D03*
X143551D02*
D03*
X138551D02*
D03*
X133551D02*
D03*
X128551D02*
D03*
X123551D02*
D03*
D22*
X113047Y305000D02*
D03*
X118953D02*
D03*
D23*
X134500Y288047D02*
D03*
Y293953D02*
D03*
X170929Y284319D02*
D03*
Y290224D02*
D03*
X140929Y269819D02*
D03*
Y275724D02*
D03*
D24*
X134846Y300500D02*
D03*
X128154D02*
D03*
X149083Y303272D02*
D03*
X155776D02*
D03*
D25*
X127500Y293264D02*
D03*
Y288736D02*
D03*
X163429Y289535D02*
D03*
Y285008D02*
D03*
X141000Y116236D02*
D03*
Y120764D02*
D03*
D26*
X121500Y275500D02*
D03*
X116172D02*
D03*
X152593Y273772D02*
D03*
X147265D02*
D03*
D27*
X128500Y274336D02*
D03*
Y279664D02*
D03*
D28*
X164173Y277272D02*
D03*
X169685D02*
D03*
D29*
X158429Y275528D02*
D03*
Y270016D02*
D03*
D30*
X122799Y153146D02*
D03*
X110201D02*
D03*
Y133854D02*
D03*
X122799D02*
D03*
D31*
X107496Y122051D02*
D03*
X125016D02*
D03*
X107496Y108272D02*
D03*
X125016D02*
D03*
D32*
X106512Y123823D02*
D03*
Y120280D02*
D03*
X126000Y123823D02*
D03*
Y120280D02*
D03*
X106512Y110043D02*
D03*
Y106500D02*
D03*
X126000Y110043D02*
D03*
Y106500D02*
D03*
D35*
X155892Y281461D02*
D03*
X144966D02*
D03*
X120963Y282784D02*
D03*
X110037D02*
D03*
D36*
X155941Y284650D02*
D03*
Y286618D02*
D03*
X144917Y284650D02*
D03*
Y286618D02*
D03*
X121012Y285972D02*
D03*
Y287941D02*
D03*
X109988Y285972D02*
D03*
Y287941D02*
D03*
D37*
X155154Y293094D02*
D03*
X145705D02*
D03*
X120224Y294417D02*
D03*
X110776D02*
D03*
D38*
X152398Y281067D02*
D03*
X148461D02*
D03*
X117469Y282390D02*
D03*
X113531D02*
D03*
D39*
X150429Y289177D02*
D03*
X115500Y290500D02*
D03*
D53*
X157236Y286618D02*
D03*
X154563D02*
D03*
X150429Y280398D02*
D03*
Y284335D02*
D03*
Y288272D02*
D03*
Y292209D02*
D03*
Y296146D02*
D03*
X157240Y291342D02*
D03*
Y293311D02*
D03*
Y295280D02*
D03*
X153500Y291500D02*
D03*
Y294728D02*
D03*
X143622Y286618D02*
D03*
X146295D02*
D03*
X143618Y291342D02*
D03*
Y293311D02*
D03*
Y295280D02*
D03*
X147358Y291500D02*
D03*
Y294728D02*
D03*
X122307Y287941D02*
D03*
X119634D02*
D03*
X115500Y281720D02*
D03*
Y285658D02*
D03*
Y289595D02*
D03*
Y293531D02*
D03*
Y297468D02*
D03*
X122311Y292665D02*
D03*
Y294634D02*
D03*
Y296602D02*
D03*
X118571Y292823D02*
D03*
Y296051D02*
D03*
X108693Y287941D02*
D03*
X111366D02*
D03*
X108689Y292665D02*
D03*
Y294634D02*
D03*
Y296602D02*
D03*
X112429Y292823D02*
D03*
Y296051D02*
D03*
X142902Y199094D02*
D03*
X137390D02*
D03*
X145657Y201850D02*
D03*
X140146D02*
D03*
X134634D02*
D03*
X142902Y204606D02*
D03*
X137390D02*
D03*
X145657Y207362D02*
D03*
X140146D02*
D03*
X134634D02*
D03*
X142902Y210118D02*
D03*
X137390D02*
D03*
D54*
X182000Y279000D02*
D03*
D55*
Y289000D02*
D03*
D60*
X178327Y147496D02*
X178976D01*
X174000Y150500D02*
X174278Y150222D01*
X175601D02*
X178327Y147496D01*
X174278Y150222D02*
X175601D01*
X181835Y123937D02*
X189993D01*
X181772Y123874D02*
X181835Y123937D01*
X155154Y293094D02*
Y297346D01*
X134500Y106500D02*
X160500D01*
X165000Y111000D02*
Y116000D01*
X160500Y106500D02*
X165000Y111000D01*
X123346Y117654D02*
X134500Y106500D01*
X118746Y117654D02*
X123346D01*
X108900Y127500D02*
X118746Y117654D01*
X110201Y132870D02*
Y133854D01*
Y128801D02*
Y132870D01*
X108900Y127500D02*
X110201Y128801D01*
X129088Y280000D02*
X135000D01*
Y273500D02*
Y280000D01*
X128626Y279538D02*
X129088Y280000D01*
X131500Y270000D02*
X135000Y273500D01*
X104454Y300500D02*
X123765D01*
X104000Y277000D02*
X111000Y270000D01*
X104000Y277000D02*
Y300046D01*
X104454Y300500D01*
X111000Y270000D02*
X131500D01*
X120583Y297318D02*
X123765Y300500D01*
X128154D01*
X120583Y294776D02*
Y297318D01*
X147390Y137240D02*
Y154760D01*
Y134287D02*
X147772Y133906D01*
X147390Y134287D02*
Y137240D01*
X147772Y130500D02*
Y133906D01*
X161500Y177000D02*
X168551Y169949D01*
Y165079D02*
Y169949D01*
X161500Y177000D02*
Y226000D01*
X164500Y229000D01*
X181772Y116000D02*
X189993D01*
X168500Y178000D02*
Y232500D01*
Y178000D02*
X176500Y170000D01*
X180500D01*
X110021Y153326D02*
X110201Y153146D01*
X194404Y190099D02*
X194500Y190194D01*
X193952Y190000D02*
X194051Y190099D01*
X194404D01*
D61*
X178976Y147496D02*
X181772D01*
X155000Y297500D02*
X155154Y297346D01*
X134634Y204606D02*
X137390D01*
X140146D01*
X142902D02*
X145657D01*
X140146D02*
X142902D01*
X154500Y277500D02*
X156063D01*
X158036Y275528D02*
X158429D01*
X156063Y277500D02*
X158036Y275528D01*
X128189Y293953D02*
X134500D01*
X127500Y293264D02*
X128189Y293953D01*
X128990Y305000D02*
X131169Y302821D01*
X118953Y305000D02*
X128990D01*
X108483Y281008D02*
Y282358D01*
X108909Y282784D02*
X110037D01*
X108483Y282358D02*
X108909Y282784D01*
X107600Y280125D02*
X108483Y281008D01*
X107600Y280071D02*
Y280125D01*
X131169Y298179D02*
Y302821D01*
X128500Y279664D02*
X128626Y279538D01*
X122946Y280000D02*
X123000D01*
X118579Y280197D02*
X122749D01*
X122946Y280000D01*
X121447Y275855D02*
Y277553D01*
X117469Y281307D02*
X118579Y280197D01*
X121447Y275553D02*
Y275855D01*
X113532Y279968D02*
Y282390D01*
X120153Y278847D02*
X121447Y277553D01*
X114653Y278847D02*
X120153D01*
X117469Y281307D02*
Y282390D01*
X121447Y275553D02*
X121500Y275500D01*
Y275198D02*
Y275500D01*
X116000Y230500D02*
X118000Y232500D01*
X116000Y225395D02*
Y230500D01*
X115605Y225000D02*
X116000Y225395D01*
X155154Y293094D02*
X155836Y293777D01*
X157004Y304500D02*
X164000D01*
X155776Y303272D02*
X157004Y304500D01*
X121500Y275198D02*
X122362Y274336D01*
X128500D01*
X117469Y282390D02*
Y288431D01*
X119590Y290553D01*
X122855D01*
X124977Y292675D02*
Y295289D01*
X130671Y297681D02*
X131169Y298179D01*
X122855Y290553D02*
X124977Y292675D01*
Y295289D02*
X127369Y297681D01*
X130671D01*
X128083Y287941D02*
X128189Y288047D01*
X126705Y287941D02*
X127500Y288736D01*
X121012Y287941D02*
X126705D01*
X121012Y285972D02*
Y287941D01*
X155941Y286618D02*
X156130Y286807D01*
X158905D01*
X155950Y284640D02*
X158335D01*
X113532Y279968D02*
X114653Y278847D01*
X112783Y225000D02*
X115605D01*
X111602D02*
X112783D01*
X125016Y122051D02*
X128453D01*
X134922Y115582D01*
X140346D01*
X141000Y116236D01*
X110201Y132870D02*
X117594Y125476D01*
X138811D01*
X141000Y123287D01*
Y120764D02*
Y123287D01*
X104000Y110566D02*
X105766Y108800D01*
X104000Y110566D02*
Y139105D01*
X104395Y139500D01*
X116605D01*
X117000Y139895D02*
Y166500D01*
X116605Y139500D02*
X117000Y139895D01*
Y166500D02*
X124000Y173500D01*
X106968Y108800D02*
X107496Y108272D01*
X105766Y108800D02*
X106968D01*
X117500Y187500D02*
Y223105D01*
X115605Y225000D02*
X117500Y223105D01*
Y187500D02*
X119500Y185500D01*
X181000Y215500D02*
X186500D01*
X180500Y215000D02*
X181000Y215500D01*
X180500Y220000D02*
X186500D01*
X165000Y177500D02*
Y181000D01*
Y177500D02*
X172500Y170000D01*
Y162000D02*
Y170000D01*
X169394Y158894D02*
X172500Y162000D01*
X157005Y158894D02*
X169394D01*
X154228Y156117D02*
X157005Y158894D01*
X154228Y130500D02*
Y156117D01*
X124756Y100895D02*
Y108012D01*
X124500Y100000D02*
X124691Y100191D01*
Y100830D02*
X124756Y100895D01*
X124691Y100191D02*
Y100830D01*
X124756Y108012D02*
X125016Y108272D01*
X124000Y173500D02*
X153500D01*
X106042Y154958D02*
Y184458D01*
Y154958D02*
X107674Y153326D01*
X110021D01*
X106042Y184458D02*
X106584Y185000D01*
X111602D01*
X180500Y230000D02*
X186500D01*
X180500Y190000D02*
X193952D01*
X180500Y195000D02*
X186500D01*
X180500Y200000D02*
X186500D01*
D62*
X120224Y294417D02*
X120583Y294776D01*
X121447Y275855D02*
X121500Y275802D01*
Y275500D02*
Y275802D01*
X120553Y276749D02*
X121447Y275855D01*
X152732Y279835D02*
X158261D01*
X152398Y280170D02*
Y281067D01*
Y280170D02*
X152732Y279835D01*
X113532Y282390D02*
X113831Y282090D01*
Y280945D02*
Y282090D01*
X110500Y294142D02*
X110776Y294417D01*
X108691Y287943D02*
X108693Y287941D01*
X108689Y292665D02*
X108691Y292663D01*
X111366Y287941D02*
X111458Y288033D01*
X144917Y286618D02*
X145500Y287201D01*
Y293000D01*
X158261Y279835D02*
X160825Y277272D01*
X164173D01*
X142351Y276949D02*
Y280295D01*
X140929Y275724D02*
X141126D01*
X142351Y276949D01*
Y280295D02*
X143516Y281461D01*
X144967D01*
X155799Y272253D02*
Y272253D01*
X152593Y273772D02*
X152596Y273769D01*
X154282D01*
X155799Y272253D01*
Y272253D02*
X158036Y270016D01*
X158429D01*
X148461Y278206D02*
X152593Y274074D01*
Y273772D02*
Y274074D01*
X148461Y278206D02*
Y281067D01*
X134500Y288047D02*
X134697D01*
D63*
X109465Y243000D02*
X123000D01*
X129335Y236665D01*
Y224165D02*
Y236665D01*
Y224165D02*
X130000Y223500D01*
X105464Y230454D02*
Y239000D01*
X105919Y230000D02*
X111602D01*
X105464Y230454D02*
X105919Y230000D01*
X105464Y239000D02*
X109465Y243000D01*
X159598Y288165D02*
Y299546D01*
X159144Y300000D02*
X159598Y299546D01*
X159609Y287511D02*
Y288153D01*
X144000Y300000D02*
X159144D01*
X159598Y288165D02*
X159609Y288153D01*
X159598Y287500D02*
X159609Y287511D01*
X139845Y295845D02*
X144000Y300000D01*
X128189Y288047D02*
X134500D01*
X159598Y285903D02*
Y287500D01*
X158905Y286807D02*
X159598Y287500D01*
X158335Y284640D02*
X159598Y285903D01*
X155941Y284650D02*
X155950Y284640D01*
X160052Y285449D02*
X162988D01*
X159598Y285903D02*
X160052Y285449D01*
X110500Y290793D02*
Y294142D01*
X109988Y287941D02*
Y290281D01*
X110500Y290793D01*
X139845Y293195D02*
Y295845D01*
X134697Y288047D02*
X139845Y293195D01*
X163429Y285008D02*
X164118Y284319D01*
X162988Y285449D02*
X163429Y285008D01*
X170929Y284319D02*
X177319D01*
X164118D02*
X170929D01*
X177319D02*
X182000Y289000D01*
D64*
X174000Y150500D02*
D03*
X176772Y139622D02*
D03*
X170000D02*
D03*
Y147496D02*
D03*
X177500Y130500D02*
D03*
X170000Y131748D02*
D03*
X189993Y123937D02*
D03*
X136155Y118558D02*
D03*
X136482Y128453D02*
D03*
X153500Y173500D02*
D03*
X165000Y181000D02*
D03*
X136000Y132500D02*
D03*
X139000Y138226D02*
D03*
X189993Y116000D02*
D03*
X136000Y112500D02*
D03*
Y122500D02*
D03*
Y142500D02*
D03*
Y147500D02*
D03*
D65*
X168240Y136000D02*
D03*
X155000Y297500D02*
D03*
X154500Y277500D02*
D03*
X157500Y110750D02*
D03*
X157760Y117168D02*
D03*
X157500Y123417D02*
D03*
X108900Y127500D02*
D03*
X135000Y280000D02*
D03*
X107600Y280071D02*
D03*
X123000Y280000D02*
D03*
X118000Y232500D02*
D03*
X186500Y200000D02*
D03*
X119500Y185500D02*
D03*
X186500Y215500D02*
D03*
Y220000D02*
D03*
X124500Y100000D02*
D03*
X157500Y155500D02*
D03*
Y136250D02*
D03*
Y142667D02*
D03*
X168500Y155500D02*
D03*
X164500Y229000D02*
D03*
X157500Y129833D02*
D03*
X168500Y232500D02*
D03*
X186500Y230000D02*
D03*
X194500Y190194D02*
D03*
X186500Y195000D02*
D03*
X169101Y151500D02*
D03*
X157500Y149083D02*
D03*
D66*
X164000Y304500D02*
D03*
X155091Y223500D02*
D03*
X130000D02*
D03*
D67*
X184000Y306500D02*
D03*
M02*
