G04*
G04 #@! TF.GenerationSoftware,Altium Limited,Altium Designer,24.9.1 (31)*
G04*
G04 Layer_Color=128*
%FSLAX25Y25*%
%MOIN*%
G70*
G04*
G04 #@! TF.SameCoordinates,F3BC3392-02DA-4331-AFF2-193CA699B933*
G04*
G04*
G04 #@! TF.FilePolarity,Positive*
G04*
G01*
G75*
%ADD13C,0.00500*%
D13*
X179992Y279000D02*
X184008D01*
X182000Y276992D02*
Y281008D01*
X179992Y289000D02*
X184008D01*
X182000Y286992D02*
Y291008D01*
X105955Y279048D02*
X107155D01*
X106555Y278448D02*
Y279648D01*
X122400Y280000D02*
X123600D01*
X123000Y279400D02*
Y280600D01*
X156900Y127000D02*
X158100D01*
X157500Y126400D02*
Y127600D01*
X156900Y123181D02*
X158100D01*
X157500Y122582D02*
Y123782D01*
X138750Y125000D02*
X140250D01*
X139500Y124250D02*
Y125750D01*
X139569Y129138D02*
X141069D01*
X140319Y128388D02*
Y129888D01*
X145196Y124195D02*
X146696D01*
X145946Y123445D02*
Y124945D01*
X144750Y115500D02*
X146250D01*
X145500Y114750D02*
Y116250D01*
X144750Y120000D02*
X146250D01*
X145500Y119250D02*
Y120750D01*
X168400Y135500D02*
X169600D01*
X169000Y134900D02*
Y136100D01*
X167890Y155683D02*
X169090D01*
X168490Y155082D02*
Y156282D01*
X168900Y152000D02*
X170100D01*
X169500Y151400D02*
Y152600D01*
X156400Y144500D02*
X157600D01*
X157000Y143900D02*
Y145100D01*
X156400Y149000D02*
X157600D01*
X157000Y148400D02*
Y149600D01*
X174900Y128000D02*
X176100D01*
X175500Y127400D02*
Y128600D01*
X155278Y114953D02*
X156478D01*
X155878Y114354D02*
Y115553D01*
X193969Y190000D02*
X195169D01*
X194569Y189400D02*
Y190600D01*
X184650Y195000D02*
X185850D01*
X185250Y194400D02*
Y195600D01*
X114900Y297000D02*
X116100D01*
X115500Y296400D02*
Y297600D01*
X149900Y296000D02*
X151100D01*
X150500Y295400D02*
Y296600D01*
X154746Y299153D02*
X155947D01*
X155347Y298553D02*
Y299753D01*
X152294Y277292D02*
X153494D01*
X152894Y276692D02*
Y277892D01*
X154955Y153202D02*
X156155D01*
X155555Y152602D02*
Y153802D01*
X173608Y151122D02*
X174808D01*
X174207Y150522D02*
Y151723D01*
X172400Y147500D02*
X173600D01*
X173000Y146900D02*
Y148100D01*
X170900Y143500D02*
X172100D01*
X171500Y142900D02*
Y144100D01*
X174900Y135500D02*
X176100D01*
X175500Y134900D02*
Y136100D01*
X172393Y131007D02*
X173593D01*
X172993Y130407D02*
Y131607D01*
X139750Y112500D02*
X141250D01*
X140500Y111750D02*
Y113250D01*
X139250Y134000D02*
X140750D01*
X140000Y133250D02*
Y134750D01*
X139114Y142500D02*
X140614D01*
X139864Y141750D02*
Y143250D01*
X138250Y138226D02*
X139750D01*
X139000Y137476D02*
Y138976D01*
X139114Y147500D02*
X140614D01*
X139864Y146750D02*
Y148250D01*
X167650Y232419D02*
X168850D01*
X168250Y231819D02*
Y233019D01*
X163995Y178963D02*
X165195D01*
X164595Y178363D02*
Y179563D01*
X167400Y198500D02*
X168600D01*
X168000Y197900D02*
Y199100D01*
X167400Y208000D02*
X168600D01*
X168000Y207400D02*
Y208600D01*
X115900Y187500D02*
X117100D01*
X116500Y186900D02*
Y188100D01*
X103408Y229913D02*
X104908D01*
X104158Y229163D02*
Y230663D01*
X189393Y123937D02*
X190593D01*
X189993Y123337D02*
Y124537D01*
X156900Y110750D02*
X158100D01*
X157500Y110150D02*
Y111350D01*
X108300Y127500D02*
X109500D01*
X108900Y126900D02*
Y128100D01*
X134400Y280000D02*
X135600D01*
X135000Y279400D02*
Y280600D01*
X116400Y238000D02*
X117600D01*
X117000Y237400D02*
Y238600D01*
X117400Y232500D02*
X118600D01*
X118000Y231900D02*
Y233100D01*
X162600Y304500D02*
X165400D01*
X164000Y303100D02*
Y305900D01*
X153691Y223500D02*
X156491D01*
X155091Y222100D02*
Y224900D01*
X137900Y102000D02*
X139100D01*
X138500Y101400D02*
Y102600D01*
X156400Y102000D02*
X157600D01*
X157000Y101400D02*
Y102600D01*
X185900Y200000D02*
X187100D01*
X186500Y199400D02*
Y200600D01*
X128600Y223500D02*
X131400D01*
X130000Y222100D02*
Y224900D01*
X185900Y215500D02*
X187100D01*
X186500Y214900D02*
Y216100D01*
X185900Y220000D02*
X187100D01*
X186500Y219400D02*
Y220600D01*
X123900Y100000D02*
X125100D01*
X124500Y99400D02*
Y100600D01*
X152900Y173500D02*
X154100D01*
X153500Y172900D02*
Y174100D01*
X156900Y136250D02*
X158100D01*
X157500Y135650D02*
Y136850D01*
X163900Y229000D02*
X165100D01*
X164500Y228400D02*
Y229600D01*
X189393Y116000D02*
X190593D01*
X189993Y115400D02*
Y116600D01*
X185900Y230000D02*
X187100D01*
X186500Y229400D02*
Y230600D01*
X176750Y306500D02*
X191250D01*
X184000Y299250D02*
Y313750D01*
M02*
