G04*
G04 #@! TF.GenerationSoftware,Altium Limited,Altium Designer,24.9.1 (31)*
G04*
G04 Layer_Physical_Order=4*
G04 Layer_Color=6736896*
%FSLAX25Y25*%
%MOIN*%
G70*
G04*
G04 #@! TF.SameCoordinates,65E441D1-A48C-4218-98E1-AC23B9FD057C*
G04*
G04*
G04 #@! TF.FilePolarity,Positive*
G04*
G01*
G75*
%ADD53C,0.01181*%
%ADD54R,0.06181X0.06181*%
%ADD55C,0.06181*%
%ADD60C,0.01500*%
%ADD61C,0.01000*%
%ADD64C,0.02953*%
%ADD65C,0.02000*%
%ADD66C,0.05000*%
%ADD67C,0.15748*%
G36*
X195796Y192080D02*
X195296Y191799D01*
X194855Y191982D01*
X194144D01*
X193488Y191710D01*
X192985Y191207D01*
X192713Y190550D01*
Y189839D01*
X192985Y189182D01*
X193488Y188679D01*
X194144Y188407D01*
X194855D01*
X195296Y188589D01*
X195796Y188309D01*
Y98204D01*
X125939D01*
X125732Y98704D01*
X126015Y98988D01*
X126287Y99645D01*
Y100356D01*
X126015Y101013D01*
X125513Y101515D01*
X124855Y101787D01*
X124144D01*
X123487Y101515D01*
X122985Y101013D01*
X122713Y100356D01*
Y99645D01*
X122985Y98988D01*
X123268Y98704D01*
X123061Y98204D01*
X98204D01*
Y128520D01*
X98704Y128672D01*
X98892Y128392D01*
X100892Y126392D01*
X101400Y126052D01*
X102000Y125933D01*
X108014D01*
X108544Y125713D01*
X109256D01*
X109913Y125985D01*
X110415Y126488D01*
X110687Y127145D01*
Y127856D01*
X110415Y128513D01*
X109913Y129015D01*
X109256Y129287D01*
X108544D01*
X108014Y129068D01*
X102649D01*
X101567Y130149D01*
Y267351D01*
X102666Y268449D01*
X131517D01*
X132116Y268568D01*
X132625Y268908D01*
X136108Y272392D01*
X136448Y272900D01*
X136567Y273500D01*
Y279114D01*
X136787Y279644D01*
Y280356D01*
X136515Y281013D01*
X136012Y281515D01*
X135355Y281787D01*
X134644D01*
X133987Y281515D01*
X133485Y281013D01*
X133213Y280356D01*
Y279644D01*
X133432Y279114D01*
Y274149D01*
X130867Y271584D01*
X102016D01*
X101417Y271465D01*
X100908Y271125D01*
X98892Y269108D01*
X98704Y268828D01*
X98204Y268980D01*
Y316296D01*
X195796D01*
Y192080D01*
D02*
G37*
%LPC*%
G36*
X184853Y315161D02*
X183147D01*
X181474Y314829D01*
X179897Y314176D01*
X178479Y313228D01*
X177272Y312021D01*
X176324Y310603D01*
X175671Y309026D01*
X175339Y307353D01*
Y305647D01*
X175671Y303974D01*
X176324Y302397D01*
X177272Y300979D01*
X178479Y299772D01*
X179897Y298824D01*
X181474Y298171D01*
X183147Y297839D01*
X184853D01*
X186526Y298171D01*
X188103Y298824D01*
X189521Y299772D01*
X190728Y300979D01*
X191676Y302397D01*
X192329Y303974D01*
X192661Y305647D01*
Y307353D01*
X192329Y309026D01*
X191676Y310603D01*
X190728Y312021D01*
X189521Y313228D01*
X188103Y314176D01*
X186526Y314829D01*
X184853Y315161D01*
D02*
G37*
G36*
X115774Y298847D02*
X115226D01*
X114719Y298637D01*
X114332Y298249D01*
X114122Y297743D01*
Y297194D01*
X114332Y296688D01*
X114719Y296300D01*
X115226Y296091D01*
X115774D01*
X116280Y296300D01*
X116668Y296688D01*
X116878Y297194D01*
Y297743D01*
X116668Y298249D01*
X116280Y298637D01*
X115774Y298847D01*
D02*
G37*
G36*
X150703Y297524D02*
X150155D01*
X149649Y297314D01*
X149261Y296926D01*
X149051Y296420D01*
Y295872D01*
X149261Y295365D01*
X149649Y294977D01*
X150155Y294768D01*
X150703D01*
X151210Y294977D01*
X151597Y295365D01*
X151807Y295872D01*
Y296420D01*
X151597Y296926D01*
X151210Y297314D01*
X150703Y297524D01*
D02*
G37*
G36*
X118845Y297429D02*
X118297D01*
X117790Y297219D01*
X117403Y296832D01*
X117193Y296325D01*
Y295777D01*
X117403Y295271D01*
X117790Y294883D01*
X118297Y294673D01*
Y294201D01*
X117790Y293991D01*
X117403Y293603D01*
X117378Y293544D01*
X116878Y293643D01*
Y293806D01*
X116668Y294312D01*
X116280Y294700D01*
X115774Y294910D01*
X115226D01*
X114719Y294700D01*
X114332Y294312D01*
X114122Y293806D01*
Y293643D01*
X113622Y293544D01*
X113597Y293603D01*
X113210Y293991D01*
X112703Y294201D01*
Y294673D01*
X113210Y294883D01*
X113597Y295271D01*
X113807Y295777D01*
Y296325D01*
X113597Y296832D01*
X113210Y297219D01*
X112703Y297429D01*
X112155D01*
X111649Y297219D01*
X111261Y296832D01*
X111051Y296325D01*
Y295777D01*
X111261Y295271D01*
X111649Y294883D01*
X112155Y294673D01*
Y294201D01*
X111649Y293991D01*
X111261Y293603D01*
X111051Y293097D01*
Y292549D01*
X111261Y292042D01*
X111649Y291655D01*
X112155Y291445D01*
X112703D01*
X113210Y291655D01*
X113597Y292042D01*
X113807Y292549D01*
Y292711D01*
X114307Y292811D01*
X114332Y292751D01*
X114719Y292363D01*
X115226Y292154D01*
X115774D01*
X116280Y292363D01*
X116668Y292751D01*
X116693Y292811D01*
X117193Y292711D01*
Y292549D01*
X117403Y292042D01*
X117790Y291655D01*
X118297Y291445D01*
X118845D01*
X119351Y291655D01*
X119739Y292042D01*
X119949Y292549D01*
Y293097D01*
X119739Y293603D01*
X119351Y293991D01*
X118845Y294201D01*
Y294673D01*
X119351Y294883D01*
X119739Y295271D01*
X119949Y295777D01*
Y296325D01*
X119739Y296832D01*
X119351Y297219D01*
X118845Y297429D01*
D02*
G37*
G36*
X153774Y296106D02*
X153226D01*
X152719Y295897D01*
X152332Y295509D01*
X152122Y295002D01*
Y294454D01*
X152332Y293948D01*
X152719Y293560D01*
X153226Y293350D01*
Y292878D01*
X152719Y292668D01*
X152332Y292281D01*
X152307Y292221D01*
X151807Y292320D01*
Y292483D01*
X151597Y292989D01*
X151210Y293377D01*
X150703Y293587D01*
X150155D01*
X149649Y293377D01*
X149261Y292989D01*
X149051Y292483D01*
Y292320D01*
X148551Y292221D01*
X148526Y292281D01*
X148139Y292668D01*
X147632Y292878D01*
Y293350D01*
X148139Y293560D01*
X148526Y293948D01*
X148736Y294454D01*
Y295002D01*
X148526Y295509D01*
X148139Y295897D01*
X147632Y296106D01*
X147084D01*
X146578Y295897D01*
X146190Y295509D01*
X145980Y295002D01*
Y294454D01*
X146190Y293948D01*
X146578Y293560D01*
X147084Y293350D01*
Y292878D01*
X146578Y292668D01*
X146190Y292281D01*
X145980Y291774D01*
Y291226D01*
X146190Y290720D01*
X146578Y290332D01*
X147084Y290122D01*
X147632D01*
X148139Y290332D01*
X148526Y290720D01*
X148736Y291226D01*
Y291388D01*
X149236Y291488D01*
X149261Y291428D01*
X149649Y291040D01*
X150155Y290831D01*
X150703D01*
X151210Y291040D01*
X151597Y291428D01*
X151622Y291488D01*
X152122Y291388D01*
Y291226D01*
X152332Y290720D01*
X152719Y290332D01*
X153226Y290122D01*
X153774D01*
X154280Y290332D01*
X154668Y290720D01*
X154878Y291226D01*
Y291774D01*
X154668Y292281D01*
X154280Y292668D01*
X153774Y292878D01*
Y293350D01*
X154280Y293560D01*
X154668Y293948D01*
X154878Y294454D01*
Y295002D01*
X154668Y295509D01*
X154280Y295897D01*
X153774Y296106D01*
D02*
G37*
G36*
X122585Y297980D02*
X122037D01*
X121530Y297771D01*
X121143Y297383D01*
X120933Y296877D01*
Y296328D01*
X121143Y295822D01*
X121347Y295618D01*
X121143Y295414D01*
X120933Y294908D01*
Y294360D01*
X121143Y293853D01*
X121347Y293650D01*
X121143Y293446D01*
X120933Y292939D01*
Y292391D01*
X121143Y291885D01*
X121530Y291497D01*
X122037Y291287D01*
X122585D01*
X123092Y291497D01*
X123479Y291885D01*
X123689Y292391D01*
Y292939D01*
X123479Y293446D01*
X123275Y293650D01*
X123479Y293853D01*
X123689Y294360D01*
Y294908D01*
X123479Y295414D01*
X123275Y295618D01*
X123479Y295822D01*
X123689Y296328D01*
Y296877D01*
X123479Y297383D01*
X123092Y297771D01*
X122585Y297980D01*
D02*
G37*
G36*
X108963D02*
X108415D01*
X107908Y297771D01*
X107521Y297383D01*
X107311Y296877D01*
Y296328D01*
X107521Y295822D01*
X107724Y295618D01*
X107521Y295414D01*
X107311Y294908D01*
Y294360D01*
X107521Y293853D01*
X107724Y293650D01*
X107521Y293446D01*
X107311Y292939D01*
Y292391D01*
X107521Y291885D01*
X107908Y291497D01*
X108415Y291287D01*
X108963D01*
X109469Y291497D01*
X109857Y291885D01*
X110067Y292391D01*
Y292939D01*
X109857Y293446D01*
X109653Y293650D01*
X109857Y293853D01*
X110067Y294360D01*
Y294908D01*
X109857Y295414D01*
X109653Y295618D01*
X109857Y295822D01*
X110067Y296328D01*
Y296877D01*
X109857Y297383D01*
X109469Y297771D01*
X108963Y297980D01*
D02*
G37*
G36*
X157514Y296657D02*
X156966D01*
X156460Y296448D01*
X156072Y296060D01*
X155862Y295554D01*
Y295005D01*
X156072Y294499D01*
X156276Y294295D01*
X156072Y294092D01*
X155862Y293585D01*
Y293037D01*
X156072Y292530D01*
X156276Y292327D01*
X156072Y292123D01*
X155862Y291617D01*
Y291068D01*
X156072Y290562D01*
X156460Y290174D01*
X156966Y289965D01*
X157514D01*
X158021Y290174D01*
X158408Y290562D01*
X158618Y291068D01*
Y291617D01*
X158408Y292123D01*
X158205Y292327D01*
X158408Y292530D01*
X158618Y293037D01*
Y293585D01*
X158408Y294092D01*
X158205Y294295D01*
X158408Y294499D01*
X158618Y295005D01*
Y295554D01*
X158408Y296060D01*
X158021Y296448D01*
X157514Y296657D01*
D02*
G37*
G36*
X143892D02*
X143344D01*
X142838Y296448D01*
X142450Y296060D01*
X142240Y295554D01*
Y295005D01*
X142450Y294499D01*
X142654Y294295D01*
X142450Y294092D01*
X142240Y293585D01*
Y293037D01*
X142450Y292530D01*
X142654Y292327D01*
X142450Y292123D01*
X142240Y291617D01*
Y291068D01*
X142450Y290562D01*
X142838Y290174D01*
X143344Y289965D01*
X143892D01*
X144399Y290174D01*
X144786Y290562D01*
X144996Y291068D01*
Y291617D01*
X144786Y292123D01*
X144583Y292327D01*
X144786Y292530D01*
X144996Y293037D01*
Y293585D01*
X144786Y294092D01*
X144583Y294295D01*
X144786Y294499D01*
X144996Y295005D01*
Y295554D01*
X144786Y296060D01*
X144399Y296448D01*
X143892Y296657D01*
D02*
G37*
G36*
X122581Y289319D02*
X122033D01*
X121527Y289109D01*
X121283Y288866D01*
X120970Y288772D01*
X120658Y288866D01*
X120414Y289109D01*
X119908Y289319D01*
X119360D01*
X118853Y289109D01*
X118466Y288721D01*
X118256Y288215D01*
Y287667D01*
X118466Y287160D01*
X118853Y286773D01*
X119360Y286563D01*
X119908D01*
X120414Y286773D01*
X120658Y287016D01*
X120970Y287110D01*
X121283Y287016D01*
X121527Y286773D01*
X122033Y286563D01*
X122581D01*
X123088Y286773D01*
X123475Y287160D01*
X123685Y287667D01*
Y288215D01*
X123475Y288721D01*
X123088Y289109D01*
X122581Y289319D01*
D02*
G37*
G36*
X111640D02*
X111092D01*
X110586Y289109D01*
X110342Y288866D01*
X110029Y288772D01*
X109717Y288866D01*
X109474Y289109D01*
X108967Y289319D01*
X108419D01*
X107912Y289109D01*
X107525Y288721D01*
X107315Y288215D01*
Y287667D01*
X107525Y287160D01*
X107912Y286773D01*
X108419Y286563D01*
X108967D01*
X109474Y286773D01*
X109717Y287016D01*
X110029Y287110D01*
X110342Y287016D01*
X110586Y286773D01*
X111092Y286563D01*
X111640D01*
X112147Y286773D01*
X112534Y287160D01*
X112744Y287667D01*
Y288215D01*
X112534Y288721D01*
X112147Y289109D01*
X111640Y289319D01*
D02*
G37*
G36*
X115774Y290972D02*
X115226D01*
X114719Y290763D01*
X114332Y290375D01*
X114122Y289869D01*
Y289320D01*
X114332Y288814D01*
X114719Y288426D01*
X115226Y288216D01*
X115774D01*
X116280Y288426D01*
X116668Y288814D01*
X116878Y289320D01*
Y289869D01*
X116668Y290375D01*
X116280Y290763D01*
X115774Y290972D01*
D02*
G37*
G36*
X157510Y287996D02*
X156962D01*
X156456Y287786D01*
X156212Y287543D01*
X155900Y287449D01*
X155587Y287543D01*
X155343Y287786D01*
X154837Y287996D01*
X154289D01*
X153782Y287786D01*
X153395Y287399D01*
X153185Y286892D01*
Y286344D01*
X153395Y285838D01*
X153782Y285450D01*
X154289Y285240D01*
X154837D01*
X155343Y285450D01*
X155587Y285693D01*
X155900Y285787D01*
X156212Y285693D01*
X156456Y285450D01*
X156962Y285240D01*
X157510D01*
X158017Y285450D01*
X158404Y285838D01*
X158614Y286344D01*
Y286892D01*
X158404Y287399D01*
X158017Y287786D01*
X157510Y287996D01*
D02*
G37*
G36*
X146569D02*
X146021D01*
X145515Y287786D01*
X145272Y287543D01*
X144959Y287449D01*
X144646Y287543D01*
X144403Y287786D01*
X143896Y287996D01*
X143348D01*
X142841Y287786D01*
X142454Y287399D01*
X142244Y286892D01*
Y286344D01*
X142454Y285838D01*
X142841Y285450D01*
X143348Y285240D01*
X143896D01*
X144403Y285450D01*
X144646Y285693D01*
X144959Y285787D01*
X145272Y285693D01*
X145515Y285450D01*
X146021Y285240D01*
X146569D01*
X147076Y285450D01*
X147463Y285838D01*
X147673Y286344D01*
Y286892D01*
X147463Y287399D01*
X147076Y287786D01*
X146569Y287996D01*
D02*
G37*
G36*
X150703Y289650D02*
X150155D01*
X149649Y289440D01*
X149261Y289052D01*
X149051Y288546D01*
Y287998D01*
X149261Y287491D01*
X149649Y287104D01*
X150155Y286894D01*
X150703D01*
X151210Y287104D01*
X151597Y287491D01*
X151807Y287998D01*
Y288546D01*
X151597Y289052D01*
X151210Y289440D01*
X150703Y289650D01*
D02*
G37*
G36*
X182510Y292878D02*
X181490D01*
X180503Y292614D01*
X179619Y292103D01*
X178897Y291381D01*
X178386Y290497D01*
X178122Y289510D01*
Y288490D01*
X178386Y287503D01*
X178897Y286619D01*
X179619Y285897D01*
X180503Y285386D01*
X181490Y285122D01*
X182510D01*
X183497Y285386D01*
X184381Y285897D01*
X185103Y286619D01*
X185614Y287503D01*
X185878Y288490D01*
Y289510D01*
X185614Y290497D01*
X185103Y291381D01*
X184381Y292103D01*
X183497Y292614D01*
X182510Y292878D01*
D02*
G37*
G36*
X115774Y287035D02*
X115226D01*
X114719Y286826D01*
X114332Y286438D01*
X114122Y285932D01*
Y285383D01*
X114332Y284877D01*
X114719Y284489D01*
X115226Y284279D01*
X115774D01*
X116280Y284489D01*
X116668Y284877D01*
X116878Y285383D01*
Y285932D01*
X116668Y286438D01*
X116280Y286826D01*
X115774Y287035D01*
D02*
G37*
G36*
X150703Y285713D02*
X150155D01*
X149649Y285503D01*
X149261Y285115D01*
X149051Y284609D01*
Y284061D01*
X149261Y283554D01*
X149649Y283167D01*
X150155Y282957D01*
X150703D01*
X151210Y283167D01*
X151597Y283554D01*
X151807Y284061D01*
Y284609D01*
X151597Y285115D01*
X151210Y285503D01*
X150703Y285713D01*
D02*
G37*
G36*
X115774Y283098D02*
X115226D01*
X114719Y282889D01*
X114332Y282501D01*
X114122Y281995D01*
Y281446D01*
X113927Y281155D01*
X110016D01*
X109824Y281283D01*
X109322Y281383D01*
X108815D01*
X108613Y281586D01*
X107956Y281858D01*
X107245D01*
X106588Y281586D01*
X106085Y281083D01*
X105813Y280426D01*
Y279715D01*
X106085Y279058D01*
X106588Y278555D01*
X107245Y278283D01*
X107956D01*
X108613Y278555D01*
X108815Y278758D01*
X108856D01*
X109048Y278630D01*
X109550Y278530D01*
X116278D01*
X116780Y278630D01*
X116866Y278687D01*
X121785D01*
X121987Y278485D01*
X122644Y278213D01*
X123355D01*
X124012Y278485D01*
X124515Y278988D01*
X124787Y279644D01*
Y280356D01*
X124515Y281013D01*
X124012Y281515D01*
X123355Y281787D01*
X122644D01*
X121987Y281515D01*
X121785Y281313D01*
X116967D01*
X116878Y281446D01*
Y281995D01*
X116668Y282501D01*
X116280Y282889D01*
X115774Y283098D01*
D02*
G37*
G36*
X150703Y281776D02*
X150155D01*
X149649Y281566D01*
X149261Y281178D01*
X149051Y280672D01*
Y280123D01*
X149261Y279617D01*
X149649Y279229D01*
X150155Y279020D01*
X150703D01*
X151210Y279229D01*
X151597Y279617D01*
X151807Y280123D01*
Y280672D01*
X151597Y281178D01*
X151210Y281566D01*
X150703Y281776D01*
D02*
G37*
G36*
X185878Y282878D02*
X178122D01*
Y275122D01*
X185878D01*
Y282878D01*
D02*
G37*
G36*
X168856Y234287D02*
X168145D01*
X167488Y234015D01*
X166985Y233512D01*
X166713Y232856D01*
Y232144D01*
X166985Y231487D01*
X167488Y230985D01*
X168145Y230713D01*
X168856D01*
X169512Y230985D01*
X170015Y231487D01*
X170287Y232144D01*
Y232856D01*
X170015Y233512D01*
X169512Y234015D01*
X168856Y234287D01*
D02*
G37*
G36*
X118356D02*
X117645D01*
X116988Y234015D01*
X116485Y233512D01*
X116213Y232856D01*
Y232144D01*
X116485Y231487D01*
X116988Y230985D01*
X117645Y230713D01*
X118356D01*
X119012Y230985D01*
X119515Y231487D01*
X119787Y232144D01*
Y232856D01*
X119515Y233512D01*
X119012Y234015D01*
X118356Y234287D01*
D02*
G37*
G36*
X186855Y231787D02*
X186144D01*
X185487Y231515D01*
X184985Y231013D01*
X184713Y230356D01*
Y229644D01*
X184985Y228988D01*
X185487Y228485D01*
X186144Y228213D01*
X186855D01*
X187513Y228485D01*
X188015Y228988D01*
X188287Y229644D01*
Y230356D01*
X188015Y231013D01*
X187513Y231515D01*
X186855Y231787D01*
D02*
G37*
G36*
X164856Y230787D02*
X164145D01*
X163488Y230515D01*
X162985Y230012D01*
X162713Y229356D01*
Y228644D01*
X162985Y227988D01*
X163488Y227485D01*
X164145Y227213D01*
X164856D01*
X165513Y227485D01*
X166015Y227988D01*
X166287Y228644D01*
Y229356D01*
X166015Y230012D01*
X165513Y230515D01*
X164856Y230787D01*
D02*
G37*
G36*
X143176Y211496D02*
X142628D01*
X142121Y211286D01*
X141733Y210899D01*
X141524Y210392D01*
Y209844D01*
X141733Y209338D01*
X142121Y208950D01*
X142628Y208740D01*
X143176D01*
X143682Y208950D01*
X144070Y209338D01*
X144280Y209844D01*
Y210392D01*
X144070Y210899D01*
X143682Y211286D01*
X143176Y211496D01*
D02*
G37*
G36*
X137664D02*
X137116D01*
X136609Y211286D01*
X136222Y210899D01*
X136012Y210392D01*
Y209844D01*
X136222Y209338D01*
X136609Y208950D01*
X137116Y208740D01*
X137664D01*
X138170Y208950D01*
X138558Y209338D01*
X138768Y209844D01*
Y210392D01*
X138558Y210899D01*
X138170Y211286D01*
X137664Y211496D01*
D02*
G37*
G36*
X145931Y208740D02*
X145383D01*
X144877Y208530D01*
X144489Y208143D01*
X144279Y207636D01*
Y207088D01*
X144489Y206582D01*
X144877Y206194D01*
X145383Y205984D01*
X145931D01*
X146438Y206194D01*
X146826Y206582D01*
X147035Y207088D01*
Y207636D01*
X146826Y208143D01*
X146438Y208530D01*
X145931Y208740D01*
D02*
G37*
G36*
X140420D02*
X139872D01*
X139365Y208530D01*
X138977Y208143D01*
X138768Y207636D01*
Y207088D01*
X138977Y206582D01*
X139365Y206194D01*
X139872Y205984D01*
X140420D01*
X140926Y206194D01*
X141314Y206582D01*
X141524Y207088D01*
Y207636D01*
X141314Y208143D01*
X140926Y208530D01*
X140420Y208740D01*
D02*
G37*
G36*
X134908D02*
X134360D01*
X133853Y208530D01*
X133466Y208143D01*
X133256Y207636D01*
Y207088D01*
X133466Y206582D01*
X133853Y206194D01*
X134360Y205984D01*
X134908D01*
X135414Y206194D01*
X135802Y206582D01*
X136012Y207088D01*
Y207636D01*
X135802Y208143D01*
X135414Y208530D01*
X134908Y208740D01*
D02*
G37*
G36*
X165356Y207287D02*
X164645D01*
X163988Y207015D01*
X163485Y206512D01*
X163213Y205855D01*
Y205145D01*
X163485Y204487D01*
X163988Y203985D01*
X164645Y203713D01*
X165356D01*
X166013Y203985D01*
X166515Y204487D01*
X166787Y205145D01*
Y205855D01*
X166515Y206512D01*
X166013Y207015D01*
X165356Y207287D01*
D02*
G37*
G36*
X143176Y205984D02*
X142628D01*
X142121Y205775D01*
X141733Y205387D01*
X141524Y204880D01*
Y204332D01*
X141733Y203826D01*
X142121Y203438D01*
X142628Y203228D01*
X143176D01*
X143682Y203438D01*
X144070Y203826D01*
X144280Y204332D01*
Y204880D01*
X144070Y205387D01*
X143682Y205775D01*
X143176Y205984D01*
D02*
G37*
G36*
X137664D02*
X137116D01*
X136609Y205775D01*
X136222Y205387D01*
X136012Y204880D01*
Y204332D01*
X136222Y203826D01*
X136609Y203438D01*
X137116Y203228D01*
X137664D01*
X138170Y203438D01*
X138558Y203826D01*
X138768Y204332D01*
Y204880D01*
X138558Y205387D01*
X138170Y205775D01*
X137664Y205984D01*
D02*
G37*
G36*
X145931Y203228D02*
X145383D01*
X144877Y203019D01*
X144489Y202631D01*
X144279Y202125D01*
Y201576D01*
X144489Y201070D01*
X144877Y200682D01*
X145383Y200472D01*
X145931D01*
X146438Y200682D01*
X146826Y201070D01*
X147035Y201576D01*
Y202125D01*
X146826Y202631D01*
X146438Y203019D01*
X145931Y203228D01*
D02*
G37*
G36*
X140420D02*
X139872D01*
X139365Y203019D01*
X138977Y202631D01*
X138768Y202125D01*
Y201576D01*
X138977Y201070D01*
X139365Y200682D01*
X139872Y200472D01*
X140420D01*
X140926Y200682D01*
X141314Y201070D01*
X141524Y201576D01*
Y202125D01*
X141314Y202631D01*
X140926Y203019D01*
X140420Y203228D01*
D02*
G37*
G36*
X134908D02*
X134360D01*
X133853Y203019D01*
X133466Y202631D01*
X133256Y202125D01*
Y201576D01*
X133466Y201070D01*
X133853Y200682D01*
X134360Y200472D01*
X134908D01*
X135414Y200682D01*
X135802Y201070D01*
X136012Y201576D01*
Y202125D01*
X135802Y202631D01*
X135414Y203019D01*
X134908Y203228D01*
D02*
G37*
G36*
X186855Y201787D02*
X186144D01*
X185487Y201515D01*
X184985Y201012D01*
X184713Y200356D01*
Y199644D01*
X184985Y198987D01*
X185487Y198485D01*
X186144Y198213D01*
X186855D01*
X187513Y198485D01*
X188015Y198987D01*
X188287Y199644D01*
Y200356D01*
X188015Y201012D01*
X187513Y201515D01*
X186855Y201787D01*
D02*
G37*
G36*
X143176Y200472D02*
X142628D01*
X142121Y200263D01*
X141733Y199875D01*
X141524Y199369D01*
Y198820D01*
X141733Y198314D01*
X142121Y197926D01*
X142628Y197716D01*
X143176D01*
X143682Y197926D01*
X144070Y198314D01*
X144280Y198820D01*
Y199369D01*
X144070Y199875D01*
X143682Y200263D01*
X143176Y200472D01*
D02*
G37*
G36*
X137664D02*
X137116D01*
X136609Y200263D01*
X136222Y199875D01*
X136012Y199369D01*
Y198820D01*
X136222Y198314D01*
X136609Y197926D01*
X137116Y197716D01*
X137664D01*
X138170Y197926D01*
X138558Y198314D01*
X138768Y198820D01*
Y199369D01*
X138558Y199875D01*
X138170Y200263D01*
X137664Y200472D01*
D02*
G37*
G36*
X165856Y197287D02*
X165145D01*
X164488Y197015D01*
X163985Y196512D01*
X163713Y195855D01*
Y195144D01*
X163985Y194488D01*
X164488Y193985D01*
X165145Y193713D01*
X165856D01*
X166513Y193985D01*
X167015Y194488D01*
X167287Y195144D01*
Y195855D01*
X167015Y196512D01*
X166513Y197015D01*
X165856Y197287D01*
D02*
G37*
G36*
X186855Y196787D02*
X186144D01*
X185487Y196515D01*
X184985Y196012D01*
X184713Y195355D01*
Y194644D01*
X184985Y193988D01*
X185487Y193485D01*
X186144Y193213D01*
X186855D01*
X187513Y193485D01*
X188015Y193988D01*
X188287Y194644D01*
Y195355D01*
X188015Y196012D01*
X187513Y196515D01*
X186855Y196787D01*
D02*
G37*
G36*
X119855Y187287D02*
X119144D01*
X118488Y187015D01*
X117985Y186512D01*
X117713Y185855D01*
Y185144D01*
X117985Y184487D01*
X118488Y183985D01*
X119144Y183713D01*
X119855D01*
X120512Y183985D01*
X121015Y184487D01*
X121287Y185144D01*
Y185855D01*
X121015Y186512D01*
X120512Y187015D01*
X119855Y187287D01*
D02*
G37*
G36*
X165450Y183264D02*
X164550D01*
X163718Y182919D01*
X163081Y182282D01*
X162736Y181450D01*
Y180550D01*
X163081Y179718D01*
X163718Y179081D01*
X164550Y178736D01*
X165450D01*
X166282Y179081D01*
X166919Y179718D01*
X167264Y180550D01*
Y181450D01*
X166919Y182282D01*
X166282Y182919D01*
X165450Y183264D01*
D02*
G37*
G36*
X153950Y175764D02*
X153050D01*
X152218Y175419D01*
X151581Y174782D01*
X151236Y173950D01*
Y173050D01*
X151581Y172218D01*
X152218Y171581D01*
X153050Y171236D01*
X153950D01*
X154782Y171581D01*
X155419Y172218D01*
X155764Y173050D01*
Y173950D01*
X155419Y174782D01*
X154782Y175419D01*
X153950Y175764D01*
D02*
G37*
G36*
X157855Y157287D02*
X157144D01*
X156488Y157015D01*
X155985Y156512D01*
X155713Y155856D01*
Y155145D01*
X155985Y154488D01*
X156488Y153985D01*
X157144Y153713D01*
X157855D01*
X158512Y153985D01*
X159015Y154488D01*
X159287Y155145D01*
Y155856D01*
X159015Y156512D01*
X158512Y157015D01*
X157855Y157287D01*
D02*
G37*
G36*
X168856D02*
X168145D01*
X167488Y157015D01*
X166985Y156512D01*
X166713Y155856D01*
Y155145D01*
X166985Y154488D01*
X167488Y153985D01*
X168145Y153713D01*
X168465D01*
X168565Y153213D01*
X168088Y153015D01*
X167586Y152513D01*
X167314Y151856D01*
Y151145D01*
X167586Y150487D01*
X168088Y149985D01*
X168474Y149825D01*
X168489Y149800D01*
X168553Y149251D01*
X168081Y148778D01*
X167736Y147947D01*
Y147046D01*
X168081Y146214D01*
X168718Y145577D01*
X169550Y145232D01*
X170450D01*
X171282Y145577D01*
X171919Y146214D01*
X172264Y147046D01*
Y147947D01*
X171994Y148597D01*
X172418Y148880D01*
X172718Y148581D01*
X173550Y148236D01*
X174450D01*
X175282Y148581D01*
X175919Y149218D01*
X176264Y150050D01*
Y150950D01*
X175919Y151782D01*
X175282Y152419D01*
X174450Y152764D01*
X173550D01*
X172718Y152419D01*
X172081Y151782D01*
X171736Y150950D01*
Y150050D01*
X172006Y149399D01*
X171582Y149116D01*
X171282Y149415D01*
X170553Y149717D01*
X170412Y150068D01*
X170389Y150260D01*
X170616Y150487D01*
X170888Y151145D01*
Y151856D01*
X170616Y152513D01*
X170114Y153015D01*
X169457Y153287D01*
X169136D01*
X169036Y153787D01*
X169512Y153985D01*
X170015Y154488D01*
X170287Y155145D01*
Y155856D01*
X170015Y156512D01*
X169512Y157015D01*
X168856Y157287D01*
D02*
G37*
G36*
X157855Y150871D02*
X157144D01*
X156488Y150599D01*
X155985Y150096D01*
X155713Y149439D01*
Y148728D01*
X155985Y148071D01*
X156488Y147568D01*
X157144Y147296D01*
X157855D01*
X158512Y147568D01*
X159015Y148071D01*
X159287Y148728D01*
Y149439D01*
X159015Y150096D01*
X158512Y150599D01*
X157855Y150871D01*
D02*
G37*
G36*
Y144454D02*
X157144D01*
X156488Y144182D01*
X155985Y143679D01*
X155713Y143022D01*
Y142311D01*
X155985Y141654D01*
X156488Y141151D01*
X157144Y140879D01*
X157855D01*
X158512Y141151D01*
X159015Y141654D01*
X159287Y142311D01*
Y143022D01*
X159015Y143679D01*
X158512Y144182D01*
X157855Y144454D01*
D02*
G37*
G36*
X136450Y149764D02*
X135550D01*
X134718Y149419D01*
X134081Y148782D01*
X133736Y147950D01*
Y147050D01*
X134081Y146218D01*
X134718Y145581D01*
X135550Y145236D01*
Y144764D01*
X134718Y144419D01*
X134081Y143782D01*
X133736Y142950D01*
Y142050D01*
X134081Y141218D01*
X134718Y140581D01*
X135550Y140236D01*
X136450D01*
X137282Y140581D01*
X137919Y141218D01*
X138264Y142050D01*
Y142950D01*
X137919Y143782D01*
X137282Y144419D01*
X136450Y144764D01*
Y145236D01*
X137282Y145581D01*
X137919Y146218D01*
X138264Y147050D01*
Y147950D01*
X137919Y148782D01*
X137282Y149419D01*
X136450Y149764D01*
D02*
G37*
G36*
X177222Y141886D02*
X176321D01*
X175489Y141541D01*
X174853Y140904D01*
X174508Y140073D01*
Y139172D01*
X174853Y138340D01*
X175489Y137703D01*
X176321Y137358D01*
X177222D01*
X178054Y137703D01*
X178691Y138340D01*
X179035Y139172D01*
Y140073D01*
X178691Y140904D01*
X178054Y141541D01*
X177222Y141886D01*
D02*
G37*
G36*
X139450Y140490D02*
X138550D01*
X137718Y140146D01*
X137081Y139509D01*
X136736Y138677D01*
Y137776D01*
X137081Y136944D01*
X137718Y136307D01*
X138550Y135963D01*
X139450D01*
X140282Y136307D01*
X140919Y136944D01*
X141264Y137776D01*
Y138677D01*
X140919Y139509D01*
X140282Y140146D01*
X139450Y140490D01*
D02*
G37*
G36*
X157855Y138037D02*
X157144D01*
X156488Y137765D01*
X155985Y137262D01*
X155713Y136606D01*
Y135895D01*
X155985Y135238D01*
X156488Y134735D01*
X157144Y134463D01*
X157855D01*
X158512Y134735D01*
X159015Y135238D01*
X159287Y135895D01*
Y136606D01*
X159015Y137262D01*
X158512Y137765D01*
X157855Y138037D01*
D02*
G37*
G36*
X170450Y141886D02*
X169550D01*
X168718Y141541D01*
X168081Y140904D01*
X167736Y140073D01*
Y139172D01*
X168081Y138340D01*
X168133Y138287D01*
X167926Y137787D01*
X167885D01*
X167228Y137515D01*
X166725Y137013D01*
X166453Y136355D01*
Y135644D01*
X166725Y134987D01*
X167228Y134485D01*
X167885Y134213D01*
X168596D01*
X169253Y134485D01*
X169755Y134987D01*
X170028Y135644D01*
Y136355D01*
X169819Y136858D01*
X170019Y137268D01*
X170112Y137358D01*
X170450D01*
X171282Y137703D01*
X171919Y138340D01*
X172264Y139172D01*
Y140073D01*
X171919Y140904D01*
X171282Y141541D01*
X170450Y141886D01*
D02*
G37*
G36*
Y134012D02*
X169550D01*
X168718Y133667D01*
X168081Y133030D01*
X167736Y132198D01*
Y131298D01*
X168081Y130466D01*
X168718Y129829D01*
X169550Y129484D01*
X170450D01*
X171282Y129829D01*
X171919Y130466D01*
X172264Y131298D01*
Y132198D01*
X171919Y133030D01*
X171282Y133667D01*
X170450Y134012D01*
D02*
G37*
G36*
X177950Y132764D02*
X177050D01*
X176218Y132419D01*
X175581Y131782D01*
X175236Y130950D01*
Y130050D01*
X175581Y129218D01*
X176218Y128581D01*
X177050Y128236D01*
X177950D01*
X178782Y128581D01*
X179419Y129218D01*
X179764Y130050D01*
Y130950D01*
X179419Y131782D01*
X178782Y132419D01*
X177950Y132764D01*
D02*
G37*
G36*
X157855Y131621D02*
X157144D01*
X156488Y131349D01*
X155985Y130846D01*
X155713Y130189D01*
Y129478D01*
X155985Y128821D01*
X156488Y128318D01*
X157144Y128046D01*
X157855D01*
X158512Y128318D01*
X159015Y128821D01*
X159287Y129478D01*
Y130189D01*
X159015Y130846D01*
X158512Y131349D01*
X157855Y131621D01*
D02*
G37*
G36*
X136450Y134764D02*
X135550D01*
X134718Y134419D01*
X134081Y133782D01*
X133736Y132950D01*
Y132050D01*
X134081Y131218D01*
X134718Y130581D01*
X134823Y129996D01*
X134563Y129735D01*
X134218Y128903D01*
Y128003D01*
X134563Y127171D01*
X135199Y126534D01*
X136031Y126189D01*
X136932D01*
X137764Y126534D01*
X138401Y127171D01*
X138746Y128003D01*
Y128903D01*
X138401Y129735D01*
X137764Y130372D01*
X137658Y130957D01*
X137919Y131218D01*
X138264Y132050D01*
Y132950D01*
X137919Y133782D01*
X137282Y134419D01*
X136450Y134764D01*
D02*
G37*
G36*
X190443Y126201D02*
X189542D01*
X188710Y125856D01*
X188074Y125219D01*
X187729Y124387D01*
Y123487D01*
X188074Y122655D01*
X188710Y122018D01*
X189542Y121673D01*
X190443D01*
X191275Y122018D01*
X191912Y122655D01*
X192256Y123487D01*
Y124387D01*
X191912Y125219D01*
X191275Y125856D01*
X190443Y126201D01*
D02*
G37*
G36*
X157855Y125204D02*
X157144D01*
X156488Y124932D01*
X155985Y124429D01*
X155713Y123772D01*
Y123061D01*
X155985Y122404D01*
X156488Y121902D01*
X157144Y121629D01*
X157855D01*
X158512Y121902D01*
X159015Y122404D01*
X159287Y123061D01*
Y123772D01*
X159015Y124429D01*
X158512Y124932D01*
X157855Y125204D01*
D02*
G37*
G36*
X136450Y124764D02*
X135550D01*
X134718Y124419D01*
X134081Y123782D01*
X133736Y122950D01*
Y122050D01*
X134081Y121218D01*
X134520Y120778D01*
X134718Y120581D01*
X134520Y120125D01*
X134236Y119841D01*
X133891Y119009D01*
Y118108D01*
X134236Y117276D01*
X134873Y116639D01*
X135705Y116294D01*
X136606D01*
X137437Y116639D01*
X138074Y117276D01*
X138419Y118108D01*
Y119009D01*
X138074Y119841D01*
X137635Y120280D01*
X137437Y120477D01*
X137635Y120933D01*
X137919Y121218D01*
X138264Y122050D01*
Y122950D01*
X137919Y123782D01*
X137282Y124419D01*
X136450Y124764D01*
D02*
G37*
G36*
X158115Y118955D02*
X157404D01*
X156747Y118683D01*
X156245Y118181D01*
X155972Y117524D01*
Y116813D01*
X156245Y116156D01*
X156747Y115653D01*
X157404Y115381D01*
X158115D01*
X158772Y115653D01*
X159275Y116156D01*
X159547Y116813D01*
Y117524D01*
X159275Y118181D01*
X158772Y118683D01*
X158115Y118955D01*
D02*
G37*
G36*
X190443Y118264D02*
X189542D01*
X188710Y117919D01*
X188074Y117282D01*
X187729Y116450D01*
Y115550D01*
X188074Y114718D01*
X188710Y114081D01*
X189542Y113736D01*
X190443D01*
X191275Y114081D01*
X191912Y114718D01*
X192256Y115550D01*
Y116450D01*
X191912Y117282D01*
X191275Y117919D01*
X190443Y118264D01*
D02*
G37*
G36*
X136450Y114764D02*
X135550D01*
X134718Y114419D01*
X134081Y113782D01*
X133736Y112950D01*
Y112050D01*
X134081Y111218D01*
X134718Y110581D01*
X135550Y110236D01*
X136450D01*
X137282Y110581D01*
X137919Y111218D01*
X138264Y112050D01*
Y112950D01*
X137919Y113782D01*
X137282Y114419D01*
X136450Y114764D01*
D02*
G37*
G36*
X157855Y112537D02*
X157144D01*
X156488Y112265D01*
X155985Y111762D01*
X155713Y111106D01*
Y110395D01*
X155985Y109738D01*
X156488Y109235D01*
X157144Y108963D01*
X157855D01*
X158512Y109235D01*
X159015Y109738D01*
X159287Y110395D01*
Y111106D01*
X159015Y111762D01*
X158512Y112265D01*
X157855Y112537D01*
D02*
G37*
%LPD*%
D53*
X157236Y286618D02*
D03*
X154563D02*
D03*
X150429Y280398D02*
D03*
Y284335D02*
D03*
Y288272D02*
D03*
Y292209D02*
D03*
Y296146D02*
D03*
X157240Y291342D02*
D03*
Y293311D02*
D03*
Y295280D02*
D03*
X153500Y291500D02*
D03*
Y294728D02*
D03*
X143622Y286618D02*
D03*
X146295D02*
D03*
X143618Y291342D02*
D03*
Y293311D02*
D03*
Y295280D02*
D03*
X147358Y291500D02*
D03*
Y294728D02*
D03*
X122307Y287941D02*
D03*
X119634D02*
D03*
X115500Y281720D02*
D03*
Y285658D02*
D03*
Y289595D02*
D03*
Y293531D02*
D03*
Y297468D02*
D03*
X122311Y292665D02*
D03*
Y294634D02*
D03*
Y296602D02*
D03*
X118571Y292823D02*
D03*
Y296051D02*
D03*
X108693Y287941D02*
D03*
X111366D02*
D03*
X108689Y292665D02*
D03*
Y294634D02*
D03*
Y296602D02*
D03*
X112429Y292823D02*
D03*
Y296051D02*
D03*
X142902Y199094D02*
D03*
X137390D02*
D03*
X145657Y201850D02*
D03*
X140146D02*
D03*
X134634D02*
D03*
X142902Y204606D02*
D03*
X137390D02*
D03*
X145657Y207362D02*
D03*
X140146D02*
D03*
X134634D02*
D03*
X142902Y210118D02*
D03*
X137390D02*
D03*
D54*
X182000Y279000D02*
D03*
D55*
Y289000D02*
D03*
D60*
X102000Y127500D02*
X108900D01*
X100000Y129500D02*
X102000Y127500D01*
X131517Y270017D02*
X135000Y273500D01*
Y280000D01*
X100000Y268000D02*
X102016Y270017D01*
X100000Y129500D02*
Y268000D01*
X102016Y270017D02*
X131517D01*
D61*
X109322Y280071D02*
X109550Y279842D01*
X116278D01*
X107600Y280071D02*
X109322D01*
X116435Y280000D02*
X123000D01*
X116278Y279842D02*
X116435Y280000D01*
D64*
X174000Y150500D02*
D03*
X176772Y139622D02*
D03*
X170000D02*
D03*
Y147496D02*
D03*
X177500Y130500D02*
D03*
X170000Y131748D02*
D03*
X189993Y123937D02*
D03*
X136155Y118558D02*
D03*
X136482Y128453D02*
D03*
X153500Y173500D02*
D03*
X165000Y181000D02*
D03*
X136000Y132500D02*
D03*
X139000Y138226D02*
D03*
X189993Y116000D02*
D03*
X136000Y112500D02*
D03*
Y122500D02*
D03*
Y142500D02*
D03*
Y147500D02*
D03*
X148000Y112500D02*
D03*
Y117500D02*
D03*
D65*
X168240Y136000D02*
D03*
X155000Y297500D02*
D03*
X154500Y277500D02*
D03*
X157500Y110750D02*
D03*
X157760Y117168D02*
D03*
X157500Y123417D02*
D03*
X108900Y127500D02*
D03*
X135000Y280000D02*
D03*
X107600Y280071D02*
D03*
X123000Y280000D02*
D03*
X117000Y238000D02*
D03*
X118000Y232500D02*
D03*
X138500Y102000D02*
D03*
X157000D02*
D03*
X186500Y200000D02*
D03*
X119500Y185500D02*
D03*
X165500Y195500D02*
D03*
X165000Y205500D02*
D03*
X124500Y100000D02*
D03*
X157500Y155500D02*
D03*
Y136250D02*
D03*
Y142667D02*
D03*
X168500Y155500D02*
D03*
X164500Y229000D02*
D03*
X157500Y129833D02*
D03*
X168500Y232500D02*
D03*
X186500Y230000D02*
D03*
X194500Y190194D02*
D03*
X186500Y195000D02*
D03*
X169101Y151500D02*
D03*
X157500Y149083D02*
D03*
D66*
X164000Y304500D02*
D03*
X155091Y223500D02*
D03*
X130000D02*
D03*
D67*
X184000Y306500D02*
D03*
M02*
