M48
;Layer_Color=9474304
;FILE_FORMAT=2:4
INCH,TZ
;TYPE=PLATED
T01F00S00C0.0079
T02F00S00C0.0100
T03F00S00C0.0280
T04F00S00C0.0402
T05F00S00C0.1450
%
T01
X15724Y28662
X15724Y29134
Y29331
Y29528
X15350Y29473
Y29150
X15043Y29221
X14736Y29150
Y29473
X14362Y29528
Y29331
Y29134
X14362Y28662
X14630
X15043Y28827
Y28433
Y28040
X15456Y28662
X15043Y29615
X12231Y29660
Y29463
Y29267
X11857Y29282
Y29605
X11550Y29747
Y29353
X11243Y29282
Y29605
X10869Y29660
Y29463
Y29267
X10869Y28794
X11137
X11550Y28959
Y28566
Y28172
X11963Y28794
X12231
X13463Y20736
Y20185
X14015
X13739Y19909
X14290
X14566Y20185
X14290Y20461
X14566Y20736
X14015
X13739Y20461
Y21012
X14290
T02
X12450Y10000
X13600Y11250
X13616Y11856
X13600Y12250
X13648Y12845
X13600Y13250
X13900Y13823
X13600Y14250
Y14750
X10890Y12750
X15750Y12983
Y12342
X15776Y11717
X15750Y11075
Y13625
Y14267
Y14908
Y15550
X16850
X16910Y15150
X17000Y14750
X17400Y15050
X17677Y13962
X17000
X16824Y13600
X17000Y13175
X17750Y13050
X18999Y12394
Y11600
X19450Y19019
X18650Y19500
Y20000
Y23000
X16850Y23250
X16450Y22900
X16500Y18100
X15350Y17350
X11950Y18550
X11800Y23250
X10416Y22991
X10760Y28007
X12300Y28000
X13500
X15450Y27750
X15500Y29750
T03
X13000Y22350
X15509
T04
X18200Y27900
Y28900
T05
X18400Y30650
M30
