G04*
G04 #@! TF.GenerationSoftware,Altium Limited,Altium Designer,24.9.1 (31)*
G04*
G04 Layer_Color=32768*
%FSLAX25Y25*%
%MOIN*%
G70*
G04*
G04 #@! TF.SameCoordinates,F3BC3392-02DA-4331-AFF2-193CA699B933*
G04*
G04*
G04 #@! TF.FilePolarity,Positive*
G04*
G01*
G75*
%ADD10C,0.00787*%
%ADD11C,0.00394*%
%ADD90C,0.00197*%
%ADD91C,0.00200*%
D10*
X176350Y272858D02*
Y295142D01*
X187650D01*
Y272858D02*
Y295142D01*
X176350Y272858D02*
X187650D01*
X110685Y307953D02*
X121315D01*
Y302047D02*
Y307953D01*
X110685Y302047D02*
X121315D01*
X110685D02*
Y307953D01*
X131547Y285685D02*
Y296315D01*
X137453D01*
Y285685D02*
Y296315D01*
X131547Y285685D02*
X137453D01*
X114481Y273335D02*
X123190D01*
X114481D02*
Y277665D01*
X123190D01*
Y273335D02*
Y277665D01*
X126335Y272645D02*
Y281355D01*
X130665D01*
Y272645D02*
Y281355D01*
X126335Y272645D02*
X130665D01*
X167976Y281957D02*
Y292587D01*
X173882D01*
Y281957D02*
Y292587D01*
X167976Y281957D02*
X173882D01*
X145574Y271606D02*
X154284D01*
X145574D02*
Y275937D01*
X154284D01*
Y271606D02*
Y275937D01*
X137976Y267457D02*
Y278087D01*
X143882D01*
Y267457D02*
Y278087D01*
X137976Y267457D02*
X143882D01*
D11*
X127508Y131925D02*
X153492D01*
Y160075D01*
X127508D02*
X153492D01*
X127508Y131925D02*
Y160075D01*
X127500Y289228D02*
Y292772D01*
X125728Y291000D02*
X129272D01*
X163429Y285500D02*
Y289043D01*
X161657Y287272D02*
X165201D01*
X166929Y275500D02*
Y279043D01*
X165157Y277272D02*
X168701D01*
X156657Y272772D02*
X160201D01*
X158429Y271000D02*
Y274543D01*
X141000Y116728D02*
Y120272D01*
X139228Y118500D02*
X142772D01*
X102181Y128154D02*
X130331D01*
Y102169D02*
Y128154D01*
X102181Y102169D02*
X130331D01*
X102181D02*
Y128154D01*
D90*
X124358Y279634D02*
Y300342D01*
X106642D02*
X124358D01*
X106642Y279634D02*
Y300342D01*
Y279634D02*
X124358D01*
X141571Y278311D02*
X159287D01*
X141571D02*
Y299020D01*
X159287D01*
Y278311D02*
Y299020D01*
X156768Y127685D02*
Y133315D01*
X145232Y127685D02*
Y133315D01*
X156768D01*
X145232Y127685D02*
X156768D01*
X109634Y237756D02*
Y265472D01*
X107665Y237756D02*
X109634D01*
X107665Y161142D02*
Y237756D01*
Y161142D02*
X184437D01*
Y237756D01*
X182469D02*
X184437D01*
X182469D02*
Y265472D01*
X109634D02*
X182469D01*
X125335Y295331D02*
X129665D01*
X125335Y286669D02*
X129665D01*
Y295331D01*
X125335Y286669D02*
Y295331D01*
X161264Y291602D02*
X165594D01*
X161264Y282941D02*
X165594D01*
Y291602D01*
X161264Y282941D02*
Y291602D01*
X161811Y280028D02*
X172047D01*
X161811Y274516D02*
X172047D01*
X161811D02*
Y280028D01*
X172047Y274516D02*
Y280028D01*
X161185Y267654D02*
Y277890D01*
X155673Y267654D02*
Y277890D01*
X161185D01*
X155673Y267654D02*
X161185D01*
X138835Y114169D02*
X143165D01*
X138835Y122831D02*
X143165D01*
X138835Y114169D02*
Y122831D01*
X143165Y114169D02*
Y122831D01*
X127327Y129917D02*
Y157083D01*
X105673Y129917D02*
X127327D01*
X105673D02*
Y157083D01*
X127327D01*
D91*
X124913Y297417D02*
Y303583D01*
Y297417D02*
X138087D01*
Y303583D01*
X124913D02*
X138087D01*
X159087Y303417D02*
Y309583D01*
X145914D02*
X159087D01*
X145914Y303417D02*
Y309583D01*
Y303417D02*
X159087D01*
M02*
