G04*
G04 #@! TF.GenerationSoftware,Altium Limited,Altium Designer,24.9.1 (31)*
G04*
G04 Layer_Color=16711935*
%FSLAX25Y25*%
%MOIN*%
G70*
G04*
G04 #@! TF.SameCoordinates,0464F855-7F2B-49EB-A455-A8C15B23BB70*
G04*
G04*
G04 #@! TF.FilePolarity,Positive*
G04*
G01*
G75*
%ADD10C,0.00787*%
%ADD11C,0.00394*%
%ADD13C,0.00500*%
%ADD61C,0.01000*%
%ADD78C,0.00400*%
D10*
X160665Y281461D02*
G03*
X160665Y281461I-394J0D01*
G01*
X125736Y282784D02*
G03*
X125736Y282784I-394J0D01*
G01*
X106287Y235000D02*
G03*
X106287Y235000I-394J0D01*
G01*
X123784Y158461D02*
G03*
X123784Y158461I-394J0D01*
G01*
X176744Y273252D02*
Y294748D01*
X187256D01*
Y273252D02*
Y294748D01*
X176744Y273252D02*
X187256D01*
X112654Y306772D02*
X119346D01*
Y303228D02*
Y306772D01*
X112654Y303228D02*
X119346D01*
X112654D02*
Y306772D01*
X132728Y287654D02*
Y294346D01*
X136272D01*
Y287654D02*
Y294346D01*
X132728Y287654D02*
X136272D01*
X115686Y273925D02*
X121985D01*
X115686D02*
Y277075D01*
X121985D01*
Y273925D02*
Y277075D01*
X126925Y273850D02*
Y280150D01*
X130075D01*
Y273850D02*
Y280150D01*
X126925Y273850D02*
X130075D01*
X169157Y283925D02*
Y290618D01*
X172701D01*
Y283925D02*
Y290618D01*
X169157Y283925D02*
X172701D01*
X146780Y272197D02*
X153079D01*
X146780D02*
Y275346D01*
X153079D01*
Y272197D02*
Y275346D01*
X139157Y269425D02*
Y276118D01*
X142701D01*
Y269425D02*
Y276118D01*
X139157Y269425D02*
X142701D01*
D11*
X131642Y138717D02*
X135382D01*
X136169Y137240D01*
X144831D01*
X145815Y138717D01*
X149358D01*
Y153283D01*
X145815D02*
X149358D01*
X144831Y154858D02*
X145815Y153283D01*
X136169Y154858D02*
X144831D01*
X135382Y153283D02*
X136169Y154858D01*
X131642Y153283D02*
X135382D01*
X131642Y138717D02*
Y153283D01*
X125728Y294346D02*
X129272D01*
X125728Y287654D02*
X129272D01*
Y294346D01*
X125728Y287654D02*
Y294346D01*
X161657Y290618D02*
X165201D01*
X161657Y283925D02*
X165201D01*
Y290618D01*
X161657Y283925D02*
Y290618D01*
X163583Y279043D02*
X170276D01*
X163583Y275500D02*
X170276D01*
X163583D02*
Y279043D01*
X170276Y275500D02*
Y279043D01*
X160201Y269425D02*
Y276118D01*
X156657Y269425D02*
Y276118D01*
X160201D01*
X156657Y269425D02*
X160201D01*
X139228Y115154D02*
X142772D01*
X139228Y121846D02*
X142772D01*
X139228Y115154D02*
Y121846D01*
X142772Y115154D02*
Y121846D01*
X108972Y124020D02*
X123539D01*
Y120280D02*
Y124020D01*
Y120280D02*
X125114Y119492D01*
Y110831D02*
Y119492D01*
X123539Y109846D02*
X125114Y110831D01*
X123539Y106303D02*
Y109846D01*
X108972Y106303D02*
X123539D01*
X108972D02*
Y109846D01*
X107496Y110831D02*
X108972Y109846D01*
X107496Y110831D02*
Y119492D01*
X108972Y120280D01*
Y124020D01*
D13*
X143539Y280319D02*
X157319D01*
X143539D02*
Y298035D01*
X157319D01*
Y280319D02*
Y298035D01*
X108610Y281642D02*
X122390D01*
X108610D02*
Y299358D01*
X122390D01*
Y281642D02*
Y299358D01*
X147654Y128728D02*
Y132272D01*
X154346Y128728D02*
Y132272D01*
X147654D02*
X154346D01*
X147654Y128728D02*
X154346D01*
X110618Y240118D02*
X181484D01*
X110618D02*
Y264488D01*
Y164094D02*
Y240118D01*
Y164094D02*
X181484D01*
Y240118D01*
Y264488D01*
X110618D02*
X181484D01*
X126343Y133657D02*
Y153343D01*
X106657Y133657D02*
X126343D01*
X106657D02*
Y153343D01*
X126343D01*
D61*
X122429Y249724D02*
Y254390D01*
X124762Y256722D01*
X127094Y254390D01*
Y249724D01*
Y253223D01*
X122429D01*
X129427Y249724D02*
Y256722D01*
X134092Y249724D01*
Y256722D01*
X136425D02*
X141090D01*
X138757D01*
Y249724D01*
X148088Y256722D02*
X143422D01*
Y249724D01*
X148088D01*
X143422Y253223D02*
X145755D01*
X150420Y249724D02*
Y256722D01*
X155085Y249724D01*
Y256722D01*
X157418Y249724D02*
Y256722D01*
X162083Y249724D01*
Y256722D01*
X164416Y249724D02*
Y254390D01*
X166748Y256722D01*
X169081Y254390D01*
Y249724D01*
Y253223D01*
X164416D01*
D78*
X130098Y298850D02*
X132902D01*
X130098Y302201D02*
X132902D01*
X151028Y304921D02*
X153831D01*
X151028Y301571D02*
X153831D01*
M02*
