G04*
G04 #@! TF.GenerationSoftware,Altium Limited,Altium Designer,24.9.1 (31)*
G04*
G04 Layer_Physical_Order=2*
G04 Layer_Color=36540*
%FSLAX25Y25*%
%MOIN*%
G70*
G04*
G04 #@! TF.SameCoordinates,F3BC3392-02DA-4331-AFF2-193CA699B933*
G04*
G04*
G04 #@! TF.FilePolarity,Positive*
G04*
G01*
G75*
%ADD55R,0.06181X0.06181*%
%ADD56C,0.06181*%
%ADD73C,0.02500*%
%ADD74C,0.03000*%
%ADD75C,0.05000*%
%ADD76C,0.15748*%
G36*
X195796Y192238D02*
X195296Y191904D01*
X194974Y192037D01*
X194164D01*
X193415Y191727D01*
X192842Y191154D01*
X192532Y190405D01*
Y189595D01*
X192842Y188846D01*
X193415Y188273D01*
X194164Y187963D01*
X194974D01*
X195296Y188096D01*
X195796Y187762D01*
Y98204D01*
X126293D01*
X126085Y98704D01*
X126227Y98846D01*
X126537Y99595D01*
Y100405D01*
X126227Y101154D01*
X125654Y101727D01*
X124905Y102037D01*
X124095D01*
X123346Y101727D01*
X122773Y101154D01*
X122463Y100405D01*
Y99595D01*
X122773Y98846D01*
X122915Y98704D01*
X122707Y98204D01*
X98204D01*
Y316296D01*
X195796D01*
Y192238D01*
D02*
G37*
%LPC*%
G36*
X164433Y307787D02*
X163567D01*
X162731Y307563D01*
X161981Y307131D01*
X161369Y306519D01*
X160937Y305769D01*
X160713Y304933D01*
Y304067D01*
X160937Y303231D01*
X161369Y302482D01*
X161981Y301869D01*
X162731Y301437D01*
X163567Y301213D01*
X164433D01*
X165269Y301437D01*
X166018Y301869D01*
X166631Y302482D01*
X167063Y303231D01*
X167287Y304067D01*
Y304933D01*
X167063Y305769D01*
X166631Y306519D01*
X166018Y307131D01*
X165269Y307563D01*
X164433Y307787D01*
D02*
G37*
G36*
X155752Y301191D02*
X154941D01*
X154192Y300881D01*
X153619Y300308D01*
X153309Y299559D01*
Y298748D01*
X153619Y297999D01*
X154192Y297426D01*
X154941Y297116D01*
X155752D01*
X156501Y297426D01*
X157074Y297999D01*
X157384Y298748D01*
Y299559D01*
X157074Y300308D01*
X156501Y300881D01*
X155752Y301191D01*
D02*
G37*
G36*
X182510Y292878D02*
X181490D01*
X180503Y292614D01*
X179619Y292103D01*
X178897Y291381D01*
X178386Y290497D01*
X178122Y289510D01*
Y288490D01*
X178386Y287503D01*
X178897Y286619D01*
X179619Y285897D01*
X180503Y285386D01*
X181490Y285122D01*
X182510D01*
X183497Y285386D01*
X184381Y285897D01*
X185103Y286619D01*
X185614Y287503D01*
X185878Y288490D01*
Y289510D01*
X185614Y290497D01*
X185103Y291381D01*
X184381Y292103D01*
X183497Y292614D01*
X182510Y292878D01*
D02*
G37*
G36*
X186091Y283090D02*
X183000D01*
Y280000D01*
X186091D01*
Y283090D01*
D02*
G37*
G36*
X181000D02*
X177909D01*
Y280000D01*
X181000D01*
Y283090D01*
D02*
G37*
G36*
X135405Y282037D02*
X134595D01*
X133846Y281727D01*
X133273Y281154D01*
X132963Y280405D01*
Y279595D01*
X133273Y278846D01*
X133846Y278273D01*
X134595Y277963D01*
X135405D01*
X136154Y278273D01*
X136727Y278846D01*
X137037Y279595D01*
Y280405D01*
X136727Y281154D01*
X136154Y281727D01*
X135405Y282037D01*
D02*
G37*
G36*
X123405D02*
X122595D01*
X121846Y281727D01*
X121273Y281154D01*
X120963Y280405D01*
Y279595D01*
X121273Y278846D01*
X121846Y278273D01*
X122595Y277963D01*
X123405D01*
X124154Y278273D01*
X124727Y278846D01*
X125037Y279595D01*
Y280405D01*
X124727Y281154D01*
X124154Y281727D01*
X123405Y282037D01*
D02*
G37*
G36*
X106960Y281085D02*
X106150D01*
X105401Y280775D01*
X104828Y280202D01*
X104518Y279453D01*
Y278642D01*
X104828Y277893D01*
X105401Y277320D01*
X106150Y277010D01*
X106960D01*
X107709Y277320D01*
X108282Y277893D01*
X108592Y278642D01*
Y279453D01*
X108282Y280202D01*
X107709Y280775D01*
X106960Y281085D01*
D02*
G37*
G36*
X153300Y279329D02*
X152489D01*
X151740Y279019D01*
X151167Y278446D01*
X150857Y277697D01*
Y276887D01*
X151167Y276138D01*
X151740Y275565D01*
X152489Y275255D01*
X153300D01*
X154049Y275565D01*
X154622Y276138D01*
X154932Y276887D01*
Y277697D01*
X154622Y278446D01*
X154049Y279019D01*
X153300Y279329D01*
D02*
G37*
G36*
X186091Y278000D02*
X183000D01*
Y274909D01*
X186091D01*
Y278000D01*
D02*
G37*
G36*
X181000D02*
X177909D01*
Y274909D01*
X181000D01*
Y278000D01*
D02*
G37*
G36*
X182000Y265000D02*
X110000D01*
Y238500D01*
X114899D01*
X114963Y238405D01*
Y237595D01*
X115273Y236846D01*
X115846Y236273D01*
X116595Y235963D01*
X117405D01*
X118154Y236273D01*
X118727Y236846D01*
X119037Y237595D01*
Y238405D01*
X119101Y238500D01*
X182000D01*
Y265000D01*
D02*
G37*
G36*
X118405Y234537D02*
X117595D01*
X116846Y234227D01*
X116273Y233654D01*
X115963Y232905D01*
Y232095D01*
X116273Y231346D01*
X116846Y230773D01*
X117595Y230463D01*
X118405D01*
X119154Y230773D01*
X119727Y231346D01*
X120037Y232095D01*
Y232905D01*
X119727Y233654D01*
X119154Y234227D01*
X118405Y234537D01*
D02*
G37*
G36*
X168655Y234457D02*
X167845D01*
X167096Y234146D01*
X166523Y233573D01*
X166213Y232824D01*
Y232014D01*
X166523Y231265D01*
X167096Y230692D01*
X167845Y230382D01*
X168655D01*
X169404Y230692D01*
X169977Y231265D01*
X170287Y232014D01*
Y232824D01*
X169977Y233573D01*
X169404Y234146D01*
X168655Y234457D01*
D02*
G37*
G36*
X186905Y232037D02*
X186095D01*
X185346Y231727D01*
X184773Y231154D01*
X184463Y230405D01*
Y229595D01*
X184773Y228846D01*
X185346Y228273D01*
X186095Y227963D01*
X186905D01*
X187654Y228273D01*
X188227Y228846D01*
X188537Y229595D01*
Y230405D01*
X188227Y231154D01*
X187654Y231727D01*
X186905Y232037D01*
D02*
G37*
G36*
X104613Y232200D02*
X103703D01*
X102862Y231852D01*
X102218Y231208D01*
X101870Y230368D01*
Y229458D01*
X102218Y228617D01*
X102862Y227974D01*
X103703Y227625D01*
X104613D01*
X105453Y227974D01*
X106097Y228617D01*
X106445Y229458D01*
Y230368D01*
X106097Y231208D01*
X105453Y231852D01*
X104613Y232200D01*
D02*
G37*
G36*
X164905Y231037D02*
X164095D01*
X163346Y230727D01*
X162773Y230154D01*
X162463Y229405D01*
Y228595D01*
X162773Y227846D01*
X163346Y227273D01*
X164095Y226963D01*
X164905D01*
X165654Y227273D01*
X166227Y227846D01*
X166537Y228595D01*
Y229405D01*
X166227Y230154D01*
X165654Y230727D01*
X164905Y231037D01*
D02*
G37*
G36*
X155523Y226787D02*
X154658D01*
X153822Y226563D01*
X153072Y226131D01*
X152460Y225518D01*
X152027Y224769D01*
X151803Y223933D01*
Y223067D01*
X152027Y222231D01*
X152460Y221481D01*
X153072Y220869D01*
X153822Y220437D01*
X154658Y220213D01*
X155523D01*
X156360Y220437D01*
X157109Y220869D01*
X157721Y221481D01*
X158154Y222231D01*
X158378Y223067D01*
Y223933D01*
X158154Y224769D01*
X157721Y225518D01*
X157109Y226131D01*
X156360Y226563D01*
X155523Y226787D01*
D02*
G37*
G36*
X130433D02*
X129567D01*
X128731Y226563D01*
X127981Y226131D01*
X127369Y225518D01*
X126937Y224769D01*
X126713Y223933D01*
Y223067D01*
X126937Y222231D01*
X127369Y221481D01*
X127981Y220869D01*
X128731Y220437D01*
X129567Y220213D01*
X130433D01*
X131269Y220437D01*
X132018Y220869D01*
X132631Y221481D01*
X133063Y222231D01*
X133287Y223067D01*
Y223933D01*
X133063Y224769D01*
X132631Y225518D01*
X132018Y226131D01*
X131269Y226563D01*
X130433Y226787D01*
D02*
G37*
G36*
X186905Y222037D02*
X186095D01*
X185346Y221727D01*
X184773Y221154D01*
X184463Y220405D01*
Y219595D01*
X184773Y218846D01*
X185346Y218273D01*
X186004Y218000D01*
X186006Y217992D01*
Y217508D01*
X186004Y217500D01*
X185346Y217227D01*
X184773Y216654D01*
X184463Y215905D01*
Y215095D01*
X184773Y214346D01*
X185346Y213773D01*
X186095Y213463D01*
X186905D01*
X187654Y213773D01*
X188227Y214346D01*
X188537Y215095D01*
Y215905D01*
X188227Y216654D01*
X187654Y217227D01*
X186996Y217500D01*
X186994Y217508D01*
Y217992D01*
X186996Y218000D01*
X187654Y218273D01*
X188227Y218846D01*
X188537Y219595D01*
Y220405D01*
X188227Y221154D01*
X187654Y221727D01*
X186905Y222037D01*
D02*
G37*
G36*
X168405Y210037D02*
X167595D01*
X166846Y209727D01*
X166273Y209154D01*
X165963Y208405D01*
Y207595D01*
X166273Y206846D01*
X166846Y206273D01*
X167595Y205963D01*
X168405D01*
X169154Y206273D01*
X169727Y206846D01*
X170037Y207595D01*
Y208405D01*
X169727Y209154D01*
X169154Y209727D01*
X168405Y210037D01*
D02*
G37*
G36*
X186905Y202037D02*
X186095D01*
X185346Y201727D01*
X184773Y201154D01*
X184463Y200405D01*
Y199595D01*
X184773Y198846D01*
X185346Y198273D01*
X186095Y197963D01*
X186905D01*
X187654Y198273D01*
X188227Y198846D01*
X188537Y199595D01*
Y200405D01*
X188227Y201154D01*
X187654Y201727D01*
X186905Y202037D01*
D02*
G37*
G36*
X168405Y200537D02*
X167595D01*
X166846Y200227D01*
X166273Y199654D01*
X165963Y198905D01*
Y198095D01*
X166273Y197346D01*
X166846Y196773D01*
X167595Y196463D01*
X168405D01*
X169154Y196773D01*
X169727Y197346D01*
X170037Y198095D01*
Y198905D01*
X169727Y199654D01*
X169154Y200227D01*
X168405Y200537D01*
D02*
G37*
G36*
X185655Y197037D02*
X184845D01*
X184096Y196727D01*
X183523Y196154D01*
X183213Y195405D01*
Y194595D01*
X183523Y193846D01*
X184096Y193273D01*
X184845Y192963D01*
X185655D01*
X186404Y193273D01*
X186977Y193846D01*
X187287Y194595D01*
Y195405D01*
X186977Y196154D01*
X186404Y196727D01*
X185655Y197037D01*
D02*
G37*
G36*
X116905Y189537D02*
X116095D01*
X115346Y189227D01*
X114773Y188654D01*
X114463Y187905D01*
Y187095D01*
X114773Y186346D01*
X115346Y185773D01*
X116095Y185463D01*
X116905D01*
X117654Y185773D01*
X118227Y186346D01*
X118537Y187095D01*
Y187905D01*
X118227Y188654D01*
X117654Y189227D01*
X116905Y189537D01*
D02*
G37*
G36*
X165000Y181000D02*
X164190D01*
X163441Y180690D01*
X162867Y180117D01*
X162557Y179368D01*
Y178557D01*
X162867Y177808D01*
X163441Y177235D01*
X164190Y176925D01*
X165000D01*
X165749Y177235D01*
X166322Y177808D01*
X166632Y178557D01*
Y179368D01*
X166322Y180117D01*
X165749Y180690D01*
X165000Y181000D01*
D02*
G37*
G36*
X153905Y175537D02*
X153095D01*
X152346Y175227D01*
X151773Y174654D01*
X151463Y173905D01*
Y173095D01*
X151773Y172346D01*
X152346Y171773D01*
X153095Y171463D01*
X153905D01*
X154654Y171773D01*
X155227Y172346D01*
X155537Y173095D01*
Y173905D01*
X155227Y174654D01*
X154654Y175227D01*
X153905Y175537D01*
D02*
G37*
G36*
X168895Y157720D02*
X168085D01*
X167336Y157410D01*
X166763Y156837D01*
X166453Y156088D01*
Y155277D01*
X166763Y154528D01*
X167336Y153955D01*
X167711Y153800D01*
X167829Y153210D01*
X167773Y153154D01*
X167463Y152405D01*
Y151595D01*
X167773Y150846D01*
X168346Y150273D01*
X169095Y149963D01*
X169905D01*
X170654Y150273D01*
X171227Y150846D01*
X171537Y151595D01*
Y152405D01*
X171227Y153154D01*
X170654Y153727D01*
X170279Y153883D01*
X170161Y154472D01*
X170217Y154528D01*
X170528Y155277D01*
Y156088D01*
X170217Y156837D01*
X169644Y157410D01*
X168895Y157720D01*
D02*
G37*
G36*
X155961Y155239D02*
X155150D01*
X154401Y154929D01*
X153828Y154356D01*
X153518Y153607D01*
Y152797D01*
X153828Y152048D01*
X154401Y151475D01*
X155150Y151164D01*
X155630D01*
X155731Y150960D01*
X155783Y150664D01*
X155273Y150154D01*
X154963Y149405D01*
Y148595D01*
X155273Y147846D01*
X155846Y147273D01*
X156504Y147000D01*
X156506Y146992D01*
Y146508D01*
X156504Y146500D01*
X155846Y146227D01*
X155273Y145654D01*
X154963Y144905D01*
Y144095D01*
X155273Y143346D01*
X155846Y142773D01*
X156595Y142463D01*
X157405D01*
X158154Y142773D01*
X158727Y143346D01*
X159037Y144095D01*
Y144905D01*
X158727Y145654D01*
X158154Y146227D01*
X157496Y146500D01*
X157494Y146508D01*
Y146992D01*
X157496Y147000D01*
X158154Y147273D01*
X158727Y147846D01*
X159037Y148595D01*
Y149405D01*
X158727Y150154D01*
X158154Y150727D01*
X157405Y151037D01*
X156925D01*
X156825Y151242D01*
X156772Y151537D01*
X157283Y152048D01*
X157593Y152797D01*
Y153607D01*
X157283Y154356D01*
X156710Y154929D01*
X155961Y155239D01*
D02*
G37*
G36*
X174613Y153160D02*
X173802D01*
X173053Y152850D01*
X172480Y152277D01*
X172170Y151528D01*
Y150717D01*
X172473Y149987D01*
X172479Y149964D01*
X172319Y149423D01*
X171846Y149227D01*
X171273Y148654D01*
X170963Y147905D01*
Y147095D01*
X171273Y146346D01*
X171581Y146037D01*
X171374Y145537D01*
X171095D01*
X170346Y145227D01*
X169773Y144654D01*
X169463Y143905D01*
Y143095D01*
X169773Y142346D01*
X170346Y141773D01*
X171095Y141463D01*
X171905D01*
X172654Y141773D01*
X173227Y142346D01*
X173537Y143095D01*
Y143905D01*
X173227Y144654D01*
X172919Y144963D01*
X173126Y145463D01*
X173405D01*
X174154Y145773D01*
X174727Y146346D01*
X175037Y147095D01*
Y147905D01*
X174735Y148636D01*
X174729Y148659D01*
X174889Y149199D01*
X175362Y149395D01*
X175935Y149968D01*
X176245Y150717D01*
Y151528D01*
X175935Y152277D01*
X175362Y152850D01*
X174613Y153160D01*
D02*
G37*
G36*
X157905Y138287D02*
X157095D01*
X156346Y137977D01*
X155773Y137404D01*
X155463Y136655D01*
Y135845D01*
X155773Y135096D01*
X156346Y134523D01*
X157095Y134213D01*
X157905D01*
X158654Y134523D01*
X159227Y135096D01*
X159537Y135845D01*
Y136655D01*
X159227Y137404D01*
X158654Y137977D01*
X157905Y138287D01*
D02*
G37*
G36*
X175905Y137537D02*
X175095D01*
X174346Y137227D01*
X173773Y136654D01*
X173463Y135905D01*
Y135095D01*
X173773Y134346D01*
X174346Y133773D01*
X175095Y133463D01*
X175905D01*
X176654Y133773D01*
X177227Y134346D01*
X177537Y135095D01*
Y135905D01*
X177227Y136654D01*
X176654Y137227D01*
X175905Y137537D01*
D02*
G37*
G36*
X169405D02*
X168595D01*
X167846Y137227D01*
X167273Y136654D01*
X166963Y135905D01*
Y135095D01*
X167273Y134346D01*
X167846Y133773D01*
X168595Y133463D01*
X169405D01*
X170154Y133773D01*
X170727Y134346D01*
X171037Y135095D01*
Y135905D01*
X170727Y136654D01*
X170154Y137227D01*
X169405Y137537D01*
D02*
G37*
G36*
X173398Y133045D02*
X172587D01*
X171838Y132735D01*
X171265Y132161D01*
X170955Y131413D01*
Y130602D01*
X171265Y129853D01*
X171838Y129280D01*
X172587Y128970D01*
X173155D01*
X173508Y128516D01*
X173463Y128405D01*
Y127595D01*
X173773Y126846D01*
X174346Y126273D01*
X175095Y125963D01*
X175905D01*
X176654Y126273D01*
X177227Y126846D01*
X177537Y127595D01*
Y128405D01*
X177227Y129154D01*
X176654Y129727D01*
X175905Y130037D01*
X175337D01*
X174984Y130492D01*
X175030Y130602D01*
Y131413D01*
X174720Y132161D01*
X174147Y132735D01*
X173398Y133045D01*
D02*
G37*
G36*
X109305Y129537D02*
X108495D01*
X107746Y129227D01*
X107173Y128654D01*
X106863Y127905D01*
Y127095D01*
X107173Y126346D01*
X107746Y125773D01*
X108495Y125463D01*
X109305D01*
X110054Y125773D01*
X110627Y126346D01*
X110937Y127095D01*
Y127905D01*
X110627Y128654D01*
X110054Y129227D01*
X109305Y129537D01*
D02*
G37*
G36*
X140319Y149787D02*
X139409D01*
X138568Y149439D01*
X137925Y148796D01*
X137576Y147955D01*
Y147045D01*
X137925Y146204D01*
X138568Y145561D01*
X139319Y145250D01*
X139320Y145242D01*
Y144758D01*
X139319Y144750D01*
X138568Y144439D01*
X137925Y143796D01*
X137576Y142955D01*
Y142045D01*
X137925Y141204D01*
X138212Y140917D01*
X138095Y140327D01*
X137704Y140166D01*
X137061Y139522D01*
X136713Y138681D01*
Y137771D01*
X137061Y136931D01*
X137704Y136287D01*
X138157Y136100D01*
X138275Y135510D01*
X138061Y135296D01*
X137713Y134455D01*
Y133545D01*
X138061Y132704D01*
X138704Y132061D01*
X139397Y131774D01*
X139441Y131251D01*
X139023Y131078D01*
X138379Y130434D01*
X138031Y129593D01*
Y128683D01*
X138379Y127843D01*
X138649Y127573D01*
X138551Y127083D01*
X138204Y126939D01*
X137561Y126296D01*
X137213Y125455D01*
Y124545D01*
X137561Y123704D01*
X138204Y123061D01*
X139045Y122713D01*
X139955D01*
X140796Y123061D01*
X141439Y123704D01*
X141787Y124545D01*
Y125455D01*
X141439Y126296D01*
X141170Y126565D01*
X141267Y127055D01*
X141614Y127199D01*
X142258Y127843D01*
X142606Y128683D01*
Y129593D01*
X142258Y130434D01*
X141614Y131078D01*
X140921Y131365D01*
X140878Y131888D01*
X141296Y132061D01*
X141939Y132704D01*
X142287Y133545D01*
Y134455D01*
X141939Y135296D01*
X141296Y135939D01*
X140842Y136127D01*
X140725Y136717D01*
X140939Y136931D01*
X141287Y137771D01*
Y138681D01*
X140939Y139522D01*
X140652Y139809D01*
X140769Y140399D01*
X141159Y140561D01*
X141803Y141204D01*
X142151Y142045D01*
Y142955D01*
X141803Y143796D01*
X141159Y144439D01*
X140409Y144750D01*
X140408Y144758D01*
Y145242D01*
X140409Y145250D01*
X141159Y145561D01*
X141803Y146204D01*
X142151Y147045D01*
Y147955D01*
X141803Y148796D01*
X141159Y149439D01*
X140319Y149787D01*
D02*
G37*
G36*
X190398Y125974D02*
X189587D01*
X188839Y125664D01*
X188265Y125091D01*
X187955Y124342D01*
Y123532D01*
X188265Y122783D01*
X188839Y122210D01*
X189587Y121900D01*
X190398D01*
X191147Y122210D01*
X191720Y122783D01*
X192030Y123532D01*
Y124342D01*
X191720Y125091D01*
X191147Y125664D01*
X190398Y125974D01*
D02*
G37*
G36*
X157905Y129037D02*
X157095D01*
X156346Y128727D01*
X155773Y128154D01*
X155463Y127405D01*
Y126595D01*
X155773Y125846D01*
X156221Y125398D01*
X156299Y125091D01*
X156221Y124784D01*
X155773Y124336D01*
X155463Y123587D01*
Y122776D01*
X155773Y122027D01*
X156346Y121454D01*
X157095Y121144D01*
X157905D01*
X158654Y121454D01*
X159227Y122027D01*
X159537Y122776D01*
Y123587D01*
X159227Y124336D01*
X158779Y124784D01*
X158701Y125091D01*
X158779Y125398D01*
X159227Y125846D01*
X159537Y126595D01*
Y127405D01*
X159227Y128154D01*
X158654Y128727D01*
X157905Y129037D01*
D02*
G37*
G36*
X190398Y118037D02*
X189587D01*
X188839Y117727D01*
X188265Y117154D01*
X187955Y116405D01*
Y115595D01*
X188265Y114846D01*
X188839Y114273D01*
X189587Y113963D01*
X190398D01*
X191147Y114273D01*
X191720Y114846D01*
X192030Y115595D01*
Y116405D01*
X191720Y117154D01*
X191147Y117727D01*
X190398Y118037D01*
D02*
G37*
G36*
X145955Y122287D02*
X145045D01*
X144204Y121939D01*
X143561Y121296D01*
X143213Y120455D01*
Y119545D01*
X143561Y118704D01*
X144204Y118061D01*
X144351Y118000D01*
Y117500D01*
X144204Y117439D01*
X143561Y116796D01*
X143213Y115955D01*
Y115045D01*
X143561Y114204D01*
X144204Y113561D01*
X145045Y113213D01*
X145955D01*
X146796Y113561D01*
X147439Y114204D01*
X147787Y115045D01*
Y115955D01*
X147439Y116796D01*
X146796Y117439D01*
X146649Y117500D01*
Y118000D01*
X146796Y118061D01*
X147439Y118704D01*
X147787Y119545D01*
Y120455D01*
X147439Y121296D01*
X146796Y121939D01*
X145955Y122287D01*
D02*
G37*
G36*
X140955Y114787D02*
X140045D01*
X139204Y114439D01*
X138561Y113796D01*
X138213Y112955D01*
Y112045D01*
X138561Y111204D01*
X139204Y110561D01*
X140045Y110213D01*
X140955D01*
X141796Y110561D01*
X142439Y111204D01*
X142787Y112045D01*
Y112955D01*
X142439Y113796D01*
X141796Y114439D01*
X140955Y114787D01*
D02*
G37*
G36*
X156283Y116991D02*
X155473D01*
X154724Y116681D01*
X154151Y116108D01*
X153841Y115359D01*
Y114548D01*
X154151Y113799D01*
X154724Y113226D01*
X155473Y112916D01*
X156131D01*
X156236Y112703D01*
X156286Y112417D01*
X155773Y111904D01*
X155463Y111155D01*
Y110345D01*
X155773Y109596D01*
X156346Y109023D01*
X157095Y108713D01*
X157905D01*
X158654Y109023D01*
X159227Y109596D01*
X159537Y110345D01*
Y111155D01*
X159227Y111904D01*
X158654Y112477D01*
X157905Y112787D01*
X157247D01*
X157143Y113001D01*
X157093Y113286D01*
X157606Y113799D01*
X157916Y114548D01*
Y115359D01*
X157606Y116108D01*
X157032Y116681D01*
X156283Y116991D01*
D02*
G37*
G36*
X157405Y104037D02*
X156595D01*
X155846Y103727D01*
X155273Y103154D01*
X154963Y102405D01*
Y101595D01*
X155273Y100846D01*
X155846Y100273D01*
X156595Y99963D01*
X157405D01*
X158154Y100273D01*
X158727Y100846D01*
X159037Y101595D01*
Y102405D01*
X158727Y103154D01*
X158154Y103727D01*
X157405Y104037D01*
D02*
G37*
G36*
X138905D02*
X138095D01*
X137346Y103727D01*
X136773Y103154D01*
X136463Y102405D01*
Y101595D01*
X136773Y100846D01*
X137346Y100273D01*
X138095Y99963D01*
X138905D01*
X139654Y100273D01*
X140227Y100846D01*
X140537Y101595D01*
Y102405D01*
X140227Y103154D01*
X139654Y103727D01*
X138905Y104037D01*
D02*
G37*
%LPD*%
D55*
X182000Y279000D02*
D03*
D56*
Y289000D02*
D03*
D73*
X106555Y279048D02*
D03*
X123000Y280000D02*
D03*
X157500Y127000D02*
D03*
Y123181D02*
D03*
X169000Y135500D02*
D03*
X168490Y155683D02*
D03*
X169500Y152000D02*
D03*
X157000Y144500D02*
D03*
Y149000D02*
D03*
X175500Y128000D02*
D03*
X155878Y114953D02*
D03*
X194569Y190000D02*
D03*
X185250Y195000D02*
D03*
X115500Y297000D02*
D03*
X150500Y296000D02*
D03*
X155347Y299153D02*
D03*
X152894Y277292D02*
D03*
X155555Y153202D02*
D03*
X174207Y151122D02*
D03*
X173000Y147500D02*
D03*
X171500Y143500D02*
D03*
X175500Y135500D02*
D03*
X172993Y131007D02*
D03*
X168250Y232419D02*
D03*
X164595Y178963D02*
D03*
X168000Y198500D02*
D03*
Y208000D02*
D03*
X116500Y187500D02*
D03*
X189993Y123937D02*
D03*
X157500Y110750D02*
D03*
X108900Y127500D02*
D03*
X135000Y280000D02*
D03*
X117000Y238000D02*
D03*
X118000Y232500D02*
D03*
X138500Y102000D02*
D03*
X157000D02*
D03*
X186500Y200000D02*
D03*
Y215500D02*
D03*
Y220000D02*
D03*
X124500Y100000D02*
D03*
X153500Y173500D02*
D03*
X157500Y136250D02*
D03*
X164500Y229000D02*
D03*
X189993Y116000D02*
D03*
X186500Y230000D02*
D03*
D74*
X139500Y125000D02*
D03*
X140319Y129138D02*
D03*
X145946Y124195D02*
D03*
X145500Y115500D02*
D03*
Y120000D02*
D03*
X140500Y112500D02*
D03*
X140000Y134000D02*
D03*
X139864Y142500D02*
D03*
X139000Y138226D02*
D03*
X139864Y147500D02*
D03*
X104158Y229913D02*
D03*
D75*
X164000Y304500D02*
D03*
X155091Y223500D02*
D03*
X130000D02*
D03*
D76*
X184000Y306500D02*
D03*
M02*
