M48
;Layer_Color=9474304
;FILE_FORMAT=2:4
INCH,TZ
;TYPE=PLATED
T01F00S00C0.0120
T02F00S00C0.0150
T03F00S00C0.0280
T04F00S00C0.0402
T05F00S00C0.1450
%
T01
X12450Y10000
X13850Y10200
X15588Y11495
X15556Y15320
X10890Y12750
X15750Y12700
Y12318
Y11075
X15700Y10200
X15750Y13625
X15700Y14450
Y14900
X16950Y15200
X16849Y15568
X17421Y15112
X17300Y14750
X17150Y14350
X16900Y13550
X17550
X17299Y13101
X17550Y12800
X18999Y12394
Y11600
X19457Y19000
X18525Y19500
X18650Y20000
Y21550
Y22000
Y23000
X16825Y23242
X16450Y22900
X16800Y20800
Y19850
X16459Y17896
X15350Y17350
X11650Y18750
X11800Y23250
X11700Y23800
X12300Y28000
X13500
X15289Y27729
X15050Y29600
X15535Y29915
X11550Y29700
X10656Y27905
T02
X14050Y11250
X14550Y11550
Y12000
X14595Y12419
X13950Y12500
X14032Y12914
X14000Y13400
X13900Y13823
X13986Y14250
Y14750
X10416Y22991
T03
X16400Y30450
X15509Y22350
X13000
T04
X18200Y27900
Y28900
T05
X18400Y30650
M30
