G04*
G04 #@! TF.GenerationSoftware,Altium Limited,Altium Designer,24.9.1 (31)*
G04*
G04 Layer_Color=32768*
%FSLAX25Y25*%
%MOIN*%
G70*
G04*
G04 #@! TF.SameCoordinates,F3BC3392-02DA-4331-AFF2-193CA699B933*
G04*
G04*
G04 #@! TF.FilePolarity,Positive*
G04*
G01*
G75*
%ADD10C,0.00787*%
%ADD11C,0.00394*%
%ADD13C,0.00500*%
D10*
X116811Y173500D02*
G03*
X116811Y173500I-394J0D01*
G01*
X150654Y107772D02*
X157346D01*
X150654Y104228D02*
Y107772D01*
Y104228D02*
X157346D01*
Y107772D01*
X132154D02*
X138846D01*
X132154Y104228D02*
Y107772D01*
Y104228D02*
X138846D01*
Y107772D01*
X120425Y231850D02*
X123575D01*
X120425D02*
Y238150D01*
X123575D01*
Y231850D02*
Y238150D01*
X143425Y231850D02*
X146575D01*
X143425D02*
Y238150D01*
X146575D01*
Y231850D02*
Y238150D01*
X131925Y231850D02*
X135075D01*
X131925D02*
Y238150D01*
X135075D01*
Y231850D02*
Y238150D01*
D11*
X139890Y113858D02*
G03*
X139890Y113858I-1969J0D01*
G01*
X166346Y121645D02*
Y125188D01*
X159654Y121645D02*
Y125188D01*
X166346D01*
X159654Y121645D02*
X166346D01*
X159654Y108728D02*
X166346D01*
X159654Y112272D02*
X166346D01*
X159654Y108728D02*
Y112272D01*
X166346Y108728D02*
Y112272D01*
X159654Y115228D02*
X166346D01*
X159654Y118772D02*
X166346D01*
X159654Y115228D02*
Y118772D01*
X166346Y115228D02*
Y118772D01*
X159654Y128062D02*
X166346D01*
X159654Y131605D02*
X166346D01*
X159654Y128062D02*
Y131605D01*
X166346Y128062D02*
Y131605D01*
X159654Y134478D02*
X166346D01*
X159654Y138022D02*
X166346D01*
X159654Y134478D02*
Y138022D01*
X166346Y134478D02*
Y138022D01*
X159654Y140895D02*
X166346D01*
X159654Y144438D02*
X166346D01*
X159654Y140895D02*
Y144438D01*
X166346Y140895D02*
Y144438D01*
X159654Y147312D02*
X166346D01*
X159654Y150855D02*
X166346D01*
X159654Y147312D02*
Y150855D01*
X166346Y147312D02*
Y150855D01*
X159654Y153728D02*
X166346D01*
X159654Y157272D02*
X166346D01*
X159654Y153728D02*
Y157272D01*
X166346Y153728D02*
Y157272D01*
X134378Y149685D02*
X150126D01*
X134378Y110315D02*
X150126D01*
Y149685D01*
X134378Y110315D02*
Y149685D01*
X126496Y168500D02*
Y228500D01*
X158504D01*
Y168500D02*
Y228500D01*
X126496Y168500D02*
X158504D01*
X113654Y153728D02*
Y157272D01*
X120346Y153728D02*
Y157272D01*
X113654Y153728D02*
X120346D01*
X113654Y157272D02*
X120346D01*
X113654Y147312D02*
Y150855D01*
X120346Y147312D02*
Y150855D01*
X113654Y147312D02*
X120346D01*
X113654Y150855D02*
X120346D01*
X113654Y140895D02*
Y144438D01*
X120346Y140895D02*
Y144438D01*
X113654Y140895D02*
X120346D01*
X113654Y144438D02*
X120346D01*
X113654Y134478D02*
Y138022D01*
X120346Y134478D02*
Y138022D01*
X113654Y134478D02*
X120346D01*
X113654Y138022D02*
X120346D01*
X113654Y128062D02*
Y131605D01*
X120346Y128062D02*
Y131605D01*
X113654Y128062D02*
X120346D01*
X113654Y131605D02*
X120346D01*
X113654Y115228D02*
Y118772D01*
X120346Y115228D02*
Y118772D01*
X113654Y115228D02*
X120346D01*
X113654Y118772D02*
X120346D01*
X113654Y108728D02*
Y112272D01*
X120346Y108728D02*
Y112272D01*
X113654Y108728D02*
X120346D01*
X113654Y112272D02*
X120346D01*
X113654Y121645D02*
Y125188D01*
X120346Y121645D02*
Y125188D01*
X113654Y121645D02*
X120346D01*
X113654Y125188D02*
X120346D01*
D13*
X100728Y210154D02*
X104272D01*
X100728Y216846D02*
X104272D01*
Y210154D02*
Y216846D01*
X100728Y210154D02*
Y216846D01*
X159346Y234728D02*
Y238272D01*
X152654Y234728D02*
Y238272D01*
X159346D01*
X152654Y234728D02*
X159346D01*
M02*
