G04*
G04 #@! TF.GenerationSoftware,Altium Limited,Altium Designer,24.9.1 (31)*
G04*
G04 Layer_Color=255*
%FSLAX25Y25*%
%MOIN*%
G70*
G04*
G04 #@! TF.SameCoordinates,65E441D1-A48C-4218-98E1-AC23B9FD057C*
G04*
G04*
G04 #@! TF.FilePolarity,Positive*
G04*
G01*
G75*
%ADD16R,0.03110X0.03661*%
%ADD22R,0.03150X0.03543*%
%ADD27R,0.03197X0.02593*%
%ADD28R,0.02756X0.03543*%
%ADD53C,0.01181*%
%ADD54R,0.06181X0.06181*%
%ADD55C,0.06181*%
%ADD68R,0.07500X0.04016*%
%ADD69R,0.03661X0.03110*%
%ADD70O,0.07480X0.02362*%
%ADD71R,0.02362X0.03150*%
D16*
X152772Y236500D02*
D03*
X159228D02*
D03*
D22*
X156953Y106000D02*
D03*
X151047D02*
D03*
X138453D02*
D03*
X132547D02*
D03*
D27*
X122000Y237664D02*
D03*
Y232336D02*
D03*
X145000Y237664D02*
D03*
Y232336D02*
D03*
X133500Y237664D02*
D03*
Y232336D02*
D03*
D28*
X114244Y155500D02*
D03*
X119756D02*
D03*
X114244Y149083D02*
D03*
X119756D02*
D03*
X114244Y142667D02*
D03*
X119756D02*
D03*
X114244Y136250D02*
D03*
X119756D02*
D03*
X114244Y129833D02*
D03*
X119756D02*
D03*
X114244Y117000D02*
D03*
X119756D02*
D03*
X114244Y110500D02*
D03*
X119756D02*
D03*
X114244Y123417D02*
D03*
X119756D02*
D03*
D53*
X157236Y286618D02*
D03*
X154563D02*
D03*
X150429Y280398D02*
D03*
Y284335D02*
D03*
Y288272D02*
D03*
Y292209D02*
D03*
Y296146D02*
D03*
X157240Y291342D02*
D03*
Y293311D02*
D03*
Y295280D02*
D03*
X153500Y291500D02*
D03*
Y294728D02*
D03*
X143622Y286618D02*
D03*
X146295D02*
D03*
X143618Y291342D02*
D03*
Y293311D02*
D03*
Y295280D02*
D03*
X147358Y291500D02*
D03*
Y294728D02*
D03*
X122307Y287941D02*
D03*
X119634D02*
D03*
X115500Y281720D02*
D03*
Y285658D02*
D03*
Y289595D02*
D03*
Y293531D02*
D03*
Y297468D02*
D03*
X122311Y292665D02*
D03*
Y294634D02*
D03*
Y296602D02*
D03*
X118571Y292823D02*
D03*
Y296051D02*
D03*
X108693Y287941D02*
D03*
X111366D02*
D03*
X108689Y292665D02*
D03*
Y294634D02*
D03*
Y296602D02*
D03*
X112429Y292823D02*
D03*
Y296051D02*
D03*
X142902Y199094D02*
D03*
X137390D02*
D03*
X145657Y201850D02*
D03*
X140146D02*
D03*
X134634D02*
D03*
X142902Y204606D02*
D03*
X137390D02*
D03*
X145657Y207362D02*
D03*
X140146D02*
D03*
X134634D02*
D03*
X142902Y210118D02*
D03*
X137390D02*
D03*
D54*
X182000Y279000D02*
D03*
D55*
Y289000D02*
D03*
D68*
X161841Y223500D02*
D03*
X123159D02*
D03*
X161841Y213500D02*
D03*
X123159D02*
D03*
X161841Y203500D02*
D03*
X123159D02*
D03*
X161841Y193500D02*
D03*
X123159D02*
D03*
X161841Y183500D02*
D03*
X123159D02*
D03*
X161841Y173500D02*
D03*
X123159D02*
D03*
D69*
X102500Y216728D02*
D03*
Y210272D02*
D03*
D70*
X133000Y112500D02*
D03*
Y117500D02*
D03*
Y122500D02*
D03*
Y127500D02*
D03*
Y132500D02*
D03*
Y137500D02*
D03*
Y142500D02*
D03*
Y147500D02*
D03*
X151504Y112500D02*
D03*
Y117500D02*
D03*
Y122500D02*
D03*
Y127500D02*
D03*
Y132500D02*
D03*
Y137500D02*
D03*
Y142500D02*
D03*
Y147500D02*
D03*
D71*
X165559Y110500D02*
D03*
X160441D02*
D03*
X165559Y136250D02*
D03*
X160441D02*
D03*
X165559Y117000D02*
D03*
X160441D02*
D03*
X165559Y142667D02*
D03*
X160441D02*
D03*
X165559Y155500D02*
D03*
X160441D02*
D03*
X165559Y149083D02*
D03*
X160441D02*
D03*
X165559Y123417D02*
D03*
X160441D02*
D03*
X165559Y129833D02*
D03*
X160441D02*
D03*
M02*
