G04*
G04 #@! TF.GenerationSoftware,Altium Limited,Altium Designer,24.9.1 (31)*
G04*
G04 Layer_Color=255*
%FSLAX25Y25*%
%MOIN*%
G70*
G04*
G04 #@! TF.SameCoordinates,F3BC3392-02DA-4331-AFF2-193CA699B933*
G04*
G04*
G04 #@! TF.FilePolarity,Positive*
G04*
G01*
G75*
%ADD16R,0.03110X0.03661*%
%ADD22R,0.03150X0.03543*%
%ADD27R,0.03197X0.02593*%
%ADD28R,0.02756X0.03543*%
%ADD55R,0.06181X0.06181*%
%ADD56C,0.06181*%
%ADD77R,0.02362X0.03150*%
%ADD78O,0.07480X0.02362*%
%ADD79R,0.07500X0.04016*%
%ADD80R,0.03661X0.03110*%
D16*
X152772Y236500D02*
D03*
X159228D02*
D03*
D22*
X156953Y106000D02*
D03*
X151047D02*
D03*
X138453D02*
D03*
X132547D02*
D03*
D27*
X122000Y237664D02*
D03*
Y232336D02*
D03*
X145000Y237664D02*
D03*
Y232336D02*
D03*
X133500Y237664D02*
D03*
Y232336D02*
D03*
D28*
X114244Y155500D02*
D03*
X119756D02*
D03*
X114244Y149083D02*
D03*
X119756D02*
D03*
X114244Y142667D02*
D03*
X119756D02*
D03*
X114244Y136250D02*
D03*
X119756D02*
D03*
X114244Y129833D02*
D03*
X119756D02*
D03*
X114244Y117000D02*
D03*
X119756D02*
D03*
X114244Y110500D02*
D03*
X119756D02*
D03*
X114244Y123417D02*
D03*
X119756D02*
D03*
D55*
X182000Y279000D02*
D03*
D56*
Y289000D02*
D03*
D77*
X165559Y123417D02*
D03*
X160441D02*
D03*
Y110500D02*
D03*
X165559D02*
D03*
X160441Y117000D02*
D03*
X165559D02*
D03*
X160441Y129833D02*
D03*
X165559D02*
D03*
X160441Y136250D02*
D03*
X165559D02*
D03*
X160441Y142667D02*
D03*
X165559D02*
D03*
X160441Y149083D02*
D03*
X165559D02*
D03*
X160441Y155500D02*
D03*
X165559D02*
D03*
D78*
X151504Y147500D02*
D03*
Y142500D02*
D03*
Y137500D02*
D03*
Y132500D02*
D03*
Y127500D02*
D03*
Y122500D02*
D03*
Y117500D02*
D03*
Y112500D02*
D03*
X133000Y147500D02*
D03*
Y142500D02*
D03*
Y137500D02*
D03*
Y132500D02*
D03*
Y127500D02*
D03*
Y122500D02*
D03*
Y117500D02*
D03*
Y112500D02*
D03*
D79*
X161841Y223500D02*
D03*
X123159D02*
D03*
X161841Y213500D02*
D03*
X123159D02*
D03*
X161841Y203500D02*
D03*
X123159D02*
D03*
X161841Y193500D02*
D03*
X123159D02*
D03*
X161841Y183500D02*
D03*
X123159D02*
D03*
X161841Y173500D02*
D03*
X123159D02*
D03*
D80*
X102500Y216728D02*
D03*
Y210272D02*
D03*
M02*
