G04*
G04 #@! TF.GenerationSoftware,Altium Limited,Altium Designer,24.9.1 (31)*
G04*
G04 Layer_Color=32896*
%FSLAX25Y25*%
%MOIN*%
G70*
G04*
G04 #@! TF.SameCoordinates,65E441D1-A48C-4218-98E1-AC23B9FD057C*
G04*
G04*
G04 #@! TF.FilePolarity,Positive*
G04*
G01*
G75*
%ADD10C,0.00787*%
%ADD12C,0.00984*%
%ADD13C,0.00500*%
%ADD61C,0.01000*%
%ADD76C,0.01575*%
G36*
X154256Y233368D02*
X154317Y233279D01*
X154389Y233190D01*
X154456Y233112D01*
X154522Y233046D01*
X154572Y232990D01*
X154594Y232974D01*
X154611Y232957D01*
X154617Y232951D01*
X154622Y232946D01*
X154739Y232851D01*
X154855Y232763D01*
X154966Y232685D01*
X155077Y232624D01*
X155172Y232568D01*
X155210Y232546D01*
X155244Y232529D01*
X155271Y232513D01*
X155294Y232507D01*
X155305Y232496D01*
X155310D01*
Y232041D01*
X155227Y232074D01*
X155144Y232113D01*
X155061Y232152D01*
X154983Y232191D01*
X154916Y232224D01*
X154861Y232252D01*
X154827Y232274D01*
X154822Y232280D01*
X154816D01*
X154717Y232341D01*
X154628Y232402D01*
X154550Y232457D01*
X154489Y232507D01*
X154433Y232546D01*
X154400Y232579D01*
X154372Y232602D01*
X154367Y232607D01*
Y229605D01*
X153895D01*
Y233462D01*
X154200D01*
X154256Y233368D01*
D02*
G37*
G36*
X156820Y230798D02*
Y230681D01*
X156831Y230581D01*
X156837Y230498D01*
X156848Y230432D01*
X156859Y230382D01*
X156864Y230343D01*
X156875Y230321D01*
Y230315D01*
X156898Y230260D01*
X156925Y230215D01*
X156959Y230176D01*
X156986Y230137D01*
X157020Y230115D01*
X157042Y230093D01*
X157059Y230082D01*
X157064Y230076D01*
X157120Y230049D01*
X157175Y230027D01*
X157231Y230015D01*
X157281Y230004D01*
X157331Y229999D01*
X157364Y229993D01*
X157397D01*
X157486Y229999D01*
X157569Y230021D01*
X157636Y230043D01*
X157697Y230076D01*
X157741Y230104D01*
X157774Y230132D01*
X157797Y230149D01*
X157802Y230154D01*
X157830Y230187D01*
X157852Y230226D01*
X157886Y230315D01*
X157919Y230415D01*
X157935Y230515D01*
X157952Y230609D01*
Y230648D01*
X157958Y230681D01*
X157963Y230715D01*
Y230737D01*
Y230748D01*
Y230753D01*
X158424Y230687D01*
Y230581D01*
X158418Y230487D01*
X158402Y230393D01*
X158391Y230310D01*
X158368Y230232D01*
X158346Y230165D01*
X158324Y230099D01*
X158302Y230043D01*
X158274Y229993D01*
X158252Y229949D01*
X158230Y229910D01*
X158207Y229882D01*
X158191Y229860D01*
X158180Y229838D01*
X158174Y229832D01*
X158169Y229827D01*
X158113Y229777D01*
X158057Y229732D01*
X157996Y229694D01*
X157930Y229660D01*
X157802Y229610D01*
X157680Y229577D01*
X157564Y229555D01*
X157519Y229549D01*
X157475Y229544D01*
X157441Y229538D01*
X157392D01*
X157270Y229544D01*
X157158Y229560D01*
X157059Y229583D01*
X156970Y229610D01*
X156898Y229632D01*
X156848Y229655D01*
X156814Y229671D01*
X156803Y229677D01*
X156714Y229732D01*
X156637Y229799D01*
X156576Y229866D01*
X156520Y229927D01*
X156481Y229988D01*
X156454Y230032D01*
X156437Y230065D01*
X156431Y230071D01*
Y230076D01*
X156393Y230187D01*
X156359Y230304D01*
X156337Y230432D01*
X156326Y230554D01*
X156315Y230659D01*
Y230704D01*
X156309Y230748D01*
Y230781D01*
Y230803D01*
Y230820D01*
Y230826D01*
Y233445D01*
X156820D01*
Y230798D01*
D02*
G37*
G36*
X109429Y217560D02*
X107725D01*
Y216905D01*
X107730Y216844D01*
Y216799D01*
X107736Y216761D01*
X107741Y216733D01*
Y216711D01*
X107747Y216700D01*
Y216694D01*
X107775Y216605D01*
X107791Y216566D01*
X107808Y216533D01*
X107825Y216500D01*
X107836Y216478D01*
X107841Y216466D01*
X107847Y216461D01*
X107880Y216417D01*
X107919Y216372D01*
X108002Y216289D01*
X108041Y216250D01*
X108074Y216222D01*
X108097Y216206D01*
X108102Y216200D01*
X108180Y216145D01*
X108263Y216084D01*
X108352Y216022D01*
X108435Y215961D01*
X108513Y215912D01*
X108574Y215873D01*
X108596Y215856D01*
X108613Y215845D01*
X108624Y215834D01*
X108629D01*
X109429Y215329D01*
Y214696D01*
X108385Y215356D01*
X108274Y215434D01*
X108174Y215506D01*
X108091Y215579D01*
X108013Y215639D01*
X107958Y215695D01*
X107913Y215739D01*
X107886Y215767D01*
X107875Y215778D01*
X107841Y215823D01*
X107802Y215873D01*
X107741Y215972D01*
X107719Y216017D01*
X107697Y216050D01*
X107686Y216072D01*
X107680Y216084D01*
X107664Y215984D01*
X107647Y215889D01*
X107619Y215806D01*
X107597Y215723D01*
X107569Y215651D01*
X107536Y215584D01*
X107508Y215523D01*
X107481Y215468D01*
X107447Y215423D01*
X107420Y215379D01*
X107397Y215345D01*
X107375Y215318D01*
X107359Y215295D01*
X107342Y215279D01*
X107336Y215273D01*
X107331Y215268D01*
X107275Y215223D01*
X107220Y215179D01*
X107103Y215112D01*
X106987Y215068D01*
X106876Y215035D01*
X106781Y215012D01*
X106742Y215007D01*
X106704D01*
X106676Y215001D01*
X106654D01*
X106642D01*
X106637D01*
X106520Y215007D01*
X106415Y215023D01*
X106315Y215051D01*
X106232Y215079D01*
X106160Y215112D01*
X106104Y215135D01*
X106071Y215157D01*
X106065Y215162D01*
X106060D01*
X105971Y215229D01*
X105893Y215295D01*
X105827Y215368D01*
X105777Y215434D01*
X105738Y215495D01*
X105716Y215545D01*
X105699Y215579D01*
X105693Y215584D01*
Y215590D01*
X105677Y215639D01*
X105660Y215701D01*
X105632Y215823D01*
X105616Y215956D01*
X105599Y216078D01*
X105594Y216195D01*
Y216245D01*
X105588Y216289D01*
Y218070D01*
X109429D01*
Y217560D01*
D02*
G37*
G36*
Y211915D02*
X108974D01*
Y213808D01*
X108879Y213741D01*
X108840Y213708D01*
X108801Y213680D01*
X108768Y213653D01*
X108746Y213630D01*
X108729Y213614D01*
X108724Y213608D01*
X108696Y213580D01*
X108668Y213547D01*
X108596Y213470D01*
X108513Y213381D01*
X108430Y213286D01*
X108358Y213197D01*
X108324Y213159D01*
X108291Y213125D01*
X108269Y213098D01*
X108252Y213075D01*
X108241Y213064D01*
X108235Y213059D01*
X108158Y212970D01*
X108086Y212881D01*
X108013Y212804D01*
X107952Y212731D01*
X107891Y212665D01*
X107836Y212609D01*
X107786Y212554D01*
X107741Y212509D01*
X107697Y212465D01*
X107664Y212432D01*
X107636Y212404D01*
X107608Y212376D01*
X107575Y212348D01*
X107564Y212337D01*
X107469Y212260D01*
X107386Y212193D01*
X107303Y212138D01*
X107236Y212093D01*
X107175Y212060D01*
X107131Y212038D01*
X107103Y212027D01*
X107092Y212021D01*
X107009Y211988D01*
X106926Y211965D01*
X106848Y211943D01*
X106781Y211932D01*
X106720Y211927D01*
X106676Y211921D01*
X106648D01*
X106637D01*
X106554Y211927D01*
X106476Y211938D01*
X106398Y211949D01*
X106332Y211971D01*
X106199Y212027D01*
X106093Y212082D01*
X106043Y212115D01*
X106004Y212143D01*
X105965Y212171D01*
X105938Y212198D01*
X105915Y212221D01*
X105893Y212232D01*
X105888Y212243D01*
X105882Y212248D01*
X105827Y212310D01*
X105777Y212376D01*
X105738Y212448D01*
X105705Y212520D01*
X105649Y212665D01*
X105610Y212809D01*
X105599Y212870D01*
X105588Y212931D01*
X105582Y212987D01*
X105577Y213031D01*
X105571Y213070D01*
Y213125D01*
X105577Y213225D01*
X105582Y213320D01*
X105599Y213408D01*
X105616Y213492D01*
X105638Y213569D01*
X105660Y213642D01*
X105688Y213708D01*
X105716Y213769D01*
X105743Y213825D01*
X105771Y213869D01*
X105793Y213908D01*
X105816Y213941D01*
X105832Y213969D01*
X105849Y213986D01*
X105854Y213997D01*
X105860Y214002D01*
X105915Y214058D01*
X105976Y214108D01*
X106043Y214158D01*
X106110Y214196D01*
X106243Y214263D01*
X106376Y214307D01*
X106437Y214324D01*
X106498Y214341D01*
X106548Y214352D01*
X106593Y214363D01*
X106631Y214369D01*
X106659D01*
X106676Y214374D01*
X106681D01*
X106731Y213891D01*
X106604Y213880D01*
X106493Y213858D01*
X106393Y213825D01*
X106315Y213786D01*
X106248Y213753D01*
X106204Y213719D01*
X106176Y213697D01*
X106165Y213686D01*
X106099Y213603D01*
X106049Y213514D01*
X106010Y213420D01*
X105988Y213336D01*
X105971Y213259D01*
X105965Y213192D01*
X105960Y213170D01*
Y213137D01*
X105965Y213020D01*
X105988Y212914D01*
X106021Y212826D01*
X106054Y212748D01*
X106093Y212687D01*
X106121Y212648D01*
X106143Y212620D01*
X106154Y212609D01*
X106232Y212543D01*
X106309Y212493D01*
X106387Y212454D01*
X106465Y212432D01*
X106526Y212415D01*
X106581Y212409D01*
X106615Y212404D01*
X106620D01*
X106626D01*
X106726Y212415D01*
X106831Y212437D01*
X106926Y212476D01*
X107014Y212515D01*
X107087Y212559D01*
X107148Y212598D01*
X107170Y212609D01*
X107186Y212620D01*
X107192Y212631D01*
X107197D01*
X107259Y212676D01*
X107320Y212731D01*
X107386Y212792D01*
X107453Y212859D01*
X107586Y212998D01*
X107719Y213137D01*
X107780Y213209D01*
X107836Y213270D01*
X107886Y213331D01*
X107930Y213381D01*
X107963Y213420D01*
X107991Y213453D01*
X108008Y213475D01*
X108013Y213481D01*
X108130Y213619D01*
X108241Y213747D01*
X108341Y213852D01*
X108424Y213936D01*
X108496Y214008D01*
X108546Y214058D01*
X108580Y214086D01*
X108585Y214097D01*
X108591D01*
X108685Y214174D01*
X108774Y214235D01*
X108862Y214291D01*
X108940Y214335D01*
X109007Y214369D01*
X109057Y214391D01*
X109090Y214402D01*
X109096Y214407D01*
X109101D01*
X109162Y214430D01*
X109218Y214441D01*
X109273Y214452D01*
X109323Y214457D01*
X109368Y214463D01*
X109401D01*
X109423D01*
X109429D01*
Y211915D01*
D02*
G37*
G36*
Y208930D02*
X108974D01*
Y210822D01*
X108879Y210755D01*
X108840Y210722D01*
X108801Y210695D01*
X108768Y210667D01*
X108746Y210645D01*
X108729Y210628D01*
X108724Y210622D01*
X108696Y210595D01*
X108668Y210561D01*
X108596Y210484D01*
X108513Y210395D01*
X108430Y210300D01*
X108358Y210212D01*
X108324Y210173D01*
X108291Y210139D01*
X108269Y210112D01*
X108252Y210089D01*
X108241Y210078D01*
X108235Y210073D01*
X108158Y209984D01*
X108086Y209895D01*
X108013Y209818D01*
X107952Y209745D01*
X107891Y209679D01*
X107836Y209623D01*
X107786Y209568D01*
X107741Y209523D01*
X107697Y209479D01*
X107664Y209446D01*
X107636Y209418D01*
X107608Y209390D01*
X107575Y209363D01*
X107564Y209351D01*
X107469Y209274D01*
X107386Y209207D01*
X107303Y209152D01*
X107236Y209107D01*
X107175Y209074D01*
X107131Y209052D01*
X107103Y209041D01*
X107092Y209035D01*
X107009Y209002D01*
X106926Y208980D01*
X106848Y208957D01*
X106781Y208946D01*
X106720Y208941D01*
X106676Y208935D01*
X106648D01*
X106637D01*
X106554Y208941D01*
X106476Y208952D01*
X106398Y208963D01*
X106332Y208985D01*
X106199Y209041D01*
X106093Y209096D01*
X106043Y209129D01*
X106004Y209157D01*
X105965Y209185D01*
X105938Y209213D01*
X105915Y209235D01*
X105893Y209246D01*
X105888Y209257D01*
X105882Y209263D01*
X105827Y209324D01*
X105777Y209390D01*
X105738Y209462D01*
X105705Y209535D01*
X105649Y209679D01*
X105610Y209823D01*
X105599Y209884D01*
X105588Y209945D01*
X105582Y210001D01*
X105577Y210045D01*
X105571Y210084D01*
Y210139D01*
X105577Y210239D01*
X105582Y210334D01*
X105599Y210422D01*
X105616Y210506D01*
X105638Y210583D01*
X105660Y210656D01*
X105688Y210722D01*
X105716Y210783D01*
X105743Y210839D01*
X105771Y210883D01*
X105793Y210922D01*
X105816Y210955D01*
X105832Y210983D01*
X105849Y211000D01*
X105854Y211011D01*
X105860Y211016D01*
X105915Y211072D01*
X105976Y211122D01*
X106043Y211172D01*
X106110Y211211D01*
X106243Y211277D01*
X106376Y211322D01*
X106437Y211338D01*
X106498Y211355D01*
X106548Y211366D01*
X106593Y211377D01*
X106631Y211383D01*
X106659D01*
X106676Y211388D01*
X106681D01*
X106731Y210905D01*
X106604Y210894D01*
X106493Y210872D01*
X106393Y210839D01*
X106315Y210800D01*
X106248Y210767D01*
X106204Y210733D01*
X106176Y210711D01*
X106165Y210700D01*
X106099Y210617D01*
X106049Y210528D01*
X106010Y210434D01*
X105988Y210350D01*
X105971Y210273D01*
X105965Y210206D01*
X105960Y210184D01*
Y210151D01*
X105965Y210034D01*
X105988Y209929D01*
X106021Y209840D01*
X106054Y209762D01*
X106093Y209701D01*
X106121Y209662D01*
X106143Y209634D01*
X106154Y209623D01*
X106232Y209557D01*
X106309Y209507D01*
X106387Y209468D01*
X106465Y209446D01*
X106526Y209429D01*
X106581Y209423D01*
X106615Y209418D01*
X106620D01*
X106626D01*
X106726Y209429D01*
X106831Y209451D01*
X106926Y209490D01*
X107014Y209529D01*
X107087Y209573D01*
X107148Y209612D01*
X107170Y209623D01*
X107186Y209634D01*
X107192Y209646D01*
X107197D01*
X107259Y209690D01*
X107320Y209745D01*
X107386Y209806D01*
X107453Y209873D01*
X107586Y210012D01*
X107719Y210151D01*
X107780Y210223D01*
X107836Y210284D01*
X107886Y210345D01*
X107930Y210395D01*
X107963Y210434D01*
X107991Y210467D01*
X108008Y210489D01*
X108013Y210495D01*
X108130Y210633D01*
X108241Y210761D01*
X108341Y210866D01*
X108424Y210950D01*
X108496Y211022D01*
X108546Y211072D01*
X108580Y211100D01*
X108585Y211111D01*
X108591D01*
X108685Y211188D01*
X108774Y211249D01*
X108862Y211305D01*
X108940Y211349D01*
X109007Y211383D01*
X109057Y211405D01*
X109090Y211416D01*
X109096Y211421D01*
X109101D01*
X109162Y211444D01*
X109218Y211455D01*
X109273Y211466D01*
X109323Y211472D01*
X109368Y211477D01*
X109401D01*
X109423D01*
X109429D01*
Y208930D01*
D02*
G37*
G36*
X154496Y242385D02*
X154418Y242274D01*
X154346Y242174D01*
X154274Y242091D01*
X154213Y242013D01*
X154157Y241958D01*
X154113Y241914D01*
X154085Y241886D01*
X154074Y241875D01*
X154030Y241841D01*
X153980Y241803D01*
X153880Y241741D01*
X153835Y241719D01*
X153802Y241697D01*
X153780Y241686D01*
X153769Y241680D01*
X153869Y241664D01*
X153963Y241647D01*
X154046Y241619D01*
X154130Y241597D01*
X154202Y241569D01*
X154268Y241536D01*
X154329Y241508D01*
X154385Y241481D01*
X154429Y241447D01*
X154474Y241420D01*
X154507Y241397D01*
X154535Y241375D01*
X154557Y241358D01*
X154574Y241342D01*
X154579Y241336D01*
X154585Y241331D01*
X154629Y241275D01*
X154674Y241220D01*
X154740Y241103D01*
X154785Y240987D01*
X154818Y240876D01*
X154840Y240781D01*
X154846Y240742D01*
Y240704D01*
X154851Y240676D01*
Y240654D01*
Y240642D01*
Y240637D01*
X154846Y240520D01*
X154829Y240415D01*
X154801Y240315D01*
X154773Y240232D01*
X154740Y240160D01*
X154718Y240104D01*
X154696Y240071D01*
X154690Y240065D01*
Y240060D01*
X154624Y239971D01*
X154557Y239893D01*
X154485Y239827D01*
X154418Y239777D01*
X154357Y239738D01*
X154307Y239716D01*
X154274Y239699D01*
X154268Y239693D01*
X154263D01*
X154213Y239677D01*
X154152Y239660D01*
X154030Y239632D01*
X153897Y239616D01*
X153774Y239599D01*
X153658Y239594D01*
X153608D01*
X153564Y239588D01*
X151782D01*
Y243429D01*
X152293D01*
Y241725D01*
X152947D01*
X153008Y241730D01*
X153053D01*
X153092Y241736D01*
X153120Y241741D01*
X153142D01*
X153153Y241747D01*
X153158D01*
X153247Y241775D01*
X153286Y241791D01*
X153319Y241808D01*
X153353Y241825D01*
X153375Y241836D01*
X153386Y241841D01*
X153392Y241847D01*
X153436Y241880D01*
X153480Y241919D01*
X153564Y242002D01*
X153602Y242041D01*
X153630Y242074D01*
X153647Y242097D01*
X153652Y242102D01*
X153708Y242180D01*
X153769Y242263D01*
X153830Y242352D01*
X153891Y242435D01*
X153941Y242513D01*
X153980Y242574D01*
X153997Y242596D01*
X154007Y242613D01*
X154019Y242624D01*
Y242629D01*
X154524Y243429D01*
X155156D01*
X154496Y242385D01*
D02*
G37*
G36*
X160218Y239571D02*
X159913D01*
X159857Y239666D01*
X159796Y239755D01*
X159724Y239843D01*
X159657Y239921D01*
X159591Y239988D01*
X159541Y240043D01*
X159519Y240060D01*
X159502Y240076D01*
X159496Y240082D01*
X159491Y240088D01*
X159374Y240182D01*
X159258Y240271D01*
X159147Y240348D01*
X159036Y240409D01*
X158941Y240465D01*
X158903Y240487D01*
X158869Y240504D01*
X158842Y240520D01*
X158819Y240526D01*
X158808Y240537D01*
X158803D01*
Y240992D01*
X158886Y240959D01*
X158969Y240920D01*
X159053Y240881D01*
X159130Y240842D01*
X159197Y240809D01*
X159252Y240781D01*
X159286Y240759D01*
X159291Y240754D01*
X159297D01*
X159397Y240692D01*
X159485Y240631D01*
X159563Y240576D01*
X159624Y240526D01*
X159680Y240487D01*
X159713Y240454D01*
X159741Y240432D01*
X159746Y240426D01*
Y243429D01*
X160218D01*
Y239571D01*
D02*
G37*
G36*
X157937Y242973D02*
X156044D01*
X156111Y242879D01*
X156144Y242840D01*
X156172Y242801D01*
X156200Y242768D01*
X156222Y242746D01*
X156239Y242729D01*
X156244Y242724D01*
X156272Y242696D01*
X156305Y242668D01*
X156383Y242596D01*
X156472Y242513D01*
X156566Y242430D01*
X156655Y242357D01*
X156694Y242324D01*
X156727Y242291D01*
X156755Y242269D01*
X156777Y242252D01*
X156788Y242241D01*
X156794Y242235D01*
X156882Y242158D01*
X156971Y242086D01*
X157049Y242013D01*
X157121Y241952D01*
X157188Y241891D01*
X157243Y241836D01*
X157299Y241786D01*
X157343Y241741D01*
X157387Y241697D01*
X157421Y241664D01*
X157449Y241636D01*
X157476Y241608D01*
X157504Y241575D01*
X157515Y241564D01*
X157593Y241470D01*
X157659Y241386D01*
X157715Y241303D01*
X157759Y241236D01*
X157793Y241175D01*
X157815Y241131D01*
X157826Y241103D01*
X157832Y241092D01*
X157865Y241009D01*
X157887Y240926D01*
X157909Y240848D01*
X157920Y240781D01*
X157926Y240720D01*
X157931Y240676D01*
Y240648D01*
Y240637D01*
X157926Y240554D01*
X157915Y240476D01*
X157904Y240398D01*
X157881Y240332D01*
X157826Y240198D01*
X157771Y240093D01*
X157737Y240043D01*
X157709Y240004D01*
X157682Y239965D01*
X157654Y239938D01*
X157632Y239915D01*
X157621Y239893D01*
X157609Y239888D01*
X157604Y239882D01*
X157543Y239827D01*
X157476Y239777D01*
X157404Y239738D01*
X157332Y239705D01*
X157188Y239649D01*
X157043Y239610D01*
X156982Y239599D01*
X156921Y239588D01*
X156866Y239582D01*
X156821Y239577D01*
X156782Y239571D01*
X156727D01*
X156627Y239577D01*
X156533Y239582D01*
X156444Y239599D01*
X156361Y239616D01*
X156283Y239638D01*
X156211Y239660D01*
X156144Y239688D01*
X156083Y239716D01*
X156028Y239743D01*
X155983Y239771D01*
X155945Y239793D01*
X155911Y239816D01*
X155883Y239832D01*
X155867Y239849D01*
X155856Y239854D01*
X155850Y239860D01*
X155795Y239915D01*
X155745Y239977D01*
X155695Y240043D01*
X155656Y240110D01*
X155589Y240243D01*
X155545Y240376D01*
X155528Y240437D01*
X155512Y240498D01*
X155500Y240548D01*
X155489Y240593D01*
X155484Y240631D01*
Y240659D01*
X155478Y240676D01*
Y240681D01*
X155961Y240731D01*
X155972Y240604D01*
X155994Y240493D01*
X156028Y240393D01*
X156067Y240315D01*
X156100Y240248D01*
X156133Y240204D01*
X156155Y240176D01*
X156167Y240165D01*
X156250Y240099D01*
X156339Y240049D01*
X156433Y240010D01*
X156516Y239988D01*
X156594Y239971D01*
X156660Y239965D01*
X156683Y239960D01*
X156716D01*
X156833Y239965D01*
X156938Y239988D01*
X157027Y240021D01*
X157104Y240054D01*
X157166Y240093D01*
X157204Y240121D01*
X157232Y240143D01*
X157243Y240154D01*
X157310Y240232D01*
X157360Y240310D01*
X157399Y240387D01*
X157421Y240465D01*
X157437Y240526D01*
X157443Y240581D01*
X157449Y240615D01*
Y240620D01*
Y240626D01*
X157437Y240726D01*
X157415Y240831D01*
X157376Y240926D01*
X157338Y241014D01*
X157293Y241087D01*
X157254Y241148D01*
X157243Y241170D01*
X157232Y241186D01*
X157221Y241192D01*
Y241197D01*
X157177Y241259D01*
X157121Y241320D01*
X157060Y241386D01*
X156993Y241453D01*
X156855Y241586D01*
X156716Y241719D01*
X156644Y241780D01*
X156583Y241836D01*
X156522Y241886D01*
X156472Y241930D01*
X156433Y241963D01*
X156400Y241991D01*
X156377Y242008D01*
X156372Y242013D01*
X156233Y242130D01*
X156105Y242241D01*
X156000Y242341D01*
X155917Y242424D01*
X155845Y242496D01*
X155795Y242546D01*
X155767Y242580D01*
X155756Y242585D01*
Y242591D01*
X155678Y242685D01*
X155617Y242774D01*
X155562Y242863D01*
X155517Y242940D01*
X155484Y243007D01*
X155462Y243057D01*
X155450Y243090D01*
X155445Y243096D01*
Y243101D01*
X155423Y243162D01*
X155412Y243218D01*
X155401Y243273D01*
X155395Y243323D01*
X155389Y243368D01*
Y243401D01*
Y243423D01*
Y243429D01*
X157937D01*
Y242973D01*
D02*
G37*
G36*
X104711Y157363D02*
X104772Y157274D01*
X104844Y157185D01*
X104910Y157108D01*
X104977Y157041D01*
X105027Y156985D01*
X105049Y156969D01*
X105066Y156952D01*
X105071Y156947D01*
X105077Y156941D01*
X105193Y156847D01*
X105310Y156758D01*
X105421Y156680D01*
X105532Y156619D01*
X105626Y156564D01*
X105665Y156542D01*
X105699Y156525D01*
X105726Y156508D01*
X105748Y156503D01*
X105760Y156492D01*
X105765D01*
Y156036D01*
X105682Y156070D01*
X105599Y156109D01*
X105515Y156148D01*
X105438Y156186D01*
X105371Y156220D01*
X105316Y156247D01*
X105282Y156270D01*
X105277Y156275D01*
X105271D01*
X105171Y156336D01*
X105082Y156397D01*
X105005Y156453D01*
X104944Y156503D01*
X104888Y156542D01*
X104855Y156575D01*
X104827Y156597D01*
X104822Y156603D01*
Y153600D01*
X104350D01*
Y157457D01*
X104655D01*
X104711Y157363D01*
D02*
G37*
G36*
X102030Y157452D02*
X102119Y157441D01*
X102208Y157424D01*
X102285Y157402D01*
X102435Y157341D01*
X102502Y157313D01*
X102557Y157280D01*
X102613Y157241D01*
X102657Y157213D01*
X102701Y157180D01*
X102735Y157152D01*
X102763Y157130D01*
X102779Y157113D01*
X102790Y157102D01*
X102796Y157097D01*
X102857Y157030D01*
X102907Y156952D01*
X102957Y156880D01*
X102996Y156802D01*
X103029Y156719D01*
X103057Y156641D01*
X103096Y156497D01*
X103112Y156425D01*
X103123Y156364D01*
X103129Y156303D01*
X103134Y156253D01*
X103140Y156214D01*
Y156186D01*
Y156164D01*
Y156158D01*
X103134Y156053D01*
X103123Y155959D01*
X103112Y155864D01*
X103090Y155776D01*
X103062Y155698D01*
X103034Y155620D01*
X103007Y155554D01*
X102973Y155493D01*
X102946Y155437D01*
X102918Y155387D01*
X102890Y155348D01*
X102863Y155309D01*
X102840Y155282D01*
X102829Y155265D01*
X102818Y155254D01*
X102813Y155248D01*
X102752Y155187D01*
X102685Y155137D01*
X102618Y155087D01*
X102546Y155049D01*
X102480Y155015D01*
X102413Y154988D01*
X102285Y154949D01*
X102230Y154932D01*
X102174Y154921D01*
X102130Y154915D01*
X102085Y154910D01*
X102052Y154904D01*
X102008D01*
X101902Y154910D01*
X101802Y154926D01*
X101714Y154949D01*
X101630Y154976D01*
X101569Y154999D01*
X101519Y155021D01*
X101486Y155037D01*
X101475Y155043D01*
X101386Y155098D01*
X101309Y155159D01*
X101242Y155221D01*
X101186Y155276D01*
X101148Y155332D01*
X101114Y155370D01*
X101092Y155398D01*
X101086Y155409D01*
Y155365D01*
Y155337D01*
Y155321D01*
Y155315D01*
X101092Y155204D01*
X101098Y155098D01*
X101109Y155004D01*
X101120Y154915D01*
X101137Y154843D01*
X101148Y154788D01*
X101153Y154765D01*
Y154749D01*
X101159Y154743D01*
Y154738D01*
X101186Y154638D01*
X101214Y154549D01*
X101242Y154471D01*
X101270Y154405D01*
X101292Y154355D01*
X101314Y154316D01*
X101325Y154288D01*
X101331Y154283D01*
X101375Y154222D01*
X101419Y154172D01*
X101464Y154127D01*
X101508Y154088D01*
X101542Y154055D01*
X101575Y154033D01*
X101597Y154022D01*
X101603Y154016D01*
X101664Y153983D01*
X101730Y153961D01*
X101791Y153944D01*
X101852Y153933D01*
X101902Y153927D01*
X101941Y153922D01*
X101980D01*
X102069Y153927D01*
X102152Y153944D01*
X102224Y153966D01*
X102285Y153994D01*
X102330Y154016D01*
X102369Y154038D01*
X102391Y154055D01*
X102396Y154061D01*
X102452Y154122D01*
X102496Y154194D01*
X102535Y154272D01*
X102563Y154349D01*
X102585Y154416D01*
X102602Y154477D01*
X102607Y154499D01*
Y154510D01*
X102613Y154521D01*
Y154527D01*
X103068Y154488D01*
X103034Y154327D01*
X102990Y154188D01*
X102935Y154066D01*
X102879Y153966D01*
X102824Y153889D01*
X102796Y153855D01*
X102774Y153828D01*
X102757Y153811D01*
X102740Y153794D01*
X102735Y153789D01*
X102729Y153783D01*
X102674Y153739D01*
X102613Y153700D01*
X102491Y153639D01*
X102369Y153595D01*
X102252Y153567D01*
X102147Y153544D01*
X102102Y153539D01*
X102063D01*
X102036Y153533D01*
X101991D01*
X101836Y153544D01*
X101697Y153567D01*
X101569Y153605D01*
X101464Y153650D01*
X101419Y153667D01*
X101375Y153689D01*
X101342Y153711D01*
X101309Y153728D01*
X101286Y153739D01*
X101270Y153750D01*
X101259Y153761D01*
X101253D01*
X101142Y153855D01*
X101042Y153961D01*
X100964Y154072D01*
X100898Y154177D01*
X100842Y154272D01*
X100820Y154316D01*
X100803Y154349D01*
X100792Y154383D01*
X100781Y154405D01*
X100776Y154416D01*
Y154421D01*
X100748Y154505D01*
X100720Y154599D01*
X100681Y154788D01*
X100654Y154988D01*
X100637Y155176D01*
X100626Y155259D01*
X100620Y155343D01*
Y155415D01*
X100615Y155476D01*
Y155526D01*
Y155565D01*
Y155593D01*
Y155598D01*
Y155726D01*
X100620Y155848D01*
X100631Y155959D01*
X100643Y156064D01*
X100654Y156158D01*
X100665Y156247D01*
X100681Y156331D01*
X100698Y156403D01*
X100715Y156464D01*
X100726Y156519D01*
X100742Y156569D01*
X100753Y156608D01*
X100765Y156636D01*
X100776Y156658D01*
X100781Y156669D01*
Y156675D01*
X100848Y156808D01*
X100920Y156924D01*
X101003Y157024D01*
X101075Y157108D01*
X101148Y157169D01*
X101203Y157213D01*
X101225Y157230D01*
X101242Y157241D01*
X101248Y157252D01*
X101253D01*
X101370Y157318D01*
X101486Y157369D01*
X101603Y157407D01*
X101708Y157430D01*
X101802Y157446D01*
X101841Y157452D01*
X101869D01*
X101897Y157457D01*
X101936D01*
X102030Y157452D01*
D02*
G37*
G36*
X109800Y153600D02*
X109289D01*
Y155304D01*
X108634D01*
X108573Y155298D01*
X108529D01*
X108490Y155293D01*
X108462Y155287D01*
X108440D01*
X108429Y155282D01*
X108424D01*
X108335Y155254D01*
X108296Y155237D01*
X108263Y155221D01*
X108229Y155204D01*
X108207Y155193D01*
X108196Y155187D01*
X108191Y155182D01*
X108146Y155148D01*
X108102Y155110D01*
X108019Y155026D01*
X107980Y154988D01*
X107952Y154954D01*
X107935Y154932D01*
X107930Y154926D01*
X107874Y154849D01*
X107813Y154765D01*
X107752Y154677D01*
X107691Y154594D01*
X107641Y154516D01*
X107602Y154455D01*
X107586Y154432D01*
X107574Y154416D01*
X107563Y154405D01*
Y154399D01*
X107058Y153600D01*
X106426D01*
X107086Y154643D01*
X107164Y154754D01*
X107236Y154854D01*
X107308Y154938D01*
X107369Y155015D01*
X107425Y155071D01*
X107469Y155115D01*
X107497Y155143D01*
X107508Y155154D01*
X107552Y155187D01*
X107602Y155226D01*
X107702Y155287D01*
X107747Y155309D01*
X107780Y155332D01*
X107802Y155343D01*
X107813Y155348D01*
X107713Y155365D01*
X107619Y155382D01*
X107536Y155409D01*
X107452Y155431D01*
X107380Y155459D01*
X107314Y155493D01*
X107253Y155520D01*
X107197Y155548D01*
X107153Y155581D01*
X107108Y155609D01*
X107075Y155631D01*
X107047Y155654D01*
X107025Y155670D01*
X107008Y155687D01*
X107003Y155692D01*
X106997Y155698D01*
X106953Y155753D01*
X106908Y155809D01*
X106842Y155926D01*
X106798Y156042D01*
X106764Y156153D01*
X106742Y156247D01*
X106736Y156286D01*
Y156325D01*
X106731Y156353D01*
Y156375D01*
Y156386D01*
Y156392D01*
X106736Y156508D01*
X106753Y156614D01*
X106781Y156714D01*
X106808Y156797D01*
X106842Y156869D01*
X106864Y156924D01*
X106886Y156958D01*
X106892Y156963D01*
Y156969D01*
X106958Y157058D01*
X107025Y157135D01*
X107097Y157202D01*
X107164Y157252D01*
X107225Y157291D01*
X107275Y157313D01*
X107308Y157330D01*
X107314Y157335D01*
X107319D01*
X107369Y157352D01*
X107430Y157369D01*
X107552Y157396D01*
X107685Y157413D01*
X107808Y157430D01*
X107924Y157435D01*
X107974D01*
X108019Y157441D01*
X109800D01*
Y153600D01*
D02*
G37*
G36*
X151711Y157363D02*
X151772Y157274D01*
X151844Y157185D01*
X151910Y157108D01*
X151977Y157041D01*
X152027Y156985D01*
X152049Y156969D01*
X152066Y156952D01*
X152071Y156947D01*
X152077Y156941D01*
X152193Y156847D01*
X152310Y156758D01*
X152421Y156680D01*
X152532Y156619D01*
X152626Y156564D01*
X152665Y156542D01*
X152699Y156525D01*
X152726Y156508D01*
X152749Y156503D01*
X152760Y156492D01*
X152765D01*
Y156036D01*
X152682Y156070D01*
X152599Y156109D01*
X152515Y156148D01*
X152438Y156186D01*
X152371Y156220D01*
X152316Y156247D01*
X152282Y156270D01*
X152277Y156275D01*
X152271D01*
X152171Y156336D01*
X152083Y156397D01*
X152005Y156453D01*
X151944Y156503D01*
X151888Y156542D01*
X151855Y156575D01*
X151827Y156597D01*
X151822Y156603D01*
Y153600D01*
X151350D01*
Y157457D01*
X151655D01*
X151711Y157363D01*
D02*
G37*
G36*
X156800Y153600D02*
X156289D01*
Y155304D01*
X155634D01*
X155573Y155298D01*
X155529D01*
X155490Y155293D01*
X155462Y155287D01*
X155440D01*
X155429Y155282D01*
X155424D01*
X155335Y155254D01*
X155296Y155237D01*
X155263Y155221D01*
X155229Y155204D01*
X155207Y155193D01*
X155196Y155187D01*
X155191Y155182D01*
X155146Y155148D01*
X155102Y155110D01*
X155018Y155026D01*
X154980Y154988D01*
X154952Y154954D01*
X154935Y154932D01*
X154930Y154926D01*
X154874Y154849D01*
X154813Y154765D01*
X154752Y154677D01*
X154691Y154594D01*
X154641Y154516D01*
X154602Y154455D01*
X154586Y154432D01*
X154575Y154416D01*
X154563Y154405D01*
Y154399D01*
X154058Y153600D01*
X153426D01*
X154086Y154643D01*
X154164Y154754D01*
X154236Y154854D01*
X154308Y154938D01*
X154369Y155015D01*
X154425Y155071D01*
X154469Y155115D01*
X154497Y155143D01*
X154508Y155154D01*
X154552Y155187D01*
X154602Y155226D01*
X154702Y155287D01*
X154746Y155309D01*
X154780Y155332D01*
X154802Y155343D01*
X154813Y155348D01*
X154713Y155365D01*
X154619Y155382D01*
X154536Y155409D01*
X154452Y155431D01*
X154380Y155459D01*
X154314Y155493D01*
X154253Y155520D01*
X154197Y155548D01*
X154153Y155581D01*
X154108Y155609D01*
X154075Y155631D01*
X154047Y155654D01*
X154025Y155670D01*
X154008Y155687D01*
X154003Y155692D01*
X153997Y155698D01*
X153953Y155753D01*
X153908Y155809D01*
X153842Y155926D01*
X153797Y156042D01*
X153764Y156153D01*
X153742Y156247D01*
X153736Y156286D01*
Y156325D01*
X153731Y156353D01*
Y156375D01*
Y156386D01*
Y156392D01*
X153736Y156508D01*
X153753Y156614D01*
X153781Y156714D01*
X153808Y156797D01*
X153842Y156869D01*
X153864Y156924D01*
X153886Y156958D01*
X153892Y156963D01*
Y156969D01*
X153958Y157058D01*
X154025Y157135D01*
X154097Y157202D01*
X154164Y157252D01*
X154225Y157291D01*
X154275Y157313D01*
X154308Y157330D01*
X154314Y157335D01*
X154319D01*
X154369Y157352D01*
X154430Y157369D01*
X154552Y157396D01*
X154685Y157413D01*
X154807Y157430D01*
X154924Y157435D01*
X154974D01*
X155018Y157441D01*
X156800D01*
Y153600D01*
D02*
G37*
G36*
X148980Y157452D02*
X149069Y157446D01*
X149224Y157413D01*
X149296Y157391D01*
X149363Y157369D01*
X149424Y157341D01*
X149479Y157313D01*
X149524Y157285D01*
X149568Y157257D01*
X149607Y157235D01*
X149635Y157213D01*
X149657Y157196D01*
X149674Y157180D01*
X149685Y157174D01*
X149690Y157169D01*
X149740Y157113D01*
X149790Y157058D01*
X149829Y156997D01*
X149863Y156936D01*
X149918Y156819D01*
X149951Y156708D01*
X149973Y156614D01*
X149979Y156569D01*
X149985Y156536D01*
X149990Y156503D01*
Y156480D01*
Y156469D01*
Y156464D01*
X149985Y156364D01*
X149968Y156270D01*
X149946Y156186D01*
X149918Y156114D01*
X149896Y156059D01*
X149874Y156014D01*
X149857Y155992D01*
X149851Y155981D01*
X149790Y155914D01*
X149724Y155853D01*
X149652Y155798D01*
X149579Y155753D01*
X149513Y155720D01*
X149463Y155698D01*
X149441Y155687D01*
X149424Y155681D01*
X149418Y155676D01*
X149413D01*
X149541Y155637D01*
X149646Y155587D01*
X149740Y155526D01*
X149818Y155470D01*
X149879Y155415D01*
X149924Y155370D01*
X149946Y155343D01*
X149957Y155337D01*
Y155332D01*
X150018Y155232D01*
X150068Y155126D01*
X150101Y155026D01*
X150123Y154926D01*
X150134Y154838D01*
X150140Y154799D01*
Y154765D01*
X150146Y154743D01*
Y154721D01*
Y154710D01*
Y154704D01*
X150140Y154616D01*
X150129Y154527D01*
X150112Y154444D01*
X150090Y154360D01*
X150034Y154222D01*
X150007Y154155D01*
X149973Y154100D01*
X149940Y154044D01*
X149912Y154000D01*
X149879Y153961D01*
X149857Y153927D01*
X149835Y153900D01*
X149818Y153883D01*
X149807Y153872D01*
X149801Y153866D01*
X149735Y153805D01*
X149663Y153755D01*
X149585Y153711D01*
X149507Y153672D01*
X149435Y153644D01*
X149357Y153617D01*
X149208Y153578D01*
X149141Y153561D01*
X149080Y153550D01*
X149024Y153544D01*
X148975Y153539D01*
X148936Y153533D01*
X148880D01*
X148775Y153539D01*
X148680Y153550D01*
X148586Y153567D01*
X148497Y153583D01*
X148419Y153611D01*
X148342Y153639D01*
X148270Y153667D01*
X148209Y153700D01*
X148153Y153733D01*
X148103Y153761D01*
X148064Y153789D01*
X148026Y153816D01*
X147998Y153833D01*
X147981Y153850D01*
X147970Y153861D01*
X147964Y153866D01*
X147903Y153933D01*
X147848Y154000D01*
X147803Y154066D01*
X147765Y154138D01*
X147726Y154205D01*
X147698Y154277D01*
X147659Y154405D01*
X147643Y154466D01*
X147631Y154521D01*
X147626Y154571D01*
X147620Y154610D01*
X147615Y154643D01*
Y154671D01*
Y154688D01*
Y154693D01*
X147620Y154821D01*
X147643Y154938D01*
X147676Y155043D01*
X147709Y155132D01*
X147742Y155204D01*
X147776Y155259D01*
X147798Y155293D01*
X147803Y155298D01*
Y155304D01*
X147881Y155393D01*
X147964Y155470D01*
X148053Y155531D01*
X148136Y155587D01*
X148214Y155626D01*
X148281Y155654D01*
X148303Y155665D01*
X148320Y155670D01*
X148331Y155676D01*
X148336D01*
X148236Y155720D01*
X148153Y155770D01*
X148081Y155820D01*
X148020Y155870D01*
X147976Y155914D01*
X147942Y155948D01*
X147920Y155970D01*
X147915Y155981D01*
X147864Y156059D01*
X147831Y156136D01*
X147803Y156214D01*
X147787Y156292D01*
X147776Y156353D01*
X147770Y156403D01*
Y156436D01*
Y156442D01*
Y156447D01*
X147776Y156525D01*
X147781Y156597D01*
X147820Y156736D01*
X147870Y156858D01*
X147925Y156963D01*
X147981Y157047D01*
X148009Y157080D01*
X148031Y157113D01*
X148053Y157135D01*
X148070Y157152D01*
X148075Y157158D01*
X148081Y157163D01*
X148142Y157213D01*
X148203Y157263D01*
X148270Y157302D01*
X148336Y157335D01*
X148469Y157385D01*
X148603Y157418D01*
X148658Y157435D01*
X148714Y157441D01*
X148764Y157446D01*
X148808Y157452D01*
X148841Y157457D01*
X148891D01*
X148980Y157452D01*
D02*
G37*
G36*
X104711Y150963D02*
X104772Y150874D01*
X104844Y150785D01*
X104910Y150708D01*
X104977Y150641D01*
X105027Y150585D01*
X105049Y150569D01*
X105066Y150552D01*
X105071Y150547D01*
X105077Y150541D01*
X105193Y150447D01*
X105310Y150358D01*
X105421Y150280D01*
X105532Y150219D01*
X105626Y150164D01*
X105665Y150142D01*
X105699Y150125D01*
X105726Y150108D01*
X105748Y150103D01*
X105760Y150092D01*
X105765D01*
Y149636D01*
X105682Y149670D01*
X105599Y149709D01*
X105515Y149748D01*
X105438Y149786D01*
X105371Y149820D01*
X105316Y149847D01*
X105282Y149870D01*
X105277Y149875D01*
X105271D01*
X105171Y149936D01*
X105082Y149997D01*
X105005Y150053D01*
X104944Y150103D01*
X104888Y150142D01*
X104855Y150175D01*
X104827Y150197D01*
X104822Y150203D01*
Y147200D01*
X104350D01*
Y151057D01*
X104655D01*
X104711Y150963D01*
D02*
G37*
G36*
X109800Y147200D02*
X109289D01*
Y148904D01*
X108634D01*
X108573Y148898D01*
X108529D01*
X108490Y148893D01*
X108462Y148887D01*
X108440D01*
X108429Y148882D01*
X108424D01*
X108335Y148854D01*
X108296Y148837D01*
X108263Y148821D01*
X108229Y148804D01*
X108207Y148793D01*
X108196Y148787D01*
X108191Y148782D01*
X108146Y148749D01*
X108102Y148710D01*
X108019Y148626D01*
X107980Y148588D01*
X107952Y148554D01*
X107935Y148532D01*
X107930Y148526D01*
X107874Y148449D01*
X107813Y148365D01*
X107752Y148277D01*
X107691Y148194D01*
X107641Y148116D01*
X107602Y148055D01*
X107586Y148032D01*
X107574Y148016D01*
X107563Y148005D01*
Y147999D01*
X107058Y147200D01*
X106426D01*
X107086Y148243D01*
X107164Y148354D01*
X107236Y148454D01*
X107308Y148538D01*
X107369Y148615D01*
X107425Y148671D01*
X107469Y148715D01*
X107497Y148743D01*
X107508Y148754D01*
X107552Y148787D01*
X107602Y148826D01*
X107702Y148887D01*
X107747Y148909D01*
X107780Y148932D01*
X107802Y148943D01*
X107813Y148948D01*
X107713Y148965D01*
X107619Y148981D01*
X107536Y149009D01*
X107452Y149031D01*
X107380Y149059D01*
X107314Y149093D01*
X107253Y149120D01*
X107197Y149148D01*
X107153Y149181D01*
X107108Y149209D01*
X107075Y149231D01*
X107047Y149253D01*
X107025Y149270D01*
X107008Y149287D01*
X107003Y149292D01*
X106997Y149298D01*
X106953Y149353D01*
X106908Y149409D01*
X106842Y149525D01*
X106798Y149642D01*
X106764Y149753D01*
X106742Y149847D01*
X106736Y149886D01*
Y149925D01*
X106731Y149953D01*
Y149975D01*
Y149986D01*
Y149992D01*
X106736Y150108D01*
X106753Y150214D01*
X106781Y150314D01*
X106808Y150397D01*
X106842Y150469D01*
X106864Y150524D01*
X106886Y150558D01*
X106892Y150563D01*
Y150569D01*
X106958Y150658D01*
X107025Y150735D01*
X107097Y150802D01*
X107164Y150852D01*
X107225Y150891D01*
X107275Y150913D01*
X107308Y150930D01*
X107314Y150935D01*
X107319D01*
X107369Y150952D01*
X107430Y150969D01*
X107552Y150996D01*
X107685Y151013D01*
X107808Y151030D01*
X107924Y151035D01*
X107974D01*
X108019Y151041D01*
X109800D01*
Y147200D01*
D02*
G37*
G36*
X103107Y150536D02*
X101225D01*
X101358Y150375D01*
X101486Y150203D01*
X101597Y150036D01*
X101702Y149875D01*
X101747Y149803D01*
X101786Y149736D01*
X101825Y149675D01*
X101852Y149625D01*
X101875Y149581D01*
X101891Y149553D01*
X101902Y149531D01*
X101908Y149525D01*
X102019Y149303D01*
X102119Y149081D01*
X102202Y148871D01*
X102235Y148776D01*
X102269Y148682D01*
X102302Y148599D01*
X102324Y148521D01*
X102346Y148454D01*
X102363Y148399D01*
X102380Y148349D01*
X102391Y148316D01*
X102396Y148293D01*
Y148288D01*
X102452Y148060D01*
X102474Y147949D01*
X102491Y147849D01*
X102507Y147755D01*
X102524Y147661D01*
X102535Y147583D01*
X102546Y147505D01*
X102552Y147439D01*
X102557Y147378D01*
X102563Y147322D01*
Y147278D01*
X102568Y147244D01*
Y147222D01*
Y147205D01*
Y147200D01*
X102085D01*
X102069Y147411D01*
X102041Y147605D01*
X102013Y147783D01*
X101997Y147866D01*
X101980Y147944D01*
X101969Y148010D01*
X101952Y148071D01*
X101941Y148127D01*
X101930Y148171D01*
X101919Y148205D01*
X101913Y148232D01*
X101908Y148249D01*
Y148255D01*
X101825Y148510D01*
X101736Y148749D01*
X101691Y148865D01*
X101647Y148976D01*
X101597Y149076D01*
X101553Y149176D01*
X101514Y149265D01*
X101475Y149342D01*
X101442Y149409D01*
X101414Y149470D01*
X101386Y149520D01*
X101370Y149553D01*
X101358Y149575D01*
X101353Y149581D01*
X101286Y149697D01*
X101220Y149814D01*
X101153Y149919D01*
X101086Y150019D01*
X101025Y150108D01*
X100964Y150197D01*
X100903Y150275D01*
X100853Y150341D01*
X100803Y150408D01*
X100759Y150463D01*
X100715Y150508D01*
X100681Y150547D01*
X100659Y150580D01*
X100637Y150602D01*
X100626Y150613D01*
X100620Y150619D01*
Y150991D01*
X103107D01*
Y150536D01*
D02*
G37*
G36*
X151711Y150963D02*
X151772Y150874D01*
X151844Y150785D01*
X151910Y150708D01*
X151977Y150641D01*
X152027Y150585D01*
X152049Y150569D01*
X152066Y150552D01*
X152071Y150547D01*
X152077Y150541D01*
X152193Y150447D01*
X152310Y150358D01*
X152421Y150280D01*
X152532Y150219D01*
X152626Y150164D01*
X152665Y150142D01*
X152699Y150125D01*
X152726Y150108D01*
X152749Y150103D01*
X152760Y150092D01*
X152765D01*
Y149636D01*
X152682Y149670D01*
X152599Y149709D01*
X152515Y149748D01*
X152438Y149786D01*
X152371Y149820D01*
X152316Y149847D01*
X152282Y149870D01*
X152277Y149875D01*
X152271D01*
X152171Y149936D01*
X152083Y149997D01*
X152005Y150053D01*
X151944Y150103D01*
X151888Y150142D01*
X151855Y150175D01*
X151827Y150197D01*
X151822Y150203D01*
Y147200D01*
X151350D01*
Y151057D01*
X151655D01*
X151711Y150963D01*
D02*
G37*
G36*
X148891Y151052D02*
X148997Y151041D01*
X149097Y151018D01*
X149191Y150991D01*
X149274Y150952D01*
X149357Y150918D01*
X149430Y150874D01*
X149496Y150835D01*
X149552Y150796D01*
X149607Y150752D01*
X149652Y150719D01*
X149685Y150685D01*
X149713Y150652D01*
X149735Y150630D01*
X149746Y150619D01*
X149751Y150613D01*
X149824Y150513D01*
X149885Y150397D01*
X149940Y150275D01*
X149990Y150147D01*
X150029Y150014D01*
X150062Y149881D01*
X150090Y149742D01*
X150112Y149614D01*
X150129Y149487D01*
X150140Y149370D01*
X150151Y149265D01*
X150157Y149176D01*
Y149098D01*
X150162Y149043D01*
Y149020D01*
Y149004D01*
Y148998D01*
Y148993D01*
X150157Y148815D01*
X150146Y148649D01*
X150129Y148493D01*
X150101Y148349D01*
X150073Y148221D01*
X150046Y148105D01*
X150012Y147999D01*
X149973Y147905D01*
X149940Y147827D01*
X149907Y147755D01*
X149879Y147699D01*
X149846Y147650D01*
X149824Y147611D01*
X149807Y147589D01*
X149796Y147572D01*
X149790Y147566D01*
X149718Y147489D01*
X149641Y147422D01*
X149563Y147366D01*
X149485Y147317D01*
X149402Y147272D01*
X149324Y147239D01*
X149247Y147211D01*
X149169Y147189D01*
X149102Y147172D01*
X149036Y147156D01*
X148980Y147144D01*
X148930Y147139D01*
X148886D01*
X148858Y147133D01*
X148830D01*
X148703Y147139D01*
X148586Y147161D01*
X148480Y147183D01*
X148386Y147217D01*
X148314Y147244D01*
X148258Y147272D01*
X148236Y147278D01*
X148220Y147289D01*
X148214Y147294D01*
X148209D01*
X148114Y147361D01*
X148026Y147439D01*
X147953Y147516D01*
X147892Y147594D01*
X147842Y147666D01*
X147809Y147722D01*
X147798Y147744D01*
X147787Y147760D01*
X147781Y147766D01*
Y147772D01*
X147726Y147888D01*
X147687Y148010D01*
X147659Y148121D01*
X147643Y148227D01*
X147626Y148316D01*
Y148349D01*
X147620Y148382D01*
Y148410D01*
Y148426D01*
Y148438D01*
Y148443D01*
X147626Y148543D01*
X147637Y148637D01*
X147654Y148732D01*
X147670Y148815D01*
X147698Y148893D01*
X147726Y148970D01*
X147754Y149037D01*
X147787Y149098D01*
X147820Y149154D01*
X147848Y149204D01*
X147876Y149242D01*
X147903Y149281D01*
X147920Y149309D01*
X147937Y149326D01*
X147948Y149337D01*
X147953Y149342D01*
X148014Y149403D01*
X148081Y149459D01*
X148153Y149503D01*
X148220Y149542D01*
X148286Y149581D01*
X148353Y149609D01*
X148480Y149648D01*
X148536Y149664D01*
X148592Y149675D01*
X148636Y149681D01*
X148680Y149686D01*
X148714Y149692D01*
X148758D01*
X148858Y149686D01*
X148952Y149670D01*
X149041Y149653D01*
X149119Y149631D01*
X149185Y149603D01*
X149235Y149586D01*
X149269Y149570D01*
X149274Y149564D01*
X149280D01*
X149369Y149509D01*
X149446Y149448D01*
X149518Y149387D01*
X149574Y149320D01*
X149624Y149265D01*
X149663Y149220D01*
X149685Y149187D01*
X149690Y149181D01*
Y149281D01*
X149685Y149381D01*
X149679Y149470D01*
X149668Y149559D01*
X149663Y149636D01*
X149652Y149709D01*
X149641Y149775D01*
X149624Y149836D01*
X149613Y149892D01*
X149602Y149936D01*
X149591Y149975D01*
X149585Y150008D01*
X149574Y150031D01*
X149568Y150047D01*
X149563Y150058D01*
Y150064D01*
X149507Y150175D01*
X149452Y150275D01*
X149391Y150352D01*
X149335Y150419D01*
X149285Y150475D01*
X149247Y150513D01*
X149219Y150536D01*
X149208Y150541D01*
X149141Y150585D01*
X149074Y150613D01*
X149008Y150635D01*
X148941Y150652D01*
X148891Y150663D01*
X148847Y150669D01*
X148808D01*
X148708Y150658D01*
X148614Y150635D01*
X148536Y150602D01*
X148464Y150569D01*
X148408Y150530D01*
X148370Y150497D01*
X148347Y150475D01*
X148336Y150463D01*
X148297Y150413D01*
X148258Y150352D01*
X148225Y150286D01*
X148203Y150219D01*
X148181Y150158D01*
X148164Y150108D01*
X148159Y150075D01*
X148153Y150069D01*
Y150064D01*
X147681Y150103D01*
X147715Y150258D01*
X147765Y150397D01*
X147820Y150519D01*
X147881Y150619D01*
X147942Y150697D01*
X147964Y150730D01*
X147992Y150758D01*
X148009Y150774D01*
X148026Y150791D01*
X148031Y150796D01*
X148037Y150802D01*
X148092Y150846D01*
X148153Y150885D01*
X148275Y150952D01*
X148397Y150996D01*
X148514Y151024D01*
X148619Y151046D01*
X148664Y151052D01*
X148703D01*
X148736Y151057D01*
X148780D01*
X148891Y151052D01*
D02*
G37*
G36*
X156800Y147200D02*
X156289D01*
Y148904D01*
X155634D01*
X155573Y148898D01*
X155529D01*
X155490Y148893D01*
X155462Y148887D01*
X155440D01*
X155429Y148882D01*
X155424D01*
X155335Y148854D01*
X155296Y148837D01*
X155263Y148821D01*
X155229Y148804D01*
X155207Y148793D01*
X155196Y148787D01*
X155191Y148782D01*
X155146Y148749D01*
X155102Y148710D01*
X155018Y148626D01*
X154980Y148588D01*
X154952Y148554D01*
X154935Y148532D01*
X154930Y148526D01*
X154874Y148449D01*
X154813Y148365D01*
X154752Y148277D01*
X154691Y148194D01*
X154641Y148116D01*
X154602Y148055D01*
X154586Y148032D01*
X154575Y148016D01*
X154563Y148005D01*
Y147999D01*
X154058Y147200D01*
X153426D01*
X154086Y148243D01*
X154164Y148354D01*
X154236Y148454D01*
X154308Y148538D01*
X154369Y148615D01*
X154425Y148671D01*
X154469Y148715D01*
X154497Y148743D01*
X154508Y148754D01*
X154552Y148787D01*
X154602Y148826D01*
X154702Y148887D01*
X154746Y148909D01*
X154780Y148932D01*
X154802Y148943D01*
X154813Y148948D01*
X154713Y148965D01*
X154619Y148981D01*
X154536Y149009D01*
X154452Y149031D01*
X154380Y149059D01*
X154314Y149093D01*
X154253Y149120D01*
X154197Y149148D01*
X154153Y149181D01*
X154108Y149209D01*
X154075Y149231D01*
X154047Y149253D01*
X154025Y149270D01*
X154008Y149287D01*
X154003Y149292D01*
X153997Y149298D01*
X153953Y149353D01*
X153908Y149409D01*
X153842Y149525D01*
X153797Y149642D01*
X153764Y149753D01*
X153742Y149847D01*
X153736Y149886D01*
Y149925D01*
X153731Y149953D01*
Y149975D01*
Y149986D01*
Y149992D01*
X153736Y150108D01*
X153753Y150214D01*
X153781Y150314D01*
X153808Y150397D01*
X153842Y150469D01*
X153864Y150524D01*
X153886Y150558D01*
X153892Y150563D01*
Y150569D01*
X153958Y150658D01*
X154025Y150735D01*
X154097Y150802D01*
X154164Y150852D01*
X154225Y150891D01*
X154275Y150913D01*
X154308Y150930D01*
X154314Y150935D01*
X154319D01*
X154369Y150952D01*
X154430Y150969D01*
X154552Y150996D01*
X154685Y151013D01*
X154807Y151030D01*
X154924Y151035D01*
X154974D01*
X155018Y151041D01*
X156800D01*
Y147200D01*
D02*
G37*
G36*
X104711Y144563D02*
X104772Y144474D01*
X104844Y144385D01*
X104910Y144308D01*
X104977Y144241D01*
X105027Y144185D01*
X105049Y144169D01*
X105066Y144152D01*
X105071Y144147D01*
X105077Y144141D01*
X105193Y144047D01*
X105310Y143958D01*
X105421Y143880D01*
X105532Y143819D01*
X105626Y143764D01*
X105665Y143742D01*
X105699Y143725D01*
X105726Y143708D01*
X105748Y143703D01*
X105760Y143692D01*
X105765D01*
Y143236D01*
X105682Y143270D01*
X105599Y143309D01*
X105515Y143348D01*
X105438Y143386D01*
X105371Y143420D01*
X105316Y143447D01*
X105282Y143470D01*
X105277Y143475D01*
X105271D01*
X105171Y143536D01*
X105082Y143597D01*
X105005Y143653D01*
X104944Y143703D01*
X104888Y143742D01*
X104855Y143775D01*
X104827Y143797D01*
X104822Y143802D01*
Y140800D01*
X104350D01*
Y144657D01*
X104655D01*
X104711Y144563D01*
D02*
G37*
G36*
X103057Y142615D02*
X102613Y142554D01*
X102574Y142615D01*
X102524Y142665D01*
X102480Y142715D01*
X102435Y142754D01*
X102391Y142781D01*
X102357Y142809D01*
X102335Y142820D01*
X102330Y142826D01*
X102258Y142859D01*
X102185Y142887D01*
X102119Y142903D01*
X102052Y142920D01*
X101997Y142926D01*
X101952Y142931D01*
X101847D01*
X101780Y142920D01*
X101664Y142892D01*
X101564Y142853D01*
X101475Y142815D01*
X101408Y142770D01*
X101358Y142731D01*
X101331Y142704D01*
X101320Y142698D01*
Y142693D01*
X101242Y142598D01*
X101186Y142498D01*
X101148Y142393D01*
X101120Y142287D01*
X101103Y142199D01*
X101098Y142160D01*
Y142126D01*
X101092Y142099D01*
Y142077D01*
Y142065D01*
Y142060D01*
Y141982D01*
X101103Y141910D01*
X101131Y141771D01*
X101170Y141655D01*
X101209Y141560D01*
X101253Y141483D01*
X101292Y141422D01*
X101309Y141405D01*
X101320Y141388D01*
X101325Y141383D01*
X101331Y141377D01*
X101375Y141333D01*
X101419Y141294D01*
X101519Y141227D01*
X101614Y141183D01*
X101708Y141155D01*
X101786Y141133D01*
X101852Y141127D01*
X101875Y141122D01*
X101908D01*
X102013Y141127D01*
X102108Y141150D01*
X102191Y141177D01*
X102258Y141211D01*
X102319Y141244D01*
X102363Y141272D01*
X102385Y141294D01*
X102396Y141299D01*
X102463Y141377D01*
X102518Y141460D01*
X102563Y141555D01*
X102596Y141638D01*
X102618Y141721D01*
X102635Y141782D01*
X102640Y141810D01*
X102646Y141827D01*
Y141838D01*
Y141843D01*
X103140Y141805D01*
X103129Y141716D01*
X103112Y141632D01*
X103062Y141477D01*
X103001Y141344D01*
X102968Y141283D01*
X102935Y141233D01*
X102907Y141183D01*
X102874Y141139D01*
X102846Y141105D01*
X102818Y141077D01*
X102796Y141055D01*
X102785Y141033D01*
X102774Y141027D01*
X102768Y141022D01*
X102701Y140972D01*
X102635Y140928D01*
X102563Y140889D01*
X102491Y140856D01*
X102352Y140805D01*
X102213Y140772D01*
X102152Y140756D01*
X102091Y140750D01*
X102041Y140744D01*
X101997Y140739D01*
X101958Y140733D01*
X101908D01*
X101791Y140739D01*
X101680Y140756D01*
X101575Y140778D01*
X101481Y140805D01*
X101392Y140844D01*
X101309Y140883D01*
X101231Y140922D01*
X101164Y140966D01*
X101103Y141011D01*
X101048Y141050D01*
X101003Y141094D01*
X100964Y141127D01*
X100937Y141155D01*
X100914Y141177D01*
X100903Y141194D01*
X100898Y141200D01*
X100842Y141272D01*
X100798Y141349D01*
X100753Y141422D01*
X100720Y141499D01*
X100665Y141649D01*
X100631Y141794D01*
X100620Y141855D01*
X100609Y141916D01*
X100604Y141965D01*
X100598Y142010D01*
X100593Y142049D01*
Y142077D01*
Y142093D01*
Y142099D01*
X100598Y142199D01*
X100609Y142293D01*
X100626Y142387D01*
X100648Y142471D01*
X100676Y142548D01*
X100704Y142626D01*
X100737Y142693D01*
X100765Y142754D01*
X100798Y142809D01*
X100831Y142859D01*
X100859Y142898D01*
X100887Y142937D01*
X100909Y142964D01*
X100926Y142981D01*
X100937Y142992D01*
X100942Y142998D01*
X101009Y143059D01*
X101075Y143114D01*
X101148Y143159D01*
X101220Y143198D01*
X101292Y143236D01*
X101364Y143264D01*
X101497Y143303D01*
X101558Y143320D01*
X101614Y143331D01*
X101664Y143336D01*
X101708Y143342D01*
X101741Y143348D01*
X101864D01*
X101930Y143336D01*
X102063Y143309D01*
X102185Y143270D01*
X102296Y143225D01*
X102385Y143181D01*
X102424Y143159D01*
X102457Y143142D01*
X102485Y143125D01*
X102502Y143114D01*
X102513Y143109D01*
X102518Y143103D01*
X102313Y144141D01*
X100776D01*
Y144591D01*
X102685D01*
X103057Y142615D01*
D02*
G37*
G36*
X109800Y140800D02*
X109289D01*
Y142504D01*
X108634D01*
X108573Y142498D01*
X108529D01*
X108490Y142493D01*
X108462Y142487D01*
X108440D01*
X108429Y142482D01*
X108424D01*
X108335Y142454D01*
X108296Y142437D01*
X108263Y142421D01*
X108229Y142404D01*
X108207Y142393D01*
X108196Y142387D01*
X108191Y142382D01*
X108146Y142349D01*
X108102Y142310D01*
X108019Y142226D01*
X107980Y142188D01*
X107952Y142154D01*
X107935Y142132D01*
X107930Y142126D01*
X107874Y142049D01*
X107813Y141965D01*
X107752Y141877D01*
X107691Y141794D01*
X107641Y141716D01*
X107602Y141655D01*
X107586Y141632D01*
X107574Y141616D01*
X107563Y141605D01*
Y141599D01*
X107058Y140800D01*
X106426D01*
X107086Y141843D01*
X107164Y141954D01*
X107236Y142054D01*
X107308Y142138D01*
X107369Y142215D01*
X107425Y142271D01*
X107469Y142315D01*
X107497Y142343D01*
X107508Y142354D01*
X107552Y142387D01*
X107602Y142426D01*
X107702Y142487D01*
X107747Y142509D01*
X107780Y142532D01*
X107802Y142543D01*
X107813Y142548D01*
X107713Y142565D01*
X107619Y142581D01*
X107536Y142609D01*
X107452Y142631D01*
X107380Y142659D01*
X107314Y142693D01*
X107253Y142720D01*
X107197Y142748D01*
X107153Y142781D01*
X107108Y142809D01*
X107075Y142831D01*
X107047Y142853D01*
X107025Y142870D01*
X107008Y142887D01*
X107003Y142892D01*
X106997Y142898D01*
X106953Y142953D01*
X106908Y143009D01*
X106842Y143125D01*
X106798Y143242D01*
X106764Y143353D01*
X106742Y143447D01*
X106736Y143486D01*
Y143525D01*
X106731Y143553D01*
Y143575D01*
Y143586D01*
Y143592D01*
X106736Y143708D01*
X106753Y143814D01*
X106781Y143914D01*
X106808Y143997D01*
X106842Y144069D01*
X106864Y144124D01*
X106886Y144158D01*
X106892Y144163D01*
Y144169D01*
X106958Y144258D01*
X107025Y144335D01*
X107097Y144402D01*
X107164Y144452D01*
X107225Y144491D01*
X107275Y144513D01*
X107308Y144530D01*
X107314Y144535D01*
X107319D01*
X107369Y144552D01*
X107430Y144569D01*
X107552Y144596D01*
X107685Y144613D01*
X107808Y144630D01*
X107924Y144635D01*
X107974D01*
X108019Y144641D01*
X109800D01*
Y140800D01*
D02*
G37*
G36*
X151711Y144463D02*
X151772Y144374D01*
X151844Y144285D01*
X151910Y144208D01*
X151977Y144141D01*
X152027Y144086D01*
X152049Y144069D01*
X152066Y144052D01*
X152071Y144047D01*
X152077Y144041D01*
X152193Y143947D01*
X152310Y143858D01*
X152421Y143780D01*
X152532Y143719D01*
X152626Y143664D01*
X152665Y143641D01*
X152699Y143625D01*
X152726Y143608D01*
X152749Y143603D01*
X152760Y143592D01*
X152765D01*
Y143136D01*
X152682Y143170D01*
X152599Y143209D01*
X152515Y143247D01*
X152438Y143286D01*
X152371Y143320D01*
X152316Y143347D01*
X152282Y143370D01*
X152277Y143375D01*
X152271D01*
X152171Y143436D01*
X152083Y143497D01*
X152005Y143553D01*
X151944Y143603D01*
X151888Y143641D01*
X151855Y143675D01*
X151827Y143697D01*
X151822Y143702D01*
Y140700D01*
X151350D01*
Y144557D01*
X151655D01*
X151711Y144463D01*
D02*
G37*
G36*
X156800Y140700D02*
X156289D01*
Y142404D01*
X155634D01*
X155573Y142398D01*
X155529D01*
X155490Y142393D01*
X155462Y142387D01*
X155440D01*
X155429Y142382D01*
X155424D01*
X155335Y142354D01*
X155296Y142337D01*
X155263Y142321D01*
X155229Y142304D01*
X155207Y142293D01*
X155196Y142287D01*
X155191Y142282D01*
X155146Y142248D01*
X155102Y142210D01*
X155018Y142126D01*
X154980Y142087D01*
X154952Y142054D01*
X154935Y142032D01*
X154930Y142026D01*
X154874Y141949D01*
X154813Y141866D01*
X154752Y141777D01*
X154691Y141693D01*
X154641Y141616D01*
X154602Y141555D01*
X154586Y141533D01*
X154575Y141516D01*
X154563Y141505D01*
Y141499D01*
X154058Y140700D01*
X153426D01*
X154086Y141743D01*
X154164Y141854D01*
X154236Y141954D01*
X154308Y142038D01*
X154369Y142115D01*
X154425Y142171D01*
X154469Y142215D01*
X154497Y142243D01*
X154508Y142254D01*
X154552Y142287D01*
X154602Y142326D01*
X154702Y142387D01*
X154746Y142409D01*
X154780Y142432D01*
X154802Y142443D01*
X154813Y142448D01*
X154713Y142465D01*
X154619Y142482D01*
X154536Y142509D01*
X154452Y142532D01*
X154380Y142559D01*
X154314Y142593D01*
X154253Y142620D01*
X154197Y142648D01*
X154153Y142681D01*
X154108Y142709D01*
X154075Y142731D01*
X154047Y142754D01*
X154025Y142770D01*
X154008Y142787D01*
X154003Y142792D01*
X153997Y142798D01*
X153953Y142853D01*
X153908Y142909D01*
X153842Y143026D01*
X153797Y143142D01*
X153764Y143253D01*
X153742Y143347D01*
X153736Y143386D01*
Y143425D01*
X153731Y143453D01*
Y143475D01*
Y143486D01*
Y143492D01*
X153736Y143608D01*
X153753Y143714D01*
X153781Y143814D01*
X153808Y143897D01*
X153842Y143969D01*
X153864Y144025D01*
X153886Y144058D01*
X153892Y144063D01*
Y144069D01*
X153958Y144158D01*
X154025Y144235D01*
X154097Y144302D01*
X154164Y144352D01*
X154225Y144391D01*
X154275Y144413D01*
X154308Y144430D01*
X154314Y144435D01*
X154319D01*
X154369Y144452D01*
X154430Y144468D01*
X154552Y144496D01*
X154685Y144513D01*
X154807Y144529D01*
X154924Y144535D01*
X154974D01*
X155018Y144541D01*
X156800D01*
Y140700D01*
D02*
G37*
G36*
X150301Y142054D02*
Y141621D01*
X148630D01*
Y140700D01*
X148159D01*
Y141621D01*
X147637D01*
Y142054D01*
X148159D01*
Y144541D01*
X148542D01*
X150301Y142054D01*
D02*
G37*
G36*
X102097Y138246D02*
X102246Y138218D01*
X102374Y138174D01*
X102485Y138130D01*
X102535Y138102D01*
X102574Y138080D01*
X102613Y138057D01*
X102640Y138035D01*
X102663Y138019D01*
X102679Y138007D01*
X102690Y138002D01*
X102696Y137996D01*
X102801Y137891D01*
X102885Y137774D01*
X102951Y137652D01*
X103007Y137530D01*
X103040Y137425D01*
X103057Y137380D01*
X103068Y137341D01*
X103073Y137308D01*
X103079Y137286D01*
X103085Y137269D01*
Y137264D01*
X102613Y137180D01*
X102591Y137303D01*
X102557Y137408D01*
X102518Y137497D01*
X102480Y137569D01*
X102441Y137625D01*
X102407Y137663D01*
X102385Y137691D01*
X102380Y137697D01*
X102307Y137752D01*
X102230Y137797D01*
X102158Y137824D01*
X102085Y137847D01*
X102019Y137858D01*
X101969Y137869D01*
X101925D01*
X101825Y137863D01*
X101736Y137841D01*
X101658Y137813D01*
X101592Y137785D01*
X101542Y137752D01*
X101503Y137724D01*
X101475Y137702D01*
X101469Y137697D01*
X101408Y137630D01*
X101364Y137558D01*
X101336Y137486D01*
X101314Y137419D01*
X101303Y137358D01*
X101292Y137314D01*
Y137280D01*
Y137275D01*
Y137269D01*
Y137208D01*
X101303Y137153D01*
X101331Y137058D01*
X101370Y136975D01*
X101414Y136903D01*
X101458Y136853D01*
X101497Y136814D01*
X101525Y136792D01*
X101531Y136786D01*
X101536D01*
X101630Y136737D01*
X101719Y136698D01*
X101813Y136670D01*
X101897Y136653D01*
X101969Y136642D01*
X102030Y136631D01*
X102102D01*
X102124Y136637D01*
X102152D01*
X102208Y136220D01*
X102136Y136237D01*
X102069Y136248D01*
X102013Y136259D01*
X101963Y136265D01*
X101925Y136270D01*
X101875D01*
X101758Y136259D01*
X101653Y136237D01*
X101558Y136204D01*
X101481Y136165D01*
X101419Y136126D01*
X101375Y136093D01*
X101347Y136071D01*
X101336Y136059D01*
X101264Y135976D01*
X101209Y135887D01*
X101170Y135799D01*
X101148Y135710D01*
X101131Y135638D01*
X101125Y135577D01*
X101120Y135554D01*
Y135538D01*
Y135527D01*
Y135521D01*
X101131Y135399D01*
X101159Y135288D01*
X101192Y135194D01*
X101236Y135110D01*
X101281Y135044D01*
X101314Y134994D01*
X101342Y134960D01*
X101353Y134950D01*
X101442Y134872D01*
X101536Y134816D01*
X101630Y134777D01*
X101719Y134750D01*
X101797Y134733D01*
X101858Y134727D01*
X101880Y134722D01*
X101913D01*
X102013Y134727D01*
X102108Y134750D01*
X102191Y134777D01*
X102258Y134811D01*
X102313Y134838D01*
X102357Y134866D01*
X102380Y134888D01*
X102391Y134894D01*
X102457Y134972D01*
X102513Y135060D01*
X102563Y135155D01*
X102602Y135255D01*
X102629Y135338D01*
X102640Y135377D01*
X102646Y135410D01*
X102652Y135438D01*
X102657Y135460D01*
X102663Y135471D01*
Y135477D01*
X103134Y135416D01*
X103123Y135327D01*
X103107Y135244D01*
X103057Y135088D01*
X102996Y134955D01*
X102962Y134899D01*
X102929Y134844D01*
X102896Y134794D01*
X102863Y134755D01*
X102835Y134716D01*
X102807Y134689D01*
X102790Y134666D01*
X102774Y134650D01*
X102763Y134639D01*
X102757Y134633D01*
X102690Y134583D01*
X102624Y134533D01*
X102557Y134494D01*
X102485Y134461D01*
X102346Y134406D01*
X102213Y134372D01*
X102152Y134361D01*
X102097Y134350D01*
X102047Y134344D01*
X102002Y134339D01*
X101969Y134333D01*
X101919D01*
X101813Y134339D01*
X101719Y134350D01*
X101625Y134367D01*
X101536Y134389D01*
X101453Y134417D01*
X101381Y134444D01*
X101309Y134478D01*
X101248Y134511D01*
X101186Y134539D01*
X101137Y134572D01*
X101092Y134600D01*
X101059Y134627D01*
X101031Y134650D01*
X101009Y134666D01*
X100998Y134678D01*
X100992Y134683D01*
X100926Y134750D01*
X100870Y134822D01*
X100820Y134894D01*
X100776Y134966D01*
X100742Y135033D01*
X100709Y135105D01*
X100665Y135238D01*
X100654Y135299D01*
X100643Y135355D01*
X100631Y135405D01*
X100626Y135449D01*
X100620Y135482D01*
Y135510D01*
Y135527D01*
Y135532D01*
X100626Y135665D01*
X100648Y135787D01*
X100681Y135893D01*
X100715Y135982D01*
X100748Y136054D01*
X100781Y136109D01*
X100803Y136143D01*
X100809Y136154D01*
X100887Y136237D01*
X100970Y136309D01*
X101059Y136365D01*
X101148Y136409D01*
X101225Y136442D01*
X101286Y136465D01*
X101309Y136470D01*
X101325Y136476D01*
X101336Y136481D01*
X101342D01*
X101248Y136531D01*
X101170Y136581D01*
X101103Y136637D01*
X101048Y136687D01*
X101003Y136731D01*
X100970Y136770D01*
X100953Y136792D01*
X100948Y136803D01*
X100903Y136881D01*
X100870Y136959D01*
X100842Y137036D01*
X100826Y137108D01*
X100814Y137170D01*
X100809Y137214D01*
Y137247D01*
Y137258D01*
X100814Y137353D01*
X100831Y137447D01*
X100853Y137530D01*
X100881Y137602D01*
X100909Y137663D01*
X100931Y137713D01*
X100948Y137741D01*
X100953Y137752D01*
X101009Y137835D01*
X101075Y137908D01*
X101142Y137969D01*
X101209Y138024D01*
X101264Y138063D01*
X101314Y138096D01*
X101347Y138113D01*
X101353Y138119D01*
X101358D01*
X101458Y138163D01*
X101558Y138196D01*
X101658Y138224D01*
X101747Y138241D01*
X101819Y138252D01*
X101880Y138257D01*
X102019D01*
X102097Y138246D01*
D02*
G37*
G36*
X104711Y138163D02*
X104772Y138074D01*
X104844Y137985D01*
X104910Y137908D01*
X104977Y137841D01*
X105027Y137785D01*
X105049Y137769D01*
X105066Y137752D01*
X105071Y137747D01*
X105077Y137741D01*
X105193Y137647D01*
X105310Y137558D01*
X105421Y137480D01*
X105532Y137419D01*
X105626Y137364D01*
X105665Y137341D01*
X105699Y137325D01*
X105726Y137308D01*
X105748Y137303D01*
X105760Y137292D01*
X105765D01*
Y136836D01*
X105682Y136870D01*
X105599Y136909D01*
X105515Y136948D01*
X105438Y136986D01*
X105371Y137020D01*
X105316Y137047D01*
X105282Y137070D01*
X105277Y137075D01*
X105271D01*
X105171Y137136D01*
X105082Y137197D01*
X105005Y137253D01*
X104944Y137303D01*
X104888Y137341D01*
X104855Y137375D01*
X104827Y137397D01*
X104822Y137402D01*
Y134400D01*
X104350D01*
Y138257D01*
X104655D01*
X104711Y138163D01*
D02*
G37*
G36*
X109800Y134400D02*
X109289D01*
Y136104D01*
X108634D01*
X108573Y136098D01*
X108529D01*
X108490Y136093D01*
X108462Y136087D01*
X108440D01*
X108429Y136082D01*
X108424D01*
X108335Y136054D01*
X108296Y136037D01*
X108263Y136021D01*
X108229Y136004D01*
X108207Y135993D01*
X108196Y135987D01*
X108191Y135982D01*
X108146Y135949D01*
X108102Y135910D01*
X108019Y135826D01*
X107980Y135787D01*
X107952Y135754D01*
X107935Y135732D01*
X107930Y135726D01*
X107874Y135649D01*
X107813Y135565D01*
X107752Y135477D01*
X107691Y135394D01*
X107641Y135316D01*
X107602Y135255D01*
X107586Y135232D01*
X107574Y135216D01*
X107563Y135205D01*
Y135199D01*
X107058Y134400D01*
X106426D01*
X107086Y135443D01*
X107164Y135554D01*
X107236Y135654D01*
X107308Y135738D01*
X107369Y135815D01*
X107425Y135871D01*
X107469Y135915D01*
X107497Y135943D01*
X107508Y135954D01*
X107552Y135987D01*
X107602Y136026D01*
X107702Y136087D01*
X107747Y136109D01*
X107780Y136132D01*
X107802Y136143D01*
X107813Y136148D01*
X107713Y136165D01*
X107619Y136181D01*
X107536Y136209D01*
X107452Y136232D01*
X107380Y136259D01*
X107314Y136293D01*
X107253Y136320D01*
X107197Y136348D01*
X107153Y136381D01*
X107108Y136409D01*
X107075Y136431D01*
X107047Y136453D01*
X107025Y136470D01*
X107008Y136487D01*
X107003Y136492D01*
X106997Y136498D01*
X106953Y136553D01*
X106908Y136609D01*
X106842Y136725D01*
X106798Y136842D01*
X106764Y136953D01*
X106742Y137047D01*
X106736Y137086D01*
Y137125D01*
X106731Y137153D01*
Y137175D01*
Y137186D01*
Y137192D01*
X106736Y137308D01*
X106753Y137414D01*
X106781Y137514D01*
X106808Y137597D01*
X106842Y137669D01*
X106864Y137724D01*
X106886Y137758D01*
X106892Y137763D01*
Y137769D01*
X106958Y137858D01*
X107025Y137935D01*
X107097Y138002D01*
X107164Y138052D01*
X107225Y138091D01*
X107275Y138113D01*
X107308Y138130D01*
X107314Y138135D01*
X107319D01*
X107369Y138152D01*
X107430Y138169D01*
X107552Y138196D01*
X107685Y138213D01*
X107808Y138230D01*
X107924Y138235D01*
X107974D01*
X108019Y138241D01*
X109800D01*
Y134400D01*
D02*
G37*
G36*
X148969Y138152D02*
X149063Y138146D01*
X149152Y138129D01*
X149235Y138113D01*
X149313Y138091D01*
X149385Y138068D01*
X149452Y138041D01*
X149513Y138013D01*
X149568Y137985D01*
X149613Y137957D01*
X149652Y137935D01*
X149685Y137913D01*
X149713Y137896D01*
X149729Y137880D01*
X149740Y137874D01*
X149746Y137869D01*
X149801Y137813D01*
X149851Y137752D01*
X149901Y137686D01*
X149940Y137619D01*
X150007Y137486D01*
X150051Y137353D01*
X150068Y137292D01*
X150084Y137230D01*
X150096Y137180D01*
X150107Y137136D01*
X150112Y137097D01*
Y137069D01*
X150118Y137053D01*
Y137047D01*
X149635Y136997D01*
X149624Y137125D01*
X149602Y137236D01*
X149568Y137336D01*
X149530Y137414D01*
X149496Y137480D01*
X149463Y137524D01*
X149441Y137552D01*
X149430Y137563D01*
X149346Y137630D01*
X149258Y137680D01*
X149163Y137719D01*
X149080Y137741D01*
X149002Y137758D01*
X148936Y137763D01*
X148913Y137769D01*
X148880D01*
X148764Y137763D01*
X148658Y137741D01*
X148569Y137708D01*
X148492Y137674D01*
X148431Y137636D01*
X148392Y137608D01*
X148364Y137586D01*
X148353Y137575D01*
X148286Y137497D01*
X148236Y137419D01*
X148197Y137341D01*
X148175Y137264D01*
X148159Y137203D01*
X148153Y137147D01*
X148148Y137114D01*
Y137108D01*
Y137103D01*
X148159Y137003D01*
X148181Y136897D01*
X148220Y136803D01*
X148258Y136714D01*
X148303Y136642D01*
X148342Y136581D01*
X148353Y136559D01*
X148364Y136542D01*
X148375Y136537D01*
Y136531D01*
X148419Y136470D01*
X148475Y136409D01*
X148536Y136342D01*
X148603Y136276D01*
X148741Y136143D01*
X148880Y136009D01*
X148952Y135948D01*
X149013Y135893D01*
X149074Y135843D01*
X149124Y135799D01*
X149163Y135765D01*
X149197Y135737D01*
X149219Y135721D01*
X149224Y135715D01*
X149363Y135599D01*
X149491Y135488D01*
X149596Y135388D01*
X149679Y135304D01*
X149751Y135232D01*
X149801Y135182D01*
X149829Y135149D01*
X149840Y135144D01*
Y135138D01*
X149918Y135044D01*
X149979Y134955D01*
X150034Y134866D01*
X150079Y134788D01*
X150112Y134722D01*
X150134Y134672D01*
X150146Y134639D01*
X150151Y134633D01*
Y134627D01*
X150173Y134566D01*
X150184Y134511D01*
X150196Y134455D01*
X150201Y134405D01*
X150207Y134361D01*
Y134328D01*
Y134306D01*
Y134300D01*
X147659D01*
Y134755D01*
X149552D01*
X149485Y134850D01*
X149452Y134888D01*
X149424Y134927D01*
X149396Y134960D01*
X149374Y134983D01*
X149357Y134999D01*
X149352Y135005D01*
X149324Y135033D01*
X149291Y135060D01*
X149213Y135133D01*
X149124Y135216D01*
X149030Y135299D01*
X148941Y135371D01*
X148902Y135404D01*
X148869Y135438D01*
X148841Y135460D01*
X148819Y135477D01*
X148808Y135488D01*
X148802Y135493D01*
X148714Y135571D01*
X148625Y135643D01*
X148547Y135715D01*
X148475Y135776D01*
X148408Y135837D01*
X148353Y135893D01*
X148297Y135943D01*
X148253Y135987D01*
X148209Y136032D01*
X148175Y136065D01*
X148148Y136093D01*
X148120Y136120D01*
X148092Y136154D01*
X148081Y136165D01*
X148003Y136259D01*
X147937Y136342D01*
X147881Y136426D01*
X147837Y136492D01*
X147803Y136553D01*
X147781Y136598D01*
X147770Y136626D01*
X147765Y136637D01*
X147731Y136720D01*
X147709Y136803D01*
X147687Y136881D01*
X147676Y136947D01*
X147670Y137008D01*
X147665Y137053D01*
Y137081D01*
Y137092D01*
X147670Y137175D01*
X147681Y137253D01*
X147693Y137330D01*
X147715Y137397D01*
X147770Y137530D01*
X147826Y137636D01*
X147859Y137686D01*
X147887Y137724D01*
X147915Y137763D01*
X147942Y137791D01*
X147964Y137813D01*
X147976Y137835D01*
X147987Y137841D01*
X147992Y137847D01*
X148053Y137902D01*
X148120Y137952D01*
X148192Y137991D01*
X148264Y138024D01*
X148408Y138080D01*
X148553Y138118D01*
X148614Y138129D01*
X148675Y138141D01*
X148730Y138146D01*
X148775Y138152D01*
X148814Y138157D01*
X148869D01*
X148969Y138152D01*
D02*
G37*
G36*
X151711Y138063D02*
X151772Y137974D01*
X151844Y137885D01*
X151910Y137808D01*
X151977Y137741D01*
X152027Y137686D01*
X152049Y137669D01*
X152066Y137652D01*
X152071Y137647D01*
X152077Y137641D01*
X152193Y137547D01*
X152310Y137458D01*
X152421Y137380D01*
X152532Y137319D01*
X152626Y137264D01*
X152665Y137241D01*
X152699Y137225D01*
X152726Y137208D01*
X152749Y137203D01*
X152760Y137192D01*
X152765D01*
Y136736D01*
X152682Y136770D01*
X152599Y136809D01*
X152515Y136847D01*
X152438Y136886D01*
X152371Y136920D01*
X152316Y136947D01*
X152282Y136970D01*
X152277Y136975D01*
X152271D01*
X152171Y137036D01*
X152083Y137097D01*
X152005Y137153D01*
X151944Y137203D01*
X151888Y137241D01*
X151855Y137275D01*
X151827Y137297D01*
X151822Y137302D01*
Y134300D01*
X151350D01*
Y138157D01*
X151655D01*
X151711Y138063D01*
D02*
G37*
G36*
X156800Y134300D02*
X156289D01*
Y136004D01*
X155634D01*
X155573Y135998D01*
X155529D01*
X155490Y135993D01*
X155462Y135987D01*
X155440D01*
X155429Y135982D01*
X155424D01*
X155335Y135954D01*
X155296Y135937D01*
X155263Y135921D01*
X155229Y135904D01*
X155207Y135893D01*
X155196Y135887D01*
X155191Y135882D01*
X155146Y135848D01*
X155102Y135810D01*
X155018Y135726D01*
X154980Y135687D01*
X154952Y135654D01*
X154935Y135632D01*
X154930Y135626D01*
X154874Y135549D01*
X154813Y135466D01*
X154752Y135377D01*
X154691Y135293D01*
X154641Y135216D01*
X154602Y135155D01*
X154586Y135133D01*
X154575Y135116D01*
X154563Y135105D01*
Y135099D01*
X154058Y134300D01*
X153426D01*
X154086Y135343D01*
X154164Y135454D01*
X154236Y135554D01*
X154308Y135638D01*
X154369Y135715D01*
X154425Y135771D01*
X154469Y135815D01*
X154497Y135843D01*
X154508Y135854D01*
X154552Y135887D01*
X154602Y135926D01*
X154702Y135987D01*
X154746Y136009D01*
X154780Y136032D01*
X154802Y136043D01*
X154813Y136048D01*
X154713Y136065D01*
X154619Y136082D01*
X154536Y136109D01*
X154452Y136132D01*
X154380Y136159D01*
X154314Y136193D01*
X154253Y136220D01*
X154197Y136248D01*
X154153Y136281D01*
X154108Y136309D01*
X154075Y136331D01*
X154047Y136354D01*
X154025Y136370D01*
X154008Y136387D01*
X154003Y136392D01*
X153997Y136398D01*
X153953Y136453D01*
X153908Y136509D01*
X153842Y136626D01*
X153797Y136742D01*
X153764Y136853D01*
X153742Y136947D01*
X153736Y136986D01*
Y137025D01*
X153731Y137053D01*
Y137075D01*
Y137086D01*
Y137092D01*
X153736Y137208D01*
X153753Y137314D01*
X153781Y137414D01*
X153808Y137497D01*
X153842Y137569D01*
X153864Y137625D01*
X153886Y137658D01*
X153892Y137663D01*
Y137669D01*
X153958Y137758D01*
X154025Y137835D01*
X154097Y137902D01*
X154164Y137952D01*
X154225Y137991D01*
X154275Y138013D01*
X154308Y138030D01*
X154314Y138035D01*
X154319D01*
X154369Y138052D01*
X154430Y138068D01*
X154552Y138096D01*
X154685Y138113D01*
X154807Y138129D01*
X154924Y138135D01*
X154974D01*
X155018Y138141D01*
X156800D01*
Y134300D01*
D02*
G37*
G36*
X104711Y131663D02*
X104772Y131574D01*
X104844Y131485D01*
X104910Y131408D01*
X104977Y131341D01*
X105027Y131286D01*
X105049Y131269D01*
X105066Y131252D01*
X105071Y131247D01*
X105077Y131241D01*
X105193Y131147D01*
X105310Y131058D01*
X105421Y130980D01*
X105532Y130919D01*
X105626Y130864D01*
X105665Y130842D01*
X105699Y130825D01*
X105726Y130808D01*
X105748Y130803D01*
X105760Y130792D01*
X105765D01*
Y130336D01*
X105682Y130370D01*
X105599Y130409D01*
X105515Y130447D01*
X105438Y130486D01*
X105371Y130520D01*
X105316Y130547D01*
X105282Y130570D01*
X105277Y130575D01*
X105271D01*
X105171Y130636D01*
X105082Y130697D01*
X105005Y130753D01*
X104944Y130803D01*
X104888Y130842D01*
X104855Y130875D01*
X104827Y130897D01*
X104822Y130903D01*
Y127900D01*
X104350D01*
Y131757D01*
X104655D01*
X104711Y131663D01*
D02*
G37*
G36*
X101725D02*
X101786Y131574D01*
X101858Y131485D01*
X101925Y131408D01*
X101991Y131341D01*
X102041Y131286D01*
X102063Y131269D01*
X102080Y131252D01*
X102085Y131247D01*
X102091Y131241D01*
X102208Y131147D01*
X102324Y131058D01*
X102435Y130980D01*
X102546Y130919D01*
X102640Y130864D01*
X102679Y130842D01*
X102713Y130825D01*
X102740Y130808D01*
X102763Y130803D01*
X102774Y130792D01*
X102779D01*
Y130336D01*
X102696Y130370D01*
X102613Y130409D01*
X102530Y130447D01*
X102452Y130486D01*
X102385Y130520D01*
X102330Y130547D01*
X102296Y130570D01*
X102291Y130575D01*
X102285D01*
X102185Y130636D01*
X102097Y130697D01*
X102019Y130753D01*
X101958Y130803D01*
X101902Y130842D01*
X101869Y130875D01*
X101841Y130897D01*
X101836Y130903D01*
Y127900D01*
X101364D01*
Y131757D01*
X101669D01*
X101725Y131663D01*
D02*
G37*
G36*
X109800Y127900D02*
X109289D01*
Y129604D01*
X108634D01*
X108573Y129598D01*
X108529D01*
X108490Y129593D01*
X108462Y129587D01*
X108440D01*
X108429Y129582D01*
X108424D01*
X108335Y129554D01*
X108296Y129537D01*
X108263Y129521D01*
X108229Y129504D01*
X108207Y129493D01*
X108196Y129487D01*
X108191Y129482D01*
X108146Y129448D01*
X108102Y129410D01*
X108019Y129326D01*
X107980Y129288D01*
X107952Y129254D01*
X107935Y129232D01*
X107930Y129226D01*
X107874Y129149D01*
X107813Y129066D01*
X107752Y128977D01*
X107691Y128893D01*
X107641Y128816D01*
X107602Y128755D01*
X107586Y128733D01*
X107574Y128716D01*
X107563Y128705D01*
Y128699D01*
X107058Y127900D01*
X106426D01*
X107086Y128943D01*
X107164Y129054D01*
X107236Y129154D01*
X107308Y129238D01*
X107369Y129315D01*
X107425Y129371D01*
X107469Y129415D01*
X107497Y129443D01*
X107508Y129454D01*
X107552Y129487D01*
X107602Y129526D01*
X107702Y129587D01*
X107747Y129609D01*
X107780Y129632D01*
X107802Y129643D01*
X107813Y129648D01*
X107713Y129665D01*
X107619Y129682D01*
X107536Y129709D01*
X107452Y129732D01*
X107380Y129759D01*
X107314Y129793D01*
X107253Y129820D01*
X107197Y129848D01*
X107153Y129881D01*
X107108Y129909D01*
X107075Y129931D01*
X107047Y129954D01*
X107025Y129970D01*
X107008Y129987D01*
X107003Y129992D01*
X106997Y129998D01*
X106953Y130053D01*
X106908Y130109D01*
X106842Y130226D01*
X106798Y130342D01*
X106764Y130453D01*
X106742Y130547D01*
X106736Y130586D01*
Y130625D01*
X106731Y130653D01*
Y130675D01*
Y130686D01*
Y130692D01*
X106736Y130808D01*
X106753Y130914D01*
X106781Y131014D01*
X106808Y131097D01*
X106842Y131169D01*
X106864Y131225D01*
X106886Y131258D01*
X106892Y131263D01*
Y131269D01*
X106958Y131358D01*
X107025Y131435D01*
X107097Y131502D01*
X107164Y131552D01*
X107225Y131591D01*
X107275Y131613D01*
X107308Y131630D01*
X107314Y131635D01*
X107319D01*
X107369Y131652D01*
X107430Y131668D01*
X107552Y131696D01*
X107685Y131713D01*
X107808Y131729D01*
X107924Y131735D01*
X107974D01*
X108019Y131741D01*
X109800D01*
Y127900D01*
D02*
G37*
G36*
X151711Y131663D02*
X151772Y131574D01*
X151844Y131485D01*
X151910Y131408D01*
X151977Y131341D01*
X152027Y131286D01*
X152049Y131269D01*
X152066Y131252D01*
X152071Y131247D01*
X152077Y131241D01*
X152193Y131147D01*
X152310Y131058D01*
X152421Y130980D01*
X152532Y130919D01*
X152626Y130864D01*
X152665Y130842D01*
X152699Y130825D01*
X152726Y130808D01*
X152749Y130803D01*
X152760Y130792D01*
X152765D01*
Y130336D01*
X152682Y130370D01*
X152599Y130409D01*
X152515Y130447D01*
X152438Y130486D01*
X152371Y130520D01*
X152316Y130547D01*
X152282Y130570D01*
X152277Y130575D01*
X152271D01*
X152171Y130636D01*
X152083Y130697D01*
X152005Y130753D01*
X151944Y130803D01*
X151888Y130842D01*
X151855Y130875D01*
X151827Y130897D01*
X151822Y130903D01*
Y127900D01*
X151350D01*
Y131757D01*
X151655D01*
X151711Y131663D01*
D02*
G37*
G36*
X156800Y127900D02*
X156289D01*
Y129604D01*
X155634D01*
X155573Y129598D01*
X155529D01*
X155490Y129593D01*
X155462Y129587D01*
X155440D01*
X155429Y129582D01*
X155424D01*
X155335Y129554D01*
X155296Y129537D01*
X155263Y129521D01*
X155229Y129504D01*
X155207Y129493D01*
X155196Y129487D01*
X155191Y129482D01*
X155146Y129448D01*
X155102Y129410D01*
X155018Y129326D01*
X154980Y129288D01*
X154952Y129254D01*
X154935Y129232D01*
X154930Y129226D01*
X154874Y129149D01*
X154813Y129066D01*
X154752Y128977D01*
X154691Y128893D01*
X154641Y128816D01*
X154602Y128755D01*
X154586Y128733D01*
X154575Y128716D01*
X154563Y128705D01*
Y128699D01*
X154058Y127900D01*
X153426D01*
X154086Y128943D01*
X154164Y129054D01*
X154236Y129154D01*
X154308Y129238D01*
X154369Y129315D01*
X154425Y129371D01*
X154469Y129415D01*
X154497Y129443D01*
X154508Y129454D01*
X154552Y129487D01*
X154602Y129526D01*
X154702Y129587D01*
X154746Y129609D01*
X154780Y129632D01*
X154802Y129643D01*
X154813Y129648D01*
X154713Y129665D01*
X154619Y129682D01*
X154536Y129709D01*
X154452Y129732D01*
X154380Y129759D01*
X154314Y129793D01*
X154253Y129820D01*
X154197Y129848D01*
X154153Y129881D01*
X154108Y129909D01*
X154075Y129931D01*
X154047Y129954D01*
X154025Y129970D01*
X154008Y129987D01*
X154003Y129992D01*
X153997Y129998D01*
X153953Y130053D01*
X153908Y130109D01*
X153842Y130226D01*
X153797Y130342D01*
X153764Y130453D01*
X153742Y130547D01*
X153736Y130586D01*
Y130625D01*
X153731Y130653D01*
Y130675D01*
Y130686D01*
Y130692D01*
X153736Y130808D01*
X153753Y130914D01*
X153781Y131014D01*
X153808Y131097D01*
X153842Y131169D01*
X153864Y131225D01*
X153886Y131258D01*
X153892Y131263D01*
Y131269D01*
X153958Y131358D01*
X154025Y131435D01*
X154097Y131502D01*
X154164Y131552D01*
X154225Y131591D01*
X154275Y131613D01*
X154308Y131630D01*
X154314Y131635D01*
X154319D01*
X154369Y131652D01*
X154430Y131668D01*
X154552Y131696D01*
X154685Y131713D01*
X154807Y131729D01*
X154924Y131735D01*
X154974D01*
X155018Y131741D01*
X156800D01*
Y127900D01*
D02*
G37*
G36*
X149036Y131746D02*
X149174Y131724D01*
X149291Y131685D01*
X149391Y131646D01*
X149474Y131602D01*
X149507Y131585D01*
X149535Y131563D01*
X149557Y131552D01*
X149574Y131541D01*
X149579Y131530D01*
X149585D01*
X149685Y131441D01*
X149768Y131335D01*
X149840Y131230D01*
X149896Y131130D01*
X149940Y131036D01*
X149962Y130997D01*
X149973Y130958D01*
X149985Y130930D01*
X149996Y130908D01*
X150001Y130897D01*
Y130892D01*
X150023Y130808D01*
X150046Y130725D01*
X150079Y130542D01*
X150107Y130359D01*
X150123Y130187D01*
X150129Y130103D01*
X150134Y130031D01*
Y129965D01*
X150140Y129903D01*
Y129859D01*
Y129820D01*
Y129798D01*
Y129793D01*
X150134Y129598D01*
X150123Y129415D01*
X150107Y129249D01*
X150079Y129093D01*
X150051Y128949D01*
X150018Y128821D01*
X149985Y128705D01*
X149951Y128605D01*
X149918Y128516D01*
X149879Y128438D01*
X149851Y128372D01*
X149824Y128322D01*
X149796Y128277D01*
X149779Y128250D01*
X149768Y128233D01*
X149763Y128227D01*
X149701Y128161D01*
X149635Y128100D01*
X149563Y128044D01*
X149491Y128000D01*
X149418Y127961D01*
X149346Y127928D01*
X149274Y127905D01*
X149208Y127883D01*
X149141Y127867D01*
X149080Y127856D01*
X149024Y127845D01*
X148980Y127839D01*
X148941Y127833D01*
X148886D01*
X148736Y127845D01*
X148597Y127867D01*
X148480Y127905D01*
X148381Y127944D01*
X148297Y127983D01*
X148270Y128005D01*
X148242Y128022D01*
X148220Y128033D01*
X148203Y128044D01*
X148197Y128055D01*
X148192D01*
X148092Y128150D01*
X148009Y128250D01*
X147937Y128361D01*
X147881Y128461D01*
X147837Y128555D01*
X147815Y128594D01*
X147803Y128633D01*
X147792Y128660D01*
X147781Y128682D01*
X147776Y128694D01*
Y128699D01*
X147748Y128782D01*
X147726Y128866D01*
X147693Y129043D01*
X147665Y129226D01*
X147648Y129404D01*
X147643Y129482D01*
X147637Y129554D01*
Y129621D01*
X147631Y129682D01*
Y129726D01*
Y129765D01*
Y129787D01*
Y129793D01*
Y129898D01*
X147637Y129998D01*
Y130087D01*
X147643Y130175D01*
X147654Y130253D01*
X147659Y130331D01*
X147665Y130397D01*
X147676Y130458D01*
X147681Y130514D01*
X147693Y130564D01*
X147698Y130603D01*
X147704Y130636D01*
X147709Y130664D01*
X147715Y130681D01*
X147720Y130692D01*
Y130697D01*
X147754Y130819D01*
X147792Y130930D01*
X147837Y131025D01*
X147870Y131108D01*
X147909Y131180D01*
X147931Y131230D01*
X147953Y131258D01*
X147959Y131269D01*
X148020Y131352D01*
X148081Y131424D01*
X148148Y131485D01*
X148209Y131541D01*
X148264Y131580D01*
X148309Y131607D01*
X148336Y131624D01*
X148342Y131630D01*
X148347D01*
X148436Y131674D01*
X148530Y131702D01*
X148619Y131724D01*
X148703Y131741D01*
X148775Y131752D01*
X148836Y131757D01*
X148886D01*
X149036Y131746D01*
D02*
G37*
G36*
X105016Y125352D02*
X105105Y125341D01*
X105193Y125324D01*
X105271Y125302D01*
X105421Y125241D01*
X105488Y125213D01*
X105543Y125180D01*
X105599Y125141D01*
X105643Y125113D01*
X105687Y125080D01*
X105721Y125052D01*
X105748Y125030D01*
X105765Y125013D01*
X105776Y125002D01*
X105782Y124996D01*
X105843Y124930D01*
X105893Y124852D01*
X105943Y124780D01*
X105982Y124702D01*
X106015Y124619D01*
X106043Y124541D01*
X106081Y124397D01*
X106098Y124325D01*
X106109Y124264D01*
X106115Y124203D01*
X106120Y124153D01*
X106126Y124114D01*
Y124086D01*
Y124064D01*
Y124058D01*
X106120Y123953D01*
X106109Y123859D01*
X106098Y123764D01*
X106076Y123676D01*
X106048Y123598D01*
X106020Y123520D01*
X105993Y123454D01*
X105959Y123393D01*
X105932Y123337D01*
X105904Y123287D01*
X105876Y123248D01*
X105848Y123209D01*
X105826Y123182D01*
X105815Y123165D01*
X105804Y123154D01*
X105798Y123148D01*
X105737Y123087D01*
X105671Y123037D01*
X105604Y122987D01*
X105532Y122949D01*
X105465Y122915D01*
X105399Y122888D01*
X105271Y122849D01*
X105216Y122832D01*
X105160Y122821D01*
X105116Y122815D01*
X105071Y122810D01*
X105038Y122804D01*
X104994D01*
X104888Y122810D01*
X104788Y122826D01*
X104700Y122849D01*
X104616Y122876D01*
X104555Y122899D01*
X104505Y122921D01*
X104472Y122937D01*
X104461Y122943D01*
X104372Y122998D01*
X104294Y123059D01*
X104228Y123121D01*
X104172Y123176D01*
X104133Y123232D01*
X104100Y123270D01*
X104078Y123298D01*
X104072Y123309D01*
Y123265D01*
Y123237D01*
Y123221D01*
Y123215D01*
X104078Y123104D01*
X104084Y122998D01*
X104095Y122904D01*
X104106Y122815D01*
X104122Y122743D01*
X104133Y122688D01*
X104139Y122666D01*
Y122649D01*
X104145Y122643D01*
Y122638D01*
X104172Y122538D01*
X104200Y122449D01*
X104228Y122371D01*
X104255Y122305D01*
X104278Y122255D01*
X104300Y122216D01*
X104311Y122188D01*
X104317Y122183D01*
X104361Y122122D01*
X104405Y122072D01*
X104450Y122027D01*
X104494Y121988D01*
X104527Y121955D01*
X104561Y121933D01*
X104583Y121922D01*
X104589Y121916D01*
X104650Y121883D01*
X104716Y121861D01*
X104777Y121844D01*
X104838Y121833D01*
X104888Y121827D01*
X104927Y121822D01*
X104966D01*
X105055Y121827D01*
X105138Y121844D01*
X105210Y121866D01*
X105271Y121894D01*
X105316Y121916D01*
X105354Y121938D01*
X105377Y121955D01*
X105382Y121961D01*
X105438Y122022D01*
X105482Y122094D01*
X105521Y122172D01*
X105549Y122249D01*
X105571Y122316D01*
X105588Y122377D01*
X105593Y122399D01*
Y122410D01*
X105599Y122421D01*
Y122427D01*
X106054Y122388D01*
X106020Y122227D01*
X105976Y122088D01*
X105921Y121966D01*
X105865Y121866D01*
X105809Y121789D01*
X105782Y121755D01*
X105760Y121728D01*
X105743Y121711D01*
X105726Y121694D01*
X105721Y121689D01*
X105715Y121683D01*
X105660Y121639D01*
X105599Y121600D01*
X105476Y121539D01*
X105354Y121494D01*
X105238Y121467D01*
X105132Y121444D01*
X105088Y121439D01*
X105049D01*
X105022Y121433D01*
X104977D01*
X104822Y121444D01*
X104683Y121467D01*
X104555Y121505D01*
X104450Y121550D01*
X104405Y121567D01*
X104361Y121589D01*
X104328Y121611D01*
X104294Y121628D01*
X104272Y121639D01*
X104255Y121650D01*
X104244Y121661D01*
X104239D01*
X104128Y121755D01*
X104028Y121861D01*
X103950Y121972D01*
X103884Y122077D01*
X103828Y122172D01*
X103806Y122216D01*
X103789Y122249D01*
X103778Y122283D01*
X103767Y122305D01*
X103762Y122316D01*
Y122321D01*
X103734Y122405D01*
X103706Y122499D01*
X103667Y122688D01*
X103639Y122888D01*
X103623Y123076D01*
X103612Y123159D01*
X103606Y123243D01*
Y123315D01*
X103601Y123376D01*
Y123426D01*
Y123465D01*
Y123493D01*
Y123498D01*
Y123626D01*
X103606Y123748D01*
X103617Y123859D01*
X103628Y123964D01*
X103639Y124058D01*
X103651Y124147D01*
X103667Y124231D01*
X103684Y124303D01*
X103700Y124364D01*
X103712Y124419D01*
X103728Y124469D01*
X103739Y124508D01*
X103751Y124536D01*
X103762Y124558D01*
X103767Y124569D01*
Y124575D01*
X103834Y124708D01*
X103906Y124825D01*
X103989Y124924D01*
X104061Y125008D01*
X104133Y125069D01*
X104189Y125113D01*
X104211Y125130D01*
X104228Y125141D01*
X104233Y125152D01*
X104239D01*
X104355Y125218D01*
X104472Y125268D01*
X104589Y125307D01*
X104694Y125329D01*
X104788Y125346D01*
X104827Y125352D01*
X104855D01*
X104883Y125357D01*
X104922D01*
X105016Y125352D01*
D02*
G37*
G36*
X109800Y121500D02*
X109289D01*
Y123204D01*
X108634D01*
X108573Y123198D01*
X108529D01*
X108490Y123193D01*
X108462Y123187D01*
X108440D01*
X108429Y123182D01*
X108424D01*
X108335Y123154D01*
X108296Y123137D01*
X108263Y123121D01*
X108229Y123104D01*
X108207Y123093D01*
X108196Y123087D01*
X108191Y123082D01*
X108146Y123048D01*
X108102Y123010D01*
X108019Y122926D01*
X107980Y122888D01*
X107952Y122854D01*
X107935Y122832D01*
X107930Y122826D01*
X107874Y122749D01*
X107813Y122666D01*
X107752Y122577D01*
X107691Y122494D01*
X107641Y122416D01*
X107602Y122355D01*
X107586Y122333D01*
X107574Y122316D01*
X107563Y122305D01*
Y122299D01*
X107058Y121500D01*
X106426D01*
X107086Y122543D01*
X107164Y122654D01*
X107236Y122754D01*
X107308Y122838D01*
X107369Y122915D01*
X107425Y122971D01*
X107469Y123015D01*
X107497Y123043D01*
X107508Y123054D01*
X107552Y123087D01*
X107602Y123126D01*
X107702Y123187D01*
X107747Y123209D01*
X107780Y123232D01*
X107802Y123243D01*
X107813Y123248D01*
X107713Y123265D01*
X107619Y123282D01*
X107536Y123309D01*
X107452Y123331D01*
X107380Y123359D01*
X107314Y123393D01*
X107253Y123420D01*
X107197Y123448D01*
X107153Y123481D01*
X107108Y123509D01*
X107075Y123531D01*
X107047Y123554D01*
X107025Y123570D01*
X107008Y123587D01*
X107003Y123592D01*
X106997Y123598D01*
X106953Y123653D01*
X106908Y123709D01*
X106842Y123826D01*
X106798Y123942D01*
X106764Y124053D01*
X106742Y124147D01*
X106736Y124186D01*
Y124225D01*
X106731Y124253D01*
Y124275D01*
Y124286D01*
Y124292D01*
X106736Y124408D01*
X106753Y124514D01*
X106781Y124614D01*
X106808Y124697D01*
X106842Y124769D01*
X106864Y124825D01*
X106886Y124858D01*
X106892Y124863D01*
Y124869D01*
X106958Y124958D01*
X107025Y125035D01*
X107097Y125102D01*
X107164Y125152D01*
X107225Y125191D01*
X107275Y125213D01*
X107308Y125230D01*
X107314Y125235D01*
X107319D01*
X107369Y125252D01*
X107430Y125268D01*
X107552Y125296D01*
X107685Y125313D01*
X107808Y125329D01*
X107924Y125335D01*
X107974D01*
X108019Y125341D01*
X109800D01*
Y121500D01*
D02*
G37*
G36*
X156800D02*
X156289D01*
Y123204D01*
X155634D01*
X155573Y123198D01*
X155529D01*
X155490Y123193D01*
X155462Y123187D01*
X155440D01*
X155429Y123182D01*
X155424D01*
X155335Y123154D01*
X155296Y123137D01*
X155263Y123121D01*
X155229Y123104D01*
X155207Y123093D01*
X155196Y123087D01*
X155191Y123082D01*
X155146Y123048D01*
X155102Y123010D01*
X155018Y122926D01*
X154980Y122888D01*
X154952Y122854D01*
X154935Y122832D01*
X154930Y122826D01*
X154874Y122749D01*
X154813Y122666D01*
X154752Y122577D01*
X154691Y122494D01*
X154641Y122416D01*
X154602Y122355D01*
X154586Y122333D01*
X154575Y122316D01*
X154563Y122305D01*
Y122299D01*
X154058Y121500D01*
X153426D01*
X154086Y122543D01*
X154164Y122654D01*
X154236Y122754D01*
X154308Y122838D01*
X154369Y122915D01*
X154425Y122971D01*
X154469Y123015D01*
X154497Y123043D01*
X154508Y123054D01*
X154552Y123087D01*
X154602Y123126D01*
X154702Y123187D01*
X154746Y123209D01*
X154780Y123232D01*
X154802Y123243D01*
X154813Y123248D01*
X154713Y123265D01*
X154619Y123282D01*
X154536Y123309D01*
X154452Y123331D01*
X154380Y123359D01*
X154314Y123393D01*
X154253Y123420D01*
X154197Y123448D01*
X154153Y123481D01*
X154108Y123509D01*
X154075Y123531D01*
X154047Y123554D01*
X154025Y123570D01*
X154008Y123587D01*
X154003Y123592D01*
X153997Y123598D01*
X153953Y123653D01*
X153908Y123709D01*
X153842Y123826D01*
X153797Y123942D01*
X153764Y124053D01*
X153742Y124147D01*
X153736Y124186D01*
Y124225D01*
X153731Y124253D01*
Y124275D01*
Y124286D01*
Y124292D01*
X153736Y124408D01*
X153753Y124514D01*
X153781Y124614D01*
X153808Y124697D01*
X153842Y124769D01*
X153864Y124825D01*
X153886Y124858D01*
X153892Y124863D01*
Y124869D01*
X153958Y124958D01*
X154025Y125035D01*
X154097Y125102D01*
X154164Y125152D01*
X154225Y125191D01*
X154275Y125213D01*
X154308Y125230D01*
X154314Y125235D01*
X154319D01*
X154369Y125252D01*
X154430Y125268D01*
X154552Y125296D01*
X154685Y125313D01*
X154807Y125329D01*
X154924Y125335D01*
X154974D01*
X155018Y125341D01*
X156800D01*
Y121500D01*
D02*
G37*
G36*
X151966Y125352D02*
X152055Y125346D01*
X152210Y125313D01*
X152282Y125291D01*
X152349Y125268D01*
X152410Y125241D01*
X152465Y125213D01*
X152510Y125185D01*
X152554Y125157D01*
X152593Y125135D01*
X152621Y125113D01*
X152643Y125096D01*
X152660Y125080D01*
X152671Y125074D01*
X152676Y125069D01*
X152726Y125013D01*
X152776Y124958D01*
X152815Y124897D01*
X152848Y124836D01*
X152904Y124719D01*
X152937Y124608D01*
X152959Y124514D01*
X152965Y124469D01*
X152971Y124436D01*
X152976Y124403D01*
Y124380D01*
Y124369D01*
Y124364D01*
X152971Y124264D01*
X152954Y124170D01*
X152932Y124086D01*
X152904Y124014D01*
X152882Y123959D01*
X152859Y123914D01*
X152843Y123892D01*
X152837Y123881D01*
X152776Y123814D01*
X152710Y123753D01*
X152638Y123698D01*
X152565Y123653D01*
X152499Y123620D01*
X152449Y123598D01*
X152427Y123587D01*
X152410Y123581D01*
X152404Y123576D01*
X152399D01*
X152526Y123537D01*
X152632Y123487D01*
X152726Y123426D01*
X152804Y123370D01*
X152865Y123315D01*
X152909Y123270D01*
X152932Y123243D01*
X152943Y123237D01*
Y123232D01*
X153004Y123132D01*
X153054Y123026D01*
X153087Y122926D01*
X153109Y122826D01*
X153120Y122738D01*
X153126Y122699D01*
Y122666D01*
X153131Y122643D01*
Y122621D01*
Y122610D01*
Y122604D01*
X153126Y122516D01*
X153115Y122427D01*
X153098Y122344D01*
X153076Y122260D01*
X153021Y122122D01*
X152993Y122055D01*
X152959Y122000D01*
X152926Y121944D01*
X152898Y121900D01*
X152865Y121861D01*
X152843Y121827D01*
X152821Y121800D01*
X152804Y121783D01*
X152793Y121772D01*
X152787Y121766D01*
X152721Y121705D01*
X152649Y121655D01*
X152571Y121611D01*
X152493Y121572D01*
X152421Y121544D01*
X152343Y121517D01*
X152193Y121478D01*
X152127Y121461D01*
X152066Y121450D01*
X152010Y121444D01*
X151960Y121439D01*
X151922Y121433D01*
X151866D01*
X151761Y121439D01*
X151666Y121450D01*
X151572Y121467D01*
X151483Y121483D01*
X151405Y121511D01*
X151328Y121539D01*
X151256Y121567D01*
X151195Y121600D01*
X151139Y121633D01*
X151089Y121661D01*
X151050Y121689D01*
X151011Y121716D01*
X150984Y121733D01*
X150967Y121750D01*
X150956Y121761D01*
X150950Y121766D01*
X150889Y121833D01*
X150834Y121900D01*
X150789Y121966D01*
X150751Y122038D01*
X150712Y122105D01*
X150684Y122177D01*
X150645Y122305D01*
X150628Y122366D01*
X150617Y122421D01*
X150612Y122471D01*
X150606Y122510D01*
X150601Y122543D01*
Y122571D01*
Y122588D01*
Y122593D01*
X150606Y122721D01*
X150628Y122838D01*
X150662Y122943D01*
X150695Y123032D01*
X150728Y123104D01*
X150762Y123159D01*
X150784Y123193D01*
X150789Y123198D01*
Y123204D01*
X150867Y123293D01*
X150950Y123370D01*
X151039Y123431D01*
X151122Y123487D01*
X151200Y123526D01*
X151267Y123554D01*
X151289Y123565D01*
X151305Y123570D01*
X151317Y123576D01*
X151322D01*
X151222Y123620D01*
X151139Y123670D01*
X151067Y123720D01*
X151006Y123770D01*
X150961Y123814D01*
X150928Y123848D01*
X150906Y123870D01*
X150900Y123881D01*
X150850Y123959D01*
X150817Y124036D01*
X150789Y124114D01*
X150773Y124192D01*
X150762Y124253D01*
X150756Y124303D01*
Y124336D01*
Y124342D01*
Y124347D01*
X150762Y124425D01*
X150767Y124497D01*
X150806Y124636D01*
X150856Y124758D01*
X150911Y124863D01*
X150967Y124947D01*
X150995Y124980D01*
X151017Y125013D01*
X151039Y125035D01*
X151056Y125052D01*
X151061Y125057D01*
X151067Y125063D01*
X151128Y125113D01*
X151189Y125163D01*
X151256Y125202D01*
X151322Y125235D01*
X151455Y125285D01*
X151589Y125318D01*
X151644Y125335D01*
X151699Y125341D01*
X151750Y125346D01*
X151794Y125352D01*
X151827Y125357D01*
X151877D01*
X151966Y125352D01*
D02*
G37*
G36*
X109800Y115100D02*
X109289D01*
Y116804D01*
X108634D01*
X108573Y116798D01*
X108529D01*
X108490Y116793D01*
X108462Y116787D01*
X108440D01*
X108429Y116782D01*
X108424D01*
X108335Y116754D01*
X108296Y116737D01*
X108263Y116721D01*
X108229Y116704D01*
X108207Y116693D01*
X108196Y116687D01*
X108191Y116682D01*
X108146Y116648D01*
X108102Y116610D01*
X108019Y116526D01*
X107980Y116488D01*
X107952Y116454D01*
X107935Y116432D01*
X107930Y116426D01*
X107874Y116349D01*
X107813Y116265D01*
X107752Y116177D01*
X107691Y116094D01*
X107641Y116016D01*
X107602Y115955D01*
X107586Y115933D01*
X107574Y115916D01*
X107563Y115905D01*
Y115899D01*
X107058Y115100D01*
X106426D01*
X107086Y116143D01*
X107164Y116254D01*
X107236Y116354D01*
X107308Y116438D01*
X107369Y116515D01*
X107425Y116571D01*
X107469Y116615D01*
X107497Y116643D01*
X107508Y116654D01*
X107552Y116687D01*
X107602Y116726D01*
X107702Y116787D01*
X107747Y116809D01*
X107780Y116832D01*
X107802Y116843D01*
X107813Y116848D01*
X107713Y116865D01*
X107619Y116882D01*
X107536Y116909D01*
X107452Y116931D01*
X107380Y116959D01*
X107314Y116993D01*
X107253Y117020D01*
X107197Y117048D01*
X107153Y117081D01*
X107108Y117109D01*
X107075Y117131D01*
X107047Y117154D01*
X107025Y117170D01*
X107008Y117187D01*
X107003Y117192D01*
X106997Y117198D01*
X106953Y117253D01*
X106908Y117309D01*
X106842Y117426D01*
X106798Y117542D01*
X106764Y117653D01*
X106742Y117747D01*
X106736Y117786D01*
Y117825D01*
X106731Y117853D01*
Y117875D01*
Y117886D01*
Y117892D01*
X106736Y118008D01*
X106753Y118114D01*
X106781Y118214D01*
X106808Y118297D01*
X106842Y118369D01*
X106864Y118424D01*
X106886Y118458D01*
X106892Y118463D01*
Y118469D01*
X106958Y118558D01*
X107025Y118635D01*
X107097Y118702D01*
X107164Y118752D01*
X107225Y118791D01*
X107275Y118813D01*
X107308Y118830D01*
X107314Y118835D01*
X107319D01*
X107369Y118852D01*
X107430Y118869D01*
X107552Y118896D01*
X107685Y118913D01*
X107808Y118930D01*
X107924Y118935D01*
X107974D01*
X108019Y118941D01*
X109800D01*
Y115100D01*
D02*
G37*
G36*
X106093Y118436D02*
X104211D01*
X104344Y118275D01*
X104472Y118103D01*
X104583Y117936D01*
X104688Y117775D01*
X104733Y117703D01*
X104772Y117636D01*
X104811Y117575D01*
X104838Y117525D01*
X104860Y117481D01*
X104877Y117453D01*
X104888Y117431D01*
X104894Y117426D01*
X105005Y117203D01*
X105105Y116981D01*
X105188Y116771D01*
X105221Y116676D01*
X105254Y116582D01*
X105288Y116499D01*
X105310Y116421D01*
X105332Y116354D01*
X105349Y116299D01*
X105366Y116249D01*
X105377Y116216D01*
X105382Y116193D01*
Y116188D01*
X105438Y115960D01*
X105460Y115849D01*
X105476Y115749D01*
X105493Y115655D01*
X105510Y115561D01*
X105521Y115483D01*
X105532Y115405D01*
X105538Y115339D01*
X105543Y115278D01*
X105549Y115222D01*
Y115178D01*
X105554Y115144D01*
Y115122D01*
Y115105D01*
Y115100D01*
X105071D01*
X105055Y115311D01*
X105027Y115505D01*
X104999Y115683D01*
X104983Y115766D01*
X104966Y115844D01*
X104955Y115910D01*
X104938Y115971D01*
X104927Y116027D01*
X104916Y116071D01*
X104905Y116104D01*
X104899Y116132D01*
X104894Y116149D01*
Y116155D01*
X104811Y116410D01*
X104722Y116648D01*
X104677Y116765D01*
X104633Y116876D01*
X104583Y116976D01*
X104539Y117076D01*
X104500Y117165D01*
X104461Y117242D01*
X104428Y117309D01*
X104400Y117370D01*
X104372Y117420D01*
X104355Y117453D01*
X104344Y117475D01*
X104339Y117481D01*
X104272Y117597D01*
X104206Y117714D01*
X104139Y117819D01*
X104072Y117919D01*
X104011Y118008D01*
X103950Y118097D01*
X103889Y118175D01*
X103839Y118241D01*
X103789Y118308D01*
X103745Y118363D01*
X103700Y118408D01*
X103667Y118447D01*
X103645Y118480D01*
X103623Y118502D01*
X103612Y118513D01*
X103606Y118519D01*
Y118891D01*
X106093D01*
Y118436D01*
D02*
G37*
G36*
X151877Y118952D02*
X151983Y118941D01*
X152083Y118918D01*
X152177Y118891D01*
X152260Y118852D01*
X152343Y118818D01*
X152416Y118774D01*
X152482Y118735D01*
X152538Y118696D01*
X152593Y118652D01*
X152638Y118619D01*
X152671Y118585D01*
X152699Y118552D01*
X152721Y118530D01*
X152732Y118519D01*
X152737Y118513D01*
X152810Y118413D01*
X152871Y118297D01*
X152926Y118175D01*
X152976Y118047D01*
X153015Y117914D01*
X153048Y117781D01*
X153076Y117642D01*
X153098Y117514D01*
X153115Y117387D01*
X153126Y117270D01*
X153137Y117165D01*
X153143Y117076D01*
Y116998D01*
X153148Y116943D01*
Y116920D01*
Y116904D01*
Y116898D01*
Y116893D01*
X153143Y116715D01*
X153131Y116549D01*
X153115Y116393D01*
X153087Y116249D01*
X153059Y116121D01*
X153032Y116005D01*
X152998Y115899D01*
X152959Y115805D01*
X152926Y115727D01*
X152893Y115655D01*
X152865Y115600D01*
X152832Y115550D01*
X152810Y115511D01*
X152793Y115489D01*
X152782Y115472D01*
X152776Y115466D01*
X152704Y115389D01*
X152626Y115322D01*
X152549Y115267D01*
X152471Y115217D01*
X152388Y115172D01*
X152310Y115139D01*
X152232Y115111D01*
X152155Y115089D01*
X152088Y115072D01*
X152022Y115056D01*
X151966Y115044D01*
X151916Y115039D01*
X151872D01*
X151844Y115033D01*
X151816D01*
X151688Y115039D01*
X151572Y115061D01*
X151467Y115083D01*
X151372Y115117D01*
X151300Y115144D01*
X151244Y115172D01*
X151222Y115178D01*
X151206Y115189D01*
X151200Y115194D01*
X151195D01*
X151100Y115261D01*
X151011Y115339D01*
X150939Y115416D01*
X150878Y115494D01*
X150828Y115566D01*
X150795Y115622D01*
X150784Y115644D01*
X150773Y115661D01*
X150767Y115666D01*
Y115672D01*
X150712Y115788D01*
X150673Y115910D01*
X150645Y116021D01*
X150628Y116127D01*
X150612Y116216D01*
Y116249D01*
X150606Y116282D01*
Y116310D01*
Y116326D01*
Y116338D01*
Y116343D01*
X150612Y116443D01*
X150623Y116537D01*
X150639Y116632D01*
X150656Y116715D01*
X150684Y116793D01*
X150712Y116870D01*
X150739Y116937D01*
X150773Y116998D01*
X150806Y117054D01*
X150834Y117104D01*
X150862Y117142D01*
X150889Y117181D01*
X150906Y117209D01*
X150923Y117226D01*
X150934Y117237D01*
X150939Y117242D01*
X151000Y117303D01*
X151067Y117359D01*
X151139Y117403D01*
X151206Y117442D01*
X151272Y117481D01*
X151339Y117509D01*
X151467Y117548D01*
X151522Y117564D01*
X151577Y117575D01*
X151622Y117581D01*
X151666Y117586D01*
X151699Y117592D01*
X151744D01*
X151844Y117586D01*
X151938Y117570D01*
X152027Y117553D01*
X152105Y117531D01*
X152171Y117503D01*
X152221Y117487D01*
X152254Y117470D01*
X152260Y117464D01*
X152266D01*
X152354Y117409D01*
X152432Y117348D01*
X152504Y117287D01*
X152560Y117220D01*
X152610Y117165D01*
X152649Y117120D01*
X152671Y117087D01*
X152676Y117081D01*
Y117181D01*
X152671Y117281D01*
X152665Y117370D01*
X152654Y117459D01*
X152649Y117536D01*
X152638Y117609D01*
X152626Y117675D01*
X152610Y117736D01*
X152599Y117792D01*
X152588Y117836D01*
X152576Y117875D01*
X152571Y117908D01*
X152560Y117930D01*
X152554Y117947D01*
X152549Y117958D01*
Y117964D01*
X152493Y118075D01*
X152438Y118175D01*
X152377Y118252D01*
X152321Y118319D01*
X152271Y118375D01*
X152232Y118413D01*
X152205Y118436D01*
X152193Y118441D01*
X152127Y118485D01*
X152060Y118513D01*
X151994Y118535D01*
X151927Y118552D01*
X151877Y118563D01*
X151833Y118569D01*
X151794D01*
X151694Y118558D01*
X151600Y118535D01*
X151522Y118502D01*
X151450Y118469D01*
X151394Y118430D01*
X151355Y118397D01*
X151333Y118375D01*
X151322Y118363D01*
X151283Y118313D01*
X151244Y118252D01*
X151211Y118186D01*
X151189Y118119D01*
X151167Y118058D01*
X151150Y118008D01*
X151145Y117975D01*
X151139Y117969D01*
Y117964D01*
X150667Y118003D01*
X150700Y118158D01*
X150751Y118297D01*
X150806Y118419D01*
X150867Y118519D01*
X150928Y118596D01*
X150950Y118630D01*
X150978Y118658D01*
X150995Y118674D01*
X151011Y118691D01*
X151017Y118696D01*
X151023Y118702D01*
X151078Y118746D01*
X151139Y118785D01*
X151261Y118852D01*
X151383Y118896D01*
X151500Y118924D01*
X151605Y118946D01*
X151650Y118952D01*
X151688D01*
X151722Y118957D01*
X151766D01*
X151877Y118952D01*
D02*
G37*
G36*
X156800Y115100D02*
X156289D01*
Y116804D01*
X155634D01*
X155573Y116798D01*
X155529D01*
X155490Y116793D01*
X155462Y116787D01*
X155440D01*
X155429Y116782D01*
X155424D01*
X155335Y116754D01*
X155296Y116737D01*
X155263Y116721D01*
X155229Y116704D01*
X155207Y116693D01*
X155196Y116687D01*
X155191Y116682D01*
X155146Y116648D01*
X155102Y116610D01*
X155018Y116526D01*
X154980Y116488D01*
X154952Y116454D01*
X154935Y116432D01*
X154930Y116426D01*
X154874Y116349D01*
X154813Y116265D01*
X154752Y116177D01*
X154691Y116094D01*
X154641Y116016D01*
X154602Y115955D01*
X154586Y115933D01*
X154575Y115916D01*
X154563Y115905D01*
Y115899D01*
X154058Y115100D01*
X153426D01*
X154086Y116143D01*
X154164Y116254D01*
X154236Y116354D01*
X154308Y116438D01*
X154369Y116515D01*
X154425Y116571D01*
X154469Y116615D01*
X154497Y116643D01*
X154508Y116654D01*
X154552Y116687D01*
X154602Y116726D01*
X154702Y116787D01*
X154746Y116809D01*
X154780Y116832D01*
X154802Y116843D01*
X154813Y116848D01*
X154713Y116865D01*
X154619Y116882D01*
X154536Y116909D01*
X154452Y116931D01*
X154380Y116959D01*
X154314Y116993D01*
X154253Y117020D01*
X154197Y117048D01*
X154153Y117081D01*
X154108Y117109D01*
X154075Y117131D01*
X154047Y117154D01*
X154025Y117170D01*
X154008Y117187D01*
X154003Y117192D01*
X153997Y117198D01*
X153953Y117253D01*
X153908Y117309D01*
X153842Y117426D01*
X153797Y117542D01*
X153764Y117653D01*
X153742Y117747D01*
X153736Y117786D01*
Y117825D01*
X153731Y117853D01*
Y117875D01*
Y117886D01*
Y117892D01*
X153736Y118008D01*
X153753Y118114D01*
X153781Y118214D01*
X153808Y118297D01*
X153842Y118369D01*
X153864Y118424D01*
X153886Y118458D01*
X153892Y118463D01*
Y118469D01*
X153958Y118558D01*
X154025Y118635D01*
X154097Y118702D01*
X154164Y118752D01*
X154225Y118791D01*
X154275Y118813D01*
X154308Y118830D01*
X154314Y118835D01*
X154319D01*
X154369Y118852D01*
X154430Y118869D01*
X154552Y118896D01*
X154685Y118913D01*
X154807Y118930D01*
X154924Y118935D01*
X154974D01*
X155018Y118941D01*
X156800D01*
Y115100D01*
D02*
G37*
G36*
X106043Y110415D02*
X105599Y110354D01*
X105560Y110415D01*
X105510Y110465D01*
X105465Y110515D01*
X105421Y110554D01*
X105377Y110581D01*
X105343Y110609D01*
X105321Y110620D01*
X105316Y110626D01*
X105244Y110659D01*
X105171Y110687D01*
X105105Y110703D01*
X105038Y110720D01*
X104983Y110726D01*
X104938Y110731D01*
X104833D01*
X104766Y110720D01*
X104650Y110692D01*
X104550Y110653D01*
X104461Y110615D01*
X104394Y110570D01*
X104344Y110531D01*
X104317Y110504D01*
X104306Y110498D01*
Y110493D01*
X104228Y110398D01*
X104172Y110298D01*
X104133Y110193D01*
X104106Y110087D01*
X104089Y109999D01*
X104084Y109960D01*
Y109926D01*
X104078Y109899D01*
Y109877D01*
Y109865D01*
Y109860D01*
Y109782D01*
X104089Y109710D01*
X104117Y109571D01*
X104156Y109455D01*
X104194Y109360D01*
X104239Y109283D01*
X104278Y109222D01*
X104294Y109205D01*
X104306Y109188D01*
X104311Y109183D01*
X104317Y109177D01*
X104361Y109133D01*
X104405Y109094D01*
X104505Y109027D01*
X104600Y108983D01*
X104694Y108955D01*
X104772Y108933D01*
X104838Y108927D01*
X104860Y108922D01*
X104894D01*
X104999Y108927D01*
X105094Y108950D01*
X105177Y108977D01*
X105244Y109011D01*
X105305Y109044D01*
X105349Y109072D01*
X105371Y109094D01*
X105382Y109099D01*
X105449Y109177D01*
X105504Y109260D01*
X105549Y109355D01*
X105582Y109438D01*
X105604Y109521D01*
X105621Y109582D01*
X105626Y109610D01*
X105632Y109627D01*
Y109638D01*
Y109643D01*
X106126Y109605D01*
X106115Y109516D01*
X106098Y109432D01*
X106048Y109277D01*
X105987Y109144D01*
X105954Y109083D01*
X105921Y109033D01*
X105893Y108983D01*
X105859Y108939D01*
X105832Y108905D01*
X105804Y108878D01*
X105782Y108855D01*
X105771Y108833D01*
X105760Y108827D01*
X105754Y108822D01*
X105687Y108772D01*
X105621Y108728D01*
X105549Y108689D01*
X105476Y108656D01*
X105338Y108606D01*
X105199Y108572D01*
X105138Y108556D01*
X105077Y108550D01*
X105027Y108545D01*
X104983Y108539D01*
X104944Y108533D01*
X104894D01*
X104777Y108539D01*
X104666Y108556D01*
X104561Y108578D01*
X104466Y108606D01*
X104378Y108644D01*
X104294Y108683D01*
X104217Y108722D01*
X104150Y108766D01*
X104089Y108811D01*
X104034Y108850D01*
X103989Y108894D01*
X103950Y108927D01*
X103923Y108955D01*
X103900Y108977D01*
X103889Y108994D01*
X103884Y109000D01*
X103828Y109072D01*
X103784Y109150D01*
X103739Y109222D01*
X103706Y109299D01*
X103651Y109449D01*
X103617Y109593D01*
X103606Y109654D01*
X103595Y109716D01*
X103590Y109766D01*
X103584Y109810D01*
X103578Y109849D01*
Y109877D01*
Y109893D01*
Y109899D01*
X103584Y109999D01*
X103595Y110093D01*
X103612Y110187D01*
X103634Y110271D01*
X103662Y110348D01*
X103690Y110426D01*
X103723Y110493D01*
X103751Y110554D01*
X103784Y110609D01*
X103817Y110659D01*
X103845Y110698D01*
X103873Y110737D01*
X103895Y110765D01*
X103911Y110781D01*
X103923Y110792D01*
X103928Y110798D01*
X103995Y110859D01*
X104061Y110914D01*
X104133Y110959D01*
X104206Y110998D01*
X104278Y111036D01*
X104350Y111064D01*
X104483Y111103D01*
X104544Y111120D01*
X104600Y111131D01*
X104650Y111136D01*
X104694Y111142D01*
X104727Y111147D01*
X104849D01*
X104916Y111136D01*
X105049Y111109D01*
X105171Y111070D01*
X105282Y111025D01*
X105371Y110981D01*
X105410Y110959D01*
X105443Y110942D01*
X105471Y110925D01*
X105488Y110914D01*
X105499Y110909D01*
X105504Y110903D01*
X105299Y111941D01*
X103762D01*
Y112391D01*
X105671D01*
X106043Y110415D01*
D02*
G37*
G36*
X109800Y108600D02*
X109289D01*
Y110304D01*
X108634D01*
X108573Y110298D01*
X108529D01*
X108490Y110293D01*
X108462Y110287D01*
X108440D01*
X108429Y110282D01*
X108424D01*
X108335Y110254D01*
X108296Y110237D01*
X108263Y110221D01*
X108229Y110204D01*
X108207Y110193D01*
X108196Y110187D01*
X108191Y110182D01*
X108146Y110149D01*
X108102Y110110D01*
X108019Y110026D01*
X107980Y109987D01*
X107952Y109954D01*
X107935Y109932D01*
X107930Y109926D01*
X107874Y109849D01*
X107813Y109766D01*
X107752Y109677D01*
X107691Y109593D01*
X107641Y109516D01*
X107602Y109455D01*
X107586Y109432D01*
X107574Y109416D01*
X107563Y109405D01*
Y109399D01*
X107058Y108600D01*
X106426D01*
X107086Y109643D01*
X107164Y109754D01*
X107236Y109854D01*
X107308Y109938D01*
X107369Y110015D01*
X107425Y110071D01*
X107469Y110115D01*
X107497Y110143D01*
X107508Y110154D01*
X107552Y110187D01*
X107602Y110226D01*
X107702Y110287D01*
X107747Y110309D01*
X107780Y110332D01*
X107802Y110343D01*
X107813Y110348D01*
X107713Y110365D01*
X107619Y110381D01*
X107536Y110409D01*
X107452Y110432D01*
X107380Y110459D01*
X107314Y110493D01*
X107253Y110520D01*
X107197Y110548D01*
X107153Y110581D01*
X107108Y110609D01*
X107075Y110631D01*
X107047Y110653D01*
X107025Y110670D01*
X107008Y110687D01*
X107003Y110692D01*
X106997Y110698D01*
X106953Y110753D01*
X106908Y110809D01*
X106842Y110925D01*
X106798Y111042D01*
X106764Y111153D01*
X106742Y111247D01*
X106736Y111286D01*
Y111325D01*
X106731Y111353D01*
Y111375D01*
Y111386D01*
Y111392D01*
X106736Y111508D01*
X106753Y111614D01*
X106781Y111714D01*
X106808Y111797D01*
X106842Y111869D01*
X106864Y111925D01*
X106886Y111958D01*
X106892Y111963D01*
Y111969D01*
X106958Y112058D01*
X107025Y112135D01*
X107097Y112202D01*
X107164Y112252D01*
X107225Y112291D01*
X107275Y112313D01*
X107308Y112330D01*
X107314Y112335D01*
X107319D01*
X107369Y112352D01*
X107430Y112369D01*
X107552Y112396D01*
X107685Y112413D01*
X107808Y112429D01*
X107924Y112435D01*
X107974D01*
X108019Y112441D01*
X109800D01*
Y108600D01*
D02*
G37*
G36*
X156800D02*
X156289D01*
Y110304D01*
X155634D01*
X155573Y110298D01*
X155529D01*
X155490Y110293D01*
X155462Y110287D01*
X155440D01*
X155429Y110282D01*
X155424D01*
X155335Y110254D01*
X155296Y110237D01*
X155263Y110221D01*
X155229Y110204D01*
X155207Y110193D01*
X155196Y110187D01*
X155191Y110182D01*
X155146Y110149D01*
X155102Y110110D01*
X155018Y110026D01*
X154980Y109987D01*
X154952Y109954D01*
X154935Y109932D01*
X154930Y109926D01*
X154874Y109849D01*
X154813Y109766D01*
X154752Y109677D01*
X154691Y109593D01*
X154641Y109516D01*
X154602Y109455D01*
X154586Y109432D01*
X154575Y109416D01*
X154563Y109405D01*
Y109399D01*
X154058Y108600D01*
X153426D01*
X154086Y109643D01*
X154164Y109754D01*
X154236Y109854D01*
X154308Y109938D01*
X154369Y110015D01*
X154425Y110071D01*
X154469Y110115D01*
X154497Y110143D01*
X154508Y110154D01*
X154552Y110187D01*
X154602Y110226D01*
X154702Y110287D01*
X154746Y110309D01*
X154780Y110332D01*
X154802Y110343D01*
X154813Y110348D01*
X154713Y110365D01*
X154619Y110381D01*
X154536Y110409D01*
X154452Y110432D01*
X154380Y110459D01*
X154314Y110493D01*
X154253Y110520D01*
X154197Y110548D01*
X154153Y110581D01*
X154108Y110609D01*
X154075Y110631D01*
X154047Y110653D01*
X154025Y110670D01*
X154008Y110687D01*
X154003Y110692D01*
X153997Y110698D01*
X153953Y110753D01*
X153908Y110809D01*
X153842Y110925D01*
X153797Y111042D01*
X153764Y111153D01*
X153742Y111247D01*
X153736Y111286D01*
Y111325D01*
X153731Y111353D01*
Y111375D01*
Y111386D01*
Y111392D01*
X153736Y111508D01*
X153753Y111614D01*
X153781Y111714D01*
X153808Y111797D01*
X153842Y111869D01*
X153864Y111925D01*
X153886Y111958D01*
X153892Y111963D01*
Y111969D01*
X153958Y112058D01*
X154025Y112135D01*
X154097Y112202D01*
X154164Y112252D01*
X154225Y112291D01*
X154275Y112313D01*
X154308Y112330D01*
X154314Y112335D01*
X154319D01*
X154369Y112352D01*
X154430Y112369D01*
X154552Y112396D01*
X154685Y112413D01*
X154807Y112429D01*
X154924Y112435D01*
X154974D01*
X155018Y112441D01*
X156800D01*
Y108600D01*
D02*
G37*
G36*
X153287Y109954D02*
Y109521D01*
X151616D01*
Y108600D01*
X151145D01*
Y109521D01*
X150623D01*
Y109954D01*
X151145D01*
Y112441D01*
X151528D01*
X153287Y109954D01*
D02*
G37*
G36*
X131879Y244287D02*
X132029Y244259D01*
X132157Y244215D01*
X132268Y244170D01*
X132318Y244142D01*
X132357Y244120D01*
X132396Y244098D01*
X132423Y244076D01*
X132446Y244059D01*
X132462Y244048D01*
X132473Y244042D01*
X132479Y244037D01*
X132584Y243931D01*
X132668Y243815D01*
X132734Y243693D01*
X132790Y243571D01*
X132823Y243465D01*
X132840Y243421D01*
X132851Y243382D01*
X132856Y243349D01*
X132862Y243326D01*
X132867Y243310D01*
Y243304D01*
X132396Y243221D01*
X132373Y243343D01*
X132340Y243449D01*
X132301Y243537D01*
X132262Y243609D01*
X132223Y243665D01*
X132190Y243704D01*
X132168Y243732D01*
X132162Y243737D01*
X132090Y243793D01*
X132013Y243837D01*
X131940Y243865D01*
X131868Y243887D01*
X131802Y243898D01*
X131752Y243909D01*
X131707D01*
X131607Y243904D01*
X131519Y243882D01*
X131441Y243854D01*
X131374Y243826D01*
X131324Y243793D01*
X131286Y243765D01*
X131258Y243743D01*
X131252Y243737D01*
X131191Y243671D01*
X131147Y243598D01*
X131119Y243526D01*
X131097Y243460D01*
X131086Y243399D01*
X131075Y243354D01*
Y243321D01*
Y243315D01*
Y243310D01*
Y243249D01*
X131086Y243193D01*
X131114Y243099D01*
X131152Y243016D01*
X131197Y242944D01*
X131241Y242894D01*
X131280Y242855D01*
X131308Y242832D01*
X131313Y242827D01*
X131319D01*
X131413Y242777D01*
X131502Y242738D01*
X131596Y242710D01*
X131680Y242694D01*
X131752Y242683D01*
X131813Y242672D01*
X131885D01*
X131907Y242677D01*
X131935D01*
X131990Y242261D01*
X131918Y242278D01*
X131852Y242289D01*
X131796Y242300D01*
X131746Y242305D01*
X131707Y242311D01*
X131657D01*
X131541Y242300D01*
X131435Y242278D01*
X131341Y242244D01*
X131263Y242205D01*
X131202Y242166D01*
X131158Y242133D01*
X131130Y242111D01*
X131119Y242100D01*
X131047Y242017D01*
X130991Y241928D01*
X130953Y241839D01*
X130930Y241750D01*
X130914Y241678D01*
X130908Y241617D01*
X130903Y241595D01*
Y241578D01*
Y241567D01*
Y241562D01*
X130914Y241440D01*
X130941Y241329D01*
X130975Y241234D01*
X131019Y241151D01*
X131064Y241084D01*
X131097Y241034D01*
X131125Y241001D01*
X131136Y240990D01*
X131225Y240912D01*
X131319Y240857D01*
X131413Y240818D01*
X131502Y240790D01*
X131580Y240774D01*
X131641Y240768D01*
X131663Y240762D01*
X131696D01*
X131796Y240768D01*
X131890Y240790D01*
X131974Y240818D01*
X132040Y240851D01*
X132096Y240879D01*
X132140Y240907D01*
X132162Y240929D01*
X132174Y240934D01*
X132240Y241012D01*
X132296Y241101D01*
X132346Y241195D01*
X132384Y241295D01*
X132412Y241378D01*
X132423Y241417D01*
X132429Y241451D01*
X132434Y241478D01*
X132440Y241500D01*
X132446Y241512D01*
Y241517D01*
X132917Y241456D01*
X132906Y241367D01*
X132889Y241284D01*
X132840Y241129D01*
X132779Y240996D01*
X132745Y240940D01*
X132712Y240884D01*
X132679Y240834D01*
X132645Y240796D01*
X132618Y240757D01*
X132590Y240729D01*
X132573Y240707D01*
X132556Y240690D01*
X132545Y240679D01*
X132540Y240674D01*
X132473Y240624D01*
X132407Y240574D01*
X132340Y240535D01*
X132268Y240501D01*
X132129Y240446D01*
X131996Y240413D01*
X131935Y240402D01*
X131879Y240390D01*
X131829Y240385D01*
X131785Y240379D01*
X131752Y240374D01*
X131702D01*
X131596Y240379D01*
X131502Y240390D01*
X131408Y240407D01*
X131319Y240429D01*
X131236Y240457D01*
X131163Y240485D01*
X131091Y240518D01*
X131030Y240551D01*
X130969Y240579D01*
X130919Y240613D01*
X130875Y240640D01*
X130842Y240668D01*
X130814Y240690D01*
X130792Y240707D01*
X130780Y240718D01*
X130775Y240723D01*
X130708Y240790D01*
X130653Y240862D01*
X130603Y240934D01*
X130559Y241007D01*
X130525Y241073D01*
X130492Y241145D01*
X130447Y241279D01*
X130436Y241340D01*
X130425Y241395D01*
X130414Y241445D01*
X130409Y241489D01*
X130403Y241523D01*
Y241550D01*
Y241567D01*
Y241573D01*
X130409Y241706D01*
X130431Y241828D01*
X130464Y241933D01*
X130498Y242022D01*
X130531Y242094D01*
X130564Y242150D01*
X130586Y242183D01*
X130592Y242194D01*
X130669Y242278D01*
X130753Y242350D01*
X130842Y242405D01*
X130930Y242450D01*
X131008Y242483D01*
X131069Y242505D01*
X131091Y242511D01*
X131108Y242516D01*
X131119Y242522D01*
X131125D01*
X131030Y242572D01*
X130953Y242622D01*
X130886Y242677D01*
X130830Y242727D01*
X130786Y242772D01*
X130753Y242810D01*
X130736Y242832D01*
X130730Y242844D01*
X130686Y242921D01*
X130653Y242999D01*
X130625Y243077D01*
X130608Y243149D01*
X130597Y243210D01*
X130592Y243254D01*
Y243288D01*
Y243299D01*
X130597Y243393D01*
X130614Y243487D01*
X130636Y243571D01*
X130664Y243643D01*
X130692Y243704D01*
X130714Y243754D01*
X130730Y243782D01*
X130736Y243793D01*
X130792Y243876D01*
X130858Y243948D01*
X130925Y244009D01*
X130991Y244065D01*
X131047Y244104D01*
X131097Y244137D01*
X131130Y244153D01*
X131136Y244159D01*
X131141D01*
X131241Y244203D01*
X131341Y244237D01*
X131441Y244264D01*
X131530Y244281D01*
X131602Y244292D01*
X131663Y244298D01*
X131802D01*
X131879Y244287D01*
D02*
G37*
G36*
X136597Y240441D02*
X136086D01*
Y242144D01*
X135431D01*
X135370Y242139D01*
X135326D01*
X135287Y242133D01*
X135259Y242128D01*
X135237D01*
X135226Y242122D01*
X135221D01*
X135132Y242094D01*
X135093Y242078D01*
X135059Y242061D01*
X135026Y242044D01*
X135004Y242033D01*
X134993Y242028D01*
X134987Y242022D01*
X134943Y241989D01*
X134899Y241950D01*
X134815Y241867D01*
X134776Y241828D01*
X134749Y241795D01*
X134732Y241773D01*
X134727Y241767D01*
X134671Y241689D01*
X134610Y241606D01*
X134549Y241517D01*
X134488Y241434D01*
X134438Y241356D01*
X134399Y241295D01*
X134382Y241273D01*
X134371Y241256D01*
X134360Y241245D01*
Y241240D01*
X133855Y240441D01*
X133222D01*
X133883Y241484D01*
X133961Y241595D01*
X134033Y241695D01*
X134105Y241778D01*
X134166Y241856D01*
X134221Y241911D01*
X134266Y241956D01*
X134294Y241983D01*
X134305Y241995D01*
X134349Y242028D01*
X134399Y242067D01*
X134499Y242128D01*
X134543Y242150D01*
X134577Y242172D01*
X134599Y242183D01*
X134610Y242189D01*
X134510Y242205D01*
X134416Y242222D01*
X134333Y242250D01*
X134249Y242272D01*
X134177Y242300D01*
X134110Y242333D01*
X134049Y242361D01*
X133994Y242389D01*
X133949Y242422D01*
X133905Y242450D01*
X133872Y242472D01*
X133844Y242494D01*
X133822Y242511D01*
X133805Y242527D01*
X133800Y242533D01*
X133794Y242538D01*
X133750Y242594D01*
X133705Y242649D01*
X133639Y242766D01*
X133594Y242882D01*
X133561Y242993D01*
X133539Y243088D01*
X133533Y243127D01*
Y243165D01*
X133528Y243193D01*
Y243215D01*
Y243227D01*
Y243232D01*
X133533Y243349D01*
X133550Y243454D01*
X133578Y243554D01*
X133605Y243637D01*
X133639Y243709D01*
X133661Y243765D01*
X133683Y243798D01*
X133689Y243804D01*
Y243809D01*
X133755Y243898D01*
X133822Y243976D01*
X133894Y244042D01*
X133961Y244092D01*
X134022Y244131D01*
X134072Y244153D01*
X134105Y244170D01*
X134110Y244176D01*
X134116D01*
X134166Y244192D01*
X134227Y244209D01*
X134349Y244237D01*
X134482Y244253D01*
X134604Y244270D01*
X134721Y244275D01*
X134771D01*
X134815Y244281D01*
X136597D01*
Y240441D01*
D02*
G37*
G36*
X143732Y244423D02*
X143827Y244418D01*
X143915Y244401D01*
X143999Y244384D01*
X144076Y244362D01*
X144149Y244340D01*
X144215Y244312D01*
X144276Y244284D01*
X144332Y244257D01*
X144376Y244229D01*
X144415Y244207D01*
X144448Y244184D01*
X144476Y244168D01*
X144493Y244151D01*
X144504Y244146D01*
X144509Y244140D01*
X144565Y244085D01*
X144615Y244023D01*
X144665Y243957D01*
X144704Y243890D01*
X144770Y243757D01*
X144815Y243624D01*
X144831Y243563D01*
X144848Y243502D01*
X144859Y243452D01*
X144870Y243407D01*
X144876Y243369D01*
Y243341D01*
X144881Y243324D01*
Y243319D01*
X144398Y243269D01*
X144387Y243396D01*
X144365Y243507D01*
X144332Y243607D01*
X144293Y243685D01*
X144260Y243752D01*
X144226Y243796D01*
X144204Y243824D01*
X144193Y243835D01*
X144110Y243901D01*
X144021Y243951D01*
X143927Y243990D01*
X143843Y244012D01*
X143766Y244029D01*
X143699Y244035D01*
X143677Y244040D01*
X143643D01*
X143527Y244035D01*
X143421Y244012D01*
X143333Y243979D01*
X143255Y243946D01*
X143194Y243907D01*
X143155Y243879D01*
X143127Y243857D01*
X143116Y243846D01*
X143050Y243768D01*
X143000Y243690D01*
X142961Y243613D01*
X142939Y243535D01*
X142922Y243474D01*
X142917Y243419D01*
X142911Y243385D01*
Y243380D01*
Y243374D01*
X142922Y243274D01*
X142944Y243169D01*
X142983Y243074D01*
X143022Y242986D01*
X143066Y242914D01*
X143105Y242852D01*
X143116Y242830D01*
X143127Y242814D01*
X143139Y242808D01*
Y242803D01*
X143183Y242741D01*
X143238Y242680D01*
X143299Y242614D01*
X143366Y242547D01*
X143505Y242414D01*
X143643Y242281D01*
X143716Y242220D01*
X143777Y242164D01*
X143838Y242114D01*
X143888Y242070D01*
X143927Y242037D01*
X143960Y242009D01*
X143982Y241992D01*
X143988Y241987D01*
X144126Y241870D01*
X144254Y241759D01*
X144360Y241659D01*
X144443Y241576D01*
X144515Y241504D01*
X144565Y241454D01*
X144593Y241421D01*
X144604Y241415D01*
Y241409D01*
X144681Y241315D01*
X144742Y241226D01*
X144798Y241138D01*
X144842Y241060D01*
X144876Y240993D01*
X144898Y240943D01*
X144909Y240910D01*
X144914Y240904D01*
Y240899D01*
X144937Y240838D01*
X144948Y240782D01*
X144959Y240727D01*
X144964Y240677D01*
X144970Y240632D01*
Y240599D01*
Y240577D01*
Y240571D01*
X142422D01*
Y241026D01*
X144315D01*
X144248Y241121D01*
X144215Y241160D01*
X144187Y241198D01*
X144160Y241232D01*
X144138Y241254D01*
X144121Y241271D01*
X144115Y241276D01*
X144088Y241304D01*
X144054Y241332D01*
X143976Y241404D01*
X143888Y241487D01*
X143793Y241570D01*
X143705Y241642D01*
X143666Y241676D01*
X143632Y241709D01*
X143605Y241731D01*
X143582Y241748D01*
X143571Y241759D01*
X143566Y241765D01*
X143477Y241842D01*
X143388Y241915D01*
X143310Y241987D01*
X143238Y242048D01*
X143172Y242109D01*
X143116Y242164D01*
X143061Y242214D01*
X143016Y242259D01*
X142972Y242303D01*
X142939Y242336D01*
X142911Y242364D01*
X142883Y242392D01*
X142855Y242425D01*
X142844Y242436D01*
X142767Y242530D01*
X142700Y242614D01*
X142645Y242697D01*
X142600Y242764D01*
X142567Y242825D01*
X142545Y242869D01*
X142534Y242897D01*
X142528Y242908D01*
X142495Y242991D01*
X142473Y243074D01*
X142450Y243152D01*
X142439Y243219D01*
X142434Y243280D01*
X142428Y243324D01*
Y243352D01*
Y243363D01*
X142434Y243446D01*
X142445Y243524D01*
X142456Y243602D01*
X142478Y243668D01*
X142534Y243801D01*
X142589Y243907D01*
X142622Y243957D01*
X142650Y243996D01*
X142678Y244035D01*
X142706Y244062D01*
X142728Y244085D01*
X142739Y244107D01*
X142750Y244112D01*
X142755Y244118D01*
X142817Y244173D01*
X142883Y244223D01*
X142955Y244262D01*
X143027Y244295D01*
X143172Y244351D01*
X143316Y244390D01*
X143377Y244401D01*
X143438Y244412D01*
X143494Y244418D01*
X143538Y244423D01*
X143577Y244429D01*
X143632D01*
X143732Y244423D01*
D02*
G37*
G36*
X148577Y240571D02*
X148067D01*
Y242275D01*
X147412D01*
X147351Y242270D01*
X147307D01*
X147268Y242264D01*
X147240Y242259D01*
X147218D01*
X147207Y242253D01*
X147201D01*
X147112Y242225D01*
X147073Y242209D01*
X147040Y242192D01*
X147007Y242175D01*
X146985Y242164D01*
X146974Y242159D01*
X146968Y242153D01*
X146924Y242120D01*
X146879Y242081D01*
X146796Y241998D01*
X146757Y241959D01*
X146729Y241926D01*
X146713Y241903D01*
X146707Y241898D01*
X146652Y241820D01*
X146591Y241737D01*
X146529Y241648D01*
X146468Y241565D01*
X146418Y241487D01*
X146380Y241426D01*
X146363Y241404D01*
X146352Y241387D01*
X146341Y241376D01*
Y241371D01*
X145836Y240571D01*
X145203D01*
X145863Y241615D01*
X145941Y241726D01*
X146013Y241826D01*
X146086Y241909D01*
X146147Y241987D01*
X146202Y242042D01*
X146247Y242087D01*
X146274Y242114D01*
X146285Y242125D01*
X146330Y242159D01*
X146380Y242197D01*
X146480Y242259D01*
X146524Y242281D01*
X146557Y242303D01*
X146580Y242314D01*
X146591Y242320D01*
X146491Y242336D01*
X146396Y242353D01*
X146313Y242381D01*
X146230Y242403D01*
X146158Y242431D01*
X146091Y242464D01*
X146030Y242492D01*
X145975Y242519D01*
X145930Y242553D01*
X145886Y242581D01*
X145852Y242603D01*
X145825Y242625D01*
X145802Y242641D01*
X145786Y242658D01*
X145780Y242664D01*
X145775Y242669D01*
X145730Y242725D01*
X145686Y242780D01*
X145619Y242897D01*
X145575Y243013D01*
X145542Y243124D01*
X145519Y243219D01*
X145514Y243258D01*
Y243296D01*
X145508Y243324D01*
Y243346D01*
Y243357D01*
Y243363D01*
X145514Y243480D01*
X145530Y243585D01*
X145558Y243685D01*
X145586Y243768D01*
X145619Y243840D01*
X145642Y243896D01*
X145664Y243929D01*
X145669Y243935D01*
Y243940D01*
X145736Y244029D01*
X145802Y244107D01*
X145875Y244173D01*
X145941Y244223D01*
X146002Y244262D01*
X146052Y244284D01*
X146086Y244301D01*
X146091Y244306D01*
X146097D01*
X146147Y244323D01*
X146208Y244340D01*
X146330Y244368D01*
X146463Y244384D01*
X146585Y244401D01*
X146702Y244406D01*
X146751D01*
X146796Y244412D01*
X148577D01*
Y240571D01*
D02*
G37*
G36*
X120136Y244334D02*
X120197Y244246D01*
X120269Y244157D01*
X120335Y244079D01*
X120402Y244012D01*
X120452Y243957D01*
X120474Y243940D01*
X120491Y243924D01*
X120496Y243918D01*
X120502Y243913D01*
X120619Y243818D01*
X120735Y243729D01*
X120846Y243652D01*
X120957Y243591D01*
X121051Y243535D01*
X121090Y243513D01*
X121124Y243496D01*
X121151Y243480D01*
X121174Y243474D01*
X121185Y243463D01*
X121190D01*
Y243008D01*
X121107Y243041D01*
X121024Y243080D01*
X120940Y243119D01*
X120863Y243158D01*
X120796Y243191D01*
X120741Y243219D01*
X120707Y243241D01*
X120702Y243247D01*
X120696D01*
X120596Y243307D01*
X120508Y243369D01*
X120430Y243424D01*
X120369Y243474D01*
X120313Y243513D01*
X120280Y243546D01*
X120252Y243568D01*
X120247Y243574D01*
Y240571D01*
X119775D01*
Y244429D01*
X120080D01*
X120136Y244334D01*
D02*
G37*
G36*
X125225Y240571D02*
X124715D01*
Y242275D01*
X124059D01*
X123998Y242270D01*
X123954D01*
X123915Y242264D01*
X123888Y242259D01*
X123865D01*
X123854Y242253D01*
X123849D01*
X123760Y242225D01*
X123721Y242209D01*
X123688Y242192D01*
X123654Y242175D01*
X123632Y242164D01*
X123621Y242159D01*
X123616Y242153D01*
X123571Y242120D01*
X123527Y242081D01*
X123443Y241998D01*
X123405Y241959D01*
X123377Y241926D01*
X123360Y241903D01*
X123355Y241898D01*
X123299Y241820D01*
X123238Y241737D01*
X123177Y241648D01*
X123116Y241565D01*
X123066Y241487D01*
X123027Y241426D01*
X123011Y241404D01*
X123000Y241387D01*
X122988Y241376D01*
Y241371D01*
X122483Y240571D01*
X121851D01*
X122511Y241615D01*
X122589Y241726D01*
X122661Y241826D01*
X122733Y241909D01*
X122794Y241987D01*
X122850Y242042D01*
X122894Y242087D01*
X122922Y242114D01*
X122933Y242125D01*
X122977Y242159D01*
X123027Y242197D01*
X123127Y242259D01*
X123172Y242281D01*
X123205Y242303D01*
X123227Y242314D01*
X123238Y242320D01*
X123138Y242336D01*
X123044Y242353D01*
X122961Y242381D01*
X122877Y242403D01*
X122805Y242431D01*
X122739Y242464D01*
X122678Y242492D01*
X122622Y242519D01*
X122578Y242553D01*
X122533Y242581D01*
X122500Y242603D01*
X122472Y242625D01*
X122450Y242641D01*
X122433Y242658D01*
X122428Y242664D01*
X122422Y242669D01*
X122378Y242725D01*
X122334Y242780D01*
X122267Y242897D01*
X122222Y243013D01*
X122189Y243124D01*
X122167Y243219D01*
X122161Y243258D01*
Y243296D01*
X122156Y243324D01*
Y243346D01*
Y243357D01*
Y243363D01*
X122161Y243480D01*
X122178Y243585D01*
X122206Y243685D01*
X122234Y243768D01*
X122267Y243840D01*
X122289Y243896D01*
X122311Y243929D01*
X122317Y243935D01*
Y243940D01*
X122383Y244029D01*
X122450Y244107D01*
X122522Y244173D01*
X122589Y244223D01*
X122650Y244262D01*
X122700Y244284D01*
X122733Y244301D01*
X122739Y244306D01*
X122744D01*
X122794Y244323D01*
X122855Y244340D01*
X122977Y244368D01*
X123110Y244384D01*
X123233Y244401D01*
X123349Y244406D01*
X123399D01*
X123443Y244412D01*
X125225D01*
Y240571D01*
D02*
G37*
G36*
X142655Y104931D02*
X142749Y104926D01*
X142838Y104909D01*
X142921Y104893D01*
X142999Y104870D01*
X143071Y104848D01*
X143138Y104820D01*
X143199Y104793D01*
X143254Y104765D01*
X143298Y104737D01*
X143337Y104715D01*
X143371Y104693D01*
X143398Y104676D01*
X143415Y104659D01*
X143426Y104654D01*
X143432Y104648D01*
X143487Y104593D01*
X143537Y104532D01*
X143587Y104465D01*
X143626Y104399D01*
X143693Y104265D01*
X143737Y104132D01*
X143754Y104071D01*
X143770Y104010D01*
X143781Y103960D01*
X143792Y103916D01*
X143798Y103877D01*
Y103849D01*
X143804Y103832D01*
Y103827D01*
X143321Y103777D01*
X143309Y103905D01*
X143287Y104016D01*
X143254Y104116D01*
X143215Y104193D01*
X143182Y104260D01*
X143149Y104304D01*
X143126Y104332D01*
X143115Y104343D01*
X143032Y104410D01*
X142943Y104460D01*
X142849Y104499D01*
X142766Y104521D01*
X142688Y104537D01*
X142621Y104543D01*
X142599Y104549D01*
X142566D01*
X142449Y104543D01*
X142344Y104521D01*
X142255Y104487D01*
X142177Y104454D01*
X142116Y104415D01*
X142077Y104387D01*
X142050Y104365D01*
X142039Y104354D01*
X141972Y104277D01*
X141922Y104199D01*
X141883Y104121D01*
X141861Y104043D01*
X141844Y103982D01*
X141839Y103927D01*
X141833Y103894D01*
Y103888D01*
Y103882D01*
X141844Y103782D01*
X141867Y103677D01*
X141905Y103583D01*
X141944Y103494D01*
X141989Y103422D01*
X142027Y103361D01*
X142039Y103339D01*
X142050Y103322D01*
X142061Y103316D01*
Y103311D01*
X142105Y103250D01*
X142161Y103189D01*
X142222Y103122D01*
X142288Y103056D01*
X142427Y102922D01*
X142566Y102789D01*
X142638Y102728D01*
X142699Y102673D01*
X142760Y102623D01*
X142810Y102578D01*
X142849Y102545D01*
X142882Y102517D01*
X142904Y102500D01*
X142910Y102495D01*
X143049Y102378D01*
X143176Y102267D01*
X143282Y102167D01*
X143365Y102084D01*
X143437Y102012D01*
X143487Y101962D01*
X143515Y101929D01*
X143526Y101923D01*
Y101918D01*
X143604Y101823D01*
X143665Y101735D01*
X143720Y101646D01*
X143765Y101568D01*
X143798Y101502D01*
X143820Y101452D01*
X143831Y101418D01*
X143837Y101413D01*
Y101407D01*
X143859Y101346D01*
X143870Y101291D01*
X143881Y101235D01*
X143887Y101185D01*
X143892Y101141D01*
Y101107D01*
Y101085D01*
Y101080D01*
X141345D01*
Y101535D01*
X143237D01*
X143171Y101629D01*
X143138Y101668D01*
X143110Y101707D01*
X143082Y101740D01*
X143060Y101762D01*
X143043Y101779D01*
X143038Y101785D01*
X143010Y101812D01*
X142976Y101840D01*
X142899Y101912D01*
X142810Y101996D01*
X142716Y102079D01*
X142627Y102151D01*
X142588Y102184D01*
X142555Y102217D01*
X142527Y102240D01*
X142505Y102256D01*
X142494Y102267D01*
X142488Y102273D01*
X142399Y102351D01*
X142311Y102423D01*
X142233Y102495D01*
X142161Y102556D01*
X142094Y102617D01*
X142039Y102673D01*
X141983Y102723D01*
X141939Y102767D01*
X141894Y102811D01*
X141861Y102845D01*
X141833Y102872D01*
X141806Y102900D01*
X141778Y102933D01*
X141767Y102945D01*
X141689Y103039D01*
X141622Y103122D01*
X141567Y103205D01*
X141522Y103272D01*
X141489Y103333D01*
X141467Y103377D01*
X141456Y103405D01*
X141450Y103416D01*
X141417Y103499D01*
X141395Y103583D01*
X141373Y103660D01*
X141361Y103727D01*
X141356Y103788D01*
X141350Y103832D01*
Y103860D01*
Y103871D01*
X141356Y103955D01*
X141367Y104032D01*
X141378Y104110D01*
X141400Y104177D01*
X141456Y104310D01*
X141511Y104415D01*
X141545Y104465D01*
X141572Y104504D01*
X141600Y104543D01*
X141628Y104571D01*
X141650Y104593D01*
X141661Y104615D01*
X141672Y104621D01*
X141678Y104626D01*
X141739Y104682D01*
X141806Y104732D01*
X141878Y104771D01*
X141950Y104804D01*
X142094Y104859D01*
X142238Y104898D01*
X142299Y104909D01*
X142360Y104920D01*
X142416Y104926D01*
X142460Y104931D01*
X142499Y104937D01*
X142555D01*
X142655Y104931D01*
D02*
G37*
G36*
X146029Y104976D02*
X146207Y104948D01*
X146362Y104915D01*
X146434Y104893D01*
X146501Y104870D01*
X146562Y104848D01*
X146617Y104826D01*
X146662Y104809D01*
X146706Y104793D01*
X146734Y104776D01*
X146756Y104765D01*
X146773Y104759D01*
X146778Y104754D01*
X146928Y104659D01*
X147056Y104549D01*
X147167Y104437D01*
X147261Y104326D01*
X147333Y104227D01*
X147361Y104182D01*
X147383Y104143D01*
X147405Y104116D01*
X147416Y104093D01*
X147422Y104077D01*
X147428Y104071D01*
X147505Y103899D01*
X147561Y103721D01*
X147600Y103544D01*
X147627Y103383D01*
X147638Y103311D01*
X147644Y103239D01*
X147650Y103183D01*
Y103128D01*
X147655Y103089D01*
Y103056D01*
Y103033D01*
Y103028D01*
X147644Y102828D01*
X147622Y102634D01*
X147594Y102462D01*
X147572Y102378D01*
X147555Y102306D01*
X147539Y102240D01*
X147516Y102179D01*
X147500Y102123D01*
X147489Y102079D01*
X147472Y102045D01*
X147467Y102018D01*
X147455Y102001D01*
Y101996D01*
X147372Y101829D01*
X147278Y101679D01*
X147178Y101551D01*
X147128Y101502D01*
X147083Y101452D01*
X147039Y101407D01*
X146995Y101368D01*
X146956Y101335D01*
X146923Y101313D01*
X146900Y101291D01*
X146878Y101274D01*
X146867Y101268D01*
X146862Y101263D01*
X146784Y101218D01*
X146706Y101180D01*
X146540Y101119D01*
X146373Y101074D01*
X146212Y101046D01*
X146134Y101035D01*
X146068Y101024D01*
X146007Y101019D01*
X145957D01*
X145913Y101013D01*
X145851D01*
X145740Y101019D01*
X145635Y101030D01*
X145535Y101041D01*
X145441Y101063D01*
X145352Y101091D01*
X145269Y101119D01*
X145191Y101146D01*
X145119Y101180D01*
X145058Y101207D01*
X144997Y101235D01*
X144952Y101263D01*
X144908Y101291D01*
X144880Y101313D01*
X144852Y101324D01*
X144841Y101335D01*
X144836Y101340D01*
X144758Y101407D01*
X144692Y101474D01*
X144630Y101551D01*
X144569Y101629D01*
X144469Y101785D01*
X144392Y101940D01*
X144359Y102012D01*
X144331Y102079D01*
X144308Y102140D01*
X144292Y102190D01*
X144275Y102234D01*
X144264Y102267D01*
X144259Y102290D01*
Y102295D01*
X144769Y102423D01*
X144791Y102334D01*
X144819Y102251D01*
X144847Y102173D01*
X144875Y102101D01*
X144908Y102034D01*
X144941Y101979D01*
X144980Y101923D01*
X145013Y101873D01*
X145041Y101829D01*
X145074Y101796D01*
X145102Y101762D01*
X145124Y101735D01*
X145147Y101718D01*
X145163Y101701D01*
X145169Y101696D01*
X145174Y101690D01*
X145230Y101646D01*
X145291Y101612D01*
X145413Y101551D01*
X145529Y101507D01*
X145646Y101479D01*
X145746Y101457D01*
X145785Y101452D01*
X145824D01*
X145857Y101446D01*
X145896D01*
X146023Y101452D01*
X146146Y101474D01*
X146257Y101502D01*
X146356Y101535D01*
X146434Y101568D01*
X146467Y101585D01*
X146495Y101596D01*
X146517Y101607D01*
X146534Y101618D01*
X146545Y101624D01*
X146551D01*
X146656Y101701D01*
X146745Y101785D01*
X146823Y101879D01*
X146884Y101968D01*
X146934Y102045D01*
X146967Y102112D01*
X146978Y102140D01*
X146989Y102156D01*
X146995Y102167D01*
Y102173D01*
X147039Y102317D01*
X147072Y102462D01*
X147100Y102606D01*
X147117Y102739D01*
X147122Y102800D01*
X147128Y102856D01*
Y102906D01*
X147134Y102945D01*
Y102978D01*
Y103006D01*
Y103022D01*
Y103028D01*
X147128Y103172D01*
X147117Y103305D01*
X147095Y103427D01*
X147072Y103538D01*
X147056Y103633D01*
X147045Y103672D01*
X147034Y103705D01*
X147028Y103733D01*
X147022Y103749D01*
X147017Y103760D01*
Y103766D01*
X146961Y103894D01*
X146900Y104010D01*
X146834Y104104D01*
X146762Y104188D01*
X146701Y104254D01*
X146651Y104299D01*
X146612Y104326D01*
X146606Y104338D01*
X146601D01*
X146484Y104410D01*
X146356Y104465D01*
X146234Y104504D01*
X146118Y104526D01*
X146012Y104543D01*
X145968Y104549D01*
X145929D01*
X145901Y104554D01*
X145857D01*
X145718Y104549D01*
X145591Y104526D01*
X145485Y104493D01*
X145391Y104460D01*
X145319Y104421D01*
X145263Y104393D01*
X145230Y104371D01*
X145219Y104360D01*
X145130Y104277D01*
X145047Y104182D01*
X144980Y104082D01*
X144925Y103982D01*
X144880Y103894D01*
X144863Y103849D01*
X144852Y103816D01*
X144841Y103788D01*
X144830Y103766D01*
X144825Y103755D01*
Y103749D01*
X144325Y103866D01*
X144359Y103966D01*
X144392Y104054D01*
X144436Y104138D01*
X144475Y104221D01*
X144519Y104293D01*
X144569Y104360D01*
X144614Y104426D01*
X144658Y104482D01*
X144703Y104526D01*
X144741Y104571D01*
X144780Y104610D01*
X144808Y104637D01*
X144836Y104665D01*
X144858Y104682D01*
X144869Y104687D01*
X144875Y104693D01*
X144952Y104743D01*
X145030Y104793D01*
X145108Y104832D01*
X145191Y104865D01*
X145358Y104915D01*
X145507Y104948D01*
X145580Y104965D01*
X145641Y104970D01*
X145702Y104976D01*
X145752Y104981D01*
X145790Y104987D01*
X145846D01*
X146029Y104976D01*
D02*
G37*
G36*
X160558Y104843D02*
X160619Y104754D01*
X160691Y104665D01*
X160758Y104587D01*
X160824Y104521D01*
X160874Y104465D01*
X160897Y104449D01*
X160913Y104432D01*
X160919Y104426D01*
X160924Y104421D01*
X161041Y104326D01*
X161157Y104238D01*
X161268Y104160D01*
X161379Y104099D01*
X161474Y104043D01*
X161513Y104021D01*
X161546Y104005D01*
X161574Y103988D01*
X161596Y103982D01*
X161607Y103971D01*
X161612D01*
Y103516D01*
X161529Y103550D01*
X161446Y103588D01*
X161363Y103627D01*
X161285Y103666D01*
X161219Y103699D01*
X161163Y103727D01*
X161130Y103749D01*
X161124Y103755D01*
X161119D01*
X161019Y103816D01*
X160930Y103877D01*
X160852Y103932D01*
X160791Y103982D01*
X160736Y104021D01*
X160702Y104054D01*
X160675Y104077D01*
X160669Y104082D01*
Y101080D01*
X160197D01*
Y104937D01*
X160503D01*
X160558Y104843D01*
D02*
G37*
G36*
X164177Y104976D02*
X164354Y104948D01*
X164510Y104915D01*
X164582Y104893D01*
X164648Y104870D01*
X164709Y104848D01*
X164765Y104826D01*
X164809Y104809D01*
X164854Y104793D01*
X164881Y104776D01*
X164904Y104765D01*
X164920Y104759D01*
X164926Y104754D01*
X165076Y104659D01*
X165203Y104549D01*
X165314Y104437D01*
X165409Y104326D01*
X165481Y104227D01*
X165509Y104182D01*
X165531Y104143D01*
X165553Y104116D01*
X165564Y104093D01*
X165570Y104077D01*
X165575Y104071D01*
X165653Y103899D01*
X165708Y103721D01*
X165747Y103544D01*
X165775Y103383D01*
X165786Y103311D01*
X165792Y103239D01*
X165797Y103183D01*
Y103128D01*
X165803Y103089D01*
Y103056D01*
Y103033D01*
Y103028D01*
X165792Y102828D01*
X165770Y102634D01*
X165742Y102462D01*
X165719Y102378D01*
X165703Y102306D01*
X165686Y102240D01*
X165664Y102179D01*
X165647Y102123D01*
X165636Y102079D01*
X165620Y102045D01*
X165614Y102018D01*
X165603Y102001D01*
Y101996D01*
X165520Y101829D01*
X165425Y101679D01*
X165325Y101551D01*
X165276Y101502D01*
X165231Y101452D01*
X165187Y101407D01*
X165142Y101368D01*
X165103Y101335D01*
X165070Y101313D01*
X165048Y101291D01*
X165026Y101274D01*
X165015Y101268D01*
X165009Y101263D01*
X164931Y101218D01*
X164854Y101180D01*
X164687Y101119D01*
X164521Y101074D01*
X164360Y101046D01*
X164282Y101035D01*
X164216Y101024D01*
X164154Y101019D01*
X164104D01*
X164060Y101013D01*
X163999D01*
X163888Y101019D01*
X163783Y101030D01*
X163683Y101041D01*
X163588Y101063D01*
X163499Y101091D01*
X163416Y101119D01*
X163339Y101146D01*
X163266Y101180D01*
X163205Y101207D01*
X163144Y101235D01*
X163100Y101263D01*
X163056Y101291D01*
X163028Y101313D01*
X163000Y101324D01*
X162989Y101335D01*
X162983Y101340D01*
X162906Y101407D01*
X162839Y101474D01*
X162778Y101551D01*
X162717Y101629D01*
X162617Y101785D01*
X162539Y101940D01*
X162506Y102012D01*
X162478Y102079D01*
X162456Y102140D01*
X162440Y102190D01*
X162423Y102234D01*
X162412Y102267D01*
X162406Y102290D01*
Y102295D01*
X162917Y102423D01*
X162939Y102334D01*
X162967Y102251D01*
X162995Y102173D01*
X163022Y102101D01*
X163056Y102034D01*
X163089Y101979D01*
X163128Y101923D01*
X163161Y101873D01*
X163189Y101829D01*
X163222Y101796D01*
X163250Y101762D01*
X163272Y101735D01*
X163294Y101718D01*
X163311Y101701D01*
X163316Y101696D01*
X163322Y101690D01*
X163377Y101646D01*
X163438Y101612D01*
X163560Y101551D01*
X163677Y101507D01*
X163794Y101479D01*
X163894Y101457D01*
X163932Y101452D01*
X163971D01*
X164005Y101446D01*
X164043D01*
X164171Y101452D01*
X164293Y101474D01*
X164404Y101502D01*
X164504Y101535D01*
X164582Y101568D01*
X164615Y101585D01*
X164643Y101596D01*
X164665Y101607D01*
X164682Y101618D01*
X164693Y101624D01*
X164698D01*
X164804Y101701D01*
X164893Y101785D01*
X164970Y101879D01*
X165031Y101968D01*
X165081Y102045D01*
X165115Y102112D01*
X165126Y102140D01*
X165137Y102156D01*
X165142Y102167D01*
Y102173D01*
X165187Y102317D01*
X165220Y102462D01*
X165248Y102606D01*
X165264Y102739D01*
X165270Y102800D01*
X165276Y102856D01*
Y102906D01*
X165281Y102945D01*
Y102978D01*
Y103006D01*
Y103022D01*
Y103028D01*
X165276Y103172D01*
X165264Y103305D01*
X165242Y103427D01*
X165220Y103538D01*
X165203Y103633D01*
X165192Y103672D01*
X165181Y103705D01*
X165176Y103733D01*
X165170Y103749D01*
X165164Y103760D01*
Y103766D01*
X165109Y103894D01*
X165048Y104010D01*
X164981Y104104D01*
X164909Y104188D01*
X164848Y104254D01*
X164798Y104299D01*
X164759Y104326D01*
X164754Y104338D01*
X164748D01*
X164632Y104410D01*
X164504Y104465D01*
X164382Y104504D01*
X164265Y104526D01*
X164160Y104543D01*
X164116Y104549D01*
X164077D01*
X164049Y104554D01*
X164005D01*
X163866Y104549D01*
X163738Y104526D01*
X163633Y104493D01*
X163538Y104460D01*
X163466Y104421D01*
X163411Y104393D01*
X163377Y104371D01*
X163366Y104360D01*
X163277Y104277D01*
X163194Y104182D01*
X163128Y104082D01*
X163072Y103982D01*
X163028Y103894D01*
X163011Y103849D01*
X163000Y103816D01*
X162989Y103788D01*
X162978Y103766D01*
X162972Y103755D01*
Y103749D01*
X162473Y103866D01*
X162506Y103966D01*
X162539Y104054D01*
X162584Y104138D01*
X162623Y104221D01*
X162667Y104293D01*
X162717Y104360D01*
X162761Y104426D01*
X162806Y104482D01*
X162850Y104526D01*
X162889Y104571D01*
X162928Y104610D01*
X162956Y104637D01*
X162983Y104665D01*
X163005Y104682D01*
X163017Y104687D01*
X163022Y104693D01*
X163100Y104743D01*
X163178Y104793D01*
X163255Y104832D01*
X163339Y104865D01*
X163505Y104915D01*
X163655Y104948D01*
X163727Y104965D01*
X163788Y104970D01*
X163849Y104976D01*
X163899Y104981D01*
X163938Y104987D01*
X163994D01*
X164177Y104976D01*
D02*
G37*
%LPC*%
G36*
X107286Y217560D02*
X106015D01*
Y216350D01*
X106021Y216200D01*
X106043Y216072D01*
X106071Y215961D01*
X106104Y215878D01*
X106138Y215806D01*
X106165Y215762D01*
X106187Y215734D01*
X106193Y215723D01*
X106265Y215656D01*
X106337Y215606D01*
X106415Y215573D01*
X106482Y215545D01*
X106548Y215534D01*
X106598Y215528D01*
X106631Y215523D01*
X106637D01*
X106642D01*
X106709Y215528D01*
X106776Y215540D01*
X106831Y215556D01*
X106881Y215573D01*
X106926Y215595D01*
X106959Y215612D01*
X106981Y215623D01*
X106987Y215628D01*
X107042Y215667D01*
X107092Y215717D01*
X107131Y215767D01*
X107164Y215817D01*
X107186Y215862D01*
X107203Y215895D01*
X107214Y215917D01*
X107220Y215928D01*
X107242Y216006D01*
X107259Y216095D01*
X107270Y216183D01*
X107275Y216272D01*
X107281Y216350D01*
X107286Y216417D01*
Y217560D01*
D02*
G37*
G36*
X153436Y241286D02*
X152293D01*
Y240015D01*
X153503D01*
X153652Y240021D01*
X153780Y240043D01*
X153891Y240071D01*
X153974Y240104D01*
X154046Y240138D01*
X154091Y240165D01*
X154119Y240187D01*
X154130Y240193D01*
X154196Y240265D01*
X154246Y240337D01*
X154279Y240415D01*
X154307Y240482D01*
X154318Y240548D01*
X154324Y240598D01*
X154329Y240631D01*
Y240637D01*
Y240642D01*
X154324Y240709D01*
X154313Y240776D01*
X154296Y240831D01*
X154279Y240881D01*
X154257Y240926D01*
X154241Y240959D01*
X154229Y240981D01*
X154224Y240987D01*
X154185Y241042D01*
X154135Y241092D01*
X154085Y241131D01*
X154035Y241164D01*
X153991Y241186D01*
X153958Y241203D01*
X153935Y241214D01*
X153924Y241220D01*
X153847Y241242D01*
X153758Y241259D01*
X153669Y241270D01*
X153580Y241275D01*
X153503Y241281D01*
X153436Y241286D01*
D02*
G37*
G36*
X101908Y157069D02*
X101819D01*
X101764Y157058D01*
X101664Y157030D01*
X101575Y156991D01*
X101497Y156952D01*
X101436Y156908D01*
X101392Y156869D01*
X101364Y156841D01*
X101353Y156836D01*
Y156830D01*
X101281Y156736D01*
X101225Y156630D01*
X101186Y156519D01*
X101164Y156414D01*
X101148Y156325D01*
X101142Y156286D01*
Y156247D01*
X101137Y156220D01*
Y156197D01*
Y156186D01*
Y156181D01*
X101148Y156036D01*
X101170Y155909D01*
X101203Y155803D01*
X101242Y155715D01*
X101286Y155642D01*
X101320Y155593D01*
X101342Y155559D01*
X101353Y155548D01*
X101436Y155470D01*
X101525Y155415D01*
X101614Y155376D01*
X101702Y155348D01*
X101775Y155332D01*
X101836Y155326D01*
X101858Y155321D01*
X101891D01*
X102008Y155332D01*
X102113Y155354D01*
X102208Y155393D01*
X102291Y155437D01*
X102352Y155476D01*
X102402Y155515D01*
X102430Y155537D01*
X102441Y155548D01*
X102513Y155637D01*
X102568Y155737D01*
X102602Y155837D01*
X102629Y155931D01*
X102646Y156014D01*
X102652Y156048D01*
Y156081D01*
X102657Y156109D01*
Y156125D01*
Y156136D01*
Y156142D01*
X102646Y156286D01*
X102624Y156419D01*
X102585Y156536D01*
X102541Y156630D01*
X102502Y156708D01*
X102463Y156764D01*
X102452Y156780D01*
X102441Y156797D01*
X102430Y156802D01*
Y156808D01*
X102385Y156852D01*
X102341Y156897D01*
X102246Y156958D01*
X102152Y157008D01*
X102063Y157035D01*
X101991Y157058D01*
X101930Y157063D01*
X101908Y157069D01*
D02*
G37*
G36*
X109289Y157013D02*
X108080D01*
X107930Y157008D01*
X107802Y156985D01*
X107691Y156958D01*
X107608Y156924D01*
X107536Y156891D01*
X107491Y156863D01*
X107463Y156841D01*
X107452Y156836D01*
X107386Y156764D01*
X107336Y156691D01*
X107302Y156614D01*
X107275Y156547D01*
X107264Y156480D01*
X107258Y156430D01*
X107253Y156397D01*
Y156392D01*
Y156386D01*
X107258Y156319D01*
X107269Y156253D01*
X107286Y156197D01*
X107302Y156148D01*
X107325Y156103D01*
X107341Y156070D01*
X107352Y156048D01*
X107358Y156042D01*
X107397Y155986D01*
X107447Y155937D01*
X107497Y155898D01*
X107547Y155864D01*
X107591Y155842D01*
X107624Y155825D01*
X107647Y155815D01*
X107658Y155809D01*
X107735Y155787D01*
X107824Y155770D01*
X107913Y155759D01*
X108002Y155753D01*
X108080Y155748D01*
X108146Y155742D01*
X109289D01*
Y157013D01*
D02*
G37*
G36*
X156289D02*
X155079D01*
X154930Y157008D01*
X154802Y156985D01*
X154691Y156958D01*
X154608Y156924D01*
X154536Y156891D01*
X154491Y156863D01*
X154463Y156841D01*
X154452Y156836D01*
X154386Y156764D01*
X154336Y156691D01*
X154303Y156614D01*
X154275Y156547D01*
X154264Y156480D01*
X154258Y156430D01*
X154253Y156397D01*
Y156392D01*
Y156386D01*
X154258Y156319D01*
X154269Y156253D01*
X154286Y156197D01*
X154303Y156148D01*
X154325Y156103D01*
X154341Y156070D01*
X154352Y156048D01*
X154358Y156042D01*
X154397Y155986D01*
X154447Y155937D01*
X154497Y155898D01*
X154547Y155864D01*
X154591Y155842D01*
X154624Y155825D01*
X154647Y155815D01*
X154658Y155809D01*
X154735Y155787D01*
X154824Y155770D01*
X154913Y155759D01*
X155002Y155753D01*
X155079Y155748D01*
X155146Y155742D01*
X156289D01*
Y157013D01*
D02*
G37*
G36*
X148925Y157069D02*
X148880D01*
X148786Y157063D01*
X148697Y157041D01*
X148625Y157013D01*
X148558Y156980D01*
X148508Y156947D01*
X148469Y156919D01*
X148442Y156897D01*
X148436Y156891D01*
X148375Y156819D01*
X148331Y156747D01*
X148297Y156675D01*
X148275Y156608D01*
X148264Y156547D01*
X148253Y156497D01*
Y156464D01*
Y156458D01*
Y156453D01*
X148258Y156364D01*
X148281Y156281D01*
X148309Y156209D01*
X148342Y156148D01*
X148375Y156097D01*
X148403Y156064D01*
X148425Y156036D01*
X148431Y156031D01*
X148497Y155975D01*
X148575Y155931D01*
X148647Y155903D01*
X148719Y155881D01*
X148786Y155870D01*
X148836Y155864D01*
X148869Y155859D01*
X148880D01*
X148980Y155864D01*
X149069Y155887D01*
X149147Y155914D01*
X149213Y155948D01*
X149263Y155975D01*
X149302Y156003D01*
X149330Y156025D01*
X149335Y156031D01*
X149391Y156097D01*
X149435Y156175D01*
X149463Y156247D01*
X149485Y156319D01*
X149496Y156380D01*
X149502Y156430D01*
X149507Y156464D01*
Y156469D01*
Y156475D01*
X149502Y156564D01*
X149479Y156641D01*
X149452Y156714D01*
X149418Y156775D01*
X149391Y156825D01*
X149363Y156863D01*
X149341Y156886D01*
X149335Y156891D01*
X149263Y156952D01*
X149191Y156997D01*
X149113Y157024D01*
X149041Y157047D01*
X148975Y157058D01*
X148925Y157069D01*
D02*
G37*
G36*
X148930Y155476D02*
X148897D01*
X148775Y155465D01*
X148664Y155443D01*
X148564Y155404D01*
X148480Y155365D01*
X148414Y155321D01*
X148364Y155282D01*
X148336Y155259D01*
X148325Y155248D01*
X148248Y155159D01*
X148192Y155065D01*
X148153Y154971D01*
X148125Y154888D01*
X148109Y154804D01*
X148103Y154743D01*
X148098Y154721D01*
Y154704D01*
Y154693D01*
Y154688D01*
X148109Y154571D01*
X148131Y154460D01*
X148170Y154366D01*
X148209Y154288D01*
X148248Y154227D01*
X148286Y154177D01*
X148309Y154149D01*
X148320Y154138D01*
X148408Y154066D01*
X148497Y154011D01*
X148592Y153977D01*
X148680Y153950D01*
X148758Y153933D01*
X148825Y153927D01*
X148847Y153922D01*
X148880D01*
X148958Y153927D01*
X149036Y153939D01*
X149108Y153955D01*
X149169Y153972D01*
X149219Y153989D01*
X149258Y154005D01*
X149280Y154016D01*
X149291Y154022D01*
X149357Y154066D01*
X149413Y154111D01*
X149463Y154160D01*
X149502Y154210D01*
X149535Y154249D01*
X149557Y154283D01*
X149568Y154310D01*
X149574Y154316D01*
X149602Y154388D01*
X149624Y154455D01*
X149641Y154521D01*
X149652Y154582D01*
X149657Y154632D01*
X149663Y154671D01*
Y154693D01*
Y154704D01*
X149652Y154821D01*
X149629Y154926D01*
X149596Y155021D01*
X149552Y155104D01*
X149513Y155165D01*
X149479Y155215D01*
X149457Y155243D01*
X149446Y155254D01*
X149363Y155326D01*
X149269Y155382D01*
X149180Y155420D01*
X149091Y155448D01*
X149013Y155465D01*
X148952Y155470D01*
X148930Y155476D01*
D02*
G37*
G36*
X109289Y150613D02*
X108080D01*
X107930Y150608D01*
X107802Y150585D01*
X107691Y150558D01*
X107608Y150524D01*
X107536Y150491D01*
X107491Y150463D01*
X107463Y150441D01*
X107452Y150436D01*
X107386Y150364D01*
X107336Y150291D01*
X107302Y150214D01*
X107275Y150147D01*
X107264Y150080D01*
X107258Y150031D01*
X107253Y149997D01*
Y149992D01*
Y149986D01*
X107258Y149919D01*
X107269Y149853D01*
X107286Y149797D01*
X107302Y149748D01*
X107325Y149703D01*
X107341Y149670D01*
X107352Y149648D01*
X107358Y149642D01*
X107397Y149586D01*
X107447Y149537D01*
X107497Y149498D01*
X107547Y149464D01*
X107591Y149442D01*
X107624Y149425D01*
X107647Y149415D01*
X107658Y149409D01*
X107735Y149387D01*
X107824Y149370D01*
X107913Y149359D01*
X108002Y149353D01*
X108080Y149348D01*
X108146Y149342D01*
X109289D01*
Y150613D01*
D02*
G37*
G36*
X148886Y149276D02*
X148852D01*
X148736Y149265D01*
X148630Y149237D01*
X148542Y149204D01*
X148464Y149159D01*
X148403Y149115D01*
X148358Y149081D01*
X148331Y149054D01*
X148320Y149043D01*
X148248Y148948D01*
X148192Y148848D01*
X148153Y148743D01*
X148131Y148643D01*
X148114Y148554D01*
X148109Y148515D01*
Y148482D01*
X148103Y148454D01*
Y148432D01*
Y148421D01*
Y148416D01*
X148114Y148266D01*
X148136Y148138D01*
X148170Y148027D01*
X148209Y147933D01*
X148253Y147860D01*
X148286Y147805D01*
X148309Y147772D01*
X148320Y147766D01*
Y147760D01*
X148358Y147716D01*
X148403Y147683D01*
X148492Y147622D01*
X148580Y147583D01*
X148658Y147550D01*
X148730Y147533D01*
X148786Y147527D01*
X148808Y147522D01*
X148836D01*
X148913Y147527D01*
X148986Y147539D01*
X149052Y147561D01*
X149108Y147583D01*
X149158Y147600D01*
X149197Y147622D01*
X149219Y147633D01*
X149230Y147638D01*
X149296Y147688D01*
X149352Y147738D01*
X149402Y147799D01*
X149441Y147849D01*
X149474Y147899D01*
X149496Y147938D01*
X149513Y147966D01*
X149518Y147977D01*
X149552Y148060D01*
X149574Y148143D01*
X149596Y148221D01*
X149607Y148293D01*
X149613Y148354D01*
X149618Y148404D01*
Y148432D01*
Y148443D01*
X149607Y148576D01*
X149585Y148693D01*
X149546Y148798D01*
X149507Y148882D01*
X149469Y148954D01*
X149430Y149004D01*
X149407Y149031D01*
X149396Y149043D01*
X149308Y149120D01*
X149219Y149176D01*
X149124Y149220D01*
X149041Y149248D01*
X148963Y149265D01*
X148908Y149270D01*
X148886Y149276D01*
D02*
G37*
G36*
X156289Y150613D02*
X155079D01*
X154930Y150608D01*
X154802Y150585D01*
X154691Y150558D01*
X154608Y150524D01*
X154536Y150491D01*
X154491Y150463D01*
X154463Y150441D01*
X154452Y150436D01*
X154386Y150364D01*
X154336Y150291D01*
X154303Y150214D01*
X154275Y150147D01*
X154264Y150080D01*
X154258Y150031D01*
X154253Y149997D01*
Y149992D01*
Y149986D01*
X154258Y149919D01*
X154269Y149853D01*
X154286Y149797D01*
X154303Y149748D01*
X154325Y149703D01*
X154341Y149670D01*
X154352Y149648D01*
X154358Y149642D01*
X154397Y149586D01*
X154447Y149537D01*
X154497Y149498D01*
X154547Y149464D01*
X154591Y149442D01*
X154624Y149425D01*
X154647Y149415D01*
X154658Y149409D01*
X154735Y149387D01*
X154824Y149370D01*
X154913Y149359D01*
X155002Y149353D01*
X155079Y149348D01*
X155146Y149342D01*
X156289D01*
Y150613D01*
D02*
G37*
G36*
X109289Y144213D02*
X108080D01*
X107930Y144208D01*
X107802Y144185D01*
X107691Y144158D01*
X107608Y144124D01*
X107536Y144091D01*
X107491Y144063D01*
X107463Y144041D01*
X107452Y144036D01*
X107386Y143964D01*
X107336Y143891D01*
X107302Y143814D01*
X107275Y143747D01*
X107264Y143680D01*
X107258Y143631D01*
X107253Y143597D01*
Y143592D01*
Y143586D01*
X107258Y143519D01*
X107269Y143453D01*
X107286Y143397D01*
X107302Y143348D01*
X107325Y143303D01*
X107341Y143270D01*
X107352Y143248D01*
X107358Y143242D01*
X107397Y143186D01*
X107447Y143137D01*
X107497Y143098D01*
X107547Y143064D01*
X107591Y143042D01*
X107624Y143026D01*
X107647Y143015D01*
X107658Y143009D01*
X107735Y142987D01*
X107824Y142970D01*
X107913Y142959D01*
X108002Y142953D01*
X108080Y142948D01*
X108146Y142942D01*
X109289D01*
Y144213D01*
D02*
G37*
G36*
X156289Y144113D02*
X155079D01*
X154930Y144108D01*
X154802Y144086D01*
X154691Y144058D01*
X154608Y144025D01*
X154536Y143991D01*
X154491Y143963D01*
X154463Y143941D01*
X154452Y143936D01*
X154386Y143863D01*
X154336Y143791D01*
X154303Y143714D01*
X154275Y143647D01*
X154264Y143580D01*
X154258Y143530D01*
X154253Y143497D01*
Y143492D01*
Y143486D01*
X154258Y143420D01*
X154269Y143353D01*
X154286Y143297D01*
X154303Y143247D01*
X154325Y143203D01*
X154341Y143170D01*
X154352Y143148D01*
X154358Y143142D01*
X154397Y143087D01*
X154447Y143037D01*
X154497Y142998D01*
X154547Y142964D01*
X154591Y142942D01*
X154624Y142926D01*
X154647Y142914D01*
X154658Y142909D01*
X154735Y142887D01*
X154824Y142870D01*
X154913Y142859D01*
X155002Y142853D01*
X155079Y142848D01*
X155146Y142842D01*
X156289D01*
Y144113D01*
D02*
G37*
G36*
X148630Y143775D02*
Y142054D01*
X149840D01*
X148630Y143775D01*
D02*
G37*
G36*
X109289Y137813D02*
X108080D01*
X107930Y137808D01*
X107802Y137785D01*
X107691Y137758D01*
X107608Y137724D01*
X107536Y137691D01*
X107491Y137663D01*
X107463Y137641D01*
X107452Y137636D01*
X107386Y137564D01*
X107336Y137491D01*
X107302Y137414D01*
X107275Y137347D01*
X107264Y137280D01*
X107258Y137231D01*
X107253Y137197D01*
Y137192D01*
Y137186D01*
X107258Y137119D01*
X107269Y137053D01*
X107286Y136997D01*
X107302Y136948D01*
X107325Y136903D01*
X107341Y136870D01*
X107352Y136848D01*
X107358Y136842D01*
X107397Y136786D01*
X107447Y136737D01*
X107497Y136698D01*
X107547Y136664D01*
X107591Y136642D01*
X107624Y136626D01*
X107647Y136615D01*
X107658Y136609D01*
X107735Y136587D01*
X107824Y136570D01*
X107913Y136559D01*
X108002Y136553D01*
X108080Y136548D01*
X108146Y136542D01*
X109289D01*
Y137813D01*
D02*
G37*
G36*
X156289Y137713D02*
X155079D01*
X154930Y137708D01*
X154802Y137686D01*
X154691Y137658D01*
X154608Y137625D01*
X154536Y137591D01*
X154491Y137563D01*
X154463Y137541D01*
X154452Y137536D01*
X154386Y137463D01*
X154336Y137391D01*
X154303Y137314D01*
X154275Y137247D01*
X154264Y137180D01*
X154258Y137130D01*
X154253Y137097D01*
Y137092D01*
Y137086D01*
X154258Y137020D01*
X154269Y136953D01*
X154286Y136897D01*
X154303Y136847D01*
X154325Y136803D01*
X154341Y136770D01*
X154352Y136748D01*
X154358Y136742D01*
X154397Y136687D01*
X154447Y136637D01*
X154497Y136598D01*
X154547Y136564D01*
X154591Y136542D01*
X154624Y136525D01*
X154647Y136514D01*
X154658Y136509D01*
X154735Y136487D01*
X154824Y136470D01*
X154913Y136459D01*
X155002Y136453D01*
X155079Y136448D01*
X155146Y136442D01*
X156289D01*
Y137713D01*
D02*
G37*
G36*
X109289Y131313D02*
X108080D01*
X107930Y131308D01*
X107802Y131286D01*
X107691Y131258D01*
X107608Y131225D01*
X107536Y131191D01*
X107491Y131163D01*
X107463Y131141D01*
X107452Y131136D01*
X107386Y131063D01*
X107336Y130991D01*
X107302Y130914D01*
X107275Y130847D01*
X107264Y130780D01*
X107258Y130730D01*
X107253Y130697D01*
Y130692D01*
Y130686D01*
X107258Y130620D01*
X107269Y130553D01*
X107286Y130497D01*
X107302Y130447D01*
X107325Y130403D01*
X107341Y130370D01*
X107352Y130348D01*
X107358Y130342D01*
X107397Y130287D01*
X107447Y130237D01*
X107497Y130198D01*
X107547Y130164D01*
X107591Y130142D01*
X107624Y130125D01*
X107647Y130114D01*
X107658Y130109D01*
X107735Y130087D01*
X107824Y130070D01*
X107913Y130059D01*
X108002Y130053D01*
X108080Y130048D01*
X108146Y130042D01*
X109289D01*
Y131313D01*
D02*
G37*
G36*
X156289D02*
X155079D01*
X154930Y131308D01*
X154802Y131286D01*
X154691Y131258D01*
X154608Y131225D01*
X154536Y131191D01*
X154491Y131163D01*
X154463Y131141D01*
X154452Y131136D01*
X154386Y131063D01*
X154336Y130991D01*
X154303Y130914D01*
X154275Y130847D01*
X154264Y130780D01*
X154258Y130730D01*
X154253Y130697D01*
Y130692D01*
Y130686D01*
X154258Y130620D01*
X154269Y130553D01*
X154286Y130497D01*
X154303Y130447D01*
X154325Y130403D01*
X154341Y130370D01*
X154352Y130348D01*
X154358Y130342D01*
X154397Y130287D01*
X154447Y130237D01*
X154497Y130198D01*
X154547Y130164D01*
X154591Y130142D01*
X154624Y130125D01*
X154647Y130114D01*
X154658Y130109D01*
X154735Y130087D01*
X154824Y130070D01*
X154913Y130059D01*
X155002Y130053D01*
X155079Y130048D01*
X155146Y130042D01*
X156289D01*
Y131313D01*
D02*
G37*
G36*
X148925Y131369D02*
X148891D01*
X148830Y131363D01*
X148769Y131358D01*
X148714Y131341D01*
X148664Y131319D01*
X148569Y131269D01*
X148486Y131213D01*
X148425Y131152D01*
X148375Y131102D01*
X148358Y131080D01*
X148347Y131063D01*
X148336Y131058D01*
Y131052D01*
X148297Y130986D01*
X148264Y130908D01*
X148231Y130819D01*
X148209Y130725D01*
X148186Y130625D01*
X148170Y130520D01*
X148142Y130309D01*
X148131Y130203D01*
X148125Y130109D01*
X148120Y130020D01*
Y129948D01*
X148114Y129881D01*
Y129831D01*
Y129804D01*
Y129798D01*
Y129793D01*
Y129621D01*
X148125Y129465D01*
X148136Y129326D01*
X148148Y129193D01*
X148164Y129082D01*
X148186Y128977D01*
X148209Y128888D01*
X148225Y128805D01*
X148248Y128738D01*
X148270Y128682D01*
X148286Y128633D01*
X148309Y128594D01*
X148320Y128566D01*
X148331Y128549D01*
X148342Y128538D01*
Y128533D01*
X148386Y128477D01*
X148431Y128433D01*
X148475Y128388D01*
X148519Y128355D01*
X148614Y128300D01*
X148697Y128261D01*
X148775Y128239D01*
X148830Y128227D01*
X148852Y128222D01*
X148886D01*
X148947Y128227D01*
X149002Y128233D01*
X149108Y128272D01*
X149202Y128322D01*
X149285Y128377D01*
X149346Y128433D01*
X149396Y128483D01*
X149424Y128522D01*
X149435Y128527D01*
Y128533D01*
X149474Y128599D01*
X149507Y128677D01*
X149541Y128766D01*
X149563Y128860D01*
X149585Y128960D01*
X149602Y129066D01*
X149629Y129282D01*
X149641Y129382D01*
X149646Y129476D01*
X149652Y129565D01*
Y129637D01*
X149657Y129704D01*
Y129754D01*
Y129781D01*
Y129793D01*
X149652Y129965D01*
X149646Y130120D01*
X149635Y130264D01*
X149618Y130397D01*
X149602Y130514D01*
X149579Y130620D01*
X149557Y130714D01*
X149535Y130797D01*
X149513Y130869D01*
X149496Y130930D01*
X149474Y130980D01*
X149457Y131025D01*
X149441Y131052D01*
X149430Y131075D01*
X149418Y131086D01*
Y131091D01*
X149380Y131141D01*
X149341Y131186D01*
X149296Y131219D01*
X149252Y131252D01*
X149163Y131302D01*
X149080Y131335D01*
X149008Y131352D01*
X148947Y131363D01*
X148925Y131369D01*
D02*
G37*
G36*
X104894Y124969D02*
X104805D01*
X104750Y124958D01*
X104650Y124930D01*
X104561Y124891D01*
X104483Y124852D01*
X104422Y124808D01*
X104378Y124769D01*
X104350Y124741D01*
X104339Y124736D01*
Y124730D01*
X104267Y124636D01*
X104211Y124530D01*
X104172Y124419D01*
X104150Y124314D01*
X104133Y124225D01*
X104128Y124186D01*
Y124147D01*
X104122Y124120D01*
Y124097D01*
Y124086D01*
Y124081D01*
X104133Y123936D01*
X104156Y123809D01*
X104189Y123703D01*
X104228Y123615D01*
X104272Y123542D01*
X104306Y123493D01*
X104328Y123459D01*
X104339Y123448D01*
X104422Y123370D01*
X104511Y123315D01*
X104600Y123276D01*
X104688Y123248D01*
X104761Y123232D01*
X104822Y123226D01*
X104844Y123221D01*
X104877D01*
X104994Y123232D01*
X105099Y123254D01*
X105193Y123293D01*
X105277Y123337D01*
X105338Y123376D01*
X105388Y123415D01*
X105415Y123437D01*
X105427Y123448D01*
X105499Y123537D01*
X105554Y123637D01*
X105588Y123737D01*
X105615Y123831D01*
X105632Y123914D01*
X105638Y123948D01*
Y123981D01*
X105643Y124009D01*
Y124025D01*
Y124036D01*
Y124042D01*
X105632Y124186D01*
X105610Y124319D01*
X105571Y124436D01*
X105526Y124530D01*
X105488Y124608D01*
X105449Y124663D01*
X105438Y124680D01*
X105427Y124697D01*
X105415Y124702D01*
Y124708D01*
X105371Y124752D01*
X105327Y124797D01*
X105232Y124858D01*
X105138Y124908D01*
X105049Y124935D01*
X104977Y124958D01*
X104916Y124963D01*
X104894Y124969D01*
D02*
G37*
G36*
X109289Y124913D02*
X108080D01*
X107930Y124908D01*
X107802Y124885D01*
X107691Y124858D01*
X107608Y124825D01*
X107536Y124791D01*
X107491Y124763D01*
X107463Y124741D01*
X107452Y124736D01*
X107386Y124663D01*
X107336Y124591D01*
X107302Y124514D01*
X107275Y124447D01*
X107264Y124380D01*
X107258Y124330D01*
X107253Y124297D01*
Y124292D01*
Y124286D01*
X107258Y124220D01*
X107269Y124153D01*
X107286Y124097D01*
X107302Y124048D01*
X107325Y124003D01*
X107341Y123970D01*
X107352Y123948D01*
X107358Y123942D01*
X107397Y123887D01*
X107447Y123837D01*
X107497Y123798D01*
X107547Y123764D01*
X107591Y123742D01*
X107624Y123725D01*
X107647Y123714D01*
X107658Y123709D01*
X107735Y123687D01*
X107824Y123670D01*
X107913Y123659D01*
X108002Y123653D01*
X108080Y123648D01*
X108146Y123642D01*
X109289D01*
Y124913D01*
D02*
G37*
G36*
X156289D02*
X155079D01*
X154930Y124908D01*
X154802Y124885D01*
X154691Y124858D01*
X154608Y124825D01*
X154536Y124791D01*
X154491Y124763D01*
X154463Y124741D01*
X154452Y124736D01*
X154386Y124663D01*
X154336Y124591D01*
X154303Y124514D01*
X154275Y124447D01*
X154264Y124380D01*
X154258Y124330D01*
X154253Y124297D01*
Y124292D01*
Y124286D01*
X154258Y124220D01*
X154269Y124153D01*
X154286Y124097D01*
X154303Y124048D01*
X154325Y124003D01*
X154341Y123970D01*
X154352Y123948D01*
X154358Y123942D01*
X154397Y123887D01*
X154447Y123837D01*
X154497Y123798D01*
X154547Y123764D01*
X154591Y123742D01*
X154624Y123725D01*
X154647Y123714D01*
X154658Y123709D01*
X154735Y123687D01*
X154824Y123670D01*
X154913Y123659D01*
X155002Y123653D01*
X155079Y123648D01*
X155146Y123642D01*
X156289D01*
Y124913D01*
D02*
G37*
G36*
X151910Y124969D02*
X151866D01*
X151772Y124963D01*
X151683Y124941D01*
X151611Y124913D01*
X151544Y124880D01*
X151494Y124847D01*
X151455Y124819D01*
X151428Y124797D01*
X151422Y124791D01*
X151361Y124719D01*
X151317Y124647D01*
X151283Y124575D01*
X151261Y124508D01*
X151250Y124447D01*
X151239Y124397D01*
Y124364D01*
Y124358D01*
Y124353D01*
X151244Y124264D01*
X151267Y124181D01*
X151294Y124109D01*
X151328Y124048D01*
X151361Y123997D01*
X151389Y123964D01*
X151411Y123936D01*
X151417Y123931D01*
X151483Y123875D01*
X151561Y123831D01*
X151633Y123803D01*
X151705Y123781D01*
X151772Y123770D01*
X151822Y123764D01*
X151855Y123759D01*
X151866D01*
X151966Y123764D01*
X152055Y123787D01*
X152132Y123814D01*
X152199Y123848D01*
X152249Y123875D01*
X152288Y123903D01*
X152316Y123925D01*
X152321Y123931D01*
X152377Y123997D01*
X152421Y124075D01*
X152449Y124147D01*
X152471Y124220D01*
X152482Y124281D01*
X152488Y124330D01*
X152493Y124364D01*
Y124369D01*
Y124375D01*
X152488Y124464D01*
X152465Y124541D01*
X152438Y124614D01*
X152404Y124675D01*
X152377Y124724D01*
X152349Y124763D01*
X152327Y124786D01*
X152321Y124791D01*
X152249Y124852D01*
X152177Y124897D01*
X152099Y124924D01*
X152027Y124947D01*
X151960Y124958D01*
X151910Y124969D01*
D02*
G37*
G36*
X151916Y123376D02*
X151883D01*
X151761Y123365D01*
X151650Y123343D01*
X151550Y123304D01*
X151467Y123265D01*
X151400Y123221D01*
X151350Y123182D01*
X151322Y123159D01*
X151311Y123148D01*
X151233Y123059D01*
X151178Y122965D01*
X151139Y122871D01*
X151111Y122788D01*
X151095Y122704D01*
X151089Y122643D01*
X151084Y122621D01*
Y122604D01*
Y122593D01*
Y122588D01*
X151095Y122471D01*
X151117Y122360D01*
X151156Y122266D01*
X151195Y122188D01*
X151233Y122127D01*
X151272Y122077D01*
X151294Y122049D01*
X151305Y122038D01*
X151394Y121966D01*
X151483Y121911D01*
X151577Y121877D01*
X151666Y121850D01*
X151744Y121833D01*
X151811Y121827D01*
X151833Y121822D01*
X151866D01*
X151944Y121827D01*
X152022Y121839D01*
X152094Y121855D01*
X152155Y121872D01*
X152205Y121888D01*
X152243Y121905D01*
X152266Y121916D01*
X152277Y121922D01*
X152343Y121966D01*
X152399Y122011D01*
X152449Y122061D01*
X152488Y122110D01*
X152521Y122149D01*
X152543Y122183D01*
X152554Y122210D01*
X152560Y122216D01*
X152588Y122288D01*
X152610Y122355D01*
X152626Y122421D01*
X152638Y122482D01*
X152643Y122532D01*
X152649Y122571D01*
Y122593D01*
Y122604D01*
X152638Y122721D01*
X152615Y122826D01*
X152582Y122921D01*
X152538Y123004D01*
X152499Y123065D01*
X152465Y123115D01*
X152443Y123143D01*
X152432Y123154D01*
X152349Y123226D01*
X152254Y123282D01*
X152166Y123320D01*
X152077Y123348D01*
X151999Y123365D01*
X151938Y123370D01*
X151916Y123376D01*
D02*
G37*
G36*
X109289Y118513D02*
X108080D01*
X107930Y118508D01*
X107802Y118485D01*
X107691Y118458D01*
X107608Y118424D01*
X107536Y118391D01*
X107491Y118363D01*
X107463Y118341D01*
X107452Y118336D01*
X107386Y118263D01*
X107336Y118191D01*
X107302Y118114D01*
X107275Y118047D01*
X107264Y117980D01*
X107258Y117930D01*
X107253Y117897D01*
Y117892D01*
Y117886D01*
X107258Y117819D01*
X107269Y117753D01*
X107286Y117697D01*
X107302Y117648D01*
X107325Y117603D01*
X107341Y117570D01*
X107352Y117548D01*
X107358Y117542D01*
X107397Y117487D01*
X107447Y117437D01*
X107497Y117398D01*
X107547Y117364D01*
X107591Y117342D01*
X107624Y117325D01*
X107647Y117315D01*
X107658Y117309D01*
X107735Y117287D01*
X107824Y117270D01*
X107913Y117259D01*
X108002Y117253D01*
X108080Y117248D01*
X108146Y117242D01*
X109289D01*
Y118513D01*
D02*
G37*
G36*
X151872Y117176D02*
X151838D01*
X151722Y117165D01*
X151616Y117137D01*
X151528Y117104D01*
X151450Y117059D01*
X151389Y117015D01*
X151344Y116981D01*
X151317Y116954D01*
X151305Y116943D01*
X151233Y116848D01*
X151178Y116748D01*
X151139Y116643D01*
X151117Y116543D01*
X151100Y116454D01*
X151095Y116415D01*
Y116382D01*
X151089Y116354D01*
Y116332D01*
Y116321D01*
Y116315D01*
X151100Y116166D01*
X151122Y116038D01*
X151156Y115927D01*
X151195Y115833D01*
X151239Y115760D01*
X151272Y115705D01*
X151294Y115672D01*
X151305Y115666D01*
Y115661D01*
X151344Y115616D01*
X151389Y115583D01*
X151478Y115522D01*
X151566Y115483D01*
X151644Y115450D01*
X151716Y115433D01*
X151772Y115427D01*
X151794Y115422D01*
X151822D01*
X151899Y115427D01*
X151971Y115439D01*
X152038Y115461D01*
X152094Y115483D01*
X152144Y115500D01*
X152182Y115522D01*
X152205Y115533D01*
X152216Y115538D01*
X152282Y115588D01*
X152338Y115638D01*
X152388Y115699D01*
X152427Y115749D01*
X152460Y115799D01*
X152482Y115838D01*
X152499Y115866D01*
X152504Y115877D01*
X152538Y115960D01*
X152560Y116043D01*
X152582Y116121D01*
X152593Y116193D01*
X152599Y116254D01*
X152604Y116304D01*
Y116332D01*
Y116343D01*
X152593Y116476D01*
X152571Y116593D01*
X152532Y116698D01*
X152493Y116782D01*
X152454Y116854D01*
X152416Y116904D01*
X152393Y116931D01*
X152382Y116943D01*
X152293Y117020D01*
X152205Y117076D01*
X152110Y117120D01*
X152027Y117148D01*
X151949Y117165D01*
X151894Y117170D01*
X151872Y117176D01*
D02*
G37*
G36*
X156289Y118513D02*
X155079D01*
X154930Y118508D01*
X154802Y118485D01*
X154691Y118458D01*
X154608Y118424D01*
X154536Y118391D01*
X154491Y118363D01*
X154463Y118341D01*
X154452Y118336D01*
X154386Y118263D01*
X154336Y118191D01*
X154303Y118114D01*
X154275Y118047D01*
X154264Y117980D01*
X154258Y117930D01*
X154253Y117897D01*
Y117892D01*
Y117886D01*
X154258Y117819D01*
X154269Y117753D01*
X154286Y117697D01*
X154303Y117648D01*
X154325Y117603D01*
X154341Y117570D01*
X154352Y117548D01*
X154358Y117542D01*
X154397Y117487D01*
X154447Y117437D01*
X154497Y117398D01*
X154547Y117364D01*
X154591Y117342D01*
X154624Y117325D01*
X154647Y117315D01*
X154658Y117309D01*
X154735Y117287D01*
X154824Y117270D01*
X154913Y117259D01*
X155002Y117253D01*
X155079Y117248D01*
X155146Y117242D01*
X156289D01*
Y118513D01*
D02*
G37*
G36*
X109289Y112013D02*
X108080D01*
X107930Y112008D01*
X107802Y111986D01*
X107691Y111958D01*
X107608Y111925D01*
X107536Y111891D01*
X107491Y111863D01*
X107463Y111841D01*
X107452Y111836D01*
X107386Y111764D01*
X107336Y111691D01*
X107302Y111614D01*
X107275Y111547D01*
X107264Y111480D01*
X107258Y111431D01*
X107253Y111397D01*
Y111392D01*
Y111386D01*
X107258Y111319D01*
X107269Y111253D01*
X107286Y111197D01*
X107302Y111147D01*
X107325Y111103D01*
X107341Y111070D01*
X107352Y111048D01*
X107358Y111042D01*
X107397Y110986D01*
X107447Y110937D01*
X107497Y110898D01*
X107547Y110864D01*
X107591Y110842D01*
X107624Y110826D01*
X107647Y110814D01*
X107658Y110809D01*
X107735Y110787D01*
X107824Y110770D01*
X107913Y110759D01*
X108002Y110753D01*
X108080Y110748D01*
X108146Y110742D01*
X109289D01*
Y112013D01*
D02*
G37*
G36*
X156289D02*
X155079D01*
X154930Y112008D01*
X154802Y111986D01*
X154691Y111958D01*
X154608Y111925D01*
X154536Y111891D01*
X154491Y111863D01*
X154463Y111841D01*
X154452Y111836D01*
X154386Y111764D01*
X154336Y111691D01*
X154303Y111614D01*
X154275Y111547D01*
X154264Y111480D01*
X154258Y111431D01*
X154253Y111397D01*
Y111392D01*
Y111386D01*
X154258Y111319D01*
X154269Y111253D01*
X154286Y111197D01*
X154303Y111147D01*
X154325Y111103D01*
X154341Y111070D01*
X154352Y111048D01*
X154358Y111042D01*
X154397Y110986D01*
X154447Y110937D01*
X154497Y110898D01*
X154547Y110864D01*
X154591Y110842D01*
X154624Y110826D01*
X154647Y110814D01*
X154658Y110809D01*
X154735Y110787D01*
X154824Y110770D01*
X154913Y110759D01*
X155002Y110753D01*
X155079Y110748D01*
X155146Y110742D01*
X156289D01*
Y112013D01*
D02*
G37*
G36*
X151616Y111675D02*
Y109954D01*
X152826D01*
X151616Y111675D01*
D02*
G37*
G36*
X136086Y243854D02*
X134876D01*
X134727Y243848D01*
X134599Y243826D01*
X134488Y243798D01*
X134405Y243765D01*
X134333Y243732D01*
X134288Y243704D01*
X134260Y243682D01*
X134249Y243676D01*
X134183Y243604D01*
X134133Y243532D01*
X134099Y243454D01*
X134072Y243388D01*
X134061Y243321D01*
X134055Y243271D01*
X134049Y243238D01*
Y243232D01*
Y243227D01*
X134055Y243160D01*
X134066Y243093D01*
X134083Y243038D01*
X134099Y242988D01*
X134122Y242944D01*
X134138Y242910D01*
X134149Y242888D01*
X134155Y242882D01*
X134194Y242827D01*
X134244Y242777D01*
X134294Y242738D01*
X134344Y242705D01*
X134388Y242683D01*
X134421Y242666D01*
X134443Y242655D01*
X134455Y242649D01*
X134532Y242627D01*
X134621Y242611D01*
X134710Y242599D01*
X134799Y242594D01*
X134876Y242588D01*
X134943Y242583D01*
X136086D01*
Y243854D01*
D02*
G37*
G36*
X148067Y243985D02*
X146857D01*
X146707Y243979D01*
X146580Y243957D01*
X146468Y243929D01*
X146385Y243896D01*
X146313Y243863D01*
X146269Y243835D01*
X146241Y243813D01*
X146230Y243807D01*
X146163Y243735D01*
X146113Y243663D01*
X146080Y243585D01*
X146052Y243518D01*
X146041Y243452D01*
X146036Y243402D01*
X146030Y243369D01*
Y243363D01*
Y243357D01*
X146036Y243291D01*
X146047Y243224D01*
X146063Y243169D01*
X146080Y243119D01*
X146102Y243074D01*
X146119Y243041D01*
X146130Y243019D01*
X146135Y243013D01*
X146174Y242958D01*
X146224Y242908D01*
X146274Y242869D01*
X146324Y242836D01*
X146369Y242814D01*
X146402Y242797D01*
X146424Y242786D01*
X146435Y242780D01*
X146513Y242758D01*
X146602Y242741D01*
X146690Y242730D01*
X146779Y242725D01*
X146857Y242719D01*
X146924Y242714D01*
X148067D01*
Y243985D01*
D02*
G37*
G36*
X124715D02*
X123504D01*
X123355Y243979D01*
X123227Y243957D01*
X123116Y243929D01*
X123033Y243896D01*
X122961Y243863D01*
X122916Y243835D01*
X122889Y243813D01*
X122877Y243807D01*
X122811Y243735D01*
X122761Y243663D01*
X122728Y243585D01*
X122700Y243518D01*
X122689Y243452D01*
X122683Y243402D01*
X122678Y243369D01*
Y243363D01*
Y243357D01*
X122683Y243291D01*
X122694Y243224D01*
X122711Y243169D01*
X122728Y243119D01*
X122750Y243074D01*
X122766Y243041D01*
X122777Y243019D01*
X122783Y243013D01*
X122822Y242958D01*
X122872Y242908D01*
X122922Y242869D01*
X122972Y242836D01*
X123016Y242814D01*
X123049Y242797D01*
X123072Y242786D01*
X123083Y242780D01*
X123160Y242758D01*
X123249Y242741D01*
X123338Y242730D01*
X123427Y242725D01*
X123504Y242719D01*
X123571Y242714D01*
X124715D01*
Y243985D01*
D02*
G37*
%LPD*%
D10*
X116811Y173500D02*
G03*
X116811Y173500I-394J0D01*
G01*
X126496Y168500D02*
X158504D01*
X126496Y228500D02*
X158504D01*
X138315Y110315D02*
Y149685D01*
X146189Y110315D02*
Y149685D01*
X138315Y110315D02*
X146189D01*
X138315Y149685D02*
X146189D01*
X150654Y109346D02*
X157346D01*
X150654Y102654D02*
X157346D01*
X132154Y109346D02*
X138846D01*
X132154Y102654D02*
X138846D01*
X125346Y231039D02*
Y238961D01*
X118654Y231039D02*
Y238961D01*
X148346Y231039D02*
Y238961D01*
X141654Y231039D02*
Y238961D01*
X136846Y231039D02*
Y238961D01*
X130154Y231039D02*
Y238961D01*
D12*
X133492Y109153D02*
G03*
X133492Y109153I-492J0D01*
G01*
D13*
X100728Y213067D02*
Y213933D01*
X104272Y213067D02*
Y213933D01*
X155567Y234728D02*
X156433D01*
X155567Y238272D02*
X156433D01*
D61*
X154700Y159198D02*
Y154200D01*
X153700Y153200D01*
X151701D01*
X150701Y154200D01*
Y159198D01*
X148702Y153200D02*
X146703D01*
X147702D01*
Y159198D01*
X148702Y158198D01*
D76*
X142252Y113465D02*
G03*
X142252Y113465I-787J0D01*
G01*
M02*
