G04*
G04 #@! TF.GenerationSoftware,Altium Limited,Altium Designer,24.9.1 (31)*
G04*
G04 Layer_Physical_Order=1*
G04 Layer_Color=255*
%FSLAX25Y25*%
%MOIN*%
G70*
G04*
G04 #@! TF.SameCoordinates,F3BC3392-02DA-4331-AFF2-193CA699B933*
G04*
G04*
G04 #@! TF.FilePolarity,Positive*
G04*
G01*
G75*
%ADD14R,0.10827X0.03937*%
%ADD15O,0.10827X0.03937*%
%ADD16R,0.03110X0.03661*%
%ADD17R,0.00787X0.00787*%
%ADD18R,0.02756X0.02756*%
%ADD19R,0.03543X0.03543*%
%ADD20R,0.05906X0.03543*%
%ADD21R,0.03543X0.05906*%
%ADD22R,0.03150X0.03543*%
%ADD23R,0.03543X0.03150*%
%ADD24R,0.04331X0.03937*%
%ADD25R,0.03347X0.03347*%
%ADD26R,0.02593X0.03197*%
%ADD27R,0.03197X0.02593*%
%ADD28R,0.02756X0.03543*%
%ADD29R,0.03543X0.02756*%
%ADD30R,0.03937X0.05906*%
%ADD31R,0.02756X0.02756*%
%ADD32R,0.00787X0.00787*%
%ADD33R,0.03937X0.03937*%
G04:AMPARAMS|DCode=34|XSize=47.24mil|YSize=13.78mil|CornerRadius=4.13mil|HoleSize=0mil|Usage=FLASHONLY|Rotation=180.000|XOffset=0mil|YOffset=0mil|HoleType=Round|Shape=RoundedRectangle|*
%AMROUNDEDRECTD34*
21,1,0.04724,0.00551,0,0,180.0*
21,1,0.03898,0.01378,0,0,180.0*
1,1,0.00827,-0.01949,0.00276*
1,1,0.00827,0.01949,0.00276*
1,1,0.00827,0.01949,-0.00276*
1,1,0.00827,-0.01949,-0.00276*
%
%ADD34ROUNDEDRECTD34*%
G04:AMPARAMS|DCode=35|XSize=48.23mil|YSize=18.5mil|CornerRadius=4.16mil|HoleSize=0mil|Usage=FLASHONLY|Rotation=180.000|XOffset=0mil|YOffset=0mil|HoleType=Round|Shape=RoundedRectangle|*
%AMROUNDEDRECTD35*
21,1,0.04823,0.01018,0,0,180.0*
21,1,0.03990,0.01850,0,0,180.0*
1,1,0.00833,-0.01995,0.00509*
1,1,0.00833,0.01995,0.00509*
1,1,0.00833,0.01995,-0.00509*
1,1,0.00833,-0.01995,-0.00509*
%
%ADD35ROUNDEDRECTD35*%
%ADD36R,0.01181X0.07874*%
G04:AMPARAMS|DCode=37|XSize=13.78mil|YSize=35.43mil|CornerRadius=4.13mil|HoleSize=0mil|Usage=FLASHONLY|Rotation=180.000|XOffset=0mil|YOffset=0mil|HoleType=Round|Shape=RoundedRectangle|*
%AMROUNDEDRECTD37*
21,1,0.01378,0.02717,0,0,180.0*
21,1,0.00551,0.03543,0,0,180.0*
1,1,0.00827,-0.00276,0.01358*
1,1,0.00827,0.00276,0.01358*
1,1,0.00827,0.00276,-0.01358*
1,1,0.00827,-0.00276,-0.01358*
%
%ADD37ROUNDEDRECTD37*%
%ADD55R,0.06181X0.06181*%
%ADD56C,0.06181*%
%ADD66C,0.01000*%
%ADD67C,0.01500*%
%ADD68C,0.00700*%
%ADD69C,0.01200*%
%ADD70C,0.02500*%
%ADD71C,0.04000*%
%ADD72C,0.02000*%
%ADD73C,0.02500*%
%ADD74C,0.03000*%
%ADD75C,0.05000*%
%ADD76C,0.15748*%
G36*
X195796Y192076D02*
X195446Y191842D01*
X194974Y192037D01*
X194164D01*
X193415Y191727D01*
X193000Y191313D01*
X184240D01*
Y192898D01*
X184531Y193093D01*
X184845Y192963D01*
X185655D01*
X186404Y193273D01*
X186977Y193846D01*
X187287Y194595D01*
Y195405D01*
X186977Y196154D01*
X186404Y196727D01*
X185655Y197037D01*
X184845D01*
X184531Y196907D01*
X184240Y197102D01*
Y198687D01*
X184931D01*
X185346Y198273D01*
X186095Y197963D01*
X186905D01*
X187654Y198273D01*
X188227Y198846D01*
X188537Y199595D01*
Y200405D01*
X188227Y201154D01*
X187654Y201727D01*
X186905Y202037D01*
X186095D01*
X185346Y201727D01*
X184931Y201313D01*
X184240D01*
Y207441D01*
Y212441D01*
Y214187D01*
X184931D01*
X185346Y213773D01*
X186095Y213463D01*
X186905D01*
X187654Y213773D01*
X188227Y214346D01*
X188537Y215095D01*
Y215905D01*
X188227Y216654D01*
X187654Y217227D01*
X186905Y217537D01*
X186095D01*
X185346Y217227D01*
X184931Y216813D01*
X184240D01*
Y218687D01*
X184931D01*
X185346Y218273D01*
X186095Y217963D01*
X186905D01*
X187654Y218273D01*
X188227Y218846D01*
X188537Y219595D01*
Y220405D01*
X188227Y221154D01*
X187654Y221727D01*
X186905Y222037D01*
X186095D01*
X185346Y221727D01*
X184931Y221313D01*
X184240D01*
Y222441D01*
Y228687D01*
X184931D01*
X185346Y228273D01*
X186095Y227963D01*
X186905D01*
X187654Y228273D01*
X188227Y228846D01*
X188537Y229595D01*
Y230405D01*
X188227Y231154D01*
X187654Y231727D01*
X186905Y232037D01*
X186095D01*
X185346Y231727D01*
X184931Y231313D01*
X184240D01*
Y232228D01*
X184453D01*
Y234000D01*
X176547D01*
Y232228D01*
X176760D01*
Y227441D01*
Y222441D01*
Y217441D01*
Y212441D01*
Y207441D01*
Y202441D01*
Y197441D01*
Y192441D01*
Y187441D01*
Y182441D01*
Y177441D01*
Y172452D01*
X176688Y172385D01*
X176436Y172280D01*
X172567Y176149D01*
Y230000D01*
X172448Y230600D01*
X172108Y231108D01*
X171189Y232028D01*
X171007Y232149D01*
X170256Y232901D01*
X169977Y233573D01*
X169404Y234146D01*
X168655Y234457D01*
X167845D01*
X167096Y234146D01*
X166523Y233573D01*
X166213Y232824D01*
Y232014D01*
X166523Y231265D01*
X167096Y230692D01*
X167845Y230382D01*
X168341D01*
X168912Y229811D01*
X169093Y229690D01*
X169432Y229351D01*
Y209906D01*
X169082Y209757D01*
X168405Y210037D01*
X167595D01*
X166846Y209727D01*
X166273Y209154D01*
X165963Y208405D01*
Y207595D01*
X166273Y206846D01*
X166846Y206273D01*
X167595Y205963D01*
X168405D01*
X169082Y206243D01*
X169432Y206094D01*
Y200406D01*
X169082Y200257D01*
X168405Y200537D01*
X167595D01*
X166846Y200227D01*
X166273Y199654D01*
X165963Y198905D01*
Y198095D01*
X166273Y197346D01*
X166846Y196773D01*
X167595Y196463D01*
X168405D01*
X169082Y196743D01*
X169432Y196594D01*
Y176438D01*
X169109Y176304D01*
X166632Y178781D01*
Y179368D01*
X166322Y180117D01*
X165749Y180690D01*
X165000Y181000D01*
X164190D01*
X163441Y180690D01*
X163391Y180640D01*
X163067Y180774D01*
Y225351D01*
X164679Y226963D01*
X164905D01*
X165654Y227273D01*
X166227Y227846D01*
X166537Y228595D01*
Y229405D01*
X166227Y230154D01*
X165654Y230727D01*
X164905Y231037D01*
X164095D01*
X163346Y230727D01*
X162773Y230154D01*
X162463Y229405D01*
Y229179D01*
X160392Y227108D01*
X160052Y226600D01*
X159932Y226000D01*
Y177000D01*
X160052Y176400D01*
X160392Y175892D01*
X166984Y169299D01*
Y168819D01*
X126323D01*
Y169032D01*
X124551D01*
Y165079D01*
Y161126D01*
X126323D01*
Y161339D01*
X169525D01*
X169659Y161015D01*
X168850Y160207D01*
X157358D01*
X156856Y160107D01*
X156430Y159822D01*
X151877Y155269D01*
X151593Y154843D01*
X151493Y154341D01*
Y143797D01*
X151593Y143295D01*
X151877Y142869D01*
X152916Y141831D01*
Y133118D01*
X151886D01*
Y127882D01*
X155345D01*
X155540Y127591D01*
X155463Y127405D01*
Y126595D01*
X155773Y125846D01*
X156346Y125273D01*
X156363Y125266D01*
Y124916D01*
X156346Y124909D01*
X155773Y124336D01*
X155463Y123587D01*
Y122776D01*
X155773Y122027D01*
X156346Y121454D01*
X157095Y121144D01*
X157905D01*
X158654Y121454D01*
X159027Y121827D01*
X159375Y121793D01*
X159415Y121734D01*
X160397Y121078D01*
X161555Y120847D01*
X164000D01*
Y123874D01*
Y126901D01*
X161555D01*
X160397Y126670D01*
X159776Y126255D01*
X159493Y126487D01*
X159537Y126595D01*
Y127405D01*
X159227Y128154D01*
X158654Y128727D01*
X157905Y129037D01*
X157095D01*
X156862Y128941D01*
X156571Y129135D01*
Y133118D01*
X155541D01*
Y134833D01*
X155891Y134978D01*
X156346Y134523D01*
X157095Y134213D01*
X157905D01*
X158654Y134523D01*
X159227Y135096D01*
X159537Y135845D01*
Y136655D01*
X159227Y137404D01*
X158654Y137977D01*
X157905Y138287D01*
X157095D01*
X156346Y137977D01*
X155891Y137522D01*
X155541Y137667D01*
Y142374D01*
X155489Y142634D01*
X155812Y142807D01*
X155846Y142773D01*
X156595Y142463D01*
X157405D01*
X158154Y142773D01*
X158727Y143346D01*
X159037Y144095D01*
Y144905D01*
X158727Y145654D01*
X158154Y146227D01*
X157405Y146537D01*
X156595D01*
X155846Y146227D01*
X155273Y145654D01*
X154963Y144905D01*
Y144095D01*
X155036Y143919D01*
X154739Y143720D01*
X154118Y144341D01*
Y151301D01*
X154468Y151447D01*
X155150Y151164D01*
X155961D01*
X156710Y151475D01*
X157283Y152048D01*
X157593Y152797D01*
Y153607D01*
X157283Y154356D01*
X156710Y154929D01*
X156027Y155212D01*
X155883Y155563D01*
X157902Y157581D01*
X167013D01*
X167158Y157231D01*
X166763Y156837D01*
X166453Y156088D01*
Y155277D01*
X166763Y154528D01*
X167336Y153955D01*
X167861Y153738D01*
X167944Y153325D01*
X167773Y153154D01*
X167463Y152405D01*
Y151595D01*
X167773Y150846D01*
X167989Y150629D01*
X167856Y150306D01*
X161555D01*
X160480Y150092D01*
X159568Y149483D01*
X159372Y149190D01*
X159037Y149291D01*
Y149405D01*
X158727Y150154D01*
X158154Y150727D01*
X157405Y151037D01*
X156595D01*
X155846Y150727D01*
X155273Y150154D01*
X154963Y149405D01*
Y148595D01*
X155273Y147846D01*
X155846Y147273D01*
X156595Y146963D01*
X157405D01*
X158154Y147273D01*
X158409Y147528D01*
X158474Y147522D01*
X158766Y147390D01*
X158959Y146421D01*
X159568Y145509D01*
X160480Y144900D01*
X161555Y144686D01*
X168445D01*
X169520Y144900D01*
X169531Y144907D01*
X169773Y144654D01*
X169463Y143905D01*
Y143273D01*
X168592Y142403D01*
X168445Y142432D01*
X161555D01*
X160480Y142218D01*
X159568Y141609D01*
X158959Y140697D01*
X158745Y139622D01*
X158959Y138547D01*
X159568Y137635D01*
X160480Y137026D01*
X161555Y136812D01*
X166973D01*
X167193Y136462D01*
X166963Y135905D01*
Y135095D01*
X167064Y134849D01*
X166870Y134558D01*
X161555D01*
X160480Y134344D01*
X159568Y133735D01*
X158959Y132823D01*
X158745Y131748D01*
X158959Y130673D01*
X159568Y129761D01*
X160480Y129152D01*
X161555Y128938D01*
X168445D01*
X169520Y129152D01*
X170380Y129727D01*
X171392D01*
X171838Y129280D01*
X172587Y128970D01*
X173318D01*
X173583Y128697D01*
X173463Y128405D01*
Y127595D01*
X173773Y126846D01*
X174346Y126273D01*
X175095Y125963D01*
X175905D01*
X176018Y126009D01*
X176250Y125727D01*
X175731Y124949D01*
X175517Y123874D01*
X175731Y122799D01*
X176340Y121887D01*
X177251Y121278D01*
X178327Y121064D01*
X185216D01*
X186292Y121278D01*
X187203Y121887D01*
X187526Y122370D01*
X188679D01*
X188839Y122210D01*
X189587Y121900D01*
X190398D01*
X191147Y122210D01*
X191720Y122783D01*
X192030Y123532D01*
Y124342D01*
X191720Y125091D01*
X191147Y125664D01*
X190398Y125974D01*
X189587D01*
X188839Y125664D01*
X188679Y125505D01*
X187442D01*
X187203Y125861D01*
X186292Y126470D01*
X185216Y126684D01*
X178327D01*
X177370Y126494D01*
X177198Y126816D01*
X177227Y126846D01*
X177537Y127595D01*
Y128405D01*
X177459Y128595D01*
X177889Y129025D01*
X178327Y128938D01*
X185216D01*
X186292Y129152D01*
X187203Y129761D01*
X187812Y130673D01*
X188026Y131748D01*
X187812Y132823D01*
X187203Y133735D01*
X186292Y134344D01*
X185216Y134558D01*
X178327D01*
X177637Y134421D01*
X177385Y134728D01*
X177537Y135095D01*
Y135905D01*
X177329Y136408D01*
X177832Y136910D01*
X178327Y136812D01*
X185216D01*
X186292Y137026D01*
X187203Y137635D01*
X187812Y138547D01*
X188026Y139622D01*
X187812Y140697D01*
X187203Y141609D01*
X186292Y142218D01*
X185216Y142432D01*
X178327D01*
X177251Y142218D01*
X176340Y141609D01*
X175731Y140697D01*
X175517Y139622D01*
X175615Y139127D01*
X174583Y138095D01*
X174243Y137586D01*
X174128Y137010D01*
X173773Y136654D01*
X173463Y135905D01*
Y135095D01*
X173773Y134346D01*
X174346Y133773D01*
X175095Y133463D01*
X175737D01*
X175931Y133123D01*
X175731Y132823D01*
X175517Y131748D01*
X175627Y131196D01*
X175380Y130949D01*
X175030Y131094D01*
Y131413D01*
X174720Y132161D01*
X174147Y132735D01*
X173398Y133045D01*
X172587D01*
X172146Y132862D01*
X171015D01*
X170432Y133735D01*
X170404Y134022D01*
X170727Y134346D01*
X171037Y135095D01*
Y135905D01*
X170727Y136654D01*
X170273Y137108D01*
X170272Y137528D01*
X170432Y137635D01*
X171041Y138547D01*
X171255Y139622D01*
X171087Y140464D01*
X172213Y141590D01*
X172654Y141773D01*
X173227Y142346D01*
X173537Y143095D01*
Y143905D01*
X173227Y144654D01*
X172769Y145113D01*
X172914Y145463D01*
X173405D01*
X174154Y145773D01*
X174727Y146346D01*
X175037Y147095D01*
Y147905D01*
X174918Y148193D01*
X175215Y148391D01*
X175615Y147991D01*
X175517Y147496D01*
X175731Y146421D01*
X176340Y145509D01*
X177251Y144900D01*
X178327Y144686D01*
X185216D01*
X186292Y144900D01*
X187203Y145509D01*
X187812Y146421D01*
X188026Y147496D01*
X187812Y148571D01*
X187203Y149483D01*
X186292Y150092D01*
X185216Y150306D01*
X178327D01*
X177832Y150207D01*
X176056Y151983D01*
X175935Y152277D01*
X175362Y152850D01*
X174613Y153160D01*
X173802D01*
X173053Y152850D01*
X172480Y152277D01*
X172170Y151528D01*
Y150717D01*
X172480Y149968D01*
X172588Y149861D01*
X172469Y149485D01*
X171846Y149227D01*
X171684Y149065D01*
X170711D01*
X170432Y149483D01*
X170137Y149680D01*
X170176Y150075D01*
X170654Y150273D01*
X171227Y150846D01*
X171537Y151595D01*
Y152405D01*
X171227Y153154D01*
X170654Y153727D01*
X170129Y153945D01*
X170047Y154358D01*
X170217Y154528D01*
X170528Y155277D01*
Y156088D01*
X170217Y156837D01*
X169757Y157297D01*
X169854Y157673D01*
X169896Y157681D01*
X170322Y157966D01*
X173428Y161072D01*
X173713Y161498D01*
X173813Y162000D01*
Y170013D01*
X174136Y170147D01*
X175392Y168892D01*
X175900Y168552D01*
X176500Y168432D01*
X176760D01*
Y167441D01*
X184240D01*
Y172441D01*
Y177441D01*
Y182441D01*
Y188687D01*
X193000D01*
X193415Y188273D01*
X194164Y187963D01*
X194974D01*
X195446Y188158D01*
X195796Y187924D01*
Y98204D01*
X126081D01*
X125935Y98554D01*
X126227Y98846D01*
X126537Y99595D01*
Y100405D01*
X126227Y101154D01*
X126069Y101312D01*
Y105319D01*
X127181D01*
Y106106D01*
X127181D01*
Y110437D01*
X127181D01*
Y111107D01*
X127512Y111272D01*
X133392Y105392D01*
X133900Y105052D01*
X134500Y104932D01*
X160500D01*
X161100Y105052D01*
X161608Y105392D01*
X166108Y109892D01*
X166448Y110400D01*
X166568Y111000D01*
Y113190D01*
X168445D01*
X169520Y113404D01*
X170432Y114013D01*
X171041Y114925D01*
X171255Y116000D01*
X171041Y117075D01*
X170432Y117987D01*
X169520Y118596D01*
X168445Y118810D01*
X161555D01*
X160480Y118596D01*
X159568Y117987D01*
X158959Y117075D01*
X158745Y116000D01*
X158959Y114925D01*
X159568Y114013D01*
X160480Y113404D01*
X161555Y113190D01*
X163433D01*
Y111649D01*
X159851Y108068D01*
X135149D01*
X124454Y118763D01*
X123945Y119103D01*
X123346Y119222D01*
X119395D01*
X111117Y127500D01*
X111309Y127692D01*
X111649Y128201D01*
X111768Y128801D01*
Y128989D01*
X112092Y129123D01*
X116666Y124548D01*
X117092Y124264D01*
X117594Y124164D01*
X122638D01*
Y123051D01*
X124819D01*
Y122642D01*
X125016D01*
Y121461D01*
X124819D01*
Y121051D01*
X122638D01*
Y119673D01*
X124819D01*
Y119098D01*
X127181D01*
Y119673D01*
X127394D01*
Y120739D01*
X127909D01*
X133994Y114654D01*
X134420Y114369D01*
X134922Y114269D01*
X138327D01*
Y113563D01*
X138327D01*
X138412Y113436D01*
X138213Y112955D01*
Y112045D01*
X138561Y111204D01*
X139204Y110561D01*
X140045Y110213D01*
X140955D01*
X141796Y110561D01*
X142439Y111204D01*
X142787Y112045D01*
Y112955D01*
X142656Y113272D01*
X142851Y113563D01*
X143673D01*
Y113635D01*
X143997Y113768D01*
X144204Y113561D01*
X145045Y113213D01*
X145955D01*
X146796Y113561D01*
X147439Y114204D01*
X147787Y115045D01*
Y115955D01*
X147439Y116796D01*
X146796Y117439D01*
X146468Y117575D01*
Y117925D01*
X146796Y118061D01*
X147439Y118704D01*
X147787Y119545D01*
Y120455D01*
X147439Y121296D01*
X146796Y121939D01*
X145955Y122287D01*
X145045D01*
X144204Y121939D01*
X143811Y121546D01*
X143461Y121690D01*
Y123224D01*
X141417D01*
X141283Y123548D01*
X141439Y123704D01*
X141787Y124545D01*
Y125455D01*
X141439Y126296D01*
X141074Y126661D01*
X141143Y127004D01*
X141614Y127199D01*
X142258Y127843D01*
X142606Y128683D01*
Y129593D01*
X142258Y130434D01*
X141614Y131078D01*
X140774Y131426D01*
X140677D01*
X140607Y131776D01*
X141296Y132061D01*
X141939Y132704D01*
X142287Y133545D01*
Y134455D01*
X141939Y135296D01*
X141296Y135939D01*
X140692Y136189D01*
X140610Y136602D01*
X140939Y136931D01*
X141287Y137771D01*
Y138681D01*
X140939Y139522D01*
X140537Y139924D01*
X140619Y140337D01*
X141159Y140561D01*
X141803Y141204D01*
X142151Y142045D01*
Y142955D01*
X141803Y143796D01*
X141159Y144439D01*
X140319Y144787D01*
X139409D01*
X138568Y144439D01*
X137925Y143796D01*
X137576Y142955D01*
Y142045D01*
X137925Y141204D01*
X138327Y140802D01*
X138245Y140389D01*
X137704Y140166D01*
X137061Y139522D01*
X136713Y138681D01*
Y137918D01*
X136612Y137585D01*
X136472Y137437D01*
X136338Y137437D01*
X135988Y137509D01*
Y139618D01*
X134610D01*
Y137437D01*
X134201D01*
Y137240D01*
Y135075D01*
X134610D01*
Y134862D01*
X135988D01*
Y135075D01*
X136563D01*
Y137123D01*
X136563Y137218D01*
X136790Y137263D01*
X137019Y137032D01*
X137061Y136931D01*
X137704Y136287D01*
X138307Y136037D01*
X138390Y135625D01*
X138061Y135296D01*
X137713Y134455D01*
Y133545D01*
X138061Y132704D01*
X138704Y132061D01*
X139545Y131713D01*
X139642D01*
X139711Y131363D01*
X139023Y131078D01*
X138379Y130434D01*
X138031Y129593D01*
Y128683D01*
X138379Y127843D01*
X138744Y127478D01*
X138676Y127135D01*
X138204Y126939D01*
X137561Y126296D01*
X137213Y125455D01*
Y124545D01*
X137561Y123704D01*
X137893Y123372D01*
X137776Y122994D01*
X137645Y122969D01*
X134209Y126405D01*
X133783Y126689D01*
X133281Y126789D01*
X118138D01*
X112957Y131970D01*
Y137595D01*
X107445D01*
Y130114D01*
X108633D01*
Y129537D01*
X108495D01*
X107746Y129227D01*
X107173Y128654D01*
X106863Y127905D01*
Y127095D01*
X107173Y126346D01*
X107746Y125773D01*
X108495Y125463D01*
X108721D01*
X109431Y124752D01*
X109297Y124429D01*
X107693D01*
Y125004D01*
X105331D01*
X105313Y125346D01*
Y138187D01*
X116605D01*
X117107Y138287D01*
X117533Y138572D01*
X117928Y138967D01*
X118213Y139393D01*
X118313Y139895D01*
Y165956D01*
X120456Y168100D01*
X120780Y167966D01*
Y166079D01*
X122551D01*
Y169032D01*
X121845D01*
X121711Y169355D01*
X124544Y172187D01*
X151931D01*
X152346Y171773D01*
X153095Y171463D01*
X153905D01*
X154654Y171773D01*
X155227Y172346D01*
X155537Y173095D01*
Y173905D01*
X155227Y174654D01*
X154654Y175227D01*
X153905Y175537D01*
X153095D01*
X152346Y175227D01*
X151931Y174813D01*
X124000D01*
X123498Y174713D01*
X123072Y174428D01*
X116072Y167428D01*
X115787Y167002D01*
X115687Y166500D01*
Y140813D01*
X104395D01*
X103893Y140713D01*
X103467Y140428D01*
X103072Y140033D01*
X102787Y139607D01*
X102687Y139105D01*
Y110566D01*
X102787Y110063D01*
X103072Y109637D01*
X104838Y107871D01*
X105264Y107587D01*
X105331Y107574D01*
Y106106D01*
X105331D01*
Y105319D01*
X107693D01*
Y106106D01*
X109661D01*
Y110437D01*
X107693D01*
Y111224D01*
X105331D01*
X105313Y111567D01*
Y118756D01*
X105331Y119098D01*
X107693D01*
Y119673D01*
X109874D01*
Y121051D01*
X107693D01*
Y121461D01*
X107496D01*
Y122642D01*
X107693D01*
Y123051D01*
X109874D01*
Y123852D01*
X110197Y123986D01*
X117637Y116546D01*
X118146Y116206D01*
X118746Y116087D01*
X122696D01*
X127228Y111555D01*
X127064Y111224D01*
X124819D01*
Y110437D01*
X122851D01*
Y106106D01*
X123444D01*
Y101768D01*
X123346Y101727D01*
X122773Y101154D01*
X122463Y100405D01*
Y99595D01*
X122773Y98846D01*
X123064Y98554D01*
X122919Y98204D01*
X98204D01*
Y316296D01*
X195796D01*
Y192076D01*
D02*
G37*
%LPC*%
G36*
X152319Y309468D02*
X150154D01*
Y307500D01*
X152319D01*
Y309468D01*
D02*
G37*
G36*
X148153D02*
X145988D01*
Y307500D01*
X148153D01*
Y309468D01*
D02*
G37*
G36*
X115622Y307772D02*
X114047D01*
Y306000D01*
X115622D01*
Y307772D01*
D02*
G37*
G36*
X112047D02*
X110472D01*
Y306000D01*
X112047D01*
Y307772D01*
D02*
G37*
G36*
X158799Y309256D02*
X152894D01*
Y304067D01*
X152319D01*
Y305500D01*
X149153D01*
X145988D01*
Y303966D01*
X145900Y303948D01*
X145392Y303608D01*
X138737Y296954D01*
X138397Y296445D01*
X138277Y295845D01*
Y293845D01*
X137595Y293162D01*
X137272Y293296D01*
Y296528D01*
X135500D01*
Y293953D01*
X133500D01*
Y296528D01*
X132042D01*
X131869Y296528D01*
X131720Y296874D01*
X132097Y297251D01*
X132284Y297532D01*
X133846D01*
Y300500D01*
Y303468D01*
X132284D01*
X132097Y303749D01*
X129918Y305928D01*
X129492Y306213D01*
X128990Y306313D01*
X121315D01*
Y307559D01*
X116591D01*
Y302441D01*
X121315D01*
Y303687D01*
X128220D01*
X128275Y303606D01*
X128090Y303256D01*
X125201D01*
Y301994D01*
X115875D01*
X115622Y302228D01*
X115622Y302344D01*
Y304000D01*
X110472D01*
Y302344D01*
X110472Y302228D01*
X110220Y301994D01*
X104542D01*
X103942Y301874D01*
X103433Y301535D01*
X102447Y300548D01*
X102107Y300039D01*
X101988Y299440D01*
Y277445D01*
X102107Y276845D01*
X102447Y276337D01*
X109892Y268892D01*
X110400Y268552D01*
X111000Y268432D01*
X131500D01*
X132100Y268552D01*
X132608Y268892D01*
X136108Y272392D01*
X136448Y272900D01*
X136567Y273500D01*
Y278686D01*
X136727Y278846D01*
X137037Y279595D01*
Y280405D01*
X136727Y281154D01*
X136154Y281727D01*
X135405Y282037D01*
X134595D01*
X133846Y281727D01*
X133686Y281568D01*
X130886D01*
Y281748D01*
X126114D01*
Y277580D01*
X130886D01*
Y278432D01*
X133432D01*
Y274149D01*
X130851Y271568D01*
X111649D01*
X106530Y276687D01*
X106664Y277010D01*
X106960D01*
X107709Y277320D01*
X108282Y277893D01*
X108592Y278642D01*
Y279261D01*
X109412Y280080D01*
X109696Y280506D01*
X109789Y280972D01*
X111981D01*
X112219Y280397D01*
Y279968D01*
X112319Y279466D01*
X112603Y279040D01*
X113725Y277919D01*
X113875Y277819D01*
Y276500D01*
X116172D01*
X118468D01*
Y277534D01*
X119416D01*
Y276975D01*
X119322Y276749D01*
X119416Y276522D01*
Y273114D01*
X121906D01*
X122362Y273023D01*
X126114D01*
Y272252D01*
X130886D01*
Y276420D01*
X126114D01*
Y275648D01*
X123584D01*
Y277886D01*
X123825Y278136D01*
X124154Y278273D01*
X124727Y278846D01*
X125037Y279595D01*
Y280405D01*
X124727Y281154D01*
X124154Y281727D01*
X124094Y281872D01*
X124261Y282275D01*
Y283292D01*
X123879Y284214D01*
X123621Y284321D01*
Y284671D01*
X123880Y284778D01*
X124260Y285697D01*
Y286248D01*
X124344Y286373D01*
X125039D01*
Y286276D01*
X129961D01*
Y286480D01*
X131941D01*
Y285685D01*
X137059D01*
Y288193D01*
X140954Y292087D01*
X141293Y292596D01*
X141413Y293195D01*
Y295196D01*
X147149Y300933D01*
X152779D01*
X152945Y300624D01*
X152624Y300145D01*
X152408Y299057D01*
Y296082D01*
X152065Y296049D01*
X152014Y296267D01*
X151948Y296600D01*
X151608Y297108D01*
X151100Y297448D01*
X150500Y297568D01*
X149900Y297448D01*
X149392Y297108D01*
X149356Y297073D01*
X149016Y296564D01*
X148897Y295965D01*
X149016Y295365D01*
X149050Y295314D01*
Y294114D01*
X148839D01*
Y290177D01*
X150429D01*
Y289177D01*
X151429D01*
Y284240D01*
X152020D01*
Y289150D01*
X152032Y289213D01*
X152020Y289275D01*
Y294114D01*
X151879D01*
Y295297D01*
X151948Y295400D01*
X151990Y295613D01*
X152395Y295851D01*
X152398Y295850D01*
Y290339D01*
X157909D01*
X158030Y290039D01*
Y288514D01*
X157890Y288193D01*
X153992D01*
X153073Y287813D01*
X152692Y286894D01*
Y286343D01*
X152986Y285634D01*
X152692Y284925D01*
Y284374D01*
X152846Y284003D01*
X152582Y283725D01*
X152122D01*
X151203Y283344D01*
X150822Y282425D01*
Y279709D01*
X151203Y278790D01*
X151254Y278533D01*
X151167Y278446D01*
X150913Y277833D01*
X150534Y277717D01*
X149692Y278559D01*
Y278878D01*
X150036Y279709D01*
Y282425D01*
X149655Y283344D01*
X148736Y283725D01*
X148276D01*
X148012Y284003D01*
X148166Y284374D01*
Y284925D01*
X147872Y285634D01*
X148166Y286343D01*
Y286894D01*
X147785Y287813D01*
X147577Y287899D01*
Y290339D01*
X148461D01*
Y295850D01*
X142949D01*
Y290339D01*
X143423D01*
Y288193D01*
X142968D01*
X142050Y287813D01*
X141669Y286894D01*
Y286343D01*
X141962Y285634D01*
X141669Y284925D01*
Y284374D01*
X142050Y283455D01*
X142308Y283348D01*
Y282998D01*
X142050Y282891D01*
X141668Y281969D01*
Y281354D01*
X141480Y281166D01*
X141120Y280295D01*
X141120Y280295D01*
Y278087D01*
X138370D01*
Y273362D01*
X143488D01*
Y276723D01*
X143582Y276949D01*
Y279649D01*
X146910D01*
X147230Y278878D01*
Y278049D01*
X147230Y278049D01*
X147590Y277178D01*
X148075Y276694D01*
X147941Y276370D01*
X144968D01*
Y274772D01*
X147265D01*
X149615D01*
X149885Y274884D01*
X150509Y274259D01*
Y271386D01*
X154677D01*
X154677Y271386D01*
X154997Y271313D01*
X155870Y270440D01*
Y267850D01*
X160988D01*
Y272181D01*
X157611D01*
X156780Y273012D01*
X156925Y273362D01*
X160988D01*
Y276041D01*
X162008D01*
Y274713D01*
X166339D01*
Y279831D01*
X162008D01*
Y278503D01*
X161335D01*
X159132Y280706D01*
X159094Y280721D01*
X159190Y280952D01*
Y281969D01*
X158849Y282793D01*
X159013Y283143D01*
X160969D01*
Y282547D01*
X165890D01*
Y282751D01*
X168370D01*
Y281957D01*
X173488D01*
Y282751D01*
X177319D01*
X177559Y282799D01*
X177909Y282522D01*
Y280000D01*
X181000D01*
Y283090D01*
X178802D01*
X178657Y283440D01*
X180599Y285383D01*
X181229Y285122D01*
X182771D01*
X184197Y285712D01*
X185288Y286803D01*
X185878Y288229D01*
Y289771D01*
X185288Y291197D01*
X184197Y292288D01*
X182771Y292878D01*
X181229D01*
X179803Y292288D01*
X178712Y291197D01*
X178122Y289771D01*
Y288229D01*
X178383Y287599D01*
X176670Y285887D01*
X173488D01*
Y286681D01*
X168370D01*
Y285887D01*
X165890D01*
Y286862D01*
X166102D01*
Y288535D01*
X163429D01*
Y289535D01*
X162429D01*
Y292209D01*
X161165D01*
Y302046D01*
X161130Y302226D01*
X161452Y302399D01*
X162138Y301713D01*
X163346Y301213D01*
X164654D01*
X165862Y301713D01*
X166787Y302638D01*
X167287Y303846D01*
Y305154D01*
X166787Y306362D01*
X165862Y307287D01*
X164654Y307787D01*
X163346D01*
X162138Y307287D01*
X161213Y306362D01*
X161152Y306214D01*
X160768Y306162D01*
X160220Y306710D01*
X159712Y307050D01*
X159112Y307169D01*
X158799D01*
Y309256D01*
D02*
G37*
G36*
X138012Y303468D02*
X135846D01*
Y301500D01*
X138012D01*
Y303468D01*
D02*
G37*
G36*
Y299500D02*
X135846D01*
Y297532D01*
X138012D01*
Y299500D01*
D02*
G37*
G36*
X173701Y292799D02*
X171929D01*
Y291224D01*
X173701D01*
Y292799D01*
D02*
G37*
G36*
X169929D02*
X168157D01*
Y291224D01*
X169929D01*
Y292799D01*
D02*
G37*
G36*
X166102Y292209D02*
X164429D01*
Y290535D01*
X166102D01*
Y292209D01*
D02*
G37*
G36*
X173701Y289224D02*
X171929D01*
Y287650D01*
X173701D01*
Y289224D01*
D02*
G37*
G36*
X169929D02*
X168157D01*
Y287650D01*
X169929D01*
Y289224D01*
D02*
G37*
G36*
X149429Y288177D02*
X148839D01*
Y284240D01*
X149429D01*
Y288177D01*
D02*
G37*
G36*
X186091Y283090D02*
X183000D01*
Y280000D01*
X186091D01*
Y283090D01*
D02*
G37*
G36*
X172063Y280043D02*
X170685D01*
Y278272D01*
X172063D01*
Y280043D01*
D02*
G37*
G36*
X168685D02*
X167307D01*
Y278272D01*
X168685D01*
Y280043D01*
D02*
G37*
G36*
X186091Y278000D02*
X183000D01*
Y274909D01*
X186091D01*
Y278000D01*
D02*
G37*
G36*
X181000D02*
X177909D01*
Y274909D01*
X181000D01*
Y278000D01*
D02*
G37*
G36*
X172063Y276272D02*
X170685D01*
Y274500D01*
X172063D01*
Y276272D01*
D02*
G37*
G36*
X168685D02*
X167307D01*
Y274500D01*
X168685D01*
Y276272D01*
D02*
G37*
G36*
X118468Y274500D02*
X117172D01*
Y272901D01*
X118468D01*
Y274500D01*
D02*
G37*
G36*
X115172D02*
X113875D01*
Y272901D01*
X115172D01*
Y274500D01*
D02*
G37*
G36*
X149562Y272772D02*
X148265D01*
Y271173D01*
X149562D01*
Y272772D01*
D02*
G37*
G36*
X146265D02*
X144968D01*
Y271173D01*
X146265D01*
Y272772D01*
D02*
G37*
G36*
X143701Y272394D02*
X141929D01*
Y270819D01*
X143701D01*
Y272394D01*
D02*
G37*
G36*
X139929D02*
X138157D01*
Y270819D01*
X139929D01*
Y272394D01*
D02*
G37*
G36*
X143701Y268819D02*
X141929D01*
Y267244D01*
X143701D01*
Y268819D01*
D02*
G37*
G36*
X139929D02*
X138157D01*
Y267244D01*
X139929D01*
Y268819D01*
D02*
G37*
G36*
X184453Y237772D02*
X181500D01*
Y236000D01*
X184453D01*
Y237772D01*
D02*
G37*
G36*
X179500D02*
X176547D01*
Y236000D01*
X179500D01*
Y237772D01*
D02*
G37*
G36*
X110602D02*
X107650D01*
Y236000D01*
X110602D01*
Y237772D01*
D02*
G37*
G36*
X182000Y265000D02*
X110000D01*
Y238500D01*
X114899D01*
X114963Y238405D01*
Y237772D01*
X112602D01*
Y236000D01*
X115555D01*
Y236106D01*
X115905Y236248D01*
X116595Y235963D01*
X117405D01*
X118154Y236273D01*
X118727Y236846D01*
X119037Y237595D01*
Y238405D01*
X119101Y238500D01*
X182000D01*
Y265000D01*
D02*
G37*
G36*
X118405Y234537D02*
X117595D01*
X116846Y234227D01*
X116273Y233654D01*
X115963Y232905D01*
Y232616D01*
X115905Y232578D01*
X115555Y232765D01*
Y234000D01*
X107650D01*
Y232228D01*
X107862D01*
Y231480D01*
X105825D01*
X105453Y231852D01*
X104613Y232200D01*
X103703D01*
X102862Y231852D01*
X102218Y231208D01*
X101870Y230368D01*
Y229458D01*
X102218Y228617D01*
X102862Y227974D01*
X103703Y227625D01*
X104613D01*
X105453Y227974D01*
X105825Y228345D01*
X107862D01*
Y222441D01*
Y217441D01*
Y212441D01*
Y207441D01*
Y202441D01*
Y197441D01*
Y192441D01*
Y186313D01*
X106584D01*
X106300Y186256D01*
X106082Y186213D01*
X106082Y186213D01*
X106081Y186213D01*
X105856Y186062D01*
X105656Y185928D01*
X105114Y185387D01*
X105114Y185386D01*
X105114Y185386D01*
X104972Y185175D01*
X104829Y184961D01*
X104829Y184961D01*
X104829Y184960D01*
X104780Y184714D01*
X104729Y184458D01*
X104729Y184458D01*
X104729Y184458D01*
Y154958D01*
X104829Y154456D01*
X105114Y154030D01*
X106746Y152398D01*
X107172Y152113D01*
X107445Y152059D01*
Y149405D01*
X112957D01*
Y156886D01*
X107445D01*
X107354Y157198D01*
Y183687D01*
X107862D01*
Y177441D01*
Y172441D01*
Y167441D01*
X115343D01*
Y172441D01*
Y177441D01*
Y182441D01*
Y185395D01*
X115693Y185629D01*
X116095Y185463D01*
X116905D01*
X117654Y185773D01*
X118227Y186346D01*
X118537Y187095D01*
Y187905D01*
X118227Y188654D01*
X117813Y189069D01*
Y204462D01*
X118428Y205077D01*
X118713Y205503D01*
X118813Y206005D01*
Y223105D01*
X118713Y223607D01*
X118428Y224033D01*
X117272Y225189D01*
X117313Y225395D01*
Y229956D01*
X117819Y230463D01*
X118405D01*
X119154Y230773D01*
X119727Y231346D01*
X120037Y232095D01*
Y232905D01*
X119727Y233654D01*
X119154Y234227D01*
X118405Y234537D01*
D02*
G37*
G36*
X155745Y226787D02*
X154437D01*
X153228Y226287D01*
X152304Y225362D01*
X151803Y224154D01*
Y222846D01*
X152304Y221638D01*
X153228Y220713D01*
X154437Y220213D01*
X155745D01*
X156953Y220713D01*
X157878Y221638D01*
X158378Y222846D01*
Y224154D01*
X157878Y225362D01*
X156953Y226287D01*
X155745Y226787D01*
D02*
G37*
G36*
X130654D02*
X129346D01*
X128138Y226287D01*
X127213Y225362D01*
X126713Y224154D01*
Y222846D01*
X127213Y221638D01*
X128138Y220713D01*
X129346Y220213D01*
X130654D01*
X131862Y220713D01*
X132787Y221638D01*
X133287Y222846D01*
Y224154D01*
X132787Y225362D01*
X131862Y226287D01*
X130654Y226787D01*
D02*
G37*
G36*
X148429Y212890D02*
X146657D01*
Y211118D01*
X148429D01*
Y212890D01*
D02*
G37*
G36*
X133634D02*
X131862D01*
Y211118D01*
X133634D01*
Y212890D01*
D02*
G37*
G36*
X144657D02*
X141146D01*
Y210118D01*
X139146D01*
Y212890D01*
X135634D01*
Y210118D01*
X134634D01*
Y209118D01*
X131862D01*
Y207347D01*
Y205606D01*
X134634D01*
Y203606D01*
X131862D01*
Y201835D01*
Y200094D01*
X134634D01*
Y199094D01*
X135634D01*
Y196323D01*
X139146D01*
Y199094D01*
X141146D01*
Y196323D01*
X144657D01*
Y199094D01*
X145657D01*
Y200094D01*
X148429D01*
Y201835D01*
Y203606D01*
X145657D01*
Y205606D01*
X148429D01*
Y207347D01*
Y209118D01*
X145657D01*
Y210118D01*
X144657D01*
Y212890D01*
D02*
G37*
G36*
X148429Y198094D02*
X146657D01*
Y196323D01*
X148429D01*
Y198094D01*
D02*
G37*
G36*
X133634D02*
X131862D01*
Y196323D01*
X133634D01*
Y198094D01*
D02*
G37*
G36*
X122551Y164079D02*
X120780D01*
Y161126D01*
X122551D01*
Y164079D01*
D02*
G37*
G36*
X125768Y157098D02*
X123799D01*
Y154146D01*
X125768D01*
Y157098D01*
D02*
G37*
G36*
X121799D02*
X119831D01*
Y154146D01*
X121799D01*
Y157098D01*
D02*
G37*
G36*
X135988Y157138D02*
X134610D01*
Y156925D01*
X134201D01*
Y154760D01*
Y154563D01*
X134610D01*
Y152382D01*
X135988D01*
Y154563D01*
X136563D01*
Y156925D01*
X135988D01*
Y157138D01*
D02*
G37*
G36*
X132610D02*
X131232D01*
Y156925D01*
X130657D01*
Y154563D01*
X131232D01*
Y152382D01*
X132610D01*
Y154563D01*
X133020D01*
Y154760D01*
Y156925D01*
X132610D01*
Y157138D01*
D02*
G37*
G36*
X125768Y152146D02*
X123799D01*
Y149193D01*
X125768D01*
Y152146D01*
D02*
G37*
G36*
X121799D02*
X119831D01*
Y149193D01*
X121799D01*
Y152146D01*
D02*
G37*
G36*
X140319Y149787D02*
X139409D01*
X138568Y149439D01*
X137925Y148796D01*
X137576Y147955D01*
Y147045D01*
X137925Y146204D01*
X138568Y145561D01*
X139409Y145213D01*
X140319D01*
X141159Y145561D01*
X141803Y146204D01*
X142151Y147045D01*
Y147955D01*
X141803Y148796D01*
X141159Y149439D01*
X140319Y149787D01*
D02*
G37*
G36*
X132610Y139618D02*
X131232D01*
Y137437D01*
X130657D01*
Y135075D01*
X131232D01*
Y134862D01*
X132610D01*
Y135075D01*
X133020D01*
Y137240D01*
Y137437D01*
X132610D01*
Y139618D01*
D02*
G37*
G36*
X125555Y137595D02*
X120043D01*
Y130114D01*
X125555D01*
Y137595D01*
D02*
G37*
G36*
X149555Y156925D02*
X145224D01*
Y156925D01*
X144437D01*
Y154563D01*
X145224D01*
Y152594D01*
X145822D01*
Y139406D01*
X145224D01*
Y137437D01*
X144437D01*
Y135075D01*
X145224D01*
Y135075D01*
X145822D01*
Y134287D01*
X145942Y133687D01*
X146088Y133468D01*
X145901Y133118D01*
X145429D01*
Y127882D01*
X150114D01*
Y133118D01*
X149339D01*
Y133906D01*
X149220Y134505D01*
X149073Y134725D01*
X149260Y135075D01*
X149555D01*
Y135075D01*
X150343D01*
Y137437D01*
X149555D01*
Y139406D01*
X148957D01*
Y152594D01*
X149555D01*
Y154563D01*
X150343D01*
Y156925D01*
X149555D01*
Y156925D01*
D02*
G37*
G36*
X168445Y126901D02*
X166000D01*
Y124874D01*
X171273D01*
X171241Y125032D01*
X170585Y126014D01*
X169603Y126670D01*
X168445Y126901D01*
D02*
G37*
G36*
X171273Y122874D02*
X166000D01*
Y120847D01*
X168445D01*
X169603Y121078D01*
X170585Y121734D01*
X171241Y122716D01*
X171273Y122874D01*
D02*
G37*
G36*
X187972Y118756D02*
X175571D01*
Y113244D01*
X187972D01*
Y114433D01*
X188679D01*
X188839Y114273D01*
X189587Y113963D01*
X190398D01*
X191147Y114273D01*
X191720Y114846D01*
X192030Y115595D01*
Y116405D01*
X191720Y117154D01*
X191147Y117727D01*
X190398Y118037D01*
X189587D01*
X188839Y117727D01*
X188679Y117568D01*
X187972D01*
Y118756D01*
D02*
G37*
G36*
X156283Y116991D02*
X155473D01*
X154724Y116681D01*
X154151Y116108D01*
X153841Y115359D01*
Y114548D01*
X154151Y113799D01*
X154724Y113226D01*
X155473Y112916D01*
X156283D01*
X157032Y113226D01*
X157606Y113799D01*
X157916Y114548D01*
Y115359D01*
X157606Y116108D01*
X157032Y116681D01*
X156283Y116991D01*
D02*
G37*
G36*
X157905Y112787D02*
X157095D01*
X156346Y112477D01*
X155773Y111904D01*
X155463Y111155D01*
Y110345D01*
X155773Y109596D01*
X156346Y109023D01*
X157095Y108713D01*
X157905D01*
X158654Y109023D01*
X159227Y109596D01*
X159537Y110345D01*
Y111155D01*
X159227Y111904D01*
X158654Y112477D01*
X157905Y112787D01*
D02*
G37*
G36*
X157405Y104037D02*
X156595D01*
X155846Y103727D01*
X155273Y103154D01*
X154963Y102405D01*
Y101595D01*
X155273Y100846D01*
X155846Y100273D01*
X156595Y99963D01*
X157405D01*
X158154Y100273D01*
X158727Y100846D01*
X159037Y101595D01*
Y102405D01*
X158727Y103154D01*
X158154Y103727D01*
X157405Y104037D01*
D02*
G37*
G36*
X138905D02*
X138095D01*
X137346Y103727D01*
X136773Y103154D01*
X136463Y102405D01*
Y101595D01*
X136773Y100846D01*
X137346Y100273D01*
X138095Y99963D01*
X138905D01*
X139654Y100273D01*
X140227Y100846D01*
X140537Y101595D01*
Y102405D01*
X140227Y103154D01*
X139654Y103727D01*
X138905Y104037D01*
D02*
G37*
%LPD*%
D14*
X181772Y116000D02*
D03*
D15*
Y123874D02*
D03*
Y131748D02*
D03*
Y139622D02*
D03*
Y147496D02*
D03*
X165000Y116000D02*
D03*
Y123874D02*
D03*
Y131748D02*
D03*
Y139622D02*
D03*
Y147496D02*
D03*
D16*
X154228Y130500D02*
D03*
X147772D02*
D03*
D17*
X149161Y155744D02*
D03*
X145618D02*
D03*
X149161Y136256D02*
D03*
X145618D02*
D03*
X135382Y155744D02*
D03*
X131839D02*
D03*
X135382Y136256D02*
D03*
X131839D02*
D03*
D18*
X147390Y154760D02*
D03*
Y137240D02*
D03*
X133610Y154760D02*
D03*
Y137240D02*
D03*
D19*
X145657Y199094D02*
D03*
X140146D02*
D03*
X134634D02*
D03*
X145657Y204606D02*
D03*
X140146D02*
D03*
X134634D02*
D03*
X145657Y210118D02*
D03*
X140146D02*
D03*
X134634D02*
D03*
D20*
X180500Y235000D02*
D03*
Y230000D02*
D03*
Y225000D02*
D03*
Y220000D02*
D03*
Y215000D02*
D03*
Y210000D02*
D03*
Y205000D02*
D03*
Y200000D02*
D03*
Y195000D02*
D03*
Y190000D02*
D03*
Y185000D02*
D03*
Y180000D02*
D03*
Y175000D02*
D03*
Y170000D02*
D03*
X111602D02*
D03*
Y175000D02*
D03*
Y180000D02*
D03*
Y185000D02*
D03*
Y190000D02*
D03*
Y195000D02*
D03*
Y200000D02*
D03*
Y205000D02*
D03*
Y210000D02*
D03*
Y215000D02*
D03*
Y220000D02*
D03*
Y225000D02*
D03*
Y230000D02*
D03*
Y235000D02*
D03*
D21*
X168551Y165079D02*
D03*
X163551D02*
D03*
X158551D02*
D03*
X153551D02*
D03*
X148551D02*
D03*
X143551D02*
D03*
X138551D02*
D03*
X133551D02*
D03*
X128551D02*
D03*
X123551D02*
D03*
D22*
X113047Y305000D02*
D03*
X118953D02*
D03*
D23*
X134500Y288047D02*
D03*
Y293953D02*
D03*
X170929Y284319D02*
D03*
Y290224D02*
D03*
X140929Y269819D02*
D03*
Y275724D02*
D03*
D24*
X134846Y300500D02*
D03*
X128154D02*
D03*
X149153Y306500D02*
D03*
X155847D02*
D03*
D25*
X127500Y293264D02*
D03*
Y288736D02*
D03*
X163429Y289535D02*
D03*
Y285008D02*
D03*
X141000Y116236D02*
D03*
Y120764D02*
D03*
D26*
X121500Y275500D02*
D03*
X116172D02*
D03*
X152593Y273772D02*
D03*
X147265D02*
D03*
D27*
X128500Y274336D02*
D03*
Y279664D02*
D03*
D28*
X164173Y277272D02*
D03*
X169685D02*
D03*
D29*
X158429Y275528D02*
D03*
Y270016D02*
D03*
D30*
X122799Y153146D02*
D03*
X110201D02*
D03*
Y133854D02*
D03*
X122799D02*
D03*
D31*
X107496Y122051D02*
D03*
X125016D02*
D03*
X107496Y108272D02*
D03*
X125016D02*
D03*
D32*
X106512Y123823D02*
D03*
Y120280D02*
D03*
X126000Y123823D02*
D03*
Y120280D02*
D03*
X106512Y110043D02*
D03*
Y106500D02*
D03*
X126000Y110043D02*
D03*
Y106500D02*
D03*
D33*
X110776Y294417D02*
D03*
X120224D02*
D03*
X155154Y293094D02*
D03*
X145705D02*
D03*
D34*
X109988Y287941D02*
D03*
Y285972D02*
D03*
X121012Y287941D02*
D03*
Y285972D02*
D03*
X155941Y284650D02*
D03*
Y286618D02*
D03*
X144917Y284650D02*
D03*
Y286618D02*
D03*
D35*
X110037Y282784D02*
D03*
X120963D02*
D03*
X155892Y281461D02*
D03*
X144966D02*
D03*
D36*
X115500Y290500D02*
D03*
X150429Y289177D02*
D03*
D37*
X113531Y282390D02*
D03*
X117469D02*
D03*
X152398Y281067D02*
D03*
X148461D02*
D03*
D55*
X182000Y279000D02*
D03*
D56*
Y289000D02*
D03*
D66*
X106555Y279048D02*
Y279080D01*
X108483Y281008D01*
X118579Y280197D02*
X122749D01*
X122946Y280000D01*
X123000D01*
X117469Y281307D02*
Y282390D01*
Y281307D02*
X118579Y280197D01*
X113532Y279968D02*
Y282390D01*
X120153Y278847D02*
X121447Y277553D01*
Y275855D02*
Y277553D01*
X114653Y278847D02*
X120153D01*
X121447Y275553D02*
X121500Y275500D01*
X121447Y275553D02*
Y275855D01*
X121500Y275198D02*
Y275500D01*
X133281Y125476D02*
X137257Y121500D01*
X117594Y125476D02*
X133281D01*
X137257Y121500D02*
X140264D01*
X180500Y190000D02*
X194569D01*
X180500Y195000D02*
X185250D01*
X117469Y282390D02*
Y288431D01*
X119590Y290553D01*
X152894Y277292D02*
X152963Y277360D01*
X156203D02*
X158036Y275528D01*
X152963Y277360D02*
X156203D01*
X157358Y158894D02*
X169394D01*
X152805Y154341D02*
X157358Y158894D01*
X152805Y143797D02*
Y154341D01*
Y143797D02*
X154228Y142374D01*
Y130500D02*
Y142374D01*
X171500Y143094D02*
Y143500D01*
X172706Y131294D02*
X172993Y131007D01*
X165000Y131748D02*
X165454Y131294D01*
X165000Y139622D02*
X168028D01*
X140264Y121500D02*
X141000Y120764D01*
X164595Y178963D02*
X172500Y171057D01*
Y162000D02*
Y171057D01*
X116500Y205005D02*
X117500Y206005D01*
X116500Y187500D02*
Y205005D01*
X117500Y206005D02*
Y223105D01*
X115605Y225000D02*
X117500Y223105D01*
X111515Y229913D02*
X111602Y230000D01*
X178976Y147496D02*
X181772D01*
X134634Y204606D02*
X140146D01*
X145657D01*
X158036Y275528D02*
X158429D01*
X128189Y293953D02*
X134500D01*
X127500Y293264D02*
X128189Y293953D01*
X128990Y305000D02*
X131169Y302821D01*
X118953Y305000D02*
X128990D01*
X108483Y281008D02*
Y282358D01*
X108909Y282784D02*
X110037D01*
X108483Y282358D02*
X108909Y282784D01*
X131169Y298179D02*
Y302821D01*
X128500Y279664D02*
X128626Y279538D01*
X116000Y230500D02*
X118000Y232500D01*
X116000Y225395D02*
Y230500D01*
X115605Y225000D02*
X116000Y225395D01*
X121500Y275198D02*
X122362Y274336D01*
X128500D01*
X119590Y290553D02*
X122855D01*
X124977Y292675D02*
Y295289D01*
X130671Y297681D02*
X131169Y298179D01*
X122855Y290553D02*
X124977Y292675D01*
Y295289D02*
X127369Y297681D01*
X130671D01*
X128083Y287941D02*
X128189Y288047D01*
X126705Y287941D02*
X127500Y288736D01*
X155941Y286618D02*
X156130Y286807D01*
X113532Y279968D02*
X114653Y278847D01*
X111602Y225000D02*
X115605D01*
X125016Y122051D02*
X128453D01*
X134922Y115582D01*
X140346D01*
X141000Y116236D01*
X110201Y132870D02*
X117594Y125476D01*
X104000Y110566D02*
X105766Y108800D01*
X104000Y110566D02*
Y139105D01*
X104395Y139500D01*
X116605D01*
X117000Y139895D02*
Y166500D01*
X116605Y139500D02*
X117000Y139895D01*
Y166500D02*
X124000Y173500D01*
X106968Y108800D02*
X107496Y108272D01*
X105766Y108800D02*
X106968D01*
X181000Y215500D02*
X186500D01*
X180500Y215000D02*
X181000Y215500D01*
X180500Y220000D02*
X186500D01*
X169394Y158894D02*
X172500Y162000D01*
X124756Y100895D02*
Y108012D01*
X124500Y100000D02*
X124691Y100191D01*
Y100830D02*
X124756Y100895D01*
X124691Y100191D02*
Y100830D01*
X124756Y108012D02*
X125016Y108272D01*
X124000Y173500D02*
X153500D01*
X106042Y154958D02*
Y184458D01*
Y154958D02*
X107674Y153326D01*
X110021D01*
X106042Y184458D02*
X106584Y185000D01*
X111602D01*
X180500Y230000D02*
X186500D01*
X180500Y200000D02*
X186500D01*
D67*
X103555Y277445D02*
X111000Y270000D01*
X103555Y277445D02*
Y299440D01*
X104542Y300426D01*
X175691Y129044D02*
X178395Y131748D01*
X181772D01*
X175500Y128000D02*
X175691Y128191D01*
Y129044D01*
X150429Y289177D02*
X150465Y289213D01*
Y295965D02*
X150500Y296000D01*
X159598Y286453D02*
Y302046D01*
Y284742D02*
Y286453D01*
X155941Y286618D02*
X159433D01*
X159598Y286453D01*
X159567Y284711D02*
X163132D01*
X156002D02*
X159567D01*
X155941Y284650D02*
X156002Y284711D01*
X163132D02*
X163429Y285008D01*
X110500Y290793D02*
Y294142D01*
X109988Y290281D02*
X110500Y290793D01*
X109988Y287941D02*
Y290281D01*
X104542Y300426D02*
X120583D01*
Y294776D02*
Y300426D01*
X128080D01*
X155250Y299057D02*
X155347Y299153D01*
X155154Y293094D02*
X155250Y293191D01*
X146500Y302500D02*
X159144D01*
X139845Y295845D02*
X146500Y302500D01*
X159112Y305601D02*
X160213Y304500D01*
X164000D01*
X155847Y306500D02*
X156745Y305601D01*
X159112D01*
X165002Y147498D02*
X172998D01*
X173000Y147500D01*
X165000Y147496D02*
X165002Y147498D01*
X174207Y151122D02*
X174399Y150931D01*
X174891D01*
X178327Y147496D01*
X178976D01*
X168028Y139622D02*
X171500Y143094D01*
X175691Y136987D02*
X178327Y139622D01*
X175500Y135500D02*
X175691Y135691D01*
X178327Y139622D02*
X181772D01*
X175691Y135691D02*
Y136987D01*
X165454Y131294D02*
X172706D01*
X123346Y117654D02*
X134500Y106500D01*
X118746Y117654D02*
X123346D01*
X134500Y106500D02*
X160500D01*
X170080Y230920D02*
X171000Y230000D01*
X170020Y230920D02*
X170080D01*
X168521Y232419D02*
X170020Y230920D01*
X168250Y232419D02*
X168521D01*
X161500Y226000D02*
X164500Y229000D01*
X161500Y177000D02*
Y226000D01*
Y177000D02*
X168551Y169949D01*
Y165079D02*
Y169949D01*
X171000Y175500D02*
X176500Y170000D01*
X171000Y175500D02*
Y230000D01*
X104158Y229913D02*
X111515D01*
X181835Y123937D02*
X189993D01*
X181772Y123874D02*
X181835Y123937D01*
X165000Y111000D02*
Y116000D01*
X160500Y106500D02*
X165000Y111000D01*
X108900Y127500D02*
X118746Y117654D01*
X110201Y132870D02*
Y133854D01*
Y128801D02*
Y132870D01*
X108900Y127500D02*
X110201Y128801D01*
X129088Y280000D02*
X135000D01*
Y273500D02*
Y280000D01*
X128626Y279538D02*
X129088Y280000D01*
X131500Y270000D02*
X135000Y273500D01*
X111000Y270000D02*
X131500D01*
X121012Y287941D02*
X126705D01*
X128189Y288047D02*
X134500D01*
X139845Y293195D02*
Y295845D01*
X134697Y288047D02*
X139845Y293195D01*
X170929Y284319D02*
X177319D01*
X164118D02*
X170929D01*
X177319D02*
X182000Y289000D01*
X147390Y137240D02*
Y154760D01*
Y134287D02*
X147772Y133906D01*
X147390Y134287D02*
Y137240D01*
X147772Y130500D02*
Y133906D01*
X181772Y116000D02*
X189993D01*
X176500Y170000D02*
X180500D01*
X110021Y153326D02*
X110201Y153146D01*
D68*
X121500Y275500D02*
Y275802D01*
X121447Y275855D02*
X121500Y275802D01*
X120553Y276749D02*
X121447Y275855D01*
X110500Y294142D02*
X110776Y294417D01*
X158261Y279835D02*
X160825Y277272D01*
X148461Y278049D02*
Y281067D01*
Y278049D02*
X152593Y273916D01*
X153434Y279835D02*
X158261D01*
X152398Y280170D02*
X152675Y279892D01*
X153378D02*
X153434Y279835D01*
X152593Y273772D02*
Y273916D01*
X152675Y279892D02*
X153378D01*
X152593Y273772D02*
X152596Y273769D01*
X113532Y282390D02*
X113831Y282090D01*
Y280945D02*
Y282090D01*
X144917Y286618D02*
X145500Y287201D01*
X160825Y277272D02*
X164173D01*
X142351Y276949D02*
Y280295D01*
X140929Y275724D02*
X141126D01*
X142351Y276949D01*
Y280295D02*
X143516Y281461D01*
X144967D01*
X155799Y272253D02*
Y272253D01*
X152596Y273769D02*
X154282D01*
X155799Y272253D01*
Y272253D02*
X158036Y270016D01*
X158429D01*
X134500Y288047D02*
X134697D01*
D69*
X150465Y289213D02*
Y295965D01*
X159567Y284711D02*
X159598Y284742D01*
X159144Y302500D02*
X159598Y302046D01*
X129335Y224165D02*
X130000Y223500D01*
X155941Y284650D02*
X155950Y284640D01*
X163429Y285008D02*
X164118Y284319D01*
D70*
X115500Y290500D02*
Y297000D01*
X145500Y287201D02*
Y293000D01*
D71*
X155250Y293191D02*
Y299057D01*
D72*
X121012Y285972D02*
Y287941D01*
D73*
X106555Y279048D02*
D03*
X123000Y280000D02*
D03*
X157500Y127000D02*
D03*
Y123181D02*
D03*
X169000Y135500D02*
D03*
X168490Y155683D02*
D03*
X169500Y152000D02*
D03*
X157000Y144500D02*
D03*
Y149000D02*
D03*
X175500Y128000D02*
D03*
X155878Y114953D02*
D03*
X194569Y190000D02*
D03*
X185250Y195000D02*
D03*
X115500Y297000D02*
D03*
X150500Y296000D02*
D03*
X155347Y299153D02*
D03*
X152894Y277292D02*
D03*
X155555Y153202D02*
D03*
X174207Y151122D02*
D03*
X173000Y147500D02*
D03*
X171500Y143500D02*
D03*
X175500Y135500D02*
D03*
X172993Y131007D02*
D03*
X168250Y232419D02*
D03*
X164595Y178963D02*
D03*
X168000Y198500D02*
D03*
Y208000D02*
D03*
X116500Y187500D02*
D03*
X189993Y123937D02*
D03*
X157500Y110750D02*
D03*
X108900Y127500D02*
D03*
X135000Y280000D02*
D03*
X117000Y238000D02*
D03*
X118000Y232500D02*
D03*
X138500Y102000D02*
D03*
X157000D02*
D03*
X186500Y200000D02*
D03*
Y215500D02*
D03*
Y220000D02*
D03*
X124500Y100000D02*
D03*
X153500Y173500D02*
D03*
X157500Y136250D02*
D03*
X164500Y229000D02*
D03*
X189993Y116000D02*
D03*
X186500Y230000D02*
D03*
D74*
X139500Y125000D02*
D03*
X140319Y129138D02*
D03*
X145946Y124195D02*
D03*
X145500Y115500D02*
D03*
Y120000D02*
D03*
X140500Y112500D02*
D03*
X140000Y134000D02*
D03*
X139864Y142500D02*
D03*
X139000Y138226D02*
D03*
X139864Y147500D02*
D03*
X104158Y229913D02*
D03*
D75*
X164000Y304500D02*
D03*
X155091Y223500D02*
D03*
X130000D02*
D03*
D76*
X184000Y306500D02*
D03*
M02*
